<?xml version="1.0" ?>
<svg baseProfile="full" height="1024" version="1.1" viewBox="0 0 1024 1024" width="1024" xmlns="http://www.w3.org/2000/svg" xmlns:ev="http://www.w3.org/2001/xml-events" xmlns:xlink="http://www.w3.org/1999/xlink">
	<defs/>
	<path d="M 225.0,313.0 Q 238.0,376.0 244.0,408.0 L 247.0,431.0 Q 251.0,473.0 253.0,513.0 L 255.0,540.0 Q 258.0,604.0 261.0,613.0 C 265.0,640.0 265.0,640.0 257.0,645.0 Q 253.0,649.0 249.0,651.0 L 236.0,658.0 Q 199.0,676.0 187.0,670.0 Q 177.0,663.0 183.0,651.0 Q 202.0,627.0 203.0,562.0 Q 203.0,394.0 173.0,283.0 Q 146.0,199.0 81.0,77.0 Q 77.0,70.0 75.0,65.0 Q 74.0,55.0 83.0,57.0 Q 114.0,64.0 178.0,181.0 Q 187.0,202.0 198.0,226.0 Q 208.0,256.0 218.0,288.0 L 225.0,313.0" fill="black" stroke="#000000"/>
</svg>
