<?xml version="1.0" ?>
<svg baseProfile="full" height="1024" version="1.1" viewBox="0 0 1024 1024" width="1024" xmlns="http://www.w3.org/2000/svg" xmlns:ev="http://www.w3.org/2001/xml-events" xmlns:xlink="http://www.w3.org/1999/xlink">
	<defs/>
	<path d="M 463.0,291.0 Q 469.0,90.0 450.0,74.0 Q 444.0,70.0 361.0,87.0 Q 349.0,90.0 350.0,82.0 Q 351.0,76.0 361.0,69.0 Q 434.0,8.0 458.0,-27.0 Q 471.0,-43.0 486.0,-30.0 Q 520.0,1.0 519.0,70.0 Q 513.0,125.0 512.0,270.0 Q 513.0,304.0 524.0,329.0 Q 533.0,347.0 517.0,359.0 Q 492.0,380.0 464.0,390.0 Q 446.0,396.0 439.0,389.0 Q 433.0,382.0 443.0,368.0 Q 465.0,331.0 463.0,291.0" fill="black" stroke="#000000"/>
</svg>
