<?xml version="1.0" ?>
<svg baseProfile="full" height="1024" version="1.1" viewBox="0 0 1024 1024" width="1024" xmlns="http://www.w3.org/2000/svg" xmlns:ev="http://www.w3.org/2001/xml-events" xmlns:xlink="http://www.w3.org/1999/xlink">
	<defs/>
	<path d="M 590.0,254.0 Q 670.0,302.0 858.0,302.0 Q 878.0,304.0 889.0,294.0 Q 896.0,288.0 894.0,269.0 L 890.0,245.0 Q 862.0,74.0 832.0,34.0 Q 824.0,25.0 805.0,25.0 L 802.0,25.0 Q 735.0,48.0 735.0,39.0 Q 735.0,35.0 742.0,27.0 Q 787.0,-18.0 804.0,-51.0 Q 810.0,-71.0 828.0,-61.0 Q 888.0,-34.0 901.0,32.0 Q 920.0,108.0 940.0,219.0 Q 949.0,256.0 964.0,282.0 Q 972.0,292.0 970.0,302.0 Q 966.0,318.0 916.0,347.0 Q 898.0,359.0 870.0,347.0 Q 829.0,331.0 789.0,327.0 Q 740.0,323.0 621.0,304.0 Q 597.0,297.0 595.0,319.0 C 575.0,341.0 563.0,240.0 590.0,254.0" fill="black" stroke="#000000"/>
</svg>
