<?xml version="1.0" ?>
<svg baseProfile="full" height="1024" version="1.1" viewBox="0 0 1024 1024" width="1024" xmlns="http://www.w3.org/2000/svg" xmlns:ev="http://www.w3.org/2001/xml-events" xmlns:xlink="http://www.w3.org/1999/xlink">
	<defs/>
	<path d="M 378.0,715.0 Q 335.0,734.0 321.0,731.0 Q 300.0,727.0 318.0,704.0 Q 357.0,647.0 346.0,416.0 Q 346.0,413.0 346.0,407.0 L 341.0,358.0 Q 314.0,181.0 206.0,63.0 Q 151.0,5.0 149.0,0.0 Q 148.0,-7.0 160.0,-6.0 Q 176.0,-5.0 197.0,11.0 Q 252.0,53.0 285.0,93.0 Q 372.0,198.0 391.0,366.0 L 396.0,413.0 Q 405.0,512.0 401.0,647.0 Q 405.0,672.0 406.0,684.0 C 408.0,703.0 406.0,704.0 378.0,715.0" fill="black" stroke="#000000"/>
</svg>
