<?xml version="1.0" ?>
<svg baseProfile="full" height="1024" version="1.1" viewBox="0 0 1024 1024" width="1024" xmlns="http://www.w3.org/2000/svg" xmlns:ev="http://www.w3.org/2001/xml-events" xmlns:xlink="http://www.w3.org/1999/xlink">
	<defs/>
	<path d="M 398.0,568.0 Q 441.0,547.0 495.0,561.0 Q 585.0,582.0 678.0,602.0 Q 721.0,612.0 727.0,619.0 Q 737.0,628.0 731.0,636.0 Q 724.0,648.0 694.0,655.0 Q 666.0,661.0 573.0,628.0 Q 486.0,604.0 405.0,594.0 Q 402.0,594.0 402.0,593.0 C 373.0,588.0 370.0,580.0 398.0,568.0" fill="black" stroke="#000000"/>
	<path d="M 360.0,348.0 Q 453.0,399.0 692.0,424.0 Q 720.0,427.0 731.0,417.0 Q 752.0,395.0 742.0,350.0 Q 727.0,256.0 686.0,129.0 Q 676.0,102.0 654.0,88.0 Q 645.0,85.0 563.0,106.0 Q 544.0,116.0 543.0,106.0 Q 542.0,96.0 562.0,78.0 Q 599.0,32.0 614.0,-6.0 Q 635.0,-40.0 662.0,-20.0 Q 720.0,16.0 746.0,73.0 Q 759.0,115.0 801.0,325.0 Q 808.0,374.0 831.0,396.0 Q 847.0,412.0 840.0,424.0 Q 828.0,437.0 776.0,465.0 Q 746.0,480.0 669.0,461.0 Q 548.0,446.0 398.0,409.0 Q 373.0,406.0 379.0,422.0 Q 388.0,504.0 398.0,568.0 L 402.0,593.0 Q 420.0,699.0 441.0,758.0 Q 448.0,776.0 438.0,788.0 Q 420.0,804.0 403.0,812.0 Q 378.0,821.0 369.0,816.0 Q 359.0,810.0 367.0,796.0 Q 376.0,780.0 375.0,758.0 Q 365.0,595.0 335.0,456.0 Q 334.0,438.0 299.0,402.0 Q 287.0,386.0 296.0,373.0 Q 306.0,360.0 330.0,344.0 Q 342.0,335.0 360.0,348.0" fill="black" stroke="#000000"/>
	<path d="M 417.0,224.0 Q 576.0,245.0 654.0,241.0 Q 676.0,240.0 682.0,249.0 Q 689.0,262.0 676.0,273.0 Q 645.0,297.0 602.0,312.0 Q 589.0,316.0 564.0,307.0 Q 522.0,295.0 479.0,286.0 Q 346.0,265.0 256.0,247.0 Q 214.0,238.0 151.0,233.0 Q 138.0,232.0 138.0,221.0 Q 138.0,209.0 157.0,197.0 Q 173.0,187.0 204.0,177.0 Q 214.0,174.0 232.0,183.0 Q 242.0,187.0 286.0,197.0 Q 344.0,213.0 417.0,224.0" fill="black" stroke="#000000"/>
</svg>
