<?xml version="1.0" ?>
<svg baseProfile="full" height="1024" version="1.1" viewBox="0 0 1024 1024" width="1024" xmlns="http://www.w3.org/2000/svg" xmlns:ev="http://www.w3.org/2001/xml-events" xmlns:xlink="http://www.w3.org/1999/xlink">
	<defs/>
	<path d="M 537.0,701.0 Q 642.0,734.0 700.0,737.0 Q 719.0,736.0 725.0,743.0 Q 731.0,755.0 719.0,769.0 Q 697.0,791.0 651.0,817.0 Q 635.0,827.0 619.0,828.0 Q 610.0,825.0 608.0,813.0 Q 602.0,762.0 315.0,681.0 Q 308.0,672.0 314.0,667.0 Q 324.0,667.0 479.0,689.0 L 537.0,701.0" fill="black" stroke="#000000"/>
	<path d="M 493.0,552.0 Q 426.0,536.0 346.0,526.0 Q 306.0,519.0 335.0,500.0 Q 383.0,473.0 449.0,491.0 Q 468.0,497.0 494.0,501.0 L 547.0,513.0 Q 727.0,558.0 735.0,564.0 Q 745.0,573.0 740.0,583.0 Q 731.0,596.0 698.0,603.0 Q 664.0,610.0 630.0,595.0 Q 591.0,582.0 551.0,568.0 L 493.0,552.0" fill="black" stroke="#000000"/>
	<path d="M 479.0,689.0 Q 491.0,671.0 493.0,586.0 Q 493.0,571.0 493.0,552.0 L 494.0,501.0 Q 494.0,438.0 496.0,370.0 C 497.0,340.0 540.0,347.0 541.0,377.0 Q 544.0,449.0 547.0,513.0 L 551.0,568.0 Q 555.0,640.0 563.0,655.0 Q 573.0,673.0 561.0,685.0 Q 549.0,695.0 537.0,701.0 C 511.0,716.0 467.0,716.0 479.0,689.0" fill="black" stroke="#000000"/>
</svg>
