<?xml version="1.0" ?>
<svg baseProfile="full" height="1024" version="1.1" viewBox="0 0 1024 1024" width="1024" xmlns="http://www.w3.org/2000/svg" xmlns:ev="http://www.w3.org/2001/xml-events" xmlns:xlink="http://www.w3.org/1999/xlink">
	<defs/>
	<path d="M 429.0,100.0 Q 420.0,511.0 436.0,595.0 Q 440.0,622.0 425.0,637.0 Q 400.0,659.0 368.0,670.0 Q 352.0,677.0 341.0,670.0 Q 332.0,663.0 339.0,646.0 Q 370.0,573.0 380.0,496.0 Q 386.0,417.0 383.0,96.0 C 383.0,66.0 430.0,70.0 429.0,100.0" fill="black" stroke="#000000"/>
	<path d="M 603.0,112.0 Q 615.0,346.0 622.0,559.0 Q 628.0,611.0 633.0,647.0 Q 642.0,678.0 647.0,701.0 Q 651.0,713.0 628.0,730.0 Q 589.0,751.0 563.0,755.0 Q 545.0,759.0 536.0,749.0 Q 527.0,742.0 537.0,725.0 Q 571.0,670.0 571.0,634.0 Q 578.0,390.0 558.0,108.0 C 556.0,78.0 601.0,82.0 603.0,112.0" fill="black" stroke="#000000"/>
</svg>
