<?xml version="1.0" ?>
<svg baseProfile="full" height="1024" version="1.1" viewBox="0 0 1024 1024" width="1024" xmlns="http://www.w3.org/2000/svg" xmlns:ev="http://www.w3.org/2001/xml-events" xmlns:xlink="http://www.w3.org/1999/xlink">
	<defs/>
	<path d="M 429.0,100.0 Q 420.0,511.0 436.0,595.0 Q 440.0,622.0 425.0,637.0 Q 400.0,659.0 368.0,670.0 Q 352.0,677.0 341.0,670.0 Q 332.0,663.0 339.0,646.0 Q 370.0,573.0 380.0,496.0 Q 386.0,417.0 383.0,96.0 C 383.0,66.0 430.0,70.0 429.0,100.0" fill="black" stroke="#000000"/>
	<path d="M 603.0,112.0 Q 615.0,346.0 622.0,559.0 Q 628.0,611.0 633.0,647.0 Q 642.0,678.0 647.0,701.0 Q 651.0,713.0 628.0,730.0 Q 589.0,751.0 563.0,755.0 Q 545.0,759.0 536.0,749.0 Q 527.0,742.0 537.0,725.0 Q 571.0,670.0 571.0,634.0 Q 578.0,390.0 558.0,108.0 C 556.0,78.0 601.0,82.0 603.0,112.0" fill="black" stroke="#000000"/>
	<path d="M 210.0,369.0 Q 241.0,336.0 273.0,297.0 Q 286.0,281.0 302.0,280.0 Q 314.0,280.0 321.0,293.0 Q 328.0,308.0 322.0,340.0 Q 315.0,379.0 211.0,419.0 Q 195.0,425.0 188.0,423.0 Q 182.0,419.0 182.0,406.0 Q 185.0,394.0 210.0,369.0" fill="black" stroke="#000000"/>
	<path d="M 769.0,478.0 Q 735.0,423.0 667.0,336.0 Q 660.0,327.0 667.0,319.0 Q 677.0,318.0 686.0,323.0 Q 804.0,419.0 862.0,455.0 Q 884.0,462.0 879.0,476.0 Q 870.0,495.0 846.0,518.0 Q 821.0,540.0 792.0,541.0 Q 773.0,540.0 776.0,515.0 Q 780.0,499.0 769.0,478.0" fill="black" stroke="#000000"/>
	<path d="M 517.0,57.0 Q 569.0,58.0 620.0,62.0 Q 752.0,72.0 894.0,52.0 Q 919.0,48.0 926.0,57.0 Q 935.0,72.0 922.0,85.0 Q 846.0,161.0 792.0,135.0 Q 750.0,129.0 603.0,112.0 L 558.0,108.0 Q 515.0,107.0 486.0,103.0 Q 455.0,102.0 429.0,100.0 L 383.0,96.0 Q 334.0,95.0 303.0,90.0 Q 236.0,81.0 134.0,84.0 Q 119.0,85.0 117.0,72.0 Q 116.0,59.0 136.0,43.0 Q 184.0,7.0 220.0,19.0 Q 278.0,34.0 407.0,48.0 Q 458.0,54.0 517.0,57.0" fill="black" stroke="#000000"/>
</svg>
