<?xml version="1.0" ?>
<svg baseProfile="full" height="1024" version="1.1" viewBox="0 0 1024 1024" width="1024" xmlns="http://www.w3.org/2000/svg" xmlns:ev="http://www.w3.org/2001/xml-events" xmlns:xlink="http://www.w3.org/1999/xlink">
	<defs/>
	<path d="M 385.0,753.0 Q 388.0,786.0 400.0,808.0 Q 403.0,813.0 396.0,821.0 Q 390.0,827.0 386.0,830.0 Q 359.0,848.0 337.0,853.0 Q 329.0,855.0 321.0,852.0 L 318.0,849.0 Q 311.0,842.0 318.0,829.0 Q 327.0,812.0 329.0,802.0 Q 333.0,729.0 332.0,645.0 C 332.0,615.0 364.0,623.0 369.0,653.0 L 380.0,725.0 L 385.0,753.0" fill="black" stroke="#000000"/>
	<path d="M 380.0,725.0 L 392.0,725.0 Q 448.0,739.0 484.0,747.0 L 486.0,747.0 Q 502.0,753.0 498.0,760.0 L 496.0,764.0 Q 483.0,776.0 460.0,778.0 Q 419.0,778.0 385.0,753.0 C 361.0,736.0 350.0,725.0 380.0,725.0" fill="black" stroke="#000000"/>
	<path d="M 190.0,613.0 Q 176.0,642.0 168.0,649.0 Q 157.0,658.0 153.0,651.0 Q 150.0,647.0 149.0,639.0 Q 153.0,613.0 133.0,583.0 Q 120.0,564.0 106.0,550.0 Q 96.0,533.0 102.0,509.0 L 110.0,488.0 L 114.0,480.0 Q 124.0,466.0 133.0,471.0 Q 138.0,473.0 143.0,482.0 Q 155.0,500.0 168.0,533.0 Q 176.0,565.0 186.0,589.0 C 193.0,607.0 193.0,607.0 190.0,613.0" fill="black" stroke="#000000"/>
	<path d="M 332.0,645.0 Q 296.0,639.0 254.0,628.0 Q 192.0,614.0 190.0,613.0 C 161.0,606.0 156.0,594.0 186.0,589.0 Q 197.0,585.0 215.0,587.0 Q 222.0,588.0 237.0,591.0 Q 312.0,621.0 455.0,643.0 Q 479.0,648.0 488.0,647.0 L 490.0,647.0 Q 500.0,640.0 498.0,632.0 L 476.0,559.0 Q 480.0,557.0 489.0,561.0 Q 494.0,563.0 499.0,566.0 Q 542.0,597.0 580.0,608.0 Q 610.0,614.0 610.0,623.0 Q 606.0,633.0 546.0,672.0 Q 534.0,682.0 494.0,677.0 Q 474.0,675.0 449.0,668.0 Q 416.0,665.0 369.0,653.0 L 332.0,645.0" fill="black" stroke="#000000"/>
	<path d="M 263.0,547.0 Q 245.0,543.0 246.0,537.0 Q 247.0,533.0 255.0,528.0 Q 274.0,517.0 312.0,521.0 Q 325.0,521.0 349.0,526.0 L 404.0,539.0 Q 419.0,543.0 421.0,545.0 Q 427.0,551.0 425.0,557.0 L 424.0,559.0 Q 418.0,568.0 394.0,573.0 Q 386.0,574.0 353.0,566.0 L 312.0,555.0 L 263.0,547.0" fill="black" stroke="#000000"/>
	<path d="M 208.0,449.0 Q 210.0,441.0 196.0,419.0 L 180.0,396.0 Q 162.0,374.0 125.0,343.0 Q 122.0,339.0 124.0,337.0 Q 126.0,337.0 130.0,337.0 Q 182.0,353.0 256.0,417.0 Q 263.0,425.0 272.0,432.0 Q 278.0,437.0 278.0,444.0 Q 274.0,449.0 261.0,455.0 Q 232.0,461.0 214.0,459.0 Q 208.0,458.0 208.0,449.0" fill="black" stroke="#000000"/>
	<path d="M 415.0,467.0 Q 469.0,419.0 490.0,419.0 Q 501.0,421.0 505.0,437.0 Q 504.0,447.0 494.0,463.0 Q 484.0,476.0 462.0,480.0 Q 428.0,490.0 416.0,490.0 Q 409.0,490.0 409.0,481.0 Q 409.0,472.0 415.0,467.0" fill="black" stroke="#000000"/>
	<path d="M 254.0,216.0 Q 325.0,274.0 359.0,347.0 Q 365.0,354.0 368.0,356.0 L 382.0,370.0 Q 383.0,374.0 383.0,376.0 Q 383.0,399.0 347.0,416.0 Q 329.0,425.0 319.0,423.0 Q 314.0,423.0 312.0,412.0 Q 316.0,353.0 253.0,276.0 Q 226.0,242.0 176.0,196.0 L 172.0,192.0 Q 132.0,158.0 34.0,93.0 Q 29.0,91.0 31.0,88.0 Q 32.0,87.0 35.0,86.0 Q 90.0,86.0 210.0,174.0 Q 225.0,188.0 227.0,190.0 L 254.0,216.0" fill="black" stroke="#000000"/>
	<path d="M 368.0,356.0 Q 429.0,321.0 508.0,257.0 Q 525.0,241.0 535.0,245.0 Q 540.0,248.0 542.0,251.0 Q 547.0,258.0 543.0,272.0 Q 541.0,280.0 535.0,290.0 Q 511.0,334.0 382.0,370.0 C 353.0,378.0 342.0,371.0 368.0,356.0" fill="black" stroke="#000000"/>
	<path d="M 265.0,210.0 Q 260.0,214.0 254.0,216.0 C 227.0,228.0 223.0,220.0 227.0,190.0 L 227.0,186.0 Q 241.0,147.0 235.0,100.0 Q 235.0,90.0 227.0,84.0 Q 213.0,60.0 223.0,33.0 Q 227.0,22.0 239.0,7.0 Q 247.0,1.0 251.0,2.0 Q 255.0,3.0 257.0,7.0 Q 258.0,8.0 267.0,24.0 L 270.0,49.0 Q 274.0,63.0 274.0,96.0 L 272.0,134.0 Q 272.0,172.0 276.0,185.0 C 279.0,201.0 279.0,201.0 265.0,210.0" fill="black" stroke="#000000"/>
	<path d="M 422.0,31.0 Q 423.0,21.0 429.0,14.0 Q 439.0,-9.0 447.0,-9.0 Q 459.0,-8.0 472.0,18.0 Q 481.0,33.0 481.0,73.0 Q 481.0,78.0 480.0,82.0 Q 476.0,130.0 482.0,157.0 Q 488.0,186.0 495.0,196.0 Q 500.0,206.0 498.0,212.0 Q 498.0,216.0 496.0,218.0 Q 473.0,237.0 433.0,252.0 Q 423.0,255.0 414.0,253.0 Q 411.0,252.0 402.0,249.0 Q 382.0,235.0 265.0,210.0 C 236.0,204.0 246.0,183.0 276.0,185.0 Q 277.0,185.0 290.0,186.0 Q 409.0,223.0 419.0,211.0 Q 431.0,195.0 431.0,147.0 L 431.0,145.0 Q 431.0,118.0 429.0,96.0 Q 427.0,67.0 425.0,59.0 L 422.0,31.0" fill="black" stroke="#000000"/>
	<path d="M 267.0,24.0 L 280.0,24.0 Q 359.0,29.0 422.0,31.0 C 452.0,32.0 451.0,44.0 425.0,59.0 Q 419.0,63.0 412.0,65.0 Q 395.0,70.0 337.0,61.0 Q 308.0,57.0 270.0,49.0 C 241.0,43.0 237.0,24.0 267.0,24.0" fill="black" stroke="#000000"/>
	<path d="M 735.0,269.0 Q 776.0,352.0 813.0,511.0 Q 820.0,541.0 839.0,564.0 Q 850.0,577.0 847.0,586.0 Q 845.0,592.0 840.0,595.0 Q 824.0,606.0 790.0,612.0 Q 780.0,614.0 741.0,598.0 L 698.0,577.0 Q 609.0,545.0 575.0,536.0 Q 562.0,533.0 557.0,525.0 Q 555.0,521.0 562.0,517.0 Q 565.0,515.0 572.0,514.0 Q 598.0,506.0 627.0,514.0 Q 643.0,517.0 657.0,523.0 Q 713.0,552.0 725.0,553.0 Q 753.0,553.0 749.0,525.0 Q 728.0,379.0 696.0,314.0 L 673.0,270.0 Q 615.0,175.0 515.0,129.0 Q 506.0,125.0 510.0,122.0 Q 512.0,119.0 517.0,117.0 Q 519.0,111.0 547.0,112.0 L 561.0,114.0 Q 633.0,125.0 706.0,220.0 L 735.0,269.0" fill="black" stroke="#000000"/>
</svg>
