<?xml version="1.0" ?>
<svg baseProfile="full" height="1024" version="1.1" viewBox="0 0 1024 1024" width="1024" xmlns="http://www.w3.org/2000/svg" xmlns:ev="http://www.w3.org/2001/xml-events" xmlns:xlink="http://www.w3.org/1999/xlink">
	<defs/>
	<path d="M 515.0,348.0 Q 567.0,421.0 600.0,512.0 Q 660.0,666.0 685.0,699.0 Q 701.0,718.0 683.0,734.0 Q 632.0,788.0 601.0,782.0 Q 583.0,779.0 587.0,760.0 Q 609.0,685.0 540.0,512.0 Q 519.0,466.0 477.0,393.0 L 446.0,349.0 Q 329.0,202.0 162.0,140.0 L 120.0,120.0 Q 102.0,111.0 116.0,106.0 Q 134.0,102.0 178.0,110.0 Q 266.0,132.0 340.0,179.0 Q 422.0,225.0 468.0,287.0 Q 474.0,297.0 481.0,305.0 L 515.0,348.0" fill="black" stroke="#000000"/>
</svg>
