<?xml version="1.0" ?>
<svg baseProfile="full" height="1024" version="1.1" viewBox="0 0 1024 1024" width="1024" xmlns="http://www.w3.org/2000/svg" xmlns:ev="http://www.w3.org/2001/xml-events" xmlns:xlink="http://www.w3.org/1999/xlink">
	<defs/>
	<path d="M 584.0,695.0 Q 659.0,786.0 677.0,798.0 Q 693.0,811.0 680.0,825.0 Q 664.0,837.0 638.0,844.0 Q 614.0,851.0 604.0,845.0 Q 594.0,841.0 599.0,830.0 Q 608.0,806.0 568.0,724.0 Q 559.0,708.0 550.0,687.0 C 538.0,660.0 565.0,672.0 584.0,695.0" fill="black" stroke="#000000"/>
	<path d="M 474.0,679.0 Q 464.0,680.0 460.0,676.0 Q 456.0,670.0 464.0,656.0 Q 492.0,611.0 513.0,534.0 Q 517.0,512.0 533.0,497.0 Q 551.0,479.0 554.0,493.0 Q 555.0,499.0 555.0,506.0 L 553.0,527.0 Q 552.0,534.0 550.0,544.0 Q 546.0,562.0 542.0,576.0 L 537.0,597.0 Q 528.0,634.0 526.0,649.0 C 521.0,679.0 504.0,679.0 474.0,679.0" fill="black" stroke="#000000"/>
</svg>
