<?xml version="1.0" ?>
<svg baseProfile="full" height="1024" version="1.1" viewBox="0 0 1024 1024" width="1024" xmlns="http://www.w3.org/2000/svg" xmlns:ev="http://www.w3.org/2001/xml-events" xmlns:xlink="http://www.w3.org/1999/xlink">
	<defs/>
	<path d="M 584.0,695.0 Q 659.0,786.0 677.0,798.0 Q 693.0,811.0 680.0,825.0 Q 664.0,837.0 638.0,844.0 Q 614.0,851.0 604.0,845.0 Q 594.0,841.0 599.0,830.0 Q 608.0,806.0 568.0,724.0 Q 559.0,708.0 550.0,687.0 C 538.0,660.0 565.0,672.0 584.0,695.0" fill="black" stroke="#000000"/>
	<path d="M 474.0,679.0 Q 464.0,680.0 460.0,676.0 Q 456.0,670.0 464.0,656.0 Q 492.0,611.0 513.0,534.0 Q 517.0,512.0 533.0,497.0 Q 551.0,479.0 554.0,493.0 Q 555.0,499.0 555.0,506.0 L 553.0,527.0 Q 552.0,534.0 550.0,544.0 Q 546.0,562.0 542.0,576.0 L 537.0,597.0 Q 528.0,634.0 526.0,649.0 C 521.0,679.0 504.0,679.0 474.0,679.0" fill="black" stroke="#000000"/>
	<path d="M 735.0,529.0 Q 735.0,528.0 736.0,527.0 Q 740.0,512.0 751.0,513.0 Q 764.0,514.0 771.0,527.0 Q 781.0,537.0 802.0,593.0 Q 817.0,639.0 850.0,665.0 Q 866.0,678.0 853.0,693.0 Q 837.0,708.0 793.0,732.0 Q 781.0,741.0 714.0,724.0 Q 681.0,724.0 584.0,695.0 L 550.0,687.0 Q 496.0,678.0 474.0,679.0 C 444.0,678.0 498.0,639.0 526.0,649.0 Q 587.0,671.0 730.0,698.0 Q 755.0,701.0 765.0,697.0 Q 772.0,691.0 767.0,667.0 Q 749.0,577.0 736.0,555.0 C 729.0,539.0 729.0,539.0 735.0,529.0" fill="black" stroke="#000000"/>
	<path d="M 542.0,576.0 Q 546.0,576.0 554.0,577.0 Q 633.0,593.0 694.0,605.0 Q 712.0,609.0 705.0,618.0 Q 696.0,628.0 677.0,632.0 Q 659.0,633.0 537.0,597.0 C 508.0,589.0 512.0,574.0 542.0,576.0" fill="black" stroke="#000000"/>
</svg>
