<?xml version="1.0" ?>
<svg baseProfile="full" height="1024" version="1.1" viewBox="0 0 1024 1024" width="1024" xmlns="http://www.w3.org/2000/svg" xmlns:ev="http://www.w3.org/2001/xml-events" xmlns:xlink="http://www.w3.org/1999/xlink">
	<defs/>
	<path d="M 532.0,227.0 Q 631.0,341.0 658.0,556.0 Q 662.0,599.0 671.0,625.0 Q 675.0,640.0 666.0,648.0 Q 644.0,670.0 618.0,681.0 Q 593.0,693.0 582.0,689.0 Q 572.0,683.0 575.0,671.0 Q 629.0,491.0 529.0,306.0 Q 514.0,282.0 496.0,260.0 L 465.0,228.0 Q 428.0,195.0 384.0,165.0 Q 323.0,119.0 151.0,64.0 Q 139.0,63.0 135.0,57.0 Q 128.0,53.0 139.0,47.0 Q 181.0,40.0 319.0,87.0 Q 436.0,132.0 498.0,189.0 L 532.0,227.0" fill="black" stroke="#000000"/>
</svg>
