<?xml version="1.0" ?>
<svg baseProfile="full" height="1024" version="1.1" viewBox="0 0 1024 1024" width="1024" xmlns="http://www.w3.org/2000/svg" xmlns:ev="http://www.w3.org/2001/xml-events" xmlns:xlink="http://www.w3.org/1999/xlink">
	<defs/>
	<path d="M 606.0,682.0 Q 630.0,694.0 746.0,694.0 Q 878.0,694.0 880.0,695.0 Q 880.0,696.0 882.0,697.0 Q 889.0,710.0 877.0,722.0 Q 804.0,782.0 746.0,759.0 Q 467.0,702.0 200.0,680.0 Q 193.0,681.0 188.0,680.0 Q 175.0,679.0 174.0,668.0 Q 173.0,655.0 192.0,642.0 Q 210.0,630.0 241.0,619.0 Q 251.0,615.0 270.0,624.0 Q 337.0,646.0 474.0,667.0 Q 504.0,673.0 560.0,677.0 L 606.0,682.0" fill="black" stroke="#000000"/>
	<path d="M 560.0,677.0 Q 559.0,677.0 560.0,676.0 Q 561.0,649.0 550.0,612.0 Q 528.0,567.0 504.0,528.0 L 470.0,480.0 Q 463.0,473.0 457.0,464.0 Q 399.0,388.0 333.0,332.0 Q 269.0,274.0 111.0,165.0 Q 101.0,161.0 112.0,156.0 Q 157.0,156.0 322.0,262.0 Q 409.0,329.0 484.0,417.0 L 539.0,483.0 Q 635.0,609.0 644.0,615.0 Q 654.0,621.0 652.0,632.0 Q 651.0,644.0 639.0,658.0 Q 624.0,674.0 606.0,682.0 C 580.0,697.0 561.0,707.0 560.0,677.0" fill="black" stroke="#000000"/>
	<path d="M 504.0,528.0 Q 489.0,550.0 466.0,559.0 Q 454.0,560.0 450.0,553.0 Q 444.0,544.0 470.0,480.0 L 484.0,417.0 Q 490.0,222.0 461.0,87.0 Q 448.0,38.0 485.0,-17.0 Q 486.0,-20.0 490.0,-23.0 Q 511.0,-41.0 523.0,-11.0 Q 539.0,35.0 539.0,86.0 Q 529.0,386.0 536.0,454.0 Q 540.0,472.0 539.0,483.0 C 539.0,486.0 523.0,505.0 504.0,528.0" fill="black" stroke="#000000"/>
	<path d="M 632.0,397.0 Q 731.0,321.0 850.0,208.0 Q 868.0,189.0 884.0,184.0 Q 894.0,184.0 901.0,195.0 Q 913.0,210.0 897.0,255.0 Q 873.0,327.0 631.0,429.0 Q 621.0,435.0 620.0,421.0 Q 620.0,406.0 632.0,397.0" fill="black" stroke="#000000"/>
</svg>
