<?xml version="1.0" ?>
<svg baseProfile="full" height="1024" version="1.1" viewBox="0 0 1024 1024" width="1024" xmlns="http://www.w3.org/2000/svg" xmlns:ev="http://www.w3.org/2001/xml-events" xmlns:xlink="http://www.w3.org/1999/xlink">
	<defs/>
	<path d="M 828.0,150.0 Q 753.0,141.0 689.0,127.0 L 648.0,118.0 Q 596.0,108.0 551.0,93.0 Q 535.0,90.0 540.0,108.0 Q 553.0,162.0 544.0,178.0 Q 531.0,194.0 510.0,208.0 Q 500.0,215.0 491.0,213.0 Q 481.0,209.0 487.0,192.0 Q 500.0,158.0 493.0,124.0 Q 487.0,93.0 473.0,78.0 Q 457.0,62.0 463.0,50.0 Q 473.0,35.0 488.0,25.0 Q 501.0,18.0 510.0,25.0 Q 540.0,59.0 753.0,107.0 Q 805.0,119.0 822.0,112.0 Q 823.0,113.0 826.0,113.0 C 856.0,110.0 858.0,154.0 828.0,150.0" fill="black" stroke="#000000"/>
</svg>
