<?xml version="1.0" ?>
<svg baseProfile="full" height="1024" version="1.1" viewBox="0 0 1024 1024" width="1024" xmlns="http://www.w3.org/2000/svg" xmlns:ev="http://www.w3.org/2001/xml-events" xmlns:xlink="http://www.w3.org/1999/xlink">
	<defs/>
	<path d="M 517.0,57.0 Q 569.0,58.0 620.0,62.0 Q 752.0,72.0 894.0,52.0 Q 919.0,48.0 926.0,57.0 Q 935.0,72.0 922.0,85.0 Q 846.0,161.0 792.0,135.0 Q 750.0,129.0 603.0,112.0 L 558.0,108.0 Q 515.0,107.0 486.0,103.0 Q 455.0,102.0 429.0,100.0 L 383.0,96.0 Q 334.0,95.0 303.0,90.0 Q 236.0,81.0 134.0,84.0 Q 119.0,85.0 117.0,72.0 Q 116.0,59.0 136.0,43.0 Q 184.0,7.0 220.0,19.0 Q 278.0,34.0 407.0,48.0 Q 458.0,54.0 517.0,57.0" fill="black" stroke="#000000"/>
</svg>
