<?xml version="1.0" ?>
<svg baseProfile="full" height="1024" version="1.1" viewBox="0 0 1024 1024" width="1024" xmlns="http://www.w3.org/2000/svg" xmlns:ev="http://www.w3.org/2001/xml-events" xmlns:xlink="http://www.w3.org/1999/xlink">
	<defs/>
	<path d="M 384.0,399.0 Q 306.0,383.0 249.0,360.0 Q 228.0,353.0 232.0,379.0 Q 236.0,473.0 242.0,570.0 Q 245.0,600.0 232.0,616.0 Q 187.0,661.0 156.0,654.0 Q 143.0,647.0 154.0,625.0 Q 197.0,540.0 187.0,452.0 Q 181.0,367.0 148.0,329.0 Q 129.0,307.0 139.0,290.0 Q 154.0,274.0 176.0,262.0 Q 192.0,255.0 204.0,265.0 Q 237.0,311.0 356.0,345.0 Q 372.0,351.0 381.0,350.0 C 411.0,354.0 413.0,405.0 384.0,399.0" fill="black" stroke="#000000"/>
	<path d="M 381.0,350.0 Q 365.0,182.0 292.0,75.0 Q 258.0,32.0 203.0,-14.0 Q 191.0,-24.0 191.0,-29.0 Q 194.0,-33.0 206.0,-32.0 Q 219.0,-36.0 255.0,-17.0 Q 372.0,38.0 415.0,218.0 Q 433.0,300.0 436.0,413.0 Q 443.0,659.0 464.0,703.0 Q 471.0,719.0 458.0,731.0 Q 433.0,750.0 390.0,762.0 Q 362.0,768.0 352.0,760.0 Q 342.0,753.0 351.0,739.0 Q 399.0,666.0 384.0,399.0 L 381.0,350.0" fill="black" stroke="#000000"/>
	<path d="M 632.0,385.0 Q 633.0,611.0 640.0,713.0 Q 641.0,749.0 659.0,778.0 Q 666.0,794.0 645.0,811.0 Q 620.0,830.0 575.0,842.0 Q 554.0,848.0 541.0,833.0 Q 531.0,824.0 544.0,812.0 Q 575.0,787.0 577.0,749.0 Q 581.0,308.0 574.0,154.0 Q 573.0,75.0 579.0,-11.0 Q 580.0,-50.0 592.0,-68.0 Q 607.0,-84.0 616.0,-62.0 Q 631.0,-26.0 632.0,345.0 L 632.0,385.0" fill="black" stroke="#000000"/>
	<path d="M 835.0,417.0 Q 863.0,570.0 890.0,648.0 Q 894.0,660.0 876.0,677.0 Q 842.0,701.0 817.0,707.0 Q 801.0,713.0 792.0,705.0 Q 783.0,698.0 790.0,681.0 Q 805.0,656.0 804.0,639.0 Q 803.0,536.0 790.0,418.0 C 787.0,388.0 830.0,387.0 835.0,417.0" fill="black" stroke="#000000"/>
	<path d="M 790.0,418.0 Q 787.0,419.0 785.0,418.0 Q 700.0,396.0 632.0,385.0 C 602.0,380.0 603.0,338.0 632.0,345.0 Q 696.0,361.0 858.0,373.0 Q 870.0,374.0 872.0,385.0 Q 872.0,394.0 838.0,416.0 Q 837.0,417.0 835.0,417.0 L 790.0,418.0" fill="black" stroke="#000000"/>
</svg>
