<?xml version="1.0" ?>
<svg baseProfile="full" height="1024" version="1.1" viewBox="0 0 1024 1024" width="1024" xmlns="http://www.w3.org/2000/svg" xmlns:ev="http://www.w3.org/2001/xml-events" xmlns:xlink="http://www.w3.org/1999/xlink">
	<defs/>
	<path d="M 658.0,804.0 Q 618.0,768.0 481.0,714.0 Q 477.0,707.0 481.0,704.0 Q 529.0,704.0 661.0,751.0 Q 682.0,766.0 744.0,774.0 Q 759.0,774.0 762.0,781.0 Q 766.0,790.0 756.0,800.0 Q 704.0,839.0 678.0,836.0 Q 672.0,833.0 671.0,824.0 Q 670.0,812.0 658.0,804.0" fill="black" stroke="#000000"/>
	<path d="M 448.0,652.0 Q 482.0,595.0 504.0,591.0 Q 514.0,590.0 522.0,603.0 Q 523.0,613.0 518.0,632.0 Q 512.0,645.0 494.0,654.0 Q 466.0,670.0 454.0,674.0 Q 447.0,677.0 445.0,667.0 Q 444.0,660.0 448.0,652.0" fill="black" stroke="#000000"/>
	<path d="M 571.0,687.0 Q 604.0,632.0 622.0,628.0 Q 631.0,625.0 638.0,638.0 Q 639.0,648.0 636.0,663.0 Q 627.0,684.0 577.0,706.0 Q 570.0,707.0 569.0,700.0 Q 568.0,694.0 571.0,687.0" fill="black" stroke="#000000"/>
	<path d="M 754.0,719.0 Q 735.0,694.0 696.0,655.0 Q 692.0,649.0 695.0,643.0 Q 701.0,642.0 707.0,645.0 Q 777.0,682.0 811.0,697.0 Q 826.0,698.0 824.0,708.0 Q 820.0,721.0 806.0,738.0 Q 793.0,754.0 775.0,757.0 Q 763.0,758.0 762.0,742.0 Q 763.0,732.0 754.0,719.0" fill="black" stroke="#000000"/>
	<path d="M 643.0,571.0 Q 697.0,584.0 746.0,593.0 Q 764.0,597.0 757.0,606.0 Q 748.0,616.0 729.0,620.0 Q 710.0,621.0 679.0,613.0 Q 576.0,585.0 485.0,562.0 Q 472.0,558.0 488.0,547.0 Q 501.0,538.0 528.0,545.0 Q 562.0,554.0 596.0,560.0 L 643.0,571.0" fill="black" stroke="#000000"/>
	<path d="M 643.0,514.0 L 643.0,571.0 C 643.0,601.0 596.0,590.0 596.0,560.0 L 596.0,503.0 C 596.0,473.0 643.0,484.0 643.0,514.0" fill="black" stroke="#000000"/>
</svg>
