<?xml version="1.0" ?>
<svg baseProfile="full" height="1024" version="1.1" viewBox="0 0 1024 1024" width="1024" xmlns="http://www.w3.org/2000/svg" xmlns:ev="http://www.w3.org/2001/xml-events" xmlns:xlink="http://www.w3.org/1999/xlink">
	<defs/>
	<path d="M 217.0,705.0 L 289.0,727.0 Q 298.0,729.0 304.0,727.0 Q 326.0,723.0 325.0,672.0 Q 334.0,360.0 319.0,177.0 Q 318.0,149.0 310.0,137.0 Q 306.0,137.0 244.0,139.0 Q 243.0,140.0 242.0,140.0 Q 224.0,145.0 225.0,135.0 Q 242.0,122.0 255.0,108.0 Q 277.0,88.0 306.0,54.0 Q 318.0,40.0 330.0,36.0 Q 343.0,33.0 361.0,58.0 Q 387.0,96.0 386.0,147.0 Q 363.0,657.0 390.0,710.0 Q 402.0,729.0 390.0,741.0 Q 367.0,760.0 332.0,774.0 Q 312.0,782.0 269.0,757.0 Q 239.0,745.0 196.0,735.0 C 167.0,728.0 188.0,696.0 217.0,705.0" fill="black" stroke="#000000"/>
</svg>
