<?xml version="1.0" ?>
<svg baseProfile="full" height="1024" version="1.1" viewBox="0 0 1024 1024" width="1024" xmlns="http://www.w3.org/2000/svg" xmlns:ev="http://www.w3.org/2001/xml-events" xmlns:xlink="http://www.w3.org/1999/xlink">
	<defs/>
	<path d="M 340.0,490.0 Q 380.0,506.0 572.0,528.0 Q 588.0,529.0 589.0,537.0 Q 590.0,550.0 573.0,559.0 Q 546.0,571.0 524.0,566.0 Q 424.0,545.0 358.0,531.0 L 308.0,521.0 Q 161.0,499.0 106.0,494.0 Q 93.0,493.0 90.0,485.0 Q 86.0,475.0 101.0,463.0 Q 135.0,438.0 190.0,450.0 Q 248.0,468.0 299.0,480.0 L 340.0,490.0" fill="black" stroke="#000000"/>
	<path d="M 309.0,421.0 Q 310.0,425.0 314.0,431.0 Q 327.0,458.0 340.0,490.0 L 358.0,531.0 Q 362.0,541.0 369.0,550.0 Q 379.0,560.0 372.0,569.0 Q 362.0,582.0 338.0,594.0 L 306.0,589.0 Q 306.0,588.0 309.0,583.0 Q 316.0,564.0 308.0,521.0 L 299.0,480.0 Q 286.0,437.0 280.0,415.0 C 272.0,386.0 297.0,393.0 309.0,421.0" fill="black" stroke="#000000"/>
	<path d="M 193.0,395.0 Q 181.0,401.0 157.0,405.0 Q 144.0,409.0 141.0,404.0 Q 134.0,398.0 142.0,382.0 Q 175.0,301.0 190.0,173.0 Q 191.0,134.0 212.0,108.0 Q 228.0,86.0 235.0,101.0 Q 238.0,111.0 240.0,125.0 L 240.0,148.0 Q 239.0,164.0 236.0,185.0 Q 214.0,326.0 210.0,364.0 C 207.0,389.0 207.0,389.0 193.0,395.0" fill="black" stroke="#000000"/>
	<path d="M 458.0,157.0 Q 477.0,132.0 493.0,125.0 Q 503.0,118.0 519.0,140.0 Q 535.0,171.0 561.0,335.0 Q 568.0,366.0 592.0,393.0 Q 605.0,406.0 592.0,420.0 Q 576.0,436.0 532.0,462.0 Q 514.0,469.0 423.0,445.0 Q 413.0,445.0 309.0,421.0 L 280.0,415.0 Q 231.0,405.0 193.0,395.0 C 164.0,388.0 181.0,355.0 210.0,364.0 Q 295.0,391.0 447.0,418.0 Q 481.0,424.0 493.0,413.0 Q 509.0,395.0 507.0,377.0 Q 486.0,209.0 468.0,190.0 C 455.0,163.0 454.0,162.0 458.0,157.0" fill="black" stroke="#000000"/>
	<path d="M 282.0,335.0 Q 275.0,338.0 262.0,340.0 Q 252.0,341.0 250.0,338.0 Q 246.0,334.0 252.0,322.0 Q 268.0,288.0 280.0,229.0 Q 281.0,213.0 292.0,201.0 Q 305.0,185.0 309.0,196.0 Q 310.0,203.0 312.0,215.0 L 310.0,241.0 Q 301.0,301.0 301.0,315.0 C 300.0,328.0 300.0,328.0 282.0,335.0" fill="black" stroke="#000000"/>
	<path d="M 420.0,262.0 Q 432.0,304.0 446.0,317.0 Q 462.0,338.0 445.0,349.0 Q 429.0,356.0 408.0,370.0 Q 392.0,379.0 378.0,369.0 Q 362.0,357.0 338.0,350.0 Q 313.0,343.0 282.0,335.0 C 253.0,327.0 273.0,305.0 301.0,315.0 Q 316.0,321.0 365.0,330.0 Q 381.0,333.0 384.0,327.0 Q 390.0,321.0 378.0,261.0 C 372.0,232.0 411.0,233.0 420.0,262.0" fill="black" stroke="#000000"/>
	<path d="M 312.0,215.0 Q 318.0,214.0 326.0,216.0 Q 360.0,226.0 436.0,235.0 Q 443.0,236.0 445.0,244.0 Q 445.0,250.0 420.0,262.0 L 378.0,261.0 Q 341.0,251.0 310.0,241.0 C 281.0,232.0 282.0,217.0 312.0,215.0" fill="black" stroke="#000000"/>
</svg>
