<?xml version="1.0" ?>
<svg baseProfile="full" height="1024" version="1.1" viewBox="0 0 1024 1024" width="1024" xmlns="http://www.w3.org/2000/svg" xmlns:ev="http://www.w3.org/2001/xml-events" xmlns:xlink="http://www.w3.org/1999/xlink">
	<defs/>
	<path d="M 531.0,559.0 Q 586.0,639.0 667.0,694.0 Q 682.0,703.0 678.0,714.0 Q 678.0,717.0 674.0,720.0 Q 664.0,730.0 615.0,758.0 Q 604.0,762.0 592.0,759.0 L 581.0,754.0 Q 576.0,754.0 488.0,725.0 Q 470.0,718.0 443.0,715.0 C 413.0,711.0 400.0,703.0 428.0,694.0 Q 442.0,686.0 480.0,690.0 Q 498.0,692.0 525.0,696.0 Q 551.0,700.0 557.0,698.0 Q 560.0,696.0 559.0,690.0 Q 534.0,610.0 490.0,552.0 L 490.0,551.0 C 473.0,526.0 514.0,534.0 531.0,559.0" fill="black" stroke="#000000"/>
</svg>
