<?xml version="1.0" ?>
<svg baseProfile="full" height="1024" version="1.1" viewBox="0 0 1024 1024" width="1024" xmlns="http://www.w3.org/2000/svg" xmlns:ev="http://www.w3.org/2001/xml-events" xmlns:xlink="http://www.w3.org/1999/xlink">
	<defs/>
	<path d="M 310.0,220.0 Q 310.0,295.0 308.0,296.0 Q 284.0,318.0 263.0,327.0 Q 251.0,332.0 242.0,331.0 Q 230.0,327.0 232.0,316.0 Q 265.0,251.0 262.0,157.0 L 261.0,143.0 Q 257.0,97.0 217.0,55.0 Q 208.0,41.0 210.0,25.0 L 210.0,24.0 L 212.0,18.0 Q 220.0,-8.0 231.0,-18.0 Q 239.0,-23.0 247.0,-19.0 Q 251.0,-16.0 255.0,-12.0 Q 276.0,18.0 449.0,118.0 Q 468.0,127.0 472.0,134.0 Q 476.0,144.0 468.0,145.0 Q 457.0,145.0 323.0,94.0 Q 309.0,89.0 306.0,96.0 Q 304.0,98.0 304.0,106.0 Q 308.0,143.0 310.0,192.0 L 310.0,220.0" fill="black" stroke="#000000"/>
</svg>
