<?xml version="1.0" ?>
<svg baseProfile="full" height="1024" version="1.1" viewBox="0 0 1024 1024" width="1024" xmlns="http://www.w3.org/2000/svg" xmlns:ev="http://www.w3.org/2001/xml-events" xmlns:xlink="http://www.w3.org/1999/xlink">
	<defs/>
	<path d="M 589.0,199.0 Q 593.0,247.0 600.0,287.0 Q 602.0,300.0 599.0,306.0 Q 597.0,311.0 592.0,314.0 Q 581.0,326.0 557.0,335.0 Q 544.0,339.0 535.0,334.0 Q 529.0,331.0 531.0,322.0 Q 546.0,253.0 546.0,237.0 Q 544.0,126.0 547.0,99.0 Q 548.0,82.0 553.0,61.0 Q 558.0,38.0 580.0,20.0 Q 637.0,-27.0 757.0,-18.0 Q 780.0,-16.0 800.0,-12.0 Q 823.0,-7.0 836.0,-3.0 Q 872.0,9.0 911.0,37.0 Q 923.0,47.0 919.0,61.0 Q 919.0,63.0 916.0,69.0 Q 907.0,87.0 894.0,165.0 Q 894.0,177.0 888.0,182.0 Q 885.0,184.0 883.0,179.0 Q 882.0,179.0 879.0,171.0 Q 848.0,99.0 838.0,71.0 Q 823.0,55.0 790.0,45.0 Q 741.0,30.0 684.0,38.0 Q 652.0,43.0 635.0,50.0 Q 609.0,61.0 600.0,80.0 Q 583.0,115.0 587.0,166.0 L 588.0,180.0 L 589.0,199.0" fill="black" stroke="#000000"/>
</svg>
