<?xml version="1.0" ?>
<svg baseProfile="full" height="1024" version="1.1" viewBox="0 0 1024 1024" width="1024" xmlns="http://www.w3.org/2000/svg" xmlns:ev="http://www.w3.org/2001/xml-events" xmlns:xlink="http://www.w3.org/1999/xlink">
	<defs/>
	<path d="M 443.0,715.0 Q 449.0,729.0 501.0,798.0 Q 513.0,811.0 498.0,827.0 Q 455.0,862.0 426.0,860.0 Q 414.0,860.0 416.0,844.0 Q 421.0,780.0 378.0,709.0 Q 357.0,673.0 321.0,635.0 Q 302.0,623.0 270.0,583.0 Q 265.0,573.0 269.0,570.0 Q 270.0,569.0 276.0,570.0 Q 341.0,581.0 428.0,694.0 L 443.0,715.0" fill="black" stroke="#000000"/>
	<path d="M 531.0,559.0 Q 586.0,639.0 667.0,694.0 Q 682.0,703.0 678.0,714.0 Q 678.0,717.0 674.0,720.0 Q 664.0,730.0 615.0,758.0 Q 604.0,762.0 592.0,759.0 L 581.0,754.0 Q 576.0,754.0 488.0,725.0 Q 470.0,718.0 443.0,715.0 C 413.0,711.0 400.0,703.0 428.0,694.0 Q 442.0,686.0 480.0,690.0 Q 498.0,692.0 525.0,696.0 Q 551.0,700.0 557.0,698.0 Q 560.0,696.0 559.0,690.0 Q 534.0,610.0 490.0,552.0 L 490.0,551.0 C 473.0,526.0 514.0,534.0 531.0,559.0" fill="black" stroke="#000000"/>
	<path d="M 314.0,527.0 Q 308.0,533.0 255.0,539.0 Q 246.0,539.0 241.0,537.0 Q 239.0,537.0 237.0,535.0 Q 233.0,529.0 237.0,521.0 L 243.0,511.0 Q 279.0,455.0 302.0,372.0 Q 309.0,345.0 326.0,329.0 Q 342.0,314.0 349.0,319.0 Q 351.0,321.0 353.0,325.0 L 355.0,339.0 L 349.0,374.0 L 323.0,488.0 C 316.0,517.0 314.0,527.0 314.0,527.0" fill="black" stroke="#000000"/>
	<path d="M 700.0,406.0 Q 739.0,488.0 776.0,504.0 Q 798.0,523.0 782.0,545.0 Q 764.0,563.0 708.0,595.0 Q 688.0,606.0 663.0,598.0 Q 598.0,574.0 531.0,559.0 L 490.0,551.0 Q 402.0,535.0 314.0,527.0 C 284.0,524.0 294.0,479.0 323.0,488.0 Q 331.0,490.0 343.0,494.0 L 504.0,520.0 Q 562.0,533.0 624.0,543.0 Q 647.0,547.0 662.0,543.0 Q 670.0,540.0 674.0,535.0 Q 681.0,526.0 665.0,478.0 L 646.0,425.0 Q 645.0,423.0 643.0,419.0 C 632.0,391.0 687.0,379.0 700.0,406.0" fill="black" stroke="#000000"/>
	<path d="M 425.0,348.0 L 580.0,366.0 L 705.0,374.0 Q 714.0,376.0 717.0,385.0 Q 717.0,392.0 700.0,406.0 L 643.0,419.0 L 636.0,419.0 Q 564.0,404.0 498.0,393.0 L 437.0,384.0 L 349.0,374.0 C 319.0,371.0 325.0,339.0 355.0,339.0 L 368.0,339.0 L 425.0,348.0" fill="black" stroke="#000000"/>
	<path d="M 310.0,192.0 L 323.0,194.0 Q 412.0,213.0 472.0,223.0 Q 492.0,225.0 490.0,235.0 Q 490.0,237.0 488.0,241.0 Q 474.0,256.0 449.0,259.0 Q 421.0,261.0 368.0,243.0 Q 345.0,235.0 310.0,220.0 C 282.0,208.0 280.0,187.0 310.0,192.0" fill="black" stroke="#000000"/>
	<path d="M 310.0,220.0 Q 310.0,295.0 308.0,296.0 Q 284.0,318.0 263.0,327.0 Q 251.0,332.0 242.0,331.0 Q 230.0,327.0 232.0,316.0 Q 265.0,251.0 262.0,157.0 L 261.0,143.0 Q 257.0,97.0 217.0,55.0 Q 208.0,41.0 210.0,25.0 L 210.0,24.0 L 212.0,18.0 Q 220.0,-8.0 231.0,-18.0 Q 239.0,-23.0 247.0,-19.0 Q 251.0,-16.0 255.0,-12.0 Q 276.0,18.0 449.0,118.0 Q 468.0,127.0 472.0,134.0 Q 476.0,144.0 468.0,145.0 Q 457.0,145.0 323.0,94.0 Q 309.0,89.0 306.0,96.0 Q 304.0,98.0 304.0,106.0 Q 308.0,143.0 310.0,192.0 L 310.0,220.0" fill="black" stroke="#000000"/>
	<path d="M 741.0,333.0 L 739.0,325.0 Q 737.0,295.0 662.0,247.0 Q 604.0,210.0 589.0,199.0 C 564.0,182.0 559.0,171.0 588.0,180.0 Q 657.0,201.0 690.0,216.0 Q 765.0,250.0 796.0,254.0 Q 816.0,257.0 813.0,274.0 L 813.0,278.0 Q 806.0,299.0 784.0,318.0 Q 762.0,337.0 752.0,337.0 Q 743.0,338.0 741.0,333.0" fill="black" stroke="#000000"/>
	<path d="M 589.0,199.0 Q 593.0,247.0 600.0,287.0 Q 602.0,300.0 599.0,306.0 Q 597.0,311.0 592.0,314.0 Q 581.0,326.0 557.0,335.0 Q 544.0,339.0 535.0,334.0 Q 529.0,331.0 531.0,322.0 Q 546.0,253.0 546.0,237.0 Q 544.0,126.0 547.0,99.0 Q 548.0,82.0 553.0,61.0 Q 558.0,38.0 580.0,20.0 Q 637.0,-27.0 757.0,-18.0 Q 780.0,-16.0 800.0,-12.0 Q 823.0,-7.0 836.0,-3.0 Q 872.0,9.0 911.0,37.0 Q 923.0,47.0 919.0,61.0 Q 919.0,63.0 916.0,69.0 Q 907.0,87.0 894.0,165.0 Q 894.0,177.0 888.0,182.0 Q 885.0,184.0 883.0,179.0 Q 882.0,179.0 879.0,171.0 Q 848.0,99.0 838.0,71.0 Q 823.0,55.0 790.0,45.0 Q 741.0,30.0 684.0,38.0 Q 652.0,43.0 635.0,50.0 Q 609.0,61.0 600.0,80.0 Q 583.0,115.0 587.0,166.0 L 588.0,180.0 L 589.0,199.0" fill="black" stroke="#000000"/>
</svg>
