<?xml version="1.0" ?>
<svg baseProfile="full" height="1024" version="1.1" viewBox="0 0 1024 1024" width="1024" xmlns="http://www.w3.org/2000/svg" xmlns:ev="http://www.w3.org/2001/xml-events" xmlns:xlink="http://www.w3.org/1999/xlink">
	<defs/>
	<path d="M 486.0,224.0 Q 486.0,-34.0 504.0,-60.0 Q 519.0,-76.0 528.0,-54.0 Q 546.0,-14.0 544.0,229.0 L 543.0,267.0 Q 543.0,304.0 543.0,346.0 Q 542.0,374.0 542.0,402.0 L 542.0,439.0 Q 542.0,482.0 543.0,520.0 L 543.0,558.0 Q 543.0,625.0 545.0,673.0 L 547.0,706.0 Q 547.0,748.0 567.0,782.0 Q 574.0,798.0 554.0,815.0 Q 527.0,836.0 483.0,846.0 Q 462.0,852.0 449.0,837.0 Q 439.0,828.0 452.0,816.0 Q 483.0,791.0 486.0,753.0 Q 486.0,728.0 486.0,697.0 L 487.0,666.0 Q 487.0,615.0 487.0,549.0 L 487.0,515.0 Q 487.0,478.0 487.0,433.0 L 487.0,398.0 Q 487.0,319.0 487.0,259.0 L 486.0,224.0" fill="black" stroke="#000000"/>
</svg>
