<?xml version="1.0" ?>
<svg baseProfile="full" height="1024" version="1.1" viewBox="0 0 1024 1024" width="1024" xmlns="http://www.w3.org/2000/svg" xmlns:ev="http://www.w3.org/2001/xml-events" xmlns:xlink="http://www.w3.org/1999/xlink">
	<defs/>
	<path d="M 361.0,723.0 Q 351.0,729.0 316.0,735.0 Q 309.0,737.0 305.0,735.0 Q 302.0,734.0 302.0,733.0 Q 298.0,729.0 301.0,721.0 Q 302.0,719.0 304.0,712.0 Q 333.0,654.0 351.0,557.0 Q 355.0,527.0 370.0,508.0 Q 382.0,494.0 388.0,498.0 Q 390.0,500.0 392.0,503.0 Q 394.0,512.0 394.0,523.0 L 394.0,545.0 Q 390.0,574.0 382.0,610.0 L 377.0,633.0 L 367.0,692.0 C 362.0,722.0 362.0,723.0 361.0,723.0" fill="black" stroke="#000000"/>
	<path d="M 564.0,542.0 Q 578.0,522.0 592.0,515.0 Q 598.0,511.0 606.0,517.0 Q 610.0,520.0 615.0,527.0 Q 627.0,548.0 653.0,653.0 Q 662.0,682.0 682.0,705.0 Q 691.0,713.0 688.0,721.0 Q 687.0,725.0 684.0,729.0 Q 670.0,745.0 631.0,768.0 Q 619.0,774.0 592.0,769.0 Q 581.0,768.0 561.0,761.0 Q 551.0,761.0 361.0,723.0 C 332.0,717.0 338.0,684.0 367.0,692.0 L 368.0,692.0 Q 434.0,711.0 559.0,731.0 Q 574.0,733.0 586.0,731.0 Q 592.0,729.0 596.0,727.0 Q 607.0,717.0 604.0,706.0 L 604.0,702.0 Q 587.0,601.0 578.0,584.0 Q 574.0,575.0 563.0,570.0 C 550.0,560.0 550.0,560.0 564.0,542.0" fill="black" stroke="#000000"/>
	<path d="M 382.0,610.0 L 398.0,610.0 Q 479.0,625.0 542.0,635.0 Q 564.0,639.0 555.0,651.0 Q 545.0,664.0 521.0,668.0 Q 505.0,670.0 446.0,654.0 Q 416.0,645.0 377.0,633.0 C 348.0,624.0 352.0,610.0 382.0,610.0" fill="black" stroke="#000000"/>
	<path d="M 394.0,523.0 Q 400.0,523.0 411.0,523.0 Q 502.0,537.0 564.0,542.0 C 594.0,544.0 591.0,559.0 563.0,570.0 L 559.0,572.0 Q 551.0,574.0 482.0,562.0 L 394.0,545.0 C 365.0,539.0 364.0,523.0 394.0,523.0" fill="black" stroke="#000000"/>
	<path d="M 360.0,337.0 L 288.0,341.0 Q 269.0,342.0 272.0,351.0 Q 274.0,355.0 277.0,357.0 Q 313.0,400.0 355.0,441.0 Q 367.0,453.0 367.0,460.0 Q 365.0,472.0 336.0,499.0 Q 325.0,512.0 312.0,510.0 L 310.0,510.0 Q 302.0,510.0 304.0,500.0 Q 312.0,474.0 287.0,433.0 Q 278.0,416.0 257.0,385.0 Q 246.0,367.0 223.0,353.0 Q 208.0,343.0 209.0,332.0 Q 210.0,316.0 221.0,301.0 Q 226.0,292.0 235.0,295.0 Q 276.0,318.0 345.0,318.0 C 375.0,318.0 390.0,335.0 360.0,337.0" fill="black" stroke="#000000"/>
	<path d="M 409.0,241.0 Q 353.0,231.0 321.0,223.0 Q 307.0,219.0 308.0,225.0 Q 309.0,229.0 314.0,235.0 Q 405.0,347.0 455.0,385.0 Q 463.0,392.0 461.0,398.0 L 460.0,402.0 Q 453.0,417.0 425.0,435.0 Q 414.0,441.0 406.0,441.0 Q 398.0,440.0 398.0,425.0 Q 400.0,412.0 381.0,376.0 L 360.0,337.0 L 345.0,318.0 Q 266.0,221.0 250.0,216.0 Q 239.0,209.0 240.0,196.0 Q 241.0,186.0 261.0,170.0 Q 267.0,163.0 274.0,165.0 Q 277.0,165.0 282.0,169.0 Q 337.0,204.0 417.0,225.0 C 446.0,233.0 439.0,246.0 409.0,241.0" fill="black" stroke="#000000"/>
	<path d="M 417.0,225.0 Q 435.0,195.0 448.0,190.0 Q 454.0,188.0 459.0,192.0 Q 462.0,194.0 465.0,199.0 Q 468.0,206.0 466.0,217.0 L 466.0,218.0 L 466.0,223.0 Q 462.0,240.0 445.0,253.0 Q 418.0,275.0 407.0,280.0 Q 403.0,284.0 400.0,280.0 Q 393.0,274.0 402.0,259.0 L 409.0,241.0 L 417.0,225.0" fill="black" stroke="#000000"/>
	<path d="M 612.0,361.0 L 610.0,362.0 L 608.0,361.0 Q 570.0,363.0 530.0,363.0 Q 526.0,363.0 523.0,363.0 Q 512.0,364.0 515.0,370.0 Q 515.0,373.0 519.0,376.0 Q 556.0,423.0 588.0,455.0 Q 600.0,466.0 600.0,474.0 Q 598.0,484.0 569.0,510.0 Q 559.0,522.0 543.0,519.0 Q 536.0,519.0 537.0,511.0 Q 539.0,508.0 539.0,506.0 Q 545.0,487.0 525.0,448.0 Q 512.0,422.0 499.0,402.0 Q 489.0,386.0 468.0,370.0 Q 455.0,361.0 455.0,351.0 Q 458.0,337.0 468.0,321.0 Q 473.0,314.0 482.0,317.0 Q 504.0,330.0 600.0,343.0 C 630.0,347.0 642.0,360.0 612.0,361.0" fill="black" stroke="#000000"/>
</svg>
