<?xml version="1.0" ?>
<svg baseProfile="full" height="1024" version="1.1" viewBox="0 0 1024 1024" width="1024" xmlns="http://www.w3.org/2000/svg" xmlns:ev="http://www.w3.org/2001/xml-events" xmlns:xlink="http://www.w3.org/1999/xlink">
	<defs/>
	<path d="M 279.0,310.0 Q 387.0,367.0 643.0,391.0 Q 674.0,392.0 686.0,382.0 Q 705.0,360.0 695.0,319.0 Q 679.0,228.0 638.0,108.0 Q 628.0,83.0 607.0,70.0 Q 598.0,67.0 511.0,97.0 Q 493.0,107.0 491.0,98.0 Q 490.0,88.0 508.0,70.0 Q 551.0,21.0 568.0,-19.0 Q 587.0,-53.0 613.0,-34.0 Q 671.0,3.0 695.0,55.0 Q 710.0,95.0 750.0,295.0 Q 759.0,341.0 781.0,361.0 Q 797.0,377.0 790.0,388.0 Q 778.0,401.0 728.0,428.0 Q 701.0,443.0 626.0,424.0 Q 569.0,417.0 513.0,407.0 L 466.0,399.0 Q 387.0,386.0 316.0,368.0 Q 292.0,365.0 298.0,380.0 Q 314.0,479.0 332.0,520.0 Q 339.0,536.0 329.0,548.0 Q 313.0,564.0 296.0,571.0 Q 272.0,581.0 263.0,576.0 Q 254.0,570.0 261.0,556.0 Q 279.0,514.0 253.0,403.0 Q 246.0,388.0 221.0,361.0 Q 211.0,346.0 219.0,334.0 Q 229.0,322.0 250.0,306.0 Q 262.0,297.0 279.0,310.0" fill="black" stroke="#000000"/>
</svg>
