<?xml version="1.0" ?>
<svg baseProfile="full" height="1024" version="1.1" viewBox="0 0 1024 1024" width="1024" xmlns="http://www.w3.org/2000/svg" xmlns:ev="http://www.w3.org/2001/xml-events" xmlns:xlink="http://www.w3.org/1999/xlink">
	<defs/>
	<path d="M 661.0,731.0 Q 719.0,752.0 771.0,762.0 Q 787.0,765.0 791.0,760.0 Q 800.0,747.0 793.0,711.0 Q 780.0,615.0 756.0,573.0 Q 740.0,548.0 718.0,552.0 Q 696.0,561.0 678.0,571.0 Q 656.0,581.0 669.0,557.0 Q 705.0,514.0 720.0,480.0 Q 736.0,461.0 754.0,476.0 Q 808.0,512.0 834.0,633.0 Q 850.0,735.0 869.0,758.0 Q 881.0,771.0 874.0,780.0 Q 865.0,790.0 816.0,812.0 Q 797.0,819.0 779.0,807.0 Q 760.0,794.0 686.0,774.0 Q 613.0,752.0 549.0,744.0 Q 533.0,743.0 530.0,734.0 Q 529.0,727.0 552.0,716.0 Q 576.0,703.0 595.0,710.0 Q 614.0,717.0 636.0,723.0 L 661.0,731.0" fill="black" stroke="#000000"/>
</svg>
