<?xml version="1.0" ?>
<svg baseProfile="full" height="1024" version="1.1" viewBox="0 0 1024 1024" width="1024" xmlns="http://www.w3.org/2000/svg" xmlns:ev="http://www.w3.org/2001/xml-events" xmlns:xlink="http://www.w3.org/1999/xlink">
	<defs/>
	<path d="M 339.0,727.0 Q 378.0,664.0 414.0,642.0 Q 430.0,636.0 443.0,649.0 Q 452.0,662.0 451.0,682.0 Q 447.0,709.0 430.0,726.0 Q 412.0,744.0 359.0,767.0 Q 341.0,776.0 331.0,773.0 Q 324.0,772.0 324.0,758.0 Q 324.0,745.0 339.0,727.0" fill="black" stroke="#000000"/>
	<path d="M 554.0,605.0 Q 603.0,651.0 634.0,682.0 Q 707.0,760.0 729.0,774.0 Q 751.0,789.0 736.0,806.0 Q 718.0,822.0 686.0,834.0 Q 658.0,844.0 644.0,840.0 Q 631.0,836.0 637.0,822.0 Q 650.0,788.0 532.0,611.0 Q 529.0,607.0 526.0,600.0 C 512.0,573.0 532.0,584.0 554.0,605.0" fill="black" stroke="#000000"/>
	<path d="M 609.0,565.0 Q 670.0,569.0 747.0,570.0 Q 808.0,567.0 816.0,579.0 Q 820.0,591.0 804.0,605.0 Q 741.0,650.0 675.0,628.0 Q 623.0,619.0 554.0,605.0 L 526.0,600.0 Q 513.0,599.0 499.0,596.0 Q 381.0,578.0 241.0,559.0 Q 219.0,556.0 235.0,539.0 Q 268.0,509.0 307.0,519.0 Q 338.0,528.0 374.0,535.0 L 425.0,544.0 Q 477.0,556.0 551.0,561.0 L 609.0,565.0" fill="black" stroke="#000000"/>
	<path d="M 374.0,535.0 Q 393.0,496.0 398.0,414.0 Q 399.0,329.0 404.0,84.0 C 405.0,54.0 453.0,58.0 453.0,88.0 Q 453.0,482.0 454.0,493.0 Q 463.0,520.0 425.0,544.0 C 401.0,562.0 362.0,563.0 374.0,535.0" fill="black" stroke="#000000"/>
	<path d="M 613.0,103.0 Q 614.0,176.0 617.0,241.0 L 618.0,265.0 Q 622.0,466.0 628.0,520.0 Q 635.0,544.0 609.0,565.0 C 588.0,586.0 541.0,589.0 551.0,561.0 Q 569.0,519.0 569.0,421.0 Q 568.0,328.0 565.0,98.0 C 565.0,68.0 613.0,73.0 613.0,103.0" fill="black" stroke="#000000"/>
	<path d="M 233.0,313.0 Q 254.0,279.0 275.0,239.0 Q 285.0,220.0 303.0,216.0 Q 315.0,213.0 325.0,225.0 Q 335.0,240.0 335.0,275.0 Q 335.0,299.0 308.0,324.0 Q 236.0,378.0 221.0,375.0 Q 214.0,374.0 211.0,358.0 Q 211.0,345.0 233.0,313.0" fill="black" stroke="#000000"/>
	<path d="M 617.0,241.0 L 619.0,241.0 Q 635.0,251.0 790.0,359.0 Q 812.0,378.0 840.0,389.0 Q 865.0,401.0 852.0,421.0 Q 837.0,440.0 807.0,458.0 Q 779.0,474.0 765.0,471.0 Q 749.0,470.0 755.0,454.0 Q 758.0,418.0 688.0,341.0 Q 654.0,304.0 618.0,265.0 C 598.0,243.0 590.0,227.0 617.0,241.0" fill="black" stroke="#000000"/>
	<path d="M 404.0,84.0 Q 268.0,75.0 118.0,64.0 Q 90.0,63.0 109.0,39.0 Q 142.0,3.0 214.0,13.0 Q 467.0,67.0 913.0,43.0 Q 938.0,42.0 946.0,52.0 Q 953.0,67.0 933.0,86.0 Q 869.0,140.0 819.0,131.0 Q 737.0,118.0 613.0,103.0 L 565.0,98.0 Q 535.0,97.0 504.0,93.0 Q 479.0,92.0 453.0,88.0 L 404.0,84.0" fill="black" stroke="#000000"/>
</svg>
