<?xml version="1.0" ?>
<svg baseProfile="full" height="1024" version="1.1" viewBox="0 0 1024 1024" width="1024" xmlns="http://www.w3.org/2000/svg" xmlns:ev="http://www.w3.org/2001/xml-events" xmlns:xlink="http://www.w3.org/1999/xlink">
	<defs/>
	<path d="M 476.0,431.0 Q 486.0,434.0 501.0,434.0 Q 553.0,438.0 601.0,444.0 Q 733.0,462.0 868.0,450.0 Q 892.0,447.0 897.0,456.0 Q 904.0,469.0 892.0,481.0 Q 862.0,508.0 818.0,527.0 Q 803.0,533.0 778.0,524.0 Q 712.0,508.0 645.0,497.0 Q 542.0,484.0 485.0,475.0 L 442.0,470.0 Q 348.0,460.0 297.0,451.0 Q 231.0,439.0 133.0,436.0 Q 120.0,436.0 118.0,424.0 Q 117.0,412.0 137.0,398.0 Q 153.0,385.0 185.0,374.0 Q 195.0,371.0 214.0,379.0 Q 230.0,385.0 299.0,398.0 Q 357.0,414.0 430.0,424.0 L 476.0,431.0" fill="black" stroke="#000000"/>
</svg>
