<?xml version="1.0" ?>
<svg baseProfile="full" height="1024" version="1.1" viewBox="0 0 1024 1024" width="1024" xmlns="http://www.w3.org/2000/svg" xmlns:ev="http://www.w3.org/2001/xml-events" xmlns:xlink="http://www.w3.org/1999/xlink">
	<defs/>
	<path d="M 708.0,406.0 Q 769.0,407.0 869.0,408.0 Q 890.0,408.0 895.0,417.0 Q 901.0,430.0 883.0,445.0 Q 822.0,493.0 759.0,472.0 Q 665.0,454.0 521.0,432.0 L 479.0,426.0 Q 319.0,407.0 133.0,384.0 Q 111.0,381.0 128.0,363.0 Q 143.0,348.0 162.0,342.0 Q 184.0,336.0 202.0,341.0 Q 242.0,353.0 290.0,362.0 L 334.0,371.0 Q 371.0,380.0 415.0,384.0 L 466.0,389.0 Q 548.0,402.0 666.0,405.0 L 708.0,406.0" fill="black" stroke="#000000"/>
</svg>
