<?xml version="1.0" ?>
<svg baseProfile="full" height="1024" version="1.1" viewBox="0 0 1024 1024" width="1024" xmlns="http://www.w3.org/2000/svg" xmlns:ev="http://www.w3.org/2001/xml-events" xmlns:xlink="http://www.w3.org/1999/xlink">
	<defs/>
	<path d="M 290.0,362.0 Q 329.0,323.0 312.0,150.0 Q 311.0,140.0 309.0,131.0 Q 305.0,100.0 290.0,83.0 Q 277.0,61.0 285.0,38.0 Q 297.0,4.0 314.0,-9.0 Q 326.0,-16.0 339.0,3.0 Q 375.0,46.0 494.0,151.0 Q 513.0,166.0 514.0,173.0 Q 515.0,188.0 494.0,176.0 Q 376.0,112.0 365.0,116.0 Q 356.0,122.0 357.0,143.0 Q 361.0,284.0 368.0,319.0 Q 372.0,343.0 334.0,371.0 C 311.0,390.0 272.0,386.0 290.0,362.0" fill="black" stroke="#000000"/>
</svg>
