<?xml version="1.0" ?>
<svg baseProfile="full" height="1024" version="1.1" viewBox="0 0 1024 1024" width="1024" xmlns="http://www.w3.org/2000/svg" xmlns:ev="http://www.w3.org/2001/xml-events" xmlns:xlink="http://www.w3.org/1999/xlink">
	<defs/>
	<path d="M 304.0,668.0 Q 326.0,646.0 351.0,618.0 Q 364.0,605.0 380.0,604.0 Q 390.0,604.0 397.0,617.0 Q 403.0,632.0 395.0,662.0 Q 391.0,681.0 362.0,695.0 Q 301.0,725.0 280.0,719.0 Q 274.0,715.0 276.0,702.0 Q 279.0,692.0 304.0,668.0" fill="black" stroke="#000000"/>
	<path d="M 437.0,749.0 Q 462.0,725.0 487.0,697.0 Q 500.0,684.0 516.0,684.0 Q 526.0,684.0 533.0,697.0 Q 537.0,712.0 530.0,742.0 Q 526.0,761.0 496.0,776.0 Q 426.0,806.0 412.0,799.0 Q 408.0,795.0 408.0,782.0 Q 411.0,772.0 437.0,749.0" fill="black" stroke="#000000"/>
	<path d="M 583.0,586.0 Q 680.0,707.0 732.0,757.0 Q 748.0,766.0 742.0,776.0 Q 733.0,791.0 710.0,805.0 Q 686.0,820.0 663.0,817.0 Q 648.0,813.0 654.0,794.0 Q 658.0,781.0 653.0,763.0 Q 622.0,693.0 556.0,582.0 C 541.0,556.0 564.0,563.0 583.0,586.0" fill="black" stroke="#000000"/>
	<path d="M 593.0,547.0 Q 683.0,554.0 798.0,554.0 Q 871.0,551.0 879.0,563.0 Q 885.0,575.0 868.0,589.0 Q 814.0,629.0 775.0,621.0 Q 699.0,605.0 583.0,586.0 L 556.0,582.0 Q 528.0,579.0 501.0,574.0 Q 347.0,553.0 165.0,531.0 Q 143.0,530.0 159.0,511.0 Q 192.0,481.0 231.0,490.0 Q 280.0,503.0 334.0,514.0 L 365.0,519.0 Q 447.0,537.0 570.0,545.0 L 593.0,547.0" fill="black" stroke="#000000"/>
	<path d="M 334.0,514.0 Q 334.0,513.0 335.0,511.0 Q 338.0,433.0 208.0,305.0 Q 205.0,304.0 203.0,300.0 Q 164.0,263.0 70.0,195.0 Q 63.0,191.0 71.0,187.0 Q 123.0,187.0 247.0,285.0 Q 331.0,369.0 389.0,444.0 Q 399.0,457.0 405.0,461.0 Q 412.0,465.0 412.0,475.0 Q 409.0,500.0 372.0,517.0 Q 368.0,518.0 365.0,519.0 C 337.0,530.0 333.0,531.0 334.0,514.0" fill="black" stroke="#000000"/>
	<path d="M 570.0,545.0 Q 571.0,535.0 581.0,525.0 Q 669.0,408.0 766.0,301.0 Q 808.0,253.0 973.0,274.0 Q 992.0,275.0 994.0,280.0 Q 997.0,286.0 982.0,293.0 Q 805.0,374.0 790.0,382.0 Q 727.0,424.0 598.0,542.0 Q 595.0,545.0 593.0,547.0 C 571.0,568.0 558.0,573.0 570.0,545.0" fill="black" stroke="#000000"/>
	<path d="M 540.0,321.0 Q 573.0,328.0 610.0,333.0 Q 652.0,340.0 658.0,346.0 Q 665.0,353.0 662.0,361.0 Q 656.0,371.0 630.0,380.0 Q 606.0,386.0 542.0,367.0 L 483.0,353.0 Q 479.0,353.0 476.0,352.0 Q 419.0,342.0 354.0,337.0 Q 320.0,333.0 343.0,317.0 Q 376.0,296.0 449.0,307.0 Q 465.0,310.0 483.0,311.0 L 540.0,321.0" fill="black" stroke="#000000"/>
	<path d="M 536.0,192.0 Q 587.0,196.0 759.0,197.0 Q 778.0,197.0 783.0,206.0 Q 787.0,216.0 772.0,230.0 Q 724.0,267.0 670.0,257.0 Q 615.0,247.0 537.0,233.0 L 482.0,224.0 Q 368.0,211.0 236.0,193.0 Q 217.0,192.0 231.0,175.0 Q 244.0,162.0 262.0,156.0 Q 281.0,152.0 298.0,155.0 Q 418.0,186.0 481.0,187.0 L 536.0,192.0" fill="black" stroke="#000000"/>
</svg>
