<?xml version="1.0" ?>
<svg baseProfile="full" height="1024" version="1.1" viewBox="0 0 1024 1024" width="1024" xmlns="http://www.w3.org/2000/svg" xmlns:ev="http://www.w3.org/2001/xml-events" xmlns:xlink="http://www.w3.org/1999/xlink">
	<defs/>
	<path d="M 616.0,802.0 Q 641.0,781.0 670.0,757.0 Q 683.0,745.0 698.0,746.0 Q 708.0,747.0 713.0,760.0 Q 717.0,775.0 707.0,803.0 Q 695.0,830.0 609.0,847.0 Q 593.0,850.0 588.0,847.0 Q 584.0,843.0 585.0,831.0 Q 589.0,821.0 616.0,802.0" fill="black" stroke="#000000"/>
	<path d="M 496.0,636.0 Q 532.0,621.0 576.0,631.0 Q 682.0,653.0 793.0,675.0 Q 842.0,688.0 851.0,694.0 Q 858.0,701.0 855.0,709.0 Q 848.0,719.0 822.0,727.0 Q 798.0,733.0 704.0,701.0 Q 589.0,671.0 496.0,662.0 Q 489.0,661.0 487.0,659.0 C 458.0,651.0 468.0,646.0 496.0,636.0" fill="black" stroke="#000000"/>
	<path d="M 487.0,659.0 Q 472.0,672.0 448.0,683.0 Q 430.0,693.0 418.0,688.0 Q 406.0,681.0 413.0,668.0 Q 429.0,643.0 431.0,588.0 Q 413.0,380.0 394.0,304.0 Q 387.0,279.0 378.0,253.0 Q 350.0,172.0 262.0,25.0 Q 258.0,19.0 256.0,13.0 Q 253.0,3.0 263.0,5.0 Q 293.0,11.0 369.0,129.0 Q 385.0,157.0 400.0,189.0 Q 460.0,324.0 482.0,560.0 Q 485.0,617.0 496.0,636.0 C 501.0,649.0 501.0,649.0 487.0,659.0" fill="black" stroke="#000000"/>
	<path d="M 530.0,547.0 Q 523.0,551.0 512.0,552.0 Q 502.0,555.0 498.0,551.0 Q 494.0,547.0 500.0,532.0 Q 528.0,465.0 543.0,354.0 Q 544.0,320.0 563.0,298.0 Q 576.0,279.0 582.0,292.0 Q 585.0,302.0 586.0,318.0 L 585.0,341.0 Q 584.0,353.0 582.0,365.0 Q 560.0,491.0 557.0,521.0 C 555.0,537.0 555.0,537.0 530.0,547.0" fill="black" stroke="#000000"/>
	<path d="M 764.0,345.0 Q 782.0,320.0 797.0,314.0 Q 807.0,307.0 819.0,327.0 Q 832.0,354.0 853.0,493.0 Q 860.0,521.0 879.0,543.0 Q 889.0,553.0 880.0,566.0 Q 867.0,579.0 828.0,601.0 Q 812.0,608.0 628.0,566.0 Q 574.0,554.0 530.0,547.0 C 500.0,542.0 528.0,512.0 557.0,521.0 Q 587.0,531.0 635.0,540.0 L 673.0,548.0 Q 779.0,573.0 795.0,559.0 Q 808.0,544.0 807.0,528.0 Q 788.0,377.0 772.0,366.0 C 762.0,348.0 762.0,348.0 764.0,345.0" fill="black" stroke="#000000"/>
	<path d="M 701.0,438.0 Q 726.0,444.0 750.0,447.0 Q 769.0,451.0 761.0,462.0 Q 751.0,474.0 730.0,476.0 Q 718.0,477.0 702.0,473.0 L 655.0,459.0 Q 624.0,449.0 597.0,439.0 Q 584.0,435.0 601.0,423.0 Q 608.0,419.0 624.0,422.0 Q 639.0,426.0 655.0,428.0 L 701.0,438.0" fill="black" stroke="#000000"/>
</svg>
