<?xml version="1.0" ?>
<svg baseProfile="full" height="1024" version="1.1" viewBox="0 0 1024 1024" width="1024" xmlns="http://www.w3.org/2000/svg" xmlns:ev="http://www.w3.org/2001/xml-events" xmlns:xlink="http://www.w3.org/1999/xlink">
	<defs/>
	<path d="M 386.0,363.0 Q 386.0,159.0 409.0,117.0 Q 445.0,69.0 575.0,64.0 Q 719.0,58.0 792.0,93.0 Q 805.0,102.0 804.0,113.0 Q 800.0,132.0 779.0,142.0 Q 749.0,157.0 729.0,154.0 Q 716.0,154.0 707.0,147.0 Q 680.0,125.0 543.0,118.0 Q 473.0,118.0 450.0,150.0 Q 426.0,189.0 433.0,375.0 L 434.0,424.0 Q 437.0,644.0 465.0,686.0 Q 481.0,714.0 452.0,734.0 Q 416.0,759.0 394.0,765.0 Q 363.0,772.0 354.0,758.0 Q 347.0,748.0 357.0,739.0 Q 391.0,705.0 388.0,630.0 Q 391.0,551.0 387.0,414.0 L 386.0,363.0" fill="black" stroke="#000000"/>
</svg>
