<?xml version="1.0" ?>
<svg baseProfile="full" height="1024" version="1.1" viewBox="0 0 1024 1024" width="1024" xmlns="http://www.w3.org/2000/svg" xmlns:ev="http://www.w3.org/2001/xml-events" xmlns:xlink="http://www.w3.org/1999/xlink">
	<defs/>
	<path d="M 571.0,760.0 Q 605.0,738.0 642.0,710.0 Q 657.0,700.0 671.0,701.0 Q 681.0,702.0 685.0,716.0 Q 688.0,731.0 676.0,758.0 Q 661.0,792.0 560.0,805.0 Q 545.0,806.0 540.0,803.0 Q 536.0,799.0 538.0,787.0 Q 542.0,777.0 571.0,760.0" fill="black" stroke="#000000"/>
	<path d="M 594.0,595.0 Q 792.0,640.0 799.0,645.0 Q 808.0,652.0 803.0,661.0 Q 796.0,671.0 768.0,679.0 Q 744.0,683.0 634.0,649.0 Q 508.0,625.0 473.0,620.0 Q 437.0,614.0 463.0,598.0 Q 502.0,577.0 558.0,588.0 L 594.0,595.0" fill="black" stroke="#000000"/>
	<path d="M 716.0,462.0 Q 634.0,447.0 548.0,424.0 Q 539.0,420.0 536.0,423.0 Q 535.0,424.0 539.0,432.0 Q 617.0,528.0 633.0,544.0 Q 645.0,553.0 639.0,564.0 Q 633.0,576.0 594.0,595.0 C 567.0,609.0 552.0,616.0 558.0,588.0 Q 558.0,584.0 560.0,577.0 Q 578.0,520.0 489.0,435.0 Q 440.0,399.0 453.0,380.0 Q 459.0,370.0 476.0,357.0 Q 486.0,347.0 498.0,357.0 Q 543.0,394.0 730.0,441.0 L 732.0,441.0 C 761.0,447.0 745.0,468.0 716.0,462.0" fill="black" stroke="#000000"/>
	<path d="M 732.0,441.0 Q 774.0,387.0 785.0,384.0 Q 795.0,383.0 801.0,393.0 Q 808.0,405.0 806.0,431.0 Q 803.0,470.0 707.0,522.0 Q 694.0,528.0 688.0,527.0 Q 684.0,524.0 682.0,513.0 Q 682.0,510.0 716.0,462.0 L 732.0,441.0" fill="black" stroke="#000000"/>
</svg>
