<?xml version="1.0" ?>
<svg baseProfile="full" height="1024" version="1.1" viewBox="0 0 1024 1024" width="1024" xmlns="http://www.w3.org/2000/svg" xmlns:ev="http://www.w3.org/2001/xml-events" xmlns:xlink="http://www.w3.org/1999/xlink">
	<defs/>
	<path d="M 571.0,760.0 Q 605.0,738.0 642.0,710.0 Q 657.0,700.0 671.0,701.0 Q 681.0,702.0 685.0,716.0 Q 688.0,731.0 676.0,758.0 Q 661.0,792.0 560.0,805.0 Q 545.0,806.0 540.0,803.0 Q 536.0,799.0 538.0,787.0 Q 542.0,777.0 571.0,760.0" fill="black" stroke="#000000"/>
	<path d="M 594.0,595.0 Q 792.0,640.0 799.0,645.0 Q 808.0,652.0 803.0,661.0 Q 796.0,671.0 768.0,679.0 Q 744.0,683.0 634.0,649.0 Q 508.0,625.0 473.0,620.0 Q 437.0,614.0 463.0,598.0 Q 502.0,577.0 558.0,588.0 L 594.0,595.0" fill="black" stroke="#000000"/>
	<path d="M 716.0,462.0 Q 634.0,447.0 548.0,424.0 Q 539.0,420.0 536.0,423.0 Q 535.0,424.0 539.0,432.0 Q 617.0,528.0 633.0,544.0 Q 645.0,553.0 639.0,564.0 Q 633.0,576.0 594.0,595.0 C 567.0,609.0 552.0,616.0 558.0,588.0 Q 558.0,584.0 560.0,577.0 Q 578.0,520.0 489.0,435.0 Q 440.0,399.0 453.0,380.0 Q 459.0,370.0 476.0,357.0 Q 486.0,347.0 498.0,357.0 Q 543.0,394.0 730.0,441.0 L 732.0,441.0 C 761.0,447.0 745.0,468.0 716.0,462.0" fill="black" stroke="#000000"/>
	<path d="M 732.0,441.0 Q 774.0,387.0 785.0,384.0 Q 795.0,383.0 801.0,393.0 Q 808.0,405.0 806.0,431.0 Q 803.0,470.0 707.0,522.0 Q 694.0,528.0 688.0,527.0 Q 684.0,524.0 682.0,513.0 Q 682.0,510.0 716.0,462.0 L 732.0,441.0" fill="black" stroke="#000000"/>
	<path d="M 449.0,293.0 Q 468.0,254.0 451.0,154.0 Q 445.0,133.0 435.0,106.0 Q 423.0,78.0 380.0,34.0 Q 367.0,24.0 364.0,19.0 Q 363.0,13.0 372.0,13.0 Q 396.0,12.0 440.0,48.0 Q 494.0,100.0 518.0,267.0 Q 524.0,283.0 507.0,294.0 Q 467.0,316.0 454.0,315.0 Q 436.0,314.0 449.0,293.0" fill="black" stroke="#000000"/>
	<path d="M 561.0,296.0 Q 583.0,245.0 567.0,104.0 Q 561.0,74.0 585.0,46.0 Q 592.0,36.0 602.0,46.0 Q 621.0,74.0 619.0,110.0 Q 615.0,191.0 626.0,269.0 Q 632.0,290.0 614.0,299.0 Q 599.0,309.0 585.0,316.0 Q 575.0,320.0 565.0,315.0 Q 558.0,311.0 561.0,296.0" fill="black" stroke="#000000"/>
	<path d="M 961.0,68.0 Q 948.0,101.0 928.0,196.0 Q 927.0,209.0 921.0,214.0 Q 915.0,217.0 912.0,201.0 Q 894.0,99.0 878.0,67.0 Q 871.0,57.0 850.0,53.0 Q 801.0,44.0 759.0,62.0 Q 743.0,71.0 738.0,82.0 Q 711.0,139.0 743.0,319.0 Q 749.0,346.0 703.0,367.0 Q 690.0,371.0 683.0,366.0 Q 676.0,362.0 681.0,345.0 Q 693.0,308.0 690.0,273.0 Q 677.0,65.0 712.0,31.0 Q 770.0,-23.0 892.0,1.0 Q 896.0,2.0 901.0,3.0 Q 929.0,10.0 957.0,31.0 Q 973.0,46.0 961.0,68.0" fill="black" stroke="#000000"/>
</svg>
