<?xml version="1.0" ?>
<svg baseProfile="full" height="1024" version="1.1" viewBox="0 0 1024 1024" width="1024" xmlns="http://www.w3.org/2000/svg" xmlns:ev="http://www.w3.org/2001/xml-events" xmlns:xlink="http://www.w3.org/1999/xlink">
	<defs/>
	<path d="M 593.0,743.0 Q 615.0,749.0 748.0,759.0 Q 758.0,758.0 768.0,770.0 Q 769.0,782.0 747.0,793.0 Q 717.0,817.0 645.0,796.0 Q 503.0,769.0 316.0,750.0 Q 307.0,750.0 301.0,748.0 Q 273.0,747.0 294.0,728.0 Q 321.0,701.0 354.0,706.0 Q 382.0,712.0 415.0,716.0 L 457.0,723.0 Q 500.0,730.0 550.0,737.0 L 593.0,743.0" fill="black" stroke="#000000"/>
	<path d="M 415.0,716.0 Q 424.0,688.0 427.0,617.0 Q 427.0,568.0 428.0,478.0 C 428.0,448.0 467.0,453.0 468.0,483.0 Q 472.0,585.0 477.0,661.0 Q 481.0,704.0 462.0,720.0 Q 459.0,721.0 457.0,723.0 C 432.0,740.0 407.0,745.0 415.0,716.0" fill="black" stroke="#000000"/>
	<path d="M 598.0,504.0 L 613.0,723.0 Q 603.0,735.0 593.0,743.0 C 570.0,763.0 542.0,766.0 550.0,737.0 Q 559.0,710.0 559.0,635.0 Q 558.0,586.0 557.0,496.0 C 557.0,466.0 596.0,474.0 598.0,504.0" fill="black" stroke="#000000"/>
	<path d="M 281.0,589.0 Q 299.0,570.0 318.0,544.0 Q 330.0,531.0 344.0,529.0 Q 354.0,529.0 361.0,541.0 Q 367.0,554.0 362.0,584.0 Q 356.0,608.0 281.0,636.0 Q 266.0,640.0 260.0,639.0 Q 256.0,636.0 255.0,623.0 Q 256.0,613.0 281.0,589.0" fill="black" stroke="#000000"/>
	<path d="M 709.0,665.0 Q 690.0,634.0 651.0,585.0 Q 645.0,578.0 651.0,571.0 Q 658.0,570.0 666.0,574.0 Q 744.0,625.0 781.0,644.0 Q 799.0,648.0 795.0,660.0 Q 789.0,676.0 770.0,694.0 Q 751.0,712.0 729.0,714.0 Q 714.0,713.0 715.0,694.0 Q 718.0,681.0 709.0,665.0" fill="black" stroke="#000000"/>
	<path d="M 305.0,419.0 Q 315.0,418.0 332.0,421.0 Q 558.0,460.0 797.0,480.0 Q 809.0,479.0 819.0,491.0 Q 820.0,504.0 797.0,516.0 Q 755.0,540.0 687.0,523.0 Q 642.0,516.0 598.0,504.0 L 557.0,496.0 Q 511.0,489.0 468.0,483.0 L 428.0,478.0 Q 385.0,478.0 297.0,468.0 C 267.0,465.0 275.0,418.0 305.0,419.0" fill="black" stroke="#000000"/>
	<path d="M 297.0,468.0 Q 281.0,478.0 269.0,481.0 Q 245.0,491.0 228.0,482.0 Q 215.0,476.0 224.0,463.0 Q 260.0,414.0 240.0,253.0 Q 239.0,249.0 238.0,243.0 Q 208.0,113.0 81.0,-1.0 Q 71.0,-11.0 82.0,-13.0 Q 136.0,-7.0 208.0,76.0 Q 283.0,160.0 297.0,309.0 Q 291.0,330.0 305.0,419.0 C 309.0,449.0 311.0,460.0 297.0,468.0" fill="black" stroke="#000000"/>
</svg>
