<?xml version="1.0" ?>
<svg baseProfile="full" height="1024" version="1.1" viewBox="0 0 1024 1024" width="1024" xmlns="http://www.w3.org/2000/svg" xmlns:ev="http://www.w3.org/2001/xml-events" xmlns:xlink="http://www.w3.org/1999/xlink">
	<defs/>
	<path d="M 492.0,669.0 Q 585.0,687.0 685.0,702.0 Q 752.0,715.0 761.0,724.0 Q 771.0,733.0 767.0,742.0 Q 760.0,757.0 727.0,766.0 Q 694.0,773.0 587.0,741.0 Q 436.0,705.0 305.0,697.0 Q 263.0,693.0 292.0,672.0 Q 340.0,647.0 417.0,658.0 Q 432.0,661.0 449.0,662.0 L 492.0,669.0" fill="black" stroke="#000000"/>
	<path d="M 223.0,459.0 Q 192.0,481.0 171.0,485.0 Q 164.0,489.0 159.0,481.0 Q 155.0,474.0 159.0,459.0 Q 187.0,410.0 191.0,365.0 Q 198.0,265.0 188.0,152.0 Q 184.0,127.0 195.0,104.0 Q 208.0,82.0 228.0,68.0 Q 244.0,58.0 246.0,71.0 Q 253.0,75.0 255.0,100.0 Q 261.0,125.0 252.0,209.0 Q 245.0,308.0 244.0,421.0 C 244.0,445.0 244.0,445.0 223.0,459.0" fill="black" stroke="#000000"/>
	<path d="M 511.0,464.0 Q 568.0,474.0 768.0,482.0 Q 784.0,482.0 791.0,474.0 Q 800.0,467.0 800.0,424.0 Q 803.0,243.0 779.0,140.0 Q 770.0,103.0 738.0,107.0 Q 707.0,114.0 679.0,122.0 Q 663.0,129.0 661.0,122.0 Q 660.0,113.0 671.0,97.0 Q 738.0,21.0 754.0,-17.0 Q 764.0,-33.0 776.0,-32.0 Q 792.0,-29.0 807.0,-2.0 Q 844.0,58.0 864.0,231.0 Q 882.0,439.0 894.0,459.0 Q 915.0,483.0 899.0,490.0 Q 881.0,509.0 839.0,528.0 Q 814.0,546.0 784.0,535.0 Q 750.0,525.0 662.0,518.0 Q 583.0,512.0 520.0,504.0 L 455.0,495.0 Q 418.0,492.0 387.0,485.0 Q 303.0,469.0 223.0,459.0 C 193.0,455.0 216.0,410.0 244.0,421.0 Q 259.0,439.0 449.0,457.0 L 511.0,464.0" fill="black" stroke="#000000"/>
	<path d="M 490.0,392.0 Q 493.0,402.0 497.0,413.0 Q 504.0,437.0 511.0,464.0 L 520.0,504.0 Q 527.0,553.0 543.0,611.0 Q 552.0,633.0 530.0,647.0 Q 508.0,662.0 492.0,669.0 C 465.0,683.0 440.0,691.0 449.0,662.0 Q 464.0,614.0 465.0,602.0 Q 465.0,557.0 455.0,495.0 L 449.0,457.0 Q 424.0,319.0 304.0,226.0 Q 286.0,213.0 282.0,206.0 Q 279.0,199.0 293.0,198.0 Q 333.0,195.0 398.0,250.0 Q 435.0,281.0 458.0,318.0 Q 471.0,342.0 483.0,371.0 L 490.0,392.0" fill="black" stroke="#000000"/>
	<path d="M 483.0,371.0 Q 484.0,368.0 490.0,364.0 Q 556.0,313.0 635.0,238.0 Q 651.0,220.0 666.0,217.0 Q 673.0,216.0 681.0,227.0 Q 691.0,240.0 677.0,280.0 Q 658.0,338.0 490.0,392.0 C 461.0,401.0 463.0,393.0 483.0,371.0" fill="black" stroke="#000000"/>
</svg>
