<?xml version="1.0" ?>
<svg baseProfile="full" height="1024" version="1.1" viewBox="0 0 1024 1024" width="1024" xmlns="http://www.w3.org/2000/svg" xmlns:ev="http://www.w3.org/2001/xml-events" xmlns:xlink="http://www.w3.org/1999/xlink">
	<defs/>
	<path d="M 441.0,666.0 Q 490.0,726.0 523.0,749.0 Q 525.0,750.0 526.0,751.0 Q 547.0,768.0 509.0,808.0 Q 486.0,830.0 469.0,833.0 Q 451.0,834.0 456.0,811.0 Q 461.0,792.0 441.0,757.0 Q 396.0,672.0 248.0,545.0 Q 232.0,535.0 232.0,528.0 Q 233.0,521.0 242.0,521.0 Q 288.0,521.0 423.0,651.0 L 441.0,666.0" fill="black" stroke="#000000"/>
	<path d="M 527.0,467.0 L 604.0,554.0 Q 653.0,615.0 705.0,653.0 Q 723.0,664.0 710.0,678.0 Q 696.0,692.0 655.0,714.0 Q 647.0,717.0 596.0,703.0 Q 454.0,668.0 441.0,666.0 C 412.0,660.0 408.0,659.0 423.0,651.0 Q 427.0,647.0 433.0,645.0 Q 457.0,637.0 541.0,651.0 Q 596.0,661.0 600.0,657.0 Q 604.0,653.0 598.0,639.0 Q 568.0,583.0 496.0,462.0 Q 521.0,466.0 527.0,467.0" fill="black" stroke="#000000"/>
</svg>
