<?xml version="1.0" ?>
<svg baseProfile="full" height="1024" version="1.1" viewBox="0 0 1024 1024" width="1024" xmlns="http://www.w3.org/2000/svg" xmlns:ev="http://www.w3.org/2001/xml-events" xmlns:xlink="http://www.w3.org/1999/xlink">
	<defs/>
	<path d="M 328.0,661.0 L 354.0,708.0 Q 374.0,743.0 376.0,749.0 Q 378.0,758.0 367.0,768.0 Q 317.0,804.0 292.0,796.0 Q 284.0,794.0 284.0,786.0 L 286.0,757.0 Q 294.0,654.0 186.0,517.0 Q 180.0,515.0 137.0,459.0 Q 134.0,453.0 134.0,450.0 Q 135.0,445.0 145.0,447.0 Q 172.0,453.0 220.0,502.0 Q 278.0,564.0 316.0,635.0 L 328.0,661.0" fill="black" stroke="#000000"/>
	<path d="M 316.0,635.0 Q 359.0,613.0 413.0,630.0 L 502.0,649.0 Q 523.0,654.0 525.0,657.0 Q 535.0,666.0 529.0,674.0 Q 521.0,686.0 492.0,692.0 Q 473.0,694.0 429.0,684.0 Q 355.0,664.0 328.0,661.0 C 298.0,657.0 289.0,648.0 316.0,635.0" fill="black" stroke="#000000"/>
	<path d="M 327.0,509.0 Q 355.0,466.0 388.0,453.0 Q 396.0,451.0 404.0,455.0 Q 421.0,465.0 416.0,493.0 Q 411.0,517.0 394.0,531.0 Q 338.0,561.0 316.0,550.0 Q 308.0,549.0 310.0,536.0 Q 311.0,524.0 327.0,509.0" fill="black" stroke="#000000"/>
</svg>
