<?xml version="1.0" ?>
<svg baseProfile="full" height="1024" version="1.1" viewBox="0 0 1024 1024" width="1024" xmlns="http://www.w3.org/2000/svg" xmlns:ev="http://www.w3.org/2001/xml-events" xmlns:xlink="http://www.w3.org/1999/xlink">
	<defs/>
	<path d="M 583.0,687.0 Q 593.0,690.0 741.0,705.0 Q 753.0,704.0 764.0,718.0 Q 765.0,731.0 740.0,744.0 Q 701.0,768.0 618.0,745.0 Q 507.0,721.0 311.0,696.0 Q 292.0,695.0 274.0,692.0 Q 241.0,689.0 266.0,669.0 Q 303.0,639.0 328.0,644.0 Q 329.0,645.0 356.0,649.0 L 394.0,656.0 Q 458.0,669.0 537.0,680.0 L 583.0,687.0" fill="black" stroke="#000000"/>
	<path d="M 243.0,473.0 Q 234.0,491.0 186.0,504.0 Q 176.0,505.0 170.0,497.0 Q 166.0,491.0 174.0,480.0 Q 219.0,345.0 175.0,167.0 Q 163.0,155.0 169.0,116.0 Q 169.0,115.0 170.0,113.0 Q 180.0,79.0 192.0,65.0 Q 204.0,50.0 214.0,65.0 Q 242.0,99.0 243.0,266.0 Q 243.0,374.0 250.0,434.0 C 253.0,462.0 253.0,462.0 243.0,473.0" fill="black" stroke="#000000"/>
	<path d="M 602.0,487.0 Q 659.0,491.0 745.0,497.0 Q 761.0,497.0 766.0,489.0 Q 776.0,482.0 777.0,439.0 Q 787.0,258.0 767.0,153.0 Q 758.0,111.0 723.0,115.0 Q 677.0,125.0 633.0,132.0 Q 617.0,136.0 617.0,129.0 Q 617.0,122.0 630.0,109.0 Q 724.0,43.0 750.0,8.0 Q 760.0,-8.0 772.0,-6.0 Q 788.0,-3.0 801.0,25.0 Q 835.0,88.0 846.0,279.0 Q 849.0,457.0 863.0,481.0 Q 882.0,505.0 867.0,510.0 Q 851.0,528.0 809.0,545.0 Q 784.0,561.0 756.0,550.0 Q 723.0,540.0 641.0,532.0 Q 625.0,531.0 608.0,528.0 L 550.0,522.0 Q 471.0,515.0 413.0,503.0 L 363.0,494.0 Q 302.0,484.0 243.0,473.0 C 213.0,468.0 221.0,426.0 250.0,434.0 Q 292.0,449.0 352.0,456.0 Q 353.0,457.0 357.0,456.0 L 405.0,463.0 Q 481.0,476.0 546.0,483.0 L 602.0,487.0" fill="black" stroke="#000000"/>
	<path d="M 356.0,649.0 Q 377.0,628.0 363.0,494.0 L 357.0,456.0 Q 339.0,366.0 278.0,263.0 Q 274.0,257.0 272.0,252.0 Q 269.0,242.0 278.0,245.0 Q 306.0,251.0 361.0,342.0 Q 362.0,345.0 364.0,347.0 L 374.0,369.0 Q 389.0,403.0 400.0,443.0 Q 401.0,453.0 405.0,463.0 L 413.0,503.0 Q 417.0,527.0 420.0,549.0 Q 421.0,588.0 429.0,609.0 Q 436.0,622.0 430.0,633.0 Q 417.0,646.0 394.0,656.0 C 367.0,669.0 341.0,675.0 356.0,649.0" fill="black" stroke="#000000"/>
	<path d="M 364.0,347.0 Q 368.0,343.0 376.0,336.0 Q 446.0,270.0 454.0,268.0 Q 461.0,268.0 466.0,277.0 Q 470.0,287.0 465.0,307.0 Q 458.0,337.0 375.0,369.0 L 374.0,369.0 C 345.0,378.0 342.0,368.0 364.0,347.0" fill="black" stroke="#000000"/>
	<path d="M 574.0,375.0 Q 595.0,453.0 602.0,487.0 L 608.0,528.0 Q 614.0,613.0 622.0,634.0 Q 629.0,647.0 623.0,661.0 Q 608.0,676.0 583.0,687.0 C 556.0,700.0 524.0,707.0 537.0,680.0 Q 537.0,679.0 539.0,676.0 Q 560.0,640.0 550.0,522.0 L 546.0,483.0 Q 545.0,477.0 545.0,470.0 Q 527.0,347.0 442.0,198.0 Q 438.0,192.0 436.0,186.0 Q 433.0,176.0 444.0,177.0 Q 469.0,181.0 532.0,278.0 Q 541.0,296.0 551.0,315.0 Q 558.0,331.0 564.0,348.0 L 574.0,375.0" fill="black" stroke="#000000"/>
</svg>
