<?xml version="1.0" ?>
<svg baseProfile="full" height="1024" version="1.1" viewBox="0 0 1024 1024" width="1024" xmlns="http://www.w3.org/2000/svg" xmlns:ev="http://www.w3.org/2001/xml-events" xmlns:xlink="http://www.w3.org/1999/xlink">
	<defs/>
	<path d="M 407.0,333.0 Q 417.0,358.0 430.0,381.0 Q 464.0,460.0 477.0,550.0 L 482.0,584.0 Q 500.0,716.0 521.0,761.0 Q 531.0,783.0 512.0,792.0 Q 458.0,831.0 426.0,820.0 Q 410.0,814.0 419.0,797.0 Q 450.0,740.0 428.0,571.0 L 421.0,534.0 Q 394.0,420.0 360.0,355.0 L 339.0,317.0 Q 324.0,295.0 309.0,271.0 Q 266.0,208.0 186.0,147.0 Q 167.0,131.0 141.0,114.0 Q 125.0,101.0 107.0,87.0 Q 92.0,75.0 106.0,73.0 Q 122.0,73.0 162.0,90.0 Q 243.0,130.0 302.0,190.0 Q 350.0,235.0 380.0,282.0 L 407.0,333.0" fill="black" stroke="#000000"/>
	<path d="M 477.0,550.0 Q 544.0,572.0 594.0,579.0 Q 616.0,583.0 622.0,578.0 Q 626.0,571.0 621.0,554.0 Q 497.0,139.0 642.0,65.0 Q 678.0,44.0 746.0,35.0 Q 884.0,22.0 968.0,74.0 Q 987.0,84.0 980.0,107.0 Q 964.0,165.0 961.0,251.0 Q 960.0,270.0 954.0,269.0 Q 948.0,270.0 942.0,251.0 Q 908.0,149.0 879.0,125.0 Q 861.0,109.0 804.0,103.0 Q 740.0,96.0 687.0,113.0 Q 642.0,128.0 628.0,160.0 Q 606.0,200.0 615.0,289.0 Q 628.0,386.0 674.0,503.0 Q 693.0,554.0 726.0,581.0 Q 742.0,594.0 741.0,607.0 Q 740.0,619.0 670.0,651.0 Q 655.0,661.0 637.0,646.0 Q 588.0,612.0 505.0,591.0 Q 493.0,588.0 482.0,584.0 L 428.0,571.0 Q 367.0,558.0 308.0,541.0 Q 262.0,531.0 188.0,530.0 Q 173.0,531.0 176.0,516.0 Q 179.0,503.0 206.0,487.0 Q 237.0,469.0 275.0,485.0 Q 354.0,513.0 421.0,534.0 L 477.0,550.0" fill="black" stroke="#000000"/>
</svg>
