<?xml version="1.0" ?>
<svg baseProfile="full" height="1024" version="1.1" viewBox="0 0 1024 1024" width="1024" xmlns="http://www.w3.org/2000/svg" xmlns:ev="http://www.w3.org/2001/xml-events" xmlns:xlink="http://www.w3.org/1999/xlink">
	<defs/>
	<path d="M 525.0,690.0 Q 662.0,708.0 914.0,709.0 Q 938.0,710.0 943.0,719.0 Q 951.0,733.0 930.0,750.0 Q 864.0,799.0 793.0,778.0 Q 584.0,736.0 164.0,680.0 Q 139.0,677.0 157.0,657.0 Q 174.0,642.0 194.0,635.0 Q 202.0,633.0 209.0,633.0 Q 226.0,631.0 261.0,641.0 Q 356.0,666.0 478.0,682.0 L 525.0,690.0" fill="black" stroke="#000000"/>
	<path d="M 474.0,510.0 L 552.0,610.0 Q 559.0,615.0 562.0,621.0 Q 574.0,646.0 525.0,690.0 C 504.0,712.0 479.0,712.0 478.0,682.0 Q 482.0,649.0 466.0,600.0 Q 465.0,598.0 463.0,594.0 Q 445.0,563.0 429.0,546.0 Q 425.0,543.0 421.0,534.0 Q 404.0,504.0 390.0,488.0 Q 383.0,480.0 382.0,472.0 Q 382.0,456.0 421.0,427.0 Q 425.0,424.0 433.0,424.0 Q 455.0,424.0 470.0,435.0 Q 479.0,437.0 488.0,438.0 L 667.0,476.0 Q 686.0,480.0 696.0,469.0 Q 703.0,455.0 692.0,424.0 Q 629.0,171.0 572.0,130.0 Q 557.0,120.0 539.0,125.0 Q 523.0,131.0 463.0,175.0 Q 447.0,186.0 445.0,177.0 Q 444.0,166.0 458.0,147.0 Q 492.0,88.0 508.0,44.0 Q 512.0,31.0 515.0,25.0 Q 532.0,-2.0 585.0,27.0 Q 623.0,56.0 651.0,110.0 Q 686.0,176.0 750.0,374.0 Q 760.0,405.0 773.0,425.0 Q 778.0,433.0 797.0,453.0 Q 808.0,464.0 805.0,476.0 Q 801.0,494.0 725.0,535.0 Q 700.0,548.0 677.0,534.0 Q 603.0,501.0 496.0,498.0 Q 490.0,496.0 486.0,496.0 Q 469.0,495.0 474.0,510.0" fill="black" stroke="#000000"/>
</svg>
