<?xml version="1.0" ?>
<svg baseProfile="full" height="1024" version="1.1" viewBox="0 0 1024 1024" width="1024" xmlns="http://www.w3.org/2000/svg" xmlns:ev="http://www.w3.org/2001/xml-events" xmlns:xlink="http://www.w3.org/1999/xlink">
	<defs/>
	<path d="M 542.0,691.0 Q 554.0,678.0 554.0,577.0 Q 554.0,474.0 720.0,484.0 Q 735.0,485.0 743.0,486.0 Q 776.0,489.0 788.0,498.0 Q 798.0,506.0 794.0,514.0 Q 794.0,516.0 792.0,518.0 Q 782.0,530.0 752.0,545.0 Q 739.0,550.0 729.0,547.0 L 719.0,543.0 Q 698.0,527.0 666.0,527.0 Q 646.0,527.0 629.0,531.0 Q 621.0,533.0 613.0,538.0 Q 602.0,548.0 598.0,575.0 Q 596.0,606.0 604.0,631.0 Q 607.0,643.0 613.0,654.0 Q 619.0,670.0 607.0,684.0 L 596.0,692.0 L 588.0,697.0 C 563.0,713.0 530.0,718.0 542.0,691.0" fill="black" stroke="#000000"/>
</svg>
