<?xml version="1.0" ?>
<svg baseProfile="full" height="1024" version="1.1" viewBox="0 0 1024 1024" width="1024" xmlns="http://www.w3.org/2000/svg" xmlns:ev="http://www.w3.org/2001/xml-events" xmlns:xlink="http://www.w3.org/1999/xlink">
	<defs/>
	<path d="M 514.0,603.0 Q 580.0,613.0 650.0,623.0 Q 711.0,633.0 721.0,642.0 Q 731.0,649.0 727.0,659.0 Q 720.0,672.0 689.0,682.0 Q 658.0,691.0 624.0,680.0 Q 575.0,667.0 525.0,654.0 L 471.0,643.0 Q 389.0,631.0 297.0,627.0 Q 257.0,623.0 284.0,603.0 Q 332.0,573.0 388.0,585.0 Q 425.0,591.0 465.0,596.0 L 514.0,603.0" fill="black" stroke="#000000"/>
	<path d="M 476.0,431.0 Q 486.0,434.0 501.0,434.0 Q 553.0,438.0 601.0,444.0 Q 733.0,462.0 868.0,450.0 Q 892.0,447.0 897.0,456.0 Q 904.0,469.0 892.0,481.0 Q 862.0,508.0 818.0,527.0 Q 803.0,533.0 778.0,524.0 Q 712.0,508.0 645.0,497.0 Q 542.0,484.0 485.0,475.0 L 442.0,470.0 Q 348.0,460.0 297.0,451.0 Q 231.0,439.0 133.0,436.0 Q 120.0,436.0 118.0,424.0 Q 117.0,412.0 137.0,398.0 Q 153.0,385.0 185.0,374.0 Q 195.0,371.0 214.0,379.0 Q 230.0,385.0 299.0,398.0 Q 357.0,414.0 430.0,424.0 L 476.0,431.0" fill="black" stroke="#000000"/>
	<path d="M 577.0,76.0 Q 614.0,119.0 680.0,208.0 Q 711.0,245.0 732.0,255.0 Q 754.0,265.0 755.0,276.0 Q 756.0,288.0 739.0,301.0 Q 717.0,320.0 693.0,332.0 Q 668.0,344.0 630.0,325.0 Q 534.0,300.0 470.0,297.0 Q 446.0,290.0 452.0,320.0 Q 462.0,375.0 476.0,431.0 L 485.0,475.0 Q 498.0,539.0 514.0,603.0 L 525.0,654.0 Q 543.0,741.0 563.0,765.0 Q 576.0,781.0 556.0,797.0 Q 534.0,813.0 487.0,832.0 Q 471.0,838.0 462.0,830.0 Q 452.0,823.0 467.0,801.0 Q 485.0,774.0 471.0,643.0 L 465.0,596.0 Q 461.0,578.0 459.0,556.0 Q 452.0,516.0 442.0,470.0 L 430.0,424.0 Q 402.0,331.0 388.0,314.0 Q 349.0,278.0 379.0,237.0 Q 386.0,225.0 406.0,239.0 Q 473.0,279.0 619.0,285.0 Q 644.0,286.0 644.0,282.0 L 557.0,91.0 C 545.0,64.0 558.0,53.0 577.0,76.0" fill="black" stroke="#000000"/>
</svg>
