<?xml version="1.0" ?>
<svg baseProfile="full" height="1024" version="1.1" viewBox="0 0 1024 1024" width="1024" xmlns="http://www.w3.org/2000/svg" xmlns:ev="http://www.w3.org/2001/xml-events" xmlns:xlink="http://www.w3.org/1999/xlink">
	<defs/>
	<path d="M 524.0,549.0 Q 533.0,530.0 527.0,507.0 Q 512.0,470.0 486.0,451.0 Q 471.0,439.0 474.0,428.0 Q 475.0,415.0 489.0,403.0 Q 499.0,394.0 512.0,401.0 Q 549.0,432.0 618.0,459.0 Q 657.0,475.0 679.0,465.0 Q 695.0,455.0 690.0,429.0 Q 684.0,395.0 664.0,368.0 Q 649.0,349.0 636.0,344.0 Q 620.0,341.0 561.0,361.0 Q 548.0,368.0 547.0,362.0 Q 546.0,356.0 556.0,346.0 Q 586.0,310.0 606.0,280.0 Q 613.0,270.0 622.0,269.0 Q 635.0,268.0 651.0,277.0 Q 699.0,310.0 733.0,406.0 Q 737.0,434.0 749.0,448.0 Q 758.0,458.0 750.0,469.0 Q 738.0,482.0 704.0,498.0 Q 689.0,505.0 671.0,501.0 Q 631.0,485.0 562.0,463.0 Q 550.0,460.0 555.0,473.0 Q 576.0,507.0 583.0,515.0 Q 593.0,527.0 585.0,540.0 Q 578.0,546.0 570.0,550.0 C 546.0,568.0 516.0,578.0 524.0,549.0" fill="black" stroke="#000000"/>
</svg>
