<?xml version="1.0" ?>
<svg baseProfile="full" height="1024" version="1.1" viewBox="0 0 1024 1024" width="1024" xmlns="http://www.w3.org/2000/svg" xmlns:ev="http://www.w3.org/2001/xml-events" xmlns:xlink="http://www.w3.org/1999/xlink">
	<defs/>
	<path d="M 809.0,103.0 Q 833.0,188.0 855.0,223.0 Q 865.0,233.0 861.0,244.0 Q 855.0,259.0 800.0,284.0 Q 785.0,291.0 772.0,287.0 Q 642.0,259.0 486.0,237.0 C 456.0,233.0 468.0,194.0 496.0,204.0 Q 505.0,210.0 551.0,217.0 L 570.0,221.0 Q 607.0,230.0 647.0,236.0 L 684.0,242.0 Q 753.0,258.0 771.0,248.0 Q 777.0,244.0 777.0,228.0 Q 770.0,173.0 752.0,94.0 C 745.0,65.0 801.0,74.0 809.0,103.0" fill="black" stroke="#000000"/>
</svg>
