<?xml version="1.0" ?>
<svg baseProfile="full" height="1024" version="1.1" viewBox="0 0 1024 1024" width="1024" xmlns="http://www.w3.org/2000/svg" xmlns:ev="http://www.w3.org/2001/xml-events" xmlns:xlink="http://www.w3.org/1999/xlink">
	<defs/>
	<path d="M 304.0,668.0 Q 326.0,646.0 351.0,618.0 Q 364.0,605.0 380.0,604.0 Q 390.0,604.0 397.0,617.0 Q 403.0,632.0 395.0,662.0 Q 391.0,681.0 362.0,695.0 Q 301.0,725.0 280.0,719.0 Q 274.0,715.0 276.0,702.0 Q 279.0,692.0 304.0,668.0" fill="black" stroke="#000000"/>
	<path d="M 437.0,749.0 Q 462.0,725.0 487.0,697.0 Q 500.0,684.0 516.0,684.0 Q 526.0,684.0 533.0,697.0 Q 537.0,712.0 530.0,742.0 Q 526.0,761.0 496.0,776.0 Q 426.0,806.0 412.0,799.0 Q 408.0,795.0 408.0,782.0 Q 411.0,772.0 437.0,749.0" fill="black" stroke="#000000"/>
	<path d="M 583.0,586.0 Q 680.0,707.0 732.0,757.0 Q 748.0,766.0 742.0,776.0 Q 733.0,791.0 710.0,805.0 Q 686.0,820.0 663.0,817.0 Q 648.0,813.0 654.0,794.0 Q 658.0,781.0 653.0,763.0 Q 622.0,693.0 556.0,582.0 C 541.0,556.0 564.0,563.0 583.0,586.0" fill="black" stroke="#000000"/>
</svg>
