<?xml version="1.0" ?>
<svg baseProfile="full" height="1024" version="1.1" viewBox="0 0 1024 1024" width="1024" xmlns="http://www.w3.org/2000/svg" xmlns:ev="http://www.w3.org/2001/xml-events" xmlns:xlink="http://www.w3.org/1999/xlink">
	<defs/>
	<path d="M 517.0,85.0 Q 572.0,86.0 625.0,90.0 Q 772.0,97.0 909.0,78.0 Q 933.0,74.0 940.0,83.0 Q 949.0,96.0 936.0,109.0 Q 906.0,139.0 862.0,162.0 Q 847.0,169.0 820.0,161.0 Q 750.0,148.0 676.0,141.0 Q 666.0,141.0 658.0,139.0 L 596.0,135.0 Q 532.0,132.0 492.0,129.0 Q 443.0,126.0 403.0,122.0 L 355.0,118.0 Q 324.0,118.0 303.0,115.0 Q 233.0,108.0 127.0,110.0 Q 112.0,111.0 111.0,99.0 Q 110.0,86.0 128.0,71.0 Q 171.0,38.0 216.0,49.0 Q 262.0,61.0 403.0,76.0 Q 457.0,82.0 517.0,85.0" fill="black" stroke="#000000"/>
</svg>
