<?xml version="1.0" ?>
<svg baseProfile="full" height="1024" version="1.1" viewBox="0 0 1024 1024" width="1024" xmlns="http://www.w3.org/2000/svg" xmlns:ev="http://www.w3.org/2001/xml-events" xmlns:xlink="http://www.w3.org/1999/xlink">
	<defs/>
	<path d="M 470.0,431.0 Q 471.0,431.0 472.0,429.0 Q 482.0,408.0 484.0,388.0 Q 487.0,349.0 484.0,330.0 Q 484.0,290.0 484.0,267.0 L 482.0,233.0 Q 482.0,218.0 480.0,182.0 Q 474.0,80.0 466.0,55.0 Q 459.0,31.0 478.0,-12.0 Q 494.0,-49.0 510.0,-59.0 Q 521.0,-60.0 527.0,-46.0 Q 538.0,-20.0 536.0,18.0 Q 533.0,69.0 533.0,238.0 L 535.0,274.0 L 536.0,339.0 L 541.0,396.0 Q 542.0,411.0 537.0,416.0 Q 529.0,423.0 507.0,437.0 C 482.0,453.0 456.0,458.0 470.0,431.0" fill="black" stroke="#000000"/>
</svg>
