<?xml version="1.0" ?>
<svg baseProfile="full" height="1024" version="1.1" viewBox="0 0 1024 1024" width="1024" xmlns="http://www.w3.org/2000/svg" xmlns:ev="http://www.w3.org/2001/xml-events" xmlns:xlink="http://www.w3.org/1999/xlink">
	<defs/>
	<path d="M 520.0,133.0 Q 523.0,296.0 525.0,442.0 L 525.0,479.0 Q 525.0,654.0 543.0,722.0 Q 556.0,746.0 540.0,761.0 Q 498.0,792.0 465.0,802.0 Q 449.0,805.0 432.0,791.0 Q 425.0,782.0 432.0,770.0 Q 462.0,727.0 462.0,629.0 Q 462.0,394.0 466.0,128.0 C 466.0,98.0 519.0,103.0 520.0,133.0" fill="black" stroke="#000000"/>
	<path d="M 525.0,442.0 Q 573.0,436.0 682.0,459.0 Q 769.0,477.0 776.0,484.0 Q 786.0,493.0 780.0,503.0 Q 771.0,516.0 738.0,523.0 Q 704.0,529.0 670.0,514.0 Q 637.0,502.0 601.0,493.0 Q 564.0,484.0 525.0,479.0 C 495.0,475.0 495.0,445.0 525.0,442.0" fill="black" stroke="#000000"/>
	<path d="M 528.0,82.0 Q 582.0,83.0 633.0,88.0 Q 781.0,100.0 911.0,81.0 Q 938.0,78.0 945.0,88.0 Q 954.0,103.0 940.0,116.0 Q 907.0,147.0 859.0,171.0 Q 843.0,178.0 813.0,169.0 Q 707.0,150.0 520.0,133.0 L 466.0,128.0 Q 363.0,121.0 309.0,114.0 Q 239.0,104.0 137.0,106.0 Q 121.0,106.0 120.0,93.0 Q 119.0,80.0 139.0,63.0 Q 184.0,30.0 234.0,41.0 Q 289.0,56.0 416.0,71.0 Q 468.0,78.0 528.0,82.0" fill="black" stroke="#000000"/>
</svg>
