<?xml version="1.0" ?>
<svg baseProfile="full" height="1024" version="1.1" viewBox="0 0 1024 1024" width="1024" xmlns="http://www.w3.org/2000/svg" xmlns:ev="http://www.w3.org/2001/xml-events" xmlns:xlink="http://www.w3.org/1999/xlink">
	<defs/>
	<path d="M 321.0,674.0 Q 311.0,680.0 271.0,683.0 Q 258.0,684.0 255.0,679.0 Q 249.0,672.0 260.0,656.0 Q 291.0,610.0 316.0,529.0 Q 322.0,505.0 338.0,490.0 Q 359.0,469.0 363.0,486.0 Q 364.0,492.0 364.0,500.0 L 359.0,537.0 Q 341.0,609.0 335.0,638.0 C 329.0,667.0 328.0,671.0 321.0,674.0" fill="black" stroke="#000000"/>
	<path d="M 710.0,569.0 Q 743.0,632.0 773.0,649.0 Q 795.0,670.0 769.0,689.0 Q 747.0,710.0 722.0,727.0 Q 709.0,739.0 638.0,719.0 Q 613.0,718.0 547.0,706.0 L 486.0,697.0 Q 449.0,693.0 412.0,686.0 Q 360.0,679.0 321.0,674.0 C 291.0,670.0 306.0,631.0 335.0,638.0 Q 336.0,639.0 339.0,639.0 Q 418.0,658.0 462.0,663.0 Q 472.0,664.0 487.0,666.0 L 545.0,673.0 Q 599.0,680.0 669.0,684.0 Q 685.0,685.0 690.0,678.0 Q 696.0,660.0 659.0,578.0 C 647.0,551.0 696.0,543.0 710.0,569.0" fill="black" stroke="#000000"/>
	<path d="M 543.0,520.0 Q 619.0,527.0 721.0,532.0 Q 733.0,533.0 734.0,542.0 Q 735.0,549.0 710.0,569.0 C 695.0,582.0 689.0,581.0 659.0,578.0 Q 656.0,579.0 654.0,578.0 Q 596.0,568.0 543.0,558.0 L 487.0,549.0 Q 420.0,542.0 359.0,537.0 C 329.0,535.0 334.0,499.0 364.0,500.0 Q 368.0,500.0 374.0,500.0 Q 419.0,509.0 487.0,515.0 L 543.0,520.0" fill="black" stroke="#000000"/>
	<path d="M 290.0,409.0 Q 277.0,416.0 234.0,418.0 Q 221.0,421.0 217.0,414.0 Q 211.0,407.0 223.0,390.0 Q 260.0,332.0 290.0,234.0 Q 297.0,204.0 317.0,187.0 Q 339.0,165.0 343.0,183.0 Q 344.0,193.0 344.0,206.0 L 336.0,245.0 Q 312.0,332.0 303.0,369.0 C 296.0,398.0 293.0,408.0 290.0,409.0" fill="black" stroke="#000000"/>
	<path d="M 754.0,283.0 Q 790.0,352.0 822.0,371.0 Q 847.0,393.0 818.0,416.0 Q 793.0,441.0 764.0,460.0 Q 748.0,475.0 693.0,459.0 Q 653.0,453.0 542.0,439.0 L 487.0,433.0 Q 441.0,429.0 393.0,421.0 Q 335.0,414.0 290.0,409.0 C 260.0,406.0 274.0,363.0 303.0,369.0 Q 405.0,391.0 487.0,398.0 L 542.0,402.0 Q 611.0,409.0 702.0,413.0 Q 721.0,414.0 727.0,404.0 Q 736.0,385.0 693.0,291.0 C 681.0,264.0 740.0,257.0 754.0,283.0" fill="black" stroke="#000000"/>
	<path d="M 544.0,229.0 Q 640.0,238.0 768.0,242.0 Q 780.0,243.0 782.0,253.0 Q 782.0,262.0 754.0,283.0 C 735.0,298.0 723.0,296.0 693.0,291.0 Q 614.0,278.0 543.0,267.0 L 487.0,259.0 Q 408.0,250.0 336.0,245.0 C 306.0,243.0 315.0,200.0 344.0,206.0 Q 362.0,212.0 486.0,224.0 L 544.0,229.0" fill="black" stroke="#000000"/>
	<path d="M 486.0,224.0 Q 486.0,-34.0 504.0,-60.0 Q 519.0,-76.0 528.0,-54.0 Q 546.0,-14.0 544.0,229.0 L 543.0,267.0 Q 543.0,304.0 543.0,346.0 Q 542.0,374.0 542.0,402.0 L 542.0,439.0 Q 542.0,482.0 543.0,520.0 L 543.0,558.0 Q 543.0,625.0 545.0,673.0 L 547.0,706.0 Q 547.0,748.0 567.0,782.0 Q 574.0,798.0 554.0,815.0 Q 527.0,836.0 483.0,846.0 Q 462.0,852.0 449.0,837.0 Q 439.0,828.0 452.0,816.0 Q 483.0,791.0 486.0,753.0 Q 486.0,728.0 486.0,697.0 L 487.0,666.0 Q 487.0,615.0 487.0,549.0 L 487.0,515.0 Q 487.0,478.0 487.0,433.0 L 487.0,398.0 Q 487.0,319.0 487.0,259.0 L 486.0,224.0" fill="black" stroke="#000000"/>
</svg>
