<?xml version="1.0" ?>
<svg baseProfile="full" height="1024" version="1.1" viewBox="0 0 1024 1024" width="1024" xmlns="http://www.w3.org/2000/svg" xmlns:ev="http://www.w3.org/2001/xml-events" xmlns:xlink="http://www.w3.org/1999/xlink">
	<defs/>
	<path d="M 365.0,647.0 Q 358.0,678.0 361.0,711.0 L 361.0,725.0 Q 365.0,737.0 360.0,744.0 Q 358.0,747.0 353.0,751.0 Q 342.0,759.0 314.0,768.0 Q 294.0,771.0 274.0,760.0 Q 269.0,755.0 273.0,748.0 Q 277.0,743.0 280.0,741.0 Q 301.0,720.0 318.0,639.0 L 325.0,602.0 Q 336.0,518.0 343.0,495.0 Q 347.0,470.0 357.0,456.0 Q 361.0,450.0 367.0,451.0 Q 368.0,452.0 370.0,454.0 Q 376.0,460.0 376.0,480.0 L 376.0,514.0 Q 376.0,515.0 374.0,547.0 Q 372.0,588.0 368.0,612.0 L 365.0,647.0" fill="black" stroke="#000000"/>
</svg>
