<?xml version="1.0" ?>
<svg baseProfile="full" height="1024" version="1.1" viewBox="0 0 1024 1024" width="1024" xmlns="http://www.w3.org/2000/svg" xmlns:ev="http://www.w3.org/2001/xml-events" xmlns:xlink="http://www.w3.org/1999/xlink">
	<defs/>
	<path d="M 513.0,378.0 Q 647.0,400.0 784.0,408.0 Q 794.0,408.0 797.0,406.0 Q 800.0,404.0 802.0,402.0 Q 810.0,396.0 810.0,357.0 Q 815.0,246.0 808.0,155.0 Q 804.0,110.0 798.0,82.0 Q 795.0,54.0 774.0,57.0 Q 759.0,59.0 711.0,77.0 Q 703.0,82.0 700.0,80.0 Q 699.0,80.0 698.0,77.0 Q 698.0,74.0 700.0,68.0 L 706.0,59.0 Q 770.0,-7.0 784.0,-37.0 Q 794.0,-51.0 804.0,-49.0 Q 817.0,-48.0 831.0,-22.0 Q 864.0,42.0 870.0,276.0 Q 870.0,374.0 882.0,398.0 Q 894.0,415.0 890.0,421.0 Q 871.0,441.0 831.0,457.0 Q 813.0,466.0 796.0,463.0 Q 790.0,463.0 783.0,460.0 Q 763.0,451.0 597.0,433.0 Q 552.0,428.0 514.0,419.0 L 464.0,412.0 Q 426.0,408.0 398.0,398.0 L 188.0,364.0 C 158.0,359.0 170.0,317.0 199.0,325.0 Q 206.0,326.0 220.0,330.0 Q 267.0,347.0 465.0,370.0 L 513.0,378.0" fill="black" stroke="#000000"/>
</svg>
