<?xml version="1.0" ?>
<svg baseProfile="full" height="1024" version="1.1" viewBox="0 0 1024 1024" width="1024" xmlns="http://www.w3.org/2000/svg" xmlns:ev="http://www.w3.org/2001/xml-events" xmlns:xlink="http://www.w3.org/1999/xlink">
	<defs/>
	<path d="M 465.0,370.0 Q 468.0,251.0 463.0,190.0 Q 459.0,157.0 453.0,133.0 Q 447.0,106.0 461.0,74.0 Q 467.0,60.0 478.0,44.0 Q 488.0,25.0 498.0,22.0 Q 504.0,22.0 509.0,26.0 Q 512.0,29.0 514.0,34.0 Q 521.0,53.0 521.0,87.0 Q 521.0,92.0 520.0,94.0 Q 514.0,139.0 513.0,378.0 L 514.0,419.0 Q 515.0,462.0 514.0,469.0 Q 514.0,475.0 513.0,478.0 Q 496.0,491.0 482.0,499.0 C 457.0,515.0 434.0,521.0 447.0,494.0 Q 457.0,484.0 464.0,412.0 L 465.0,370.0" fill="black" stroke="#000000"/>
</svg>
