<?xml version="1.0" ?>
<svg baseProfile="full" height="1024" version="1.1" viewBox="0 0 1024 1024" width="1024" xmlns="http://www.w3.org/2000/svg" xmlns:ev="http://www.w3.org/2001/xml-events" xmlns:xlink="http://www.w3.org/1999/xlink">
	<defs/>
	<path d="M 519.0,700.0 Q 531.0,724.0 551.0,744.0 Q 560.0,750.0 558.0,760.0 Q 557.0,770.0 543.0,784.0 Q 507.0,815.0 475.0,811.0 Q 465.0,808.0 468.0,795.0 Q 486.0,692.0 300.0,485.0 Q 296.0,482.0 293.0,478.0 Q 241.0,423.0 110.0,316.0 Q 100.0,312.0 112.0,308.0 Q 178.0,317.0 306.0,429.0 Q 387.0,504.0 505.0,679.0 L 519.0,700.0" fill="black" stroke="#000000"/>
	<path d="M 505.0,679.0 Q 614.0,538.0 756.0,391.0 Q 777.0,367.0 812.0,369.0 Q 933.0,373.0 971.0,381.0 Q 983.0,384.0 984.0,389.0 Q 984.0,395.0 967.0,402.0 Q 790.0,456.0 742.0,495.0 Q 639.0,579.0 519.0,700.0 C 498.0,721.0 487.0,703.0 505.0,679.0" fill="black" stroke="#000000"/>
	<path d="M 472.0,486.0 Q 500.0,441.0 475.0,153.0 Q 474.0,143.0 472.0,131.0 Q 471.0,103.0 467.0,91.0 Q 454.0,37.0 508.0,-19.0 Q 509.0,-20.0 512.0,-22.0 Q 524.0,-23.0 529.0,-10.0 Q 535.0,8.0 536.0,92.0 Q 529.0,386.0 540.0,455.0 Q 541.0,468.0 535.0,474.0 Q 511.0,495.0 492.0,504.0 Q 479.0,508.0 470.0,500.0 Q 464.0,496.0 472.0,486.0" fill="black" stroke="#000000"/>
</svg>
