<?xml version="1.0" ?>
<svg baseProfile="full" height="1024" version="1.1" viewBox="0 0 1024 1024" width="1024" xmlns="http://www.w3.org/2000/svg" xmlns:ev="http://www.w3.org/2001/xml-events" xmlns:xlink="http://www.w3.org/1999/xlink">
	<defs/>
	<path d="M 370.0,458.0 Q 309.0,458.0 258.0,458.0 Q 224.0,458.0 242.0,479.0 Q 309.0,588.0 375.0,669.0 Q 390.0,685.0 387.0,693.0 Q 386.0,708.0 347.0,739.0 Q 331.0,752.0 313.0,750.0 Q 301.0,747.0 307.0,731.0 Q 325.0,692.0 235.0,536.0 Q 216.0,502.0 177.0,468.0 Q 158.0,455.0 159.0,442.0 Q 163.0,423.0 177.0,405.0 Q 187.0,395.0 199.0,401.0 Q 236.0,420.0 352.0,433.0 C 382.0,436.0 400.0,458.0 370.0,458.0" fill="black" stroke="#000000"/>
</svg>
