<?xml version="1.0" ?>
<svg baseProfile="full" height="1024" version="1.1" viewBox="0 0 1024 1024" width="1024" xmlns="http://www.w3.org/2000/svg" xmlns:ev="http://www.w3.org/2001/xml-events" xmlns:xlink="http://www.w3.org/1999/xlink">
	<defs/>
	<path d="M 661.0,430.0 Q 564.0,309.0 536.0,297.0 Q 520.0,290.0 523.0,273.0 Q 523.0,258.0 550.0,235.0 Q 560.0,222.0 577.0,233.0 Q 655.0,272.0 782.0,294.0 Q 803.0,295.0 807.0,305.0 Q 811.0,315.0 789.0,314.0 Q 722.0,313.0 636.0,300.0 Q 590.0,288.0 622.0,322.0 Q 662.0,374.0 758.0,476.0 Q 789.0,515.0 817.0,537.0 Q 830.0,547.0 825.0,558.0 Q 815.0,579.0 780.0,600.0 Q 762.0,610.0 753.0,608.0 Q 741.0,605.0 743.0,589.0 Q 746.0,547.0 683.0,458.0 L 661.0,430.0" fill="black" stroke="#000000"/>
</svg>
