<?xml version="1.0" ?>
<svg baseProfile="full" height="1024" version="1.1" viewBox="0 0 1024 1024" width="1024" xmlns="http://www.w3.org/2000/svg" xmlns:ev="http://www.w3.org/2001/xml-events" xmlns:xlink="http://www.w3.org/1999/xlink">
	<defs/>
	<path d="M 517.0,89.0 Q 566.0,92.0 612.0,97.0 Q 735.0,107.0 867.0,95.0 Q 892.0,92.0 898.0,101.0 Q 905.0,114.0 893.0,127.0 Q 862.0,155.0 817.0,176.0 Q 802.0,183.0 775.0,174.0 Q 696.0,158.0 483.0,134.0 Q 186.0,107.0 169.0,106.0 Q 163.0,106.0 157.0,106.0 Q 142.0,106.0 141.0,94.0 Q 141.0,81.0 160.0,66.0 Q 178.0,53.0 210.0,41.0 Q 222.0,37.0 240.0,45.0 Q 256.0,49.0 322.0,61.0 Q 409.0,80.0 517.0,89.0" fill="black" stroke="#000000"/>
</svg>
