<?xml version="1.0" ?>
<svg baseProfile="full" height="1024" version="1.1" viewBox="0 0 1024 1024" width="1024" xmlns="http://www.w3.org/2000/svg" xmlns:ev="http://www.w3.org/2001/xml-events" xmlns:xlink="http://www.w3.org/1999/xlink">
	<defs/>
	<path d="M 515.0,687.0 Q 552.0,697.0 585.0,710.0 Q 634.0,723.0 675.0,726.0 Q 691.0,725.0 697.0,732.0 Q 701.0,742.0 691.0,755.0 Q 672.0,774.0 629.0,797.0 Q 614.0,807.0 600.0,807.0 Q 593.0,804.0 590.0,793.0 Q 584.0,744.0 302.0,660.0 Q 296.0,651.0 302.0,648.0 Q 320.0,642.0 442.0,671.0 Q 451.0,672.0 461.0,674.0 L 515.0,687.0" fill="black" stroke="#000000"/>
	<path d="M 489.0,546.0 Q 387.0,527.0 281.0,521.0 Q 239.0,517.0 268.0,496.0 Q 314.0,466.0 378.0,478.0 Q 433.0,487.0 491.0,496.0 L 542.0,503.0 Q 599.0,516.0 658.0,523.0 Q 724.0,536.0 733.0,544.0 Q 743.0,553.0 739.0,562.0 Q 732.0,577.0 699.0,586.0 Q 665.0,595.0 630.0,583.0 Q 587.0,571.0 546.0,559.0 L 489.0,546.0" fill="black" stroke="#000000"/>
</svg>
