<?xml version="1.0" ?>
<svg baseProfile="full" height="1024" version="1.1" viewBox="0 0 1024 1024" width="1024" xmlns="http://www.w3.org/2000/svg" xmlns:ev="http://www.w3.org/2001/xml-events" xmlns:xlink="http://www.w3.org/1999/xlink">
	<defs/>
	<path d="M 475.0,530.0 Q 459.0,529.0 443.0,525.0 Q 298.0,504.0 216.0,507.0 Q 194.0,510.0 192.0,497.0 Q 191.0,485.0 216.0,468.0 Q 247.0,446.0 277.0,454.0 Q 368.0,479.0 460.0,496.0 L 527.0,509.0 Q 612.0,525.0 699.0,534.0 Q 727.0,535.0 733.0,521.0 Q 742.0,502.0 738.0,454.0 Q 725.0,276.0 692.0,181.0 Q 674.0,121.0 655.0,103.0 Q 642.0,88.0 613.0,96.0 Q 571.0,109.0 533.0,121.0 Q 508.0,128.0 526.0,105.0 Q 581.0,50.0 612.0,6.0 Q 624.0,-19.0 648.0,-11.0 Q 670.0,-7.0 696.0,23.0 Q 772.0,101.0 798.0,406.0 Q 804.0,473.0 829.0,514.0 Q 848.0,539.0 838.0,551.0 Q 819.0,573.0 778.0,591.0 Q 748.0,606.0 717.0,591.0 Q 641.0,563.0 542.0,542.0 L 475.0,530.0" fill="black" stroke="#000000"/>
</svg>
