<?xml version="1.0" ?>
<svg baseProfile="full" height="1024" version="1.1" viewBox="0 0 1024 1024" width="1024" xmlns="http://www.w3.org/2000/svg" xmlns:ev="http://www.w3.org/2001/xml-events" xmlns:xlink="http://www.w3.org/1999/xlink">
	<defs/>
	<path d="M 520.0,133.0 Q 523.0,296.0 525.0,442.0 L 525.0,479.0 Q 525.0,654.0 543.0,722.0 Q 556.0,746.0 540.0,761.0 Q 498.0,792.0 465.0,802.0 Q 449.0,805.0 432.0,791.0 Q 425.0,782.0 432.0,770.0 Q 462.0,727.0 462.0,629.0 Q 462.0,394.0 466.0,128.0 C 466.0,98.0 519.0,103.0 520.0,133.0" fill="black" stroke="#000000"/>
	<path d="M 525.0,442.0 Q 573.0,436.0 682.0,459.0 Q 769.0,477.0 776.0,484.0 Q 786.0,493.0 780.0,503.0 Q 771.0,516.0 738.0,523.0 Q 704.0,529.0 670.0,514.0 Q 637.0,502.0 601.0,493.0 Q 564.0,484.0 525.0,479.0 C 495.0,475.0 495.0,445.0 525.0,442.0" fill="black" stroke="#000000"/>
</svg>
