<?xml version="1.0" ?>
<svg baseProfile="full" height="1024" version="1.1" viewBox="0 0 1024 1024" width="1024" xmlns="http://www.w3.org/2000/svg" xmlns:ev="http://www.w3.org/2001/xml-events" xmlns:xlink="http://www.w3.org/1999/xlink">
	<defs/>
	<path d="M 731.0,459.0 Q 755.0,460.0 762.0,450.0 Q 772.0,441.0 768.0,415.0 Q 761.0,234.0 664.0,105.0 Q 658.0,101.0 654.0,96.0 Q 638.0,87.0 582.0,111.0 Q 533.0,132.0 532.0,127.0 Q 531.0,120.0 539.0,110.0 Q 585.0,56.0 600.0,28.0 Q 613.0,-2.0 625.0,-6.0 Q 637.0,-13.0 659.0,2.0 Q 717.0,36.0 748.0,97.0 Q 776.0,152.0 827.0,377.0 Q 831.0,401.0 857.0,419.0 Q 872.0,432.0 862.0,443.0 Q 846.0,465.0 802.0,491.0 Q 790.0,500.0 772.0,493.0 Q 723.0,492.0 676.0,490.0 Q 658.0,489.0 650.0,496.0 Q 640.0,505.0 650.0,519.0 Q 701.0,607.0 741.0,664.0 Q 763.0,689.0 786.0,698.0 Q 801.0,705.0 800.0,715.0 Q 797.0,734.0 725.0,770.0 Q 707.0,780.0 682.0,769.0 Q 639.0,753.0 602.0,743.0 Q 496.0,724.0 333.0,689.0 Q 284.0,679.0 223.0,676.0 Q 210.0,676.0 203.0,666.0 Q 200.0,663.0 208.0,654.0 Q 218.0,639.0 239.0,631.0 Q 255.0,624.0 283.0,632.0 Q 347.0,651.0 422.0,669.0 L 461.0,678.0 Q 668.0,724.0 689.0,710.0 Q 696.0,706.0 689.0,691.0 Q 619.0,535.0 575.0,495.0 Q 562.0,485.0 569.0,469.0 Q 579.0,445.0 594.0,440.0 Q 607.0,436.0 621.0,445.0 Q 654.0,463.0 731.0,459.0" fill="black" stroke="#000000"/>
</svg>
