<?xml version="1.0" ?>
<svg baseProfile="full" height="1024" version="1.1" viewBox="0 0 1024 1024" width="1024" xmlns="http://www.w3.org/2000/svg" xmlns:ev="http://www.w3.org/2001/xml-events" xmlns:xlink="http://www.w3.org/1999/xlink">
	<defs/>
	<path d="M 476.0,760.0 Q 476.0,778.0 466.0,787.0 Q 463.0,790.0 457.0,793.0 Q 414.0,815.0 402.0,808.0 Q 396.0,802.0 402.0,790.0 Q 412.0,772.0 417.0,759.0 Q 427.0,731.0 443.0,610.0 C 447.0,580.0 479.0,583.0 478.0,613.0 Q 476.0,668.0 476.0,760.0" fill="black" stroke="#000000"/>
	<path d="M 586.0,630.0 Q 602.0,689.0 619.0,768.0 L 629.0,798.0 Q 637.0,816.0 637.0,815.0 Q 640.0,826.0 626.0,840.0 Q 622.0,843.0 619.0,845.0 Q 571.0,877.0 557.0,864.0 Q 549.0,858.0 555.0,843.0 Q 564.0,820.0 564.0,811.0 Q 564.0,747.0 547.0,624.0 C 543.0,594.0 578.0,601.0 586.0,630.0" fill="black" stroke="#000000"/>
	<path d="M 288.0,694.0 L 331.0,653.0 Q 343.0,643.0 357.0,643.0 Q 358.0,643.0 359.0,644.0 Q 379.0,648.0 368.0,694.0 Q 361.0,710.0 337.0,721.0 L 284.0,737.0 Q 270.0,739.0 265.0,737.0 Q 261.0,734.0 263.0,723.0 Q 265.0,712.0 288.0,694.0" fill="black" stroke="#000000"/>
	<path d="M 639.0,696.0 Q 632.0,689.0 637.0,682.0 Q 644.0,678.0 653.0,682.0 Q 743.0,731.0 787.0,748.0 Q 790.0,749.0 791.0,749.0 Q 819.0,755.0 780.0,801.0 Q 760.0,825.0 741.0,826.0 Q 724.0,827.0 723.0,808.0 Q 724.0,797.0 717.0,784.0 Q 706.0,762.0 639.0,696.0" fill="black" stroke="#000000"/>
	<path d="M 443.0,610.0 Q 292.0,590.0 141.0,572.0 Q 122.0,570.0 135.0,553.0 Q 172.0,521.0 208.0,531.0 Q 277.0,550.0 298.0,555.0 Q 438.0,587.0 594.0,598.0 L 641.0,600.0 Q 743.0,608.0 855.0,608.0 Q 887.0,608.0 917.0,608.0 Q 937.0,608.0 943.0,617.0 Q 950.0,628.0 931.0,643.0 Q 927.0,647.0 922.0,650.0 Q 869.0,682.0 838.0,675.0 Q 767.0,660.0 586.0,630.0 L 547.0,624.0 L 531.0,622.0 Q 489.0,617.0 478.0,613.0 L 443.0,610.0" fill="black" stroke="#000000"/>
</svg>
