<?xml version="1.0" ?>
<svg baseProfile="full" height="1024" version="1.1" viewBox="0 0 1024 1024" width="1024" xmlns="http://www.w3.org/2000/svg" xmlns:ev="http://www.w3.org/2001/xml-events" xmlns:xlink="http://www.w3.org/1999/xlink">
	<defs/>
	<path d="M 476.0,760.0 Q 476.0,778.0 466.0,787.0 Q 463.0,790.0 457.0,793.0 Q 414.0,815.0 402.0,808.0 Q 396.0,802.0 402.0,790.0 Q 412.0,772.0 417.0,759.0 Q 427.0,731.0 443.0,610.0 C 447.0,580.0 479.0,583.0 478.0,613.0 Q 476.0,668.0 476.0,760.0" fill="black" stroke="#000000"/>
	<path d="M 586.0,630.0 Q 602.0,689.0 619.0,768.0 L 629.0,798.0 Q 637.0,816.0 637.0,815.0 Q 640.0,826.0 626.0,840.0 Q 622.0,843.0 619.0,845.0 Q 571.0,877.0 557.0,864.0 Q 549.0,858.0 555.0,843.0 Q 564.0,820.0 564.0,811.0 Q 564.0,747.0 547.0,624.0 C 543.0,594.0 578.0,601.0 586.0,630.0" fill="black" stroke="#000000"/>
	<path d="M 288.0,694.0 L 331.0,653.0 Q 343.0,643.0 357.0,643.0 Q 358.0,643.0 359.0,644.0 Q 379.0,648.0 368.0,694.0 Q 361.0,710.0 337.0,721.0 L 284.0,737.0 Q 270.0,739.0 265.0,737.0 Q 261.0,734.0 263.0,723.0 Q 265.0,712.0 288.0,694.0" fill="black" stroke="#000000"/>
	<path d="M 639.0,696.0 Q 632.0,689.0 637.0,682.0 Q 644.0,678.0 653.0,682.0 Q 743.0,731.0 787.0,748.0 Q 790.0,749.0 791.0,749.0 Q 819.0,755.0 780.0,801.0 Q 760.0,825.0 741.0,826.0 Q 724.0,827.0 723.0,808.0 Q 724.0,797.0 717.0,784.0 Q 706.0,762.0 639.0,696.0" fill="black" stroke="#000000"/>
	<path d="M 443.0,610.0 Q 292.0,590.0 141.0,572.0 Q 122.0,570.0 135.0,553.0 Q 172.0,521.0 208.0,531.0 Q 277.0,550.0 298.0,555.0 Q 438.0,587.0 594.0,598.0 L 641.0,600.0 Q 743.0,608.0 855.0,608.0 Q 887.0,608.0 917.0,608.0 Q 937.0,608.0 943.0,617.0 Q 950.0,628.0 931.0,643.0 Q 927.0,647.0 922.0,650.0 Q 869.0,682.0 838.0,675.0 Q 767.0,660.0 586.0,630.0 L 547.0,624.0 L 531.0,622.0 Q 489.0,617.0 478.0,613.0 L 443.0,610.0" fill="black" stroke="#000000"/>
	<path d="M 406.0,498.0 Q 414.0,489.0 419.0,484.0 Q 441.0,467.0 453.0,490.0 L 454.0,492.0 Q 461.0,523.0 426.0,543.0 Q 399.0,561.0 390.0,564.0 Q 380.0,566.0 378.0,557.0 L 377.0,555.0 Q 376.0,543.0 406.0,498.0" fill="black" stroke="#000000"/>
	<path d="M 594.0,598.0 Q 594.0,596.0 595.0,590.0 Q 598.0,582.0 596.0,572.0 Q 593.0,555.0 553.0,478.0 C 539.0,451.0 565.0,465.0 586.0,486.0 Q 635.0,536.0 662.0,557.0 Q 678.0,564.0 672.0,572.0 Q 670.0,578.0 664.0,584.0 Q 649.0,600.0 641.0,600.0 C 612.0,608.0 592.0,613.0 594.0,598.0" fill="black" stroke="#000000"/>
	<path d="M 553.0,478.0 Q 543.0,478.0 534.0,474.0 Q 467.0,462.0 441.0,459.0 L 321.0,445.0 Q 296.0,442.0 316.0,427.0 L 331.0,416.0 Q 343.0,408.0 356.0,410.0 L 470.0,431.0 L 507.0,437.0 Q 539.0,443.0 553.0,446.0 Q 570.0,449.0 692.0,464.0 Q 700.0,463.0 708.0,472.0 Q 708.0,478.0 698.0,486.0 Q 670.0,508.0 643.0,501.0 L 586.0,486.0 L 553.0,478.0" fill="black" stroke="#000000"/>
	<path d="M 484.0,267.0 L 244.0,233.0 Q 226.0,230.0 239.0,216.0 Q 255.0,200.0 270.0,196.0 Q 286.0,193.0 331.0,204.0 Q 410.0,224.0 482.0,233.0 L 533.0,238.0 Q 612.0,248.0 737.0,248.0 L 778.0,248.0 Q 798.0,248.0 802.0,256.0 Q 806.0,266.0 792.0,280.0 Q 782.0,286.0 776.0,290.0 Q 739.0,314.0 708.0,308.0 L 535.0,274.0 L 484.0,267.0" fill="black" stroke="#000000"/>
</svg>
