<?xml version="1.0" ?>
<svg baseProfile="full" height="1024" version="1.1" viewBox="0 0 1024 1024" width="1024" xmlns="http://www.w3.org/2000/svg" xmlns:ev="http://www.w3.org/2001/xml-events" xmlns:xlink="http://www.w3.org/1999/xlink">
	<defs/>
	<path d="M 700.0,406.0 Q 739.0,488.0 776.0,504.0 Q 798.0,523.0 782.0,545.0 Q 764.0,563.0 708.0,595.0 Q 688.0,606.0 663.0,598.0 Q 598.0,574.0 531.0,559.0 L 490.0,551.0 Q 402.0,535.0 314.0,527.0 C 284.0,524.0 294.0,479.0 323.0,488.0 Q 331.0,490.0 343.0,494.0 L 504.0,520.0 Q 562.0,533.0 624.0,543.0 Q 647.0,547.0 662.0,543.0 Q 670.0,540.0 674.0,535.0 Q 681.0,526.0 665.0,478.0 L 646.0,425.0 Q 645.0,423.0 643.0,419.0 C 632.0,391.0 687.0,379.0 700.0,406.0" fill="black" stroke="#000000"/>
</svg>
