<?xml version="1.0" ?>
<svg baseProfile="full" height="1024" version="1.1" viewBox="0 0 1024 1024" width="1024" xmlns="http://www.w3.org/2000/svg" xmlns:ev="http://www.w3.org/2001/xml-events" xmlns:xlink="http://www.w3.org/1999/xlink">
	<defs/>
	<path d="M 323.0,706.0 Q 325.0,699.0 328.0,694.0 Q 334.0,686.0 367.0,671.0 Q 474.0,619.0 574.0,561.0 Q 600.0,545.0 617.0,543.0 Q 627.0,545.0 631.0,559.0 Q 641.0,576.0 613.0,621.0 Q 575.0,684.0 334.0,717.0 Q 321.0,719.0 323.0,706.0" fill="black" stroke="#000000"/>
	<path d="M 312.0,541.0 Q 314.0,535.0 316.0,531.0 Q 320.0,524.0 347.0,512.0 Q 455.0,461.0 563.0,397.0 Q 588.0,380.0 606.0,380.0 Q 615.0,382.0 619.0,396.0 Q 629.0,414.0 602.0,457.0 Q 564.0,519.0 321.0,554.0 Q 320.0,555.0 319.0,555.0 Q 310.0,555.0 312.0,541.0" fill="black" stroke="#000000"/>
</svg>
