<?xml version="1.0" ?>
<svg baseProfile="full" height="1024" version="1.1" viewBox="0 0 1024 1024" width="1024" xmlns="http://www.w3.org/2000/svg" xmlns:ev="http://www.w3.org/2001/xml-events" xmlns:xlink="http://www.w3.org/1999/xlink">
	<defs/>
	<path d="M 539.0,331.0 Q 585.0,406.0 631.0,503.0 Q 650.0,537.0 679.0,558.0 Q 697.0,568.0 697.0,579.0 Q 696.0,594.0 662.0,612.0 Q 619.0,637.0 603.0,638.0 Q 590.0,637.0 577.0,627.0 Q 507.0,596.0 439.0,581.0 Q 418.0,581.0 407.0,578.0 C 377.0,575.0 371.0,575.0 397.0,562.0 Q 442.0,528.0 518.0,564.0 Q 554.0,582.0 568.0,572.0 Q 577.0,566.0 555.0,503.0 Q 533.0,430.0 485.0,356.0 Q 418.0,244.0 320.0,159.0 Q 235.0,86.0 127.0,31.0 Q 117.0,25.0 118.0,20.0 Q 119.0,14.0 128.0,15.0 Q 261.0,21.0 424.0,183.0 Q 467.0,231.0 523.0,306.0 L 539.0,331.0" fill="black" stroke="#000000"/>
</svg>
