<?xml version="1.0" ?>
<svg baseProfile="full" height="1024" version="1.1" viewBox="0 0 1024 1024" width="1024" xmlns="http://www.w3.org/2000/svg" xmlns:ev="http://www.w3.org/2001/xml-events" xmlns:xlink="http://www.w3.org/1999/xlink">
	<defs/>
	<path d="M 355.0,606.0 Q 389.0,579.0 423.0,547.0 Q 436.0,534.0 453.0,535.0 Q 463.0,535.0 469.0,549.0 Q 473.0,564.0 464.0,593.0 Q 452.0,629.0 350.0,654.0 Q 334.0,658.0 328.0,655.0 Q 324.0,651.0 325.0,638.0 Q 328.0,628.0 355.0,606.0" fill="black" stroke="#000000"/>
	<path d="M 532.0,227.0 Q 631.0,341.0 658.0,556.0 Q 662.0,599.0 671.0,625.0 Q 675.0,640.0 666.0,648.0 Q 644.0,670.0 618.0,681.0 Q 593.0,693.0 582.0,689.0 Q 572.0,683.0 575.0,671.0 Q 629.0,491.0 529.0,306.0 Q 514.0,282.0 496.0,260.0 L 465.0,228.0 Q 428.0,195.0 384.0,165.0 Q 323.0,119.0 151.0,64.0 Q 139.0,63.0 135.0,57.0 Q 128.0,53.0 139.0,47.0 Q 181.0,40.0 319.0,87.0 Q 436.0,132.0 498.0,189.0 L 532.0,227.0" fill="black" stroke="#000000"/>
	<path d="M 498.0,189.0 Q 652.0,14.0 706.0,8.0 Q 859.0,8.0 912.0,15.0 Q 958.0,19.0 955.0,32.0 Q 954.0,39.0 907.0,53.0 Q 736.0,98.0 677.0,126.0 Q 608.0,162.0 532.0,227.0 L 496.0,260.0 Q 417.0,333.0 338.0,426.0 Q 298.0,471.0 260.0,473.0 Q 241.0,474.0 237.0,469.0 Q 234.0,462.0 251.0,449.0 Q 329.0,401.0 465.0,228.0 L 498.0,189.0" fill="black" stroke="#000000"/>
</svg>
