<?xml version="1.0" ?>
<svg baseProfile="full" height="1024" version="1.1" viewBox="0 0 1024 1024" width="1024" xmlns="http://www.w3.org/2000/svg" xmlns:ev="http://www.w3.org/2001/xml-events" xmlns:xlink="http://www.w3.org/1999/xlink">
	<defs/>
	<path d="M 456.0,92.0 Q 447.0,49.0 472.0,-7.0 Q 479.0,-23.0 486.0,-27.0 Q 493.0,-34.0 500.0,-26.0 Q 527.0,-4.0 525.0,54.0 Q 524.0,87.0 527.0,390.0 Q 527.0,453.0 539.0,495.0 Q 546.0,510.0 544.0,523.0 Q 543.0,526.0 536.0,529.0 L 514.0,544.0 Q 502.0,554.0 483.0,565.0 Q 459.0,581.0 439.0,566.0 Q 435.0,560.0 441.0,546.0 Q 462.0,516.0 467.0,431.0 Q 467.0,152.0 466.0,143.0 Q 462.0,119.0 456.0,92.0" fill="black" stroke="#000000"/>
</svg>
