<?xml version="1.0" ?>
<svg baseProfile="full" height="1024" version="1.1" viewBox="0 0 1024 1024" width="1024" xmlns="http://www.w3.org/2000/svg" xmlns:ev="http://www.w3.org/2001/xml-events" xmlns:xlink="http://www.w3.org/1999/xlink">
	<defs/>
	<path d="M 487.0,659.0 Q 472.0,672.0 448.0,683.0 Q 430.0,693.0 418.0,688.0 Q 406.0,681.0 413.0,668.0 Q 429.0,643.0 431.0,588.0 Q 413.0,380.0 394.0,304.0 Q 387.0,279.0 378.0,253.0 Q 350.0,172.0 262.0,25.0 Q 258.0,19.0 256.0,13.0 Q 253.0,3.0 263.0,5.0 Q 293.0,11.0 369.0,129.0 Q 385.0,157.0 400.0,189.0 Q 460.0,324.0 482.0,560.0 Q 485.0,617.0 496.0,636.0 C 501.0,649.0 501.0,649.0 487.0,659.0" fill="black" stroke="#000000"/>
</svg>
