<?xml version="1.0" ?>
<svg baseProfile="full" height="1024" version="1.1" viewBox="0 0 1024 1024" width="1024" xmlns="http://www.w3.org/2000/svg" xmlns:ev="http://www.w3.org/2001/xml-events" xmlns:xlink="http://www.w3.org/1999/xlink">
	<defs/>
	<path d="M 693.0,103.0 Q 693.0,155.0 695.0,204.0 L 695.0,247.0 Q 696.0,293.0 698.0,335.0 L 699.0,367.0 Q 699.0,404.0 701.0,438.0 L 702.0,473.0 Q 703.0,488.0 704.0,499.0 Q 711.0,517.0 702.0,526.0 Q 687.0,539.0 673.0,548.0 C 648.0,565.0 624.0,568.0 635.0,540.0 Q 654.0,495.0 655.0,459.0 L 655.0,428.0 Q 655.0,403.0 655.0,357.0 L 654.0,328.0 Q 653.0,289.0 653.0,237.0 L 652.0,196.0 Q 652.0,151.0 652.0,97.0 C 652.0,67.0 693.0,73.0 693.0,103.0" fill="black" stroke="#000000"/>
</svg>
