<?xml version="1.0" ?>
<svg baseProfile="full" height="1024" version="1.1" viewBox="0 0 1024 1024" width="1024" xmlns="http://www.w3.org/2000/svg" xmlns:ev="http://www.w3.org/2001/xml-events" xmlns:xlink="http://www.w3.org/1999/xlink">
	<defs/>
	<path d="M 360.0,527.0 Q 490.0,596.0 563.0,656.0 Q 611.0,690.0 654.0,711.0 Q 675.0,717.0 676.0,727.0 Q 677.0,740.0 660.0,751.0 Q 630.0,763.0 574.0,771.0 Q 553.0,775.0 538.0,770.0 Q 531.0,763.0 533.0,750.0 Q 542.0,705.0 343.0,542.0 C 320.0,523.0 334.0,513.0 360.0,527.0" fill="black" stroke="#000000"/>
	<path d="M 366.0,424.0 Q 360.0,526.0 360.0,527.0 C 360.0,531.0 360.0,531.0 343.0,542.0 Q 318.0,560.0 289.0,567.0 Q 273.0,571.0 262.0,564.0 Q 253.0,557.0 262.0,539.0 Q 293.0,487.0 309.0,429.0 Q 321.0,371.0 347.0,143.0 C 350.0,113.0 398.0,117.0 394.0,147.0 Q 367.0,369.0 368.0,388.0 L 366.0,424.0" fill="black" stroke="#000000"/>
	<path d="M 636.0,427.0 Q 724.0,442.0 811.0,452.0 Q 826.0,453.0 826.0,461.0 Q 827.0,474.0 803.0,491.0 Q 770.0,515.0 736.0,503.0 Q 646.0,473.0 496.0,445.0 Q 430.0,436.0 366.0,424.0 C 336.0,419.0 338.0,390.0 368.0,388.0 Q 378.0,387.0 398.0,387.0 Q 513.0,408.0 588.0,420.0 L 636.0,427.0" fill="black" stroke="#000000"/>
	<path d="M 622.0,168.0 Q 649.0,322.0 667.0,360.0 Q 676.0,384.0 664.0,400.0 Q 651.0,416.0 636.0,427.0 C 612.0,446.0 581.0,449.0 588.0,420.0 Q 598.0,383.0 598.0,346.0 Q 597.0,307.0 576.0,163.0 C 572.0,133.0 617.0,138.0 622.0,168.0" fill="black" stroke="#000000"/>
	<path d="M 347.0,143.0 Q 232.0,136.0 108.0,125.0 Q 83.0,124.0 100.0,103.0 Q 136.0,67.0 181.0,75.0 Q 464.0,138.0 924.0,116.0 Q 948.0,115.0 954.0,125.0 Q 961.0,138.0 942.0,156.0 Q 881.0,204.0 838.0,196.0 Q 751.0,183.0 622.0,168.0 L 576.0,163.0 Q 543.0,162.0 509.0,157.0 Q 454.0,153.0 394.0,147.0 L 347.0,143.0" fill="black" stroke="#000000"/>
</svg>
