<?xml version="1.0" ?>
<svg baseProfile="full" height="1024" version="1.1" viewBox="0 0 1024 1024" width="1024" xmlns="http://www.w3.org/2000/svg" xmlns:ev="http://www.w3.org/2001/xml-events" xmlns:xlink="http://www.w3.org/1999/xlink">
	<defs/>
	<path d="M 658.0,139.0 Q 701.0,389.0 741.0,550.0 Q 751.0,590.0 774.0,615.0 Q 790.0,631.0 778.0,652.0 Q 768.0,667.0 713.0,707.0 Q 698.0,722.0 631.0,701.0 Q 466.0,655.0 329.0,656.0 Q 311.0,656.0 312.0,648.0 Q 313.0,636.0 336.0,621.0 Q 358.0,603.0 398.0,614.0 Q 411.0,618.0 426.0,619.0 L 465.0,628.0 Q 586.0,653.0 644.0,657.0 Q 674.0,661.0 682.0,650.0 Q 688.0,635.0 681.0,604.0 Q 635.0,334.0 596.0,135.0 C 590.0,106.0 653.0,109.0 658.0,139.0" fill="black" stroke="#000000"/>
	<path d="M 426.0,619.0 Q 439.0,571.0 421.0,466.0 Q 417.0,444.0 411.0,409.0 L 402.0,361.0 Q 383.0,267.0 355.0,118.0 C 349.0,89.0 397.0,93.0 403.0,122.0 Q 428.0,254.0 452.0,367.0 L 463.0,419.0 Q 482.0,524.0 494.0,563.0 Q 504.0,582.0 496.0,593.0 Q 481.0,615.0 465.0,628.0 C 443.0,649.0 420.0,648.0 426.0,619.0" fill="black" stroke="#000000"/>
	<path d="M 411.0,409.0 Q 345.0,406.0 277.0,400.0 Q 240.0,397.0 264.0,378.0 Q 309.0,351.0 366.0,358.0 Q 382.0,361.0 402.0,361.0 L 452.0,367.0 Q 582.0,386.0 584.0,387.0 Q 594.0,394.0 590.0,404.0 Q 583.0,417.0 555.0,426.0 Q 519.0,438.0 463.0,419.0 L 411.0,409.0" fill="black" stroke="#000000"/>
</svg>
