<?xml version="1.0" ?>
<svg baseProfile="full" height="1024" version="1.1" viewBox="0 0 1024 1024" width="1024" xmlns="http://www.w3.org/2000/svg" xmlns:ev="http://www.w3.org/2001/xml-events" xmlns:xlink="http://www.w3.org/1999/xlink">
	<defs/>
	<path d="M 614.0,319.0 Q 574.0,313.0 537.0,304.0 Q 527.0,300.0 525.0,304.0 Q 516.0,310.0 518.0,327.0 Q 519.0,438.0 527.0,470.0 Q 531.0,485.0 519.0,495.0 Q 497.0,514.0 467.0,521.0 Q 454.0,524.0 446.0,516.0 Q 442.0,509.0 453.0,494.0 Q 472.0,469.0 475.0,431.0 Q 485.0,335.0 457.0,284.0 Q 447.0,269.0 453.0,260.0 Q 460.0,242.0 478.0,230.0 Q 488.0,221.0 503.0,234.0 Q 578.0,285.0 756.0,285.0 Q 787.0,286.0 824.0,283.0 Q 846.0,279.0 854.0,285.0 Q 861.0,291.0 855.0,302.0 Q 851.0,314.0 814.0,334.0 Q 796.0,344.0 719.0,333.0 Q 713.0,336.0 659.0,326.0 L 614.0,319.0" fill="black" stroke="#000000"/>
</svg>
