<?xml version="1.0" ?>
<svg baseProfile="full" height="1024" version="1.1" viewBox="0 0 1024 1024" width="1024" xmlns="http://www.w3.org/2000/svg" xmlns:ev="http://www.w3.org/2001/xml-events" xmlns:xlink="http://www.w3.org/1999/xlink">
	<defs/>
	<path d="M 321.0,260.0 Q 376.0,381.0 378.0,382.0 Q 384.0,391.0 397.0,401.0 Q 406.0,407.0 399.0,423.0 Q 392.0,433.0 353.0,454.0 Q 346.0,461.0 285.0,450.0 Q 273.0,446.0 268.0,452.0 Q 262.0,461.0 280.0,505.0 Q 337.0,623.0 373.0,644.0 Q 394.0,657.0 378.0,675.0 Q 348.0,697.0 320.0,703.0 Q 304.0,707.0 284.0,690.0 Q 265.0,674.0 217.0,658.0 Q 165.0,642.0 143.0,645.0 Q 130.0,646.0 127.0,639.0 Q 123.0,632.0 134.0,625.0 Q 171.0,603.0 198.0,613.0 Q 231.0,619.0 272.0,638.0 Q 284.0,644.0 287.0,641.0 Q 296.0,626.0 234.0,491.0 Q 227.0,469.0 208.0,452.0 Q 195.0,442.0 199.0,429.0 Q 202.0,419.0 208.0,412.0 Q 221.0,399.0 239.0,411.0 Q 303.0,441.0 317.0,415.0 Q 320.0,403.0 310.0,373.0 Q 297.0,319.0 282.0,282.0 L 266.0,250.0 L 266.0,249.0 Q 212.0,156.0 71.0,69.0 Q 59.0,59.0 68.0,54.0 Q 81.0,53.0 109.0,66.0 Q 205.0,109.0 262.0,168.0 Q 283.0,192.0 304.0,228.0 L 321.0,260.0" fill="black" stroke="#000000"/>
</svg>
