<?xml version="1.0" ?>
<svg baseProfile="full" height="1024" version="1.1" viewBox="0 0 1024 1024" width="1024" xmlns="http://www.w3.org/2000/svg" xmlns:ev="http://www.w3.org/2001/xml-events" xmlns:xlink="http://www.w3.org/1999/xlink">
	<defs/>
	<path d="M 339.0,727.0 Q 378.0,664.0 414.0,642.0 Q 430.0,636.0 443.0,649.0 Q 452.0,662.0 451.0,682.0 Q 447.0,709.0 430.0,726.0 Q 412.0,744.0 359.0,767.0 Q 341.0,776.0 331.0,773.0 Q 324.0,772.0 324.0,758.0 Q 324.0,745.0 339.0,727.0" fill="black" stroke="#000000"/>
	<path d="M 554.0,605.0 Q 603.0,651.0 634.0,682.0 Q 707.0,760.0 729.0,774.0 Q 751.0,789.0 736.0,806.0 Q 718.0,822.0 686.0,834.0 Q 658.0,844.0 644.0,840.0 Q 631.0,836.0 637.0,822.0 Q 650.0,788.0 532.0,611.0 Q 529.0,607.0 526.0,600.0 C 512.0,573.0 532.0,584.0 554.0,605.0" fill="black" stroke="#000000"/>
</svg>
