<?xml version="1.0" ?>
<svg baseProfile="full" height="1024" version="1.1" viewBox="0 0 1024 1024" width="1024" xmlns="http://www.w3.org/2000/svg" xmlns:ev="http://www.w3.org/2001/xml-events" xmlns:xlink="http://www.w3.org/1999/xlink">
	<defs/>
	<path d="M 531.0,651.0 Q 736.0,675.0 868.0,663.0 Q 893.0,662.0 899.0,670.0 Q 906.0,683.0 894.0,696.0 Q 863.0,724.0 817.0,744.0 Q 801.0,750.0 775.0,740.0 Q 712.0,725.0 483.0,694.0 Q 185.0,660.0 168.0,657.0 Q 162.0,658.0 156.0,657.0 Q 141.0,657.0 141.0,645.0 Q 140.0,632.0 160.0,618.0 Q 178.0,605.0 211.0,594.0 Q 221.0,590.0 240.0,599.0 Q 348.0,629.0 470.0,644.0 L 531.0,651.0" fill="black" stroke="#000000"/>
	<path d="M 435.0,100.0 Q 407.0,107.0 373.0,116.0 Q 360.0,120.0 361.0,112.0 Q 361.0,103.0 373.0,94.0 Q 445.0,39.0 491.0,-5.0 Q 503.0,-15.0 518.0,2.0 Q 560.0,60.0 553.0,141.0 Q 541.0,447.0 548.0,561.0 Q 548.0,579.0 550.0,596.0 Q 556.0,624.0 549.0,635.0 Q 545.0,642.0 531.0,651.0 C 509.0,671.0 457.0,671.0 470.0,644.0 Q 485.0,629.0 485.0,573.0 Q 488.0,443.0 488.0,148.0 Q 487.0,112.0 477.0,99.0 Q 464.0,92.0 435.0,100.0" fill="black" stroke="#000000"/>
</svg>
