<?xml version="1.0" ?>
<svg baseProfile="full" height="1024" version="1.1" viewBox="0 0 1024 1024" width="1024" xmlns="http://www.w3.org/2000/svg" xmlns:ev="http://www.w3.org/2001/xml-events" xmlns:xlink="http://www.w3.org/1999/xlink">
	<defs/>
	<path d="M 476.0,759.0 Q 504.0,734.0 536.0,702.0 Q 554.0,686.0 575.0,686.0 Q 590.0,687.0 596.0,705.0 Q 602.0,724.0 590.0,764.0 Q 578.0,798.0 469.0,823.0 Q 448.0,827.0 440.0,824.0 Q 433.0,818.0 436.0,801.0 Q 440.0,786.0 476.0,759.0" fill="black" stroke="#000000"/>
	<path d="M 536.0,539.0 Q 605.0,552.0 679.0,565.0 Q 748.0,578.0 758.0,588.0 Q 768.0,597.0 763.0,606.0 Q 756.0,619.0 723.0,629.0 Q 693.0,635.0 591.0,606.0 Q 432.0,564.0 289.0,553.0 Q 247.0,549.0 276.0,528.0 Q 318.0,504.0 404.0,515.0 Q 437.0,521.0 474.0,528.0 L 536.0,539.0" fill="black" stroke="#000000"/>
	<path d="M 549.0,308.0 Q 696.0,338.0 702.0,343.0 Q 712.0,350.0 707.0,360.0 Q 700.0,372.0 670.0,380.0 Q 643.0,386.0 552.0,358.0 L 488.0,342.0 Q 482.0,342.0 476.0,340.0 Q 400.0,324.0 311.0,317.0 Q 274.0,313.0 300.0,294.0 Q 337.0,267.0 399.0,281.0 Q 442.0,288.0 488.0,296.0 L 549.0,308.0" fill="black" stroke="#000000"/>
</svg>
