<?xml version="1.0" ?>
<svg baseProfile="full" height="1024" version="1.1" viewBox="0 0 1024 1024" width="1024" xmlns="http://www.w3.org/2000/svg" xmlns:ev="http://www.w3.org/2001/xml-events" xmlns:xlink="http://www.w3.org/1999/xlink">
	<defs/>
	<path d="M 483.0,250.0 Q 476.0,-26.0 499.0,-68.0 Q 515.0,-84.0 525.0,-61.0 Q 543.0,-19.0 542.0,256.0 L 542.0,303.0 Q 542.0,372.0 542.0,441.0 L 542.0,496.0 Q 542.0,568.0 545.0,622.0 L 546.0,676.0 Q 549.0,766.0 569.0,796.0 Q 576.0,812.0 555.0,830.0 Q 528.0,851.0 482.0,862.0 Q 461.0,868.0 447.0,853.0 Q 437.0,844.0 450.0,831.0 Q 481.0,804.0 484.0,766.0 Q 484.0,723.0 484.0,661.0 L 485.0,611.0 Q 485.0,556.0 485.0,484.0 L 485.0,431.0 Q 485.0,329.0 484.0,295.0 L 483.0,250.0" fill="black" stroke="#000000"/>
</svg>
