<?xml version="1.0" ?>
<svg baseProfile="full" height="1024" version="1.1" viewBox="0 0 1024 1024" width="1024" xmlns="http://www.w3.org/2000/svg" xmlns:ev="http://www.w3.org/2001/xml-events" xmlns:xlink="http://www.w3.org/1999/xlink">
	<defs/>
	<path d="M 598.0,517.0 Q 576.0,516.0 548.0,510.0 Q 521.0,501.0 539.0,523.0 Q 564.0,562.0 626.0,642.0 Q 645.0,667.0 661.0,683.0 Q 668.0,690.0 665.0,697.0 Q 658.0,710.0 634.0,722.0 Q 624.0,728.0 617.0,726.0 Q 610.0,723.0 612.0,712.0 Q 613.0,691.0 587.0,638.0 L 575.0,619.0 L 575.0,618.0 Q 506.0,513.0 485.0,503.0 Q 476.0,496.0 478.0,487.0 Q 479.0,477.0 497.0,464.0 Q 504.0,457.0 515.0,464.0 Q 548.0,488.0 603.0,505.0 C 632.0,514.0 628.0,519.0 598.0,517.0" fill="black" stroke="#000000"/>
</svg>
