<?xml version="1.0" ?>
<svg baseProfile="full" height="1024" version="1.1" viewBox="0 0 1024 1024" width="1024" xmlns="http://www.w3.org/2000/svg" xmlns:ev="http://www.w3.org/2001/xml-events" xmlns:xlink="http://www.w3.org/1999/xlink">
	<defs/>
	<path d="M 441.0,411.0 Q 444.0,703.0 451.0,731.0 Q 455.0,743.0 445.0,756.0 Q 435.0,765.0 408.0,779.0 Q 389.0,789.0 381.0,782.0 Q 375.0,776.0 382.0,762.0 Q 398.0,729.0 400.0,671.0 Q 409.0,407.0 386.0,162.0 Q 382.0,123.0 357.0,90.0 Q 347.0,75.0 355.0,55.0 Q 362.0,33.0 371.0,25.0 Q 381.0,16.0 398.0,28.0 Q 471.0,70.0 577.0,83.0 Q 698.0,96.0 929.0,79.0 Q 956.0,78.0 957.0,90.0 Q 958.0,106.0 929.0,129.0 Q 913.0,144.0 877.0,139.0 Q 762.0,127.0 671.0,123.0 Q 578.0,124.0 467.0,109.0 Q 425.0,105.0 435.0,151.0 Q 438.0,271.0 441.0,405.0 L 441.0,411.0" fill="black" stroke="#000000"/>
</svg>
