<?xml version="1.0" ?>
<svg baseProfile="full" height="1024" version="1.1" viewBox="0 0 1024 1024" width="1024" xmlns="http://www.w3.org/2000/svg" xmlns:ev="http://www.w3.org/2001/xml-events" xmlns:xlink="http://www.w3.org/1999/xlink">
	<defs/>
	<path d="M 793.0,549.0 Q 765.0,548.0 731.0,539.0 Q 709.0,532.0 723.0,550.0 Q 826.0,676.0 856.0,696.0 Q 865.0,703.0 861.0,710.0 Q 854.0,725.0 830.0,739.0 Q 818.0,746.0 812.0,745.0 Q 805.0,742.0 806.0,731.0 Q 806.0,712.0 774.0,657.0 L 764.0,641.0 Q 763.0,641.0 763.0,640.0 Q 688.0,543.0 666.0,533.0 Q 656.0,526.0 658.0,516.0 Q 658.0,506.0 676.0,492.0 Q 683.0,482.0 695.0,491.0 Q 738.0,519.0 801.0,536.0 C 830.0,544.0 823.0,551.0 793.0,549.0" fill="black" stroke="#000000"/>
</svg>
