<?xml version="1.0" ?>
<svg baseProfile="full" height="1024" version="1.1" viewBox="0 0 1024 1024" width="1024" xmlns="http://www.w3.org/2000/svg" xmlns:ev="http://www.w3.org/2001/xml-events" xmlns:xlink="http://www.w3.org/1999/xlink">
	<defs/>
	<path d="M 518.0,392.0 Q 522.0,382.0 521.0,366.0 Q 506.0,314.0 477.0,286.0 Q 462.0,274.0 479.0,250.0 Q 485.0,244.0 492.0,248.0 Q 505.0,255.0 549.0,266.0 Q 550.0,267.0 553.0,266.0 C 583.0,269.0 595.0,281.0 565.0,282.0 Q 543.0,283.0 524.0,282.0 Q 505.0,281.0 514.0,294.0 Q 538.0,330.0 560.0,357.0 Q 567.0,367.0 566.0,371.0 Q 565.0,380.0 541.0,396.0 C 516.0,413.0 511.0,417.0 518.0,392.0" fill="black" stroke="#000000"/>
</svg>
