<?xml version="1.0" ?>
<svg baseProfile="full" height="1024" version="1.1" viewBox="0 0 1024 1024" width="1024" xmlns="http://www.w3.org/2000/svg" xmlns:ev="http://www.w3.org/2001/xml-events" xmlns:xlink="http://www.w3.org/1999/xlink">
	<defs/>
	<path d="M 625.0,647.0 L 800.0,661.0 Q 855.0,661.0 861.0,671.0 Q 864.0,680.0 858.0,687.0 Q 857.0,689.0 849.0,696.0 Q 805.0,724.0 755.0,716.0 L 681.0,701.0 L 639.0,694.0 L 584.0,682.0 L 365.0,647.0 L 318.0,639.0 L 153.0,613.0 Q 139.0,612.0 143.0,603.0 Q 167.0,572.0 208.0,580.0 Q 218.0,582.0 223.0,583.0 Q 255.0,598.0 325.0,602.0 L 368.0,612.0 L 576.0,641.0 L 625.0,647.0" fill="black" stroke="#000000"/>
	<path d="M 365.0,647.0 Q 358.0,678.0 361.0,711.0 L 361.0,725.0 Q 365.0,737.0 360.0,744.0 Q 358.0,747.0 353.0,751.0 Q 342.0,759.0 314.0,768.0 Q 294.0,771.0 274.0,760.0 Q 269.0,755.0 273.0,748.0 Q 277.0,743.0 280.0,741.0 Q 301.0,720.0 318.0,639.0 L 325.0,602.0 Q 336.0,518.0 343.0,495.0 Q 347.0,470.0 357.0,456.0 Q 361.0,450.0 367.0,451.0 Q 368.0,452.0 370.0,454.0 Q 376.0,460.0 376.0,480.0 L 376.0,514.0 Q 376.0,515.0 374.0,547.0 Q 372.0,588.0 368.0,612.0 L 365.0,647.0" fill="black" stroke="#000000"/>
	<path d="M 597.0,549.0 Q 613.0,582.0 625.0,647.0 L 639.0,694.0 Q 644.0,733.0 676.0,792.0 Q 680.0,798.0 674.0,808.0 Q 672.0,810.0 666.0,817.0 Q 640.0,839.0 617.0,849.0 Q 604.0,855.0 595.0,849.0 Q 588.0,845.0 589.0,834.0 L 590.0,828.0 Q 604.0,796.0 601.0,785.0 L 584.0,682.0 L 576.0,641.0 Q 574.0,600.0 558.0,549.0 C 549.0,520.0 585.0,522.0 597.0,549.0" fill="black" stroke="#000000"/>
	<path d="M 482.0,499.0 Q 575.0,510.0 615.0,514.0 Q 625.0,515.0 627.0,523.0 Q 627.0,529.0 613.0,539.0 Q 608.0,544.0 599.0,549.0 L 597.0,549.0 L 558.0,549.0 Q 557.0,550.0 555.0,549.0 L 376.0,514.0 C 347.0,508.0 347.0,474.0 376.0,480.0 L 447.0,494.0 L 482.0,499.0" fill="black" stroke="#000000"/>
	<path d="M 188.0,364.0 Q 184.0,368.0 180.0,368.0 Q 153.0,378.0 135.0,378.0 Q 125.0,374.0 127.0,366.0 Q 167.0,299.0 159.0,186.0 Q 157.0,162.0 153.0,134.0 Q 143.0,79.0 143.0,78.0 Q 143.0,55.0 166.0,31.0 Q 172.0,22.0 179.0,24.0 Q 181.0,24.0 182.0,25.0 Q 216.0,54.0 208.0,137.0 Q 207.0,141.0 207.0,147.0 Q 207.0,307.0 199.0,325.0 C 192.0,354.0 190.0,363.0 188.0,364.0" fill="black" stroke="#000000"/>
	<path d="M 513.0,378.0 Q 647.0,400.0 784.0,408.0 Q 794.0,408.0 797.0,406.0 Q 800.0,404.0 802.0,402.0 Q 810.0,396.0 810.0,357.0 Q 815.0,246.0 808.0,155.0 Q 804.0,110.0 798.0,82.0 Q 795.0,54.0 774.0,57.0 Q 759.0,59.0 711.0,77.0 Q 703.0,82.0 700.0,80.0 Q 699.0,80.0 698.0,77.0 Q 698.0,74.0 700.0,68.0 L 706.0,59.0 Q 770.0,-7.0 784.0,-37.0 Q 794.0,-51.0 804.0,-49.0 Q 817.0,-48.0 831.0,-22.0 Q 864.0,42.0 870.0,276.0 Q 870.0,374.0 882.0,398.0 Q 894.0,415.0 890.0,421.0 Q 871.0,441.0 831.0,457.0 Q 813.0,466.0 796.0,463.0 Q 790.0,463.0 783.0,460.0 Q 763.0,451.0 597.0,433.0 Q 552.0,428.0 514.0,419.0 L 464.0,412.0 Q 426.0,408.0 398.0,398.0 L 188.0,364.0 C 158.0,359.0 170.0,317.0 199.0,325.0 Q 206.0,326.0 220.0,330.0 Q 267.0,347.0 465.0,370.0 L 513.0,378.0" fill="black" stroke="#000000"/>
	<path d="M 465.0,370.0 Q 468.0,251.0 463.0,190.0 Q 459.0,157.0 453.0,133.0 Q 447.0,106.0 461.0,74.0 Q 467.0,60.0 478.0,44.0 Q 488.0,25.0 498.0,22.0 Q 504.0,22.0 509.0,26.0 Q 512.0,29.0 514.0,34.0 Q 521.0,53.0 521.0,87.0 Q 521.0,92.0 520.0,94.0 Q 514.0,139.0 513.0,378.0 L 514.0,419.0 Q 515.0,462.0 514.0,469.0 Q 514.0,475.0 513.0,478.0 Q 496.0,491.0 482.0,499.0 C 457.0,515.0 434.0,521.0 447.0,494.0 Q 457.0,484.0 464.0,412.0 L 465.0,370.0" fill="black" stroke="#000000"/>
	<path d="M 308.0,257.0 Q 308.0,214.0 257.0,159.0 Q 253.0,156.0 251.0,152.0 Q 251.0,149.0 257.0,149.0 Q 284.0,156.0 361.0,216.0 C 385.0,234.0 309.0,287.0 308.0,257.0" fill="black" stroke="#000000"/>
	<path d="M 361.0,216.0 Q 402.0,182.0 409.0,180.0 Q 414.0,179.0 417.0,181.0 Q 419.0,182.0 421.0,184.0 Q 429.0,190.0 426.0,206.0 L 423.0,220.0 Q 410.0,257.0 272.0,306.0 Q 265.0,309.0 263.0,302.0 Q 263.0,300.0 308.0,257.0 L 361.0,216.0" fill="black" stroke="#000000"/>
	<path d="M 620.0,261.0 Q 596.0,220.0 539.0,182.0 Q 533.0,180.0 533.0,176.0 Q 532.0,172.0 537.0,172.0 Q 592.0,172.0 657.0,229.0 C 680.0,249.0 636.0,287.0 620.0,261.0" fill="black" stroke="#000000"/>
	<path d="M 657.0,229.0 Q 738.0,159.0 745.0,156.0 Q 751.0,155.0 755.0,157.0 Q 759.0,159.0 760.0,161.0 Q 770.0,168.0 766.0,186.0 Q 765.0,192.0 762.0,200.0 Q 751.0,246.0 569.0,325.0 Q 564.0,327.0 563.0,325.0 Q 560.0,324.0 559.0,321.0 Q 559.0,314.0 620.0,261.0 L 657.0,229.0" fill="black" stroke="#000000"/>
</svg>
