<?xml version="1.0" ?>
<svg baseProfile="full" height="1024" version="1.1" viewBox="0 0 1024 1024" width="1024" xmlns="http://www.w3.org/2000/svg" xmlns:ev="http://www.w3.org/2001/xml-events" xmlns:xlink="http://www.w3.org/1999/xlink">
	<defs/>
	<path d="M 346.0,523.0 Q 355.0,475.0 360.0,465.0 Q 367.0,455.0 374.0,462.0 Q 386.0,478.0 383.0,538.0 L 380.0,568.0 Q 379.0,595.0 378.0,619.0 L 375.0,660.0 Q 374.0,687.0 372.0,712.0 Q 371.0,715.0 371.0,716.0 L 370.0,762.0 Q 370.0,783.0 372.0,795.0 Q 378.0,813.0 365.0,822.0 Q 350.0,832.0 324.0,841.0 Q 305.0,847.0 285.0,836.0 Q 275.0,829.0 289.0,815.0 Q 310.0,791.0 319.0,746.0 L 326.0,706.0 Q 330.0,679.0 334.0,646.0 L 339.0,610.0 Q 340.0,582.0 344.0,558.0 L 346.0,523.0" fill="black" stroke="#000000"/>
</svg>
