<?xml version="1.0" ?>
<svg baseProfile="full" height="1024" version="1.1" viewBox="0 0 1024 1024" width="1024" xmlns="http://www.w3.org/2000/svg" xmlns:ev="http://www.w3.org/2001/xml-events" xmlns:xlink="http://www.w3.org/1999/xlink">
	<defs/>
	<path d="M 520.0,688.0 Q 758.0,710.0 827.0,705.0 Q 920.0,702.0 927.0,705.0 Q 927.0,706.0 929.0,707.0 Q 936.0,722.0 923.0,735.0 Q 848.0,801.0 781.0,778.0 Q 673.0,757.0 477.0,733.0 Q 173.0,697.0 130.0,695.0 Q 123.0,696.0 116.0,695.0 Q 101.0,695.0 100.0,683.0 Q 99.0,670.0 120.0,654.0 Q 138.0,641.0 172.0,629.0 Q 184.0,625.0 203.0,633.0 Q 219.0,640.0 294.0,653.0 Q 376.0,674.0 478.0,684.0 L 520.0,688.0" fill="black" stroke="#000000"/>
	<path d="M 544.0,524.0 Q 544.0,642.0 547.0,654.0 Q 551.0,667.0 541.0,675.0 Q 534.0,682.0 520.0,688.0 C 494.0,703.0 470.0,713.0 478.0,684.0 Q 499.0,648.0 485.0,268.0 Q 473.0,39.0 480.0,22.0 Q 486.0,6.0 498.0,-8.0 Q 511.0,-24.0 523.0,-5.0 Q 553.0,53.0 546.0,104.0 Q 540.0,161.0 544.0,492.0 L 544.0,524.0" fill="black" stroke="#000000"/>
</svg>
