<?xml version="1.0" ?>
<svg baseProfile="full" height="1024" version="1.1" viewBox="0 0 1024 1024" width="1024" xmlns="http://www.w3.org/2000/svg" xmlns:ev="http://www.w3.org/2001/xml-events" xmlns:xlink="http://www.w3.org/1999/xlink">
	<defs/>
	<path d="M 593.0,743.0 Q 615.0,749.0 748.0,759.0 Q 758.0,758.0 768.0,770.0 Q 769.0,782.0 747.0,793.0 Q 717.0,817.0 645.0,796.0 Q 503.0,769.0 316.0,750.0 Q 307.0,750.0 301.0,748.0 Q 273.0,747.0 294.0,728.0 Q 321.0,701.0 354.0,706.0 Q 382.0,712.0 415.0,716.0 L 457.0,723.0 Q 500.0,730.0 550.0,737.0 L 593.0,743.0" fill="black" stroke="#000000"/>
	<path d="M 415.0,716.0 Q 424.0,688.0 427.0,617.0 Q 427.0,568.0 428.0,478.0 C 428.0,448.0 467.0,453.0 468.0,483.0 Q 472.0,585.0 477.0,661.0 Q 481.0,704.0 462.0,720.0 Q 459.0,721.0 457.0,723.0 C 432.0,740.0 407.0,745.0 415.0,716.0" fill="black" stroke="#000000"/>
	<path d="M 598.0,504.0 L 613.0,723.0 Q 603.0,735.0 593.0,743.0 C 570.0,763.0 542.0,766.0 550.0,737.0 Q 559.0,710.0 559.0,635.0 Q 558.0,586.0 557.0,496.0 C 557.0,466.0 596.0,474.0 598.0,504.0" fill="black" stroke="#000000"/>
</svg>
