<?xml version="1.0" ?>
<svg baseProfile="full" height="1024" version="1.1" viewBox="0 0 1024 1024" width="1024" xmlns="http://www.w3.org/2000/svg" xmlns:ev="http://www.w3.org/2001/xml-events" xmlns:xlink="http://www.w3.org/1999/xlink">
	<defs/>
	<path d="M 481.0,305.0 Q 653.0,95.0 727.0,78.0 Q 757.0,75.0 921.0,77.0 Q 942.0,77.0 961.0,83.0 Q 971.0,93.0 954.0,106.0 Q 932.0,118.0 755.0,171.0 Q 656.0,198.0 550.0,312.0 Q 532.0,330.0 515.0,348.0 L 477.0,393.0 Q 413.0,471.0 346.0,569.0 Q 316.0,614.0 260.0,629.0 Q 241.0,633.0 225.0,624.0 Q 215.0,614.0 229.0,600.0 Q 241.0,590.0 253.0,583.0 Q 283.0,568.0 445.0,351.0 L 446.0,349.0 L 481.0,305.0" fill="black" stroke="#000000"/>
</svg>
