<?xml version="1.0" ?>
<svg baseProfile="full" height="1024" version="1.1" viewBox="0 0 1024 1024" width="1024" xmlns="http://www.w3.org/2000/svg" xmlns:ev="http://www.w3.org/2001/xml-events" xmlns:xlink="http://www.w3.org/1999/xlink">
	<defs/>
	<path d="M 492.0,669.0 Q 585.0,687.0 685.0,702.0 Q 752.0,715.0 761.0,724.0 Q 771.0,733.0 767.0,742.0 Q 760.0,757.0 727.0,766.0 Q 694.0,773.0 587.0,741.0 Q 436.0,705.0 305.0,697.0 Q 263.0,693.0 292.0,672.0 Q 340.0,647.0 417.0,658.0 Q 432.0,661.0 449.0,662.0 L 492.0,669.0" fill="black" stroke="#000000"/>
	<path d="M 223.0,459.0 Q 192.0,481.0 171.0,485.0 Q 164.0,489.0 159.0,481.0 Q 155.0,474.0 159.0,459.0 Q 187.0,410.0 191.0,365.0 Q 198.0,265.0 188.0,152.0 Q 184.0,127.0 195.0,104.0 Q 208.0,82.0 228.0,68.0 Q 244.0,58.0 246.0,71.0 Q 253.0,75.0 255.0,100.0 Q 261.0,125.0 252.0,209.0 Q 245.0,308.0 244.0,421.0 C 244.0,445.0 244.0,445.0 223.0,459.0" fill="black" stroke="#000000"/>
</svg>
