<?xml version="1.0" ?>
<svg baseProfile="full" height="1024" version="1.1" viewBox="0 0 1024 1024" width="1024" xmlns="http://www.w3.org/2000/svg" xmlns:ev="http://www.w3.org/2001/xml-events" xmlns:xlink="http://www.w3.org/1999/xlink">
	<defs/>
	<path d="M 198.0,381.0 Q 198.0,387.0 200.0,395.0 Q 208.0,449.0 211.0,506.0 L 212.0,544.0 Q 212.0,694.0 217.0,705.0 C 219.0,724.0 219.0,724.0 196.0,735.0 Q 152.0,759.0 133.0,751.0 Q 123.0,742.0 131.0,729.0 Q 153.0,706.0 158.0,641.0 L 159.0,613.0 Q 165.0,446.0 139.0,318.0 Q 112.0,204.0 48.0,82.0 L 42.0,69.0 Q 41.0,59.0 51.0,63.0 Q 67.0,67.0 92.0,104.0 Q 135.0,169.0 168.0,257.0 Q 180.0,296.0 190.0,345.0 L 198.0,381.0" fill="black" stroke="#000000"/>
	<path d="M 217.0,705.0 L 289.0,727.0 Q 298.0,729.0 304.0,727.0 Q 326.0,723.0 325.0,672.0 Q 334.0,360.0 319.0,177.0 Q 318.0,149.0 310.0,137.0 Q 306.0,137.0 244.0,139.0 Q 243.0,140.0 242.0,140.0 Q 224.0,145.0 225.0,135.0 Q 242.0,122.0 255.0,108.0 Q 277.0,88.0 306.0,54.0 Q 318.0,40.0 330.0,36.0 Q 343.0,33.0 361.0,58.0 Q 387.0,96.0 386.0,147.0 Q 363.0,657.0 390.0,710.0 Q 402.0,729.0 390.0,741.0 Q 367.0,760.0 332.0,774.0 Q 312.0,782.0 269.0,757.0 Q 239.0,745.0 196.0,735.0 C 167.0,728.0 188.0,696.0 217.0,705.0" fill="black" stroke="#000000"/>
	<path d="M 211.0,506.0 Q 260.0,514.0 295.0,515.0 Q 319.0,519.0 310.0,534.0 Q 298.0,549.0 272.0,553.0 Q 248.0,555.0 212.0,544.0 C 183.0,535.0 181.0,501.0 211.0,506.0" fill="black" stroke="#000000"/>
</svg>
