<?xml version="1.0" ?>
<svg baseProfile="full" height="1024" version="1.1" viewBox="0 0 1024 1024" width="1024" xmlns="http://www.w3.org/2000/svg" xmlns:ev="http://www.w3.org/2001/xml-events" xmlns:xlink="http://www.w3.org/1999/xlink">
	<defs/>
	<path d="M 492.0,367.0 Q 491.0,368.0 489.0,367.0 Q 365.0,351.0 300.0,342.0 Q 230.0,329.0 124.0,326.0 Q 109.0,325.0 109.0,313.0 Q 108.0,300.0 128.0,286.0 Q 146.0,273.0 179.0,262.0 Q 189.0,258.0 208.0,267.0 Q 226.0,273.0 300.0,287.0 Q 372.0,306.0 459.0,317.0 L 528.0,325.0 Q 768.0,355.0 877.0,345.0 Q 934.0,345.0 937.0,347.0 Q 937.0,350.0 939.0,350.0 Q 946.0,363.0 934.0,376.0 Q 903.0,404.0 857.0,424.0 Q 841.0,430.0 815.0,420.0 Q 733.0,402.0 533.0,373.0 L 492.0,367.0" fill="black" stroke="#000000"/>
</svg>
