<?xml version="1.0" ?>
<svg baseProfile="full" height="1024" version="1.1" viewBox="0 0 1024 1024" width="1024" xmlns="http://www.w3.org/2000/svg" xmlns:ev="http://www.w3.org/2001/xml-events" xmlns:xlink="http://www.w3.org/1999/xlink">
	<defs/>
	<path d="M 459.0,317.0 Q 459.0,245.0 365.0,151.0 Q 337.0,120.0 282.0,95.0 Q 251.0,83.0 250.0,72.0 Q 247.0,53.0 258.0,29.0 Q 268.0,7.0 282.0,0.0 Q 291.0,-4.0 304.0,2.0 Q 391.0,50.0 649.0,105.0 Q 671.0,109.0 691.0,111.0 C 721.0,115.0 705.0,139.0 675.0,135.0 Q 539.0,119.0 397.0,101.0 Q 385.0,98.0 383.0,102.0 Q 380.0,106.0 389.0,114.0 Q 503.0,249.0 545.0,282.0 Q 563.0,297.0 553.0,309.0 Q 546.0,318.0 528.0,325.0 C 502.0,339.0 462.0,347.0 459.0,317.0" fill="black" stroke="#000000"/>
</svg>
