<?xml version="1.0" ?>
<svg baseProfile="full" height="1024" version="1.1" viewBox="0 0 1024 1024" width="1024" xmlns="http://www.w3.org/2000/svg" xmlns:ev="http://www.w3.org/2001/xml-events" xmlns:xlink="http://www.w3.org/1999/xlink">
	<defs/>
	<path d="M 398.0,707.0 Q 408.0,666.0 421.0,653.0 Q 432.0,642.0 437.0,653.0 Q 439.0,668.0 435.0,717.0 L 431.0,746.0 Q 429.0,776.0 428.0,782.0 Q 429.0,800.0 412.0,804.0 Q 378.0,819.0 359.0,811.0 Q 343.0,805.0 357.0,788.0 Q 380.0,760.0 388.0,739.0 L 398.0,707.0" fill="black" stroke="#000000"/>
	<path d="M 233.0,677.0 Q 253.0,665.0 272.0,671.0 L 398.0,707.0 L 435.0,717.0 L 459.0,723.0 Q 466.0,727.0 472.0,731.0 Q 485.0,737.0 474.0,746.0 Q 470.0,749.0 464.0,751.0 Q 451.0,750.0 431.0,746.0 L 388.0,739.0 Q 334.0,733.0 260.0,721.0 Q 227.0,718.0 206.0,721.0 Q 190.0,723.0 192.0,718.0 Q 199.0,698.0 233.0,677.0" fill="black" stroke="#000000"/>
	<path d="M 641.0,760.0 Q 647.0,774.0 664.0,797.0 Q 674.0,809.0 669.0,816.0 Q 668.0,817.0 667.0,819.0 Q 657.0,835.0 627.0,853.0 Q 615.0,860.0 598.0,855.0 Q 587.0,850.0 594.0,838.0 Q 604.0,817.0 587.0,752.0 L 578.0,718.0 Q 561.0,660.0 561.0,651.0 Q 561.0,638.0 574.0,647.0 Q 588.0,657.0 620.0,716.0 L 641.0,760.0" fill="black" stroke="#000000"/>
	<path d="M 620.0,716.0 Q 660.0,738.0 797.0,727.0 Q 814.0,725.0 813.0,739.0 Q 813.0,747.0 808.0,755.0 Q 766.0,788.0 684.0,766.0 Q 659.0,765.0 641.0,760.0 L 587.0,752.0 Q 570.0,751.0 557.0,748.0 Q 529.0,745.0 559.0,727.0 Q 564.0,723.0 578.0,718.0 C 603.0,708.0 603.0,708.0 620.0,716.0" fill="black" stroke="#000000"/>
	<path d="M 386.0,476.0 Q 458.0,494.0 464.0,498.0 Q 470.0,502.0 466.0,510.0 Q 461.0,516.0 436.0,521.5 Q 411.0,527.0 392.0,521.0 L 338.0,505.0 Q 265.0,490.0 220.0,483.0 Q 186.0,476.0 211.0,464.0 Q 251.0,449.0 286.0,456.0 L 339.0,466.0 L 386.0,476.0" fill="black" stroke="#000000"/>
	<path d="M 379.0,407.0 Q 380.0,427.0 386.0,476.0 L 392.0,521.0 Q 392.0,561.0 410.0,608.0 L 410.0,610.0 Q 410.0,619.0 381.0,634.0 Q 351.0,649.0 335.0,648.0 Q 318.0,647.0 316.0,643.0 Q 308.0,636.0 320.0,620.0 Q 331.0,604.0 332.0,600.0 Q 333.0,595.0 334.0,583.0 Q 335.0,571.0 338.0,505.0 L 339.0,466.0 Q 339.0,429.0 338.0,397.0 C 337.0,367.0 377.0,377.0 379.0,407.0" fill="black" stroke="#000000"/>
	<path d="M 338.0,397.0 L 143.0,366.0 Q 114.0,363.0 137.0,347.0 Q 173.0,326.0 196.0,331.0 Q 223.0,343.0 500.0,384.0 Q 510.0,383.0 519.0,394.0 Q 521.0,406.0 496.0,414.0 Q 459.0,431.0 379.0,407.0 L 338.0,397.0" fill="black" stroke="#000000"/>
	<path d="M 217.0,299.0 Q 211.0,255.0 112.0,167.0 Q 108.0,164.0 106.0,162.0 Q 102.0,158.0 109.0,159.0 Q 112.0,159.0 119.0,160.0 Q 169.0,167.0 263.0,260.0 Q 282.0,278.0 283.0,278.0 Q 292.0,287.0 289.0,294.0 Q 283.0,306.0 249.0,310.0 Q 231.0,313.0 225.0,311.0 Q 218.0,310.0 217.0,299.0" fill="black" stroke="#000000"/>
	<path d="M 374.0,321.0 Q 377.0,315.0 397.0,300.0 L 456.0,256.0 Q 466.0,247.0 478.0,247.0 Q 487.0,247.0 490.5,258.0 Q 494.0,269.0 488.0,286.0 Q 485.0,302.0 455.0,314.0 Q 391.0,337.0 377.0,333.0 Q 373.0,329.0 374.0,321.0" fill="black" stroke="#000000"/>
	<path d="M 378.0,134.0 Q 388.0,137.0 439.0,147.0 Q 458.0,150.0 462.0,155.0 Q 470.0,163.0 466.0,169.0 Q 460.0,176.0 437.0,182.0 Q 408.0,188.0 382.0,179.0 L 327.0,163.0 Q 284.0,153.0 208.0,141.0 Q 172.0,135.0 199.0,122.0 Q 235.0,109.0 274.0,114.0 L 330.0,125.0 L 378.0,134.0" fill="black" stroke="#000000"/>
	<path d="M 370.0,51.0 L 378.0,134.0 C 381.0,164.0 382.0,178.0 382.0,179.0 Q 382.0,180.0 383.0,180.0 Q 386.0,194.0 394.0,221.0 Q 398.0,231.0 390.0,238.0 Q 387.0,241.0 380.0,245.0 Q 321.0,270.0 308.0,259.0 Q 300.0,253.0 308.0,241.0 Q 323.0,227.0 327.0,163.0 L 330.0,125.0 L 330.0,43.0 C 330.0,13.0 367.0,21.0 370.0,51.0" fill="black" stroke="#000000"/>
	<path d="M 330.0,43.0 Q 220.0,24.0 153.0,15.0 Q 141.0,14.0 137.0,6.0 Q 133.0,-4.0 149.0,-14.0 Q 182.0,-33.0 212.0,-29.0 Q 229.0,-27.0 286.0,-12.0 Q 392.0,20.0 514.0,36.0 Q 531.0,40.0 531.0,45.0 Q 533.0,59.0 511.0,67.0 Q 486.0,76.0 460.0,71.0 L 370.0,51.0 L 330.0,43.0" fill="black" stroke="#000000"/>
	<path d="M 525.0,476.0 Q 572.0,417.0 592.0,415.0 Q 606.0,412.0 611.0,423.0 Q 615.0,434.0 610.0,452.0 Q 603.0,465.0 581.0,475.0 Q 528.0,505.0 523.0,494.0 L 523.0,490.0 Q 522.0,484.0 525.0,476.0" fill="black" stroke="#000000"/>
	<path d="M 808.0,557.0 Q 808.0,542.0 787.0,517.0 Q 774.0,502.0 737.0,466.0 Q 729.0,455.0 741.0,455.0 L 744.0,455.0 Q 774.0,466.0 832.0,490.0 Q 850.0,502.0 874.0,510.0 Q 900.0,516.0 880.0,536.0 Q 870.0,546.0 851.0,557.0 Q 830.0,569.0 817.0,568.0 Q 804.0,566.0 808.0,557.0" fill="black" stroke="#000000"/>
	<path d="M 690.0,415.0 Q 708.0,466.0 713.0,543.0 Q 717.0,587.0 725.0,603.0 Q 728.0,612.0 720.0,619.0 Q 698.0,635.0 666.0,644.0 Q 641.0,651.0 625.0,646.0 Q 606.0,640.0 622.0,625.0 Q 667.0,589.0 655.0,490.0 Q 647.0,384.0 550.0,310.0 Q 525.0,294.0 523.0,292.0 Q 522.0,290.0 522.0,289.0 Q 522.0,286.0 529.0,286.0 Q 531.0,286.0 536.0,286.0 Q 581.0,286.0 655.0,353.0 Q 657.0,356.0 664.0,367.0 Q 673.0,378.0 682.0,397.0 L 690.0,415.0" fill="black" stroke="#000000"/>
	<path d="M 682.0,397.0 Q 683.0,396.0 704.0,384.0 Q 739.0,367.0 798.0,327.0 Q 812.0,317.0 827.0,314.0 Q 834.0,314.0 839.0,321.0 Q 848.0,333.0 831.0,362.0 Q 816.0,393.0 722.0,410.0 Q 706.0,414.0 690.0,415.0 C 660.0,417.0 657.0,413.0 682.0,397.0" fill="black" stroke="#000000"/>
	<path d="M 533.0,190.0 L 568.0,155.0 Q 577.0,144.0 592.0,143.0 Q 606.0,143.0 610.0,161.0 Q 612.0,171.0 608.0,185.5 Q 604.0,200.0 561.0,217.0 Q 526.0,230.0 514.0,227.0 Q 510.0,225.0 509.0,216.0 Q 512.0,207.0 533.0,190.0" fill="black" stroke="#000000"/>
	<path d="M 813.0,270.0 Q 815.0,254.0 782.0,223.0 Q 765.0,208.0 721.0,172.0 Q 719.0,169.0 718.0,167.0 Q 715.0,161.0 727.0,162.0 Q 774.0,179.0 839.0,210.0 Q 860.0,220.0 876.0,223.0 Q 906.0,232.0 874.0,258.0 Q 864.0,265.0 855.0,270.0 Q 835.0,283.0 823.0,282.0 Q 811.0,281.0 813.0,270.0" fill="black" stroke="#000000"/>
</svg>
