<?xml version="1.0" ?>
<svg baseProfile="full" height="1024" version="1.1" viewBox="0 0 1024 1024" width="1024" xmlns="http://www.w3.org/2000/svg" xmlns:ev="http://www.w3.org/2001/xml-events" xmlns:xlink="http://www.w3.org/1999/xlink">
	<defs/>
	<path d="M 515.0,687.0 Q 552.0,697.0 585.0,710.0 Q 634.0,723.0 675.0,726.0 Q 691.0,725.0 697.0,732.0 Q 701.0,742.0 691.0,755.0 Q 672.0,774.0 629.0,797.0 Q 614.0,807.0 600.0,807.0 Q 593.0,804.0 590.0,793.0 Q 584.0,744.0 302.0,660.0 Q 296.0,651.0 302.0,648.0 Q 320.0,642.0 442.0,671.0 Q 451.0,672.0 461.0,674.0 L 515.0,687.0" fill="black" stroke="#000000"/>
	<path d="M 489.0,546.0 Q 387.0,527.0 281.0,521.0 Q 239.0,517.0 268.0,496.0 Q 314.0,466.0 378.0,478.0 Q 433.0,487.0 491.0,496.0 L 542.0,503.0 Q 599.0,516.0 658.0,523.0 Q 724.0,536.0 733.0,544.0 Q 743.0,553.0 739.0,562.0 Q 732.0,577.0 699.0,586.0 Q 665.0,595.0 630.0,583.0 Q 587.0,571.0 546.0,559.0 L 489.0,546.0" fill="black" stroke="#000000"/>
	<path d="M 461.0,674.0 Q 479.0,656.0 486.0,599.0 Q 486.0,574.0 489.0,546.0 L 491.0,496.0 Q 492.0,435.0 492.0,367.0 C 492.0,337.0 531.0,343.0 533.0,373.0 Q 537.0,440.0 542.0,503.0 L 546.0,559.0 Q 547.0,569.0 548.0,580.0 Q 555.0,629.0 562.0,648.0 Q 565.0,658.0 545.0,673.0 Q 529.0,682.0 515.0,687.0 C 487.0,698.0 443.0,698.0 461.0,674.0" fill="black" stroke="#000000"/>
	<path d="M 492.0,367.0 Q 491.0,368.0 489.0,367.0 Q 365.0,351.0 300.0,342.0 Q 230.0,329.0 124.0,326.0 Q 109.0,325.0 109.0,313.0 Q 108.0,300.0 128.0,286.0 Q 146.0,273.0 179.0,262.0 Q 189.0,258.0 208.0,267.0 Q 226.0,273.0 300.0,287.0 Q 372.0,306.0 459.0,317.0 L 528.0,325.0 Q 768.0,355.0 877.0,345.0 Q 934.0,345.0 937.0,347.0 Q 937.0,350.0 939.0,350.0 Q 946.0,363.0 934.0,376.0 Q 903.0,404.0 857.0,424.0 Q 841.0,430.0 815.0,420.0 Q 733.0,402.0 533.0,373.0 L 492.0,367.0" fill="black" stroke="#000000"/>
	<path d="M 459.0,317.0 Q 459.0,245.0 365.0,151.0 Q 337.0,120.0 282.0,95.0 Q 251.0,83.0 250.0,72.0 Q 247.0,53.0 258.0,29.0 Q 268.0,7.0 282.0,0.0 Q 291.0,-4.0 304.0,2.0 Q 391.0,50.0 649.0,105.0 Q 671.0,109.0 691.0,111.0 C 721.0,115.0 705.0,139.0 675.0,135.0 Q 539.0,119.0 397.0,101.0 Q 385.0,98.0 383.0,102.0 Q 380.0,106.0 389.0,114.0 Q 503.0,249.0 545.0,282.0 Q 563.0,297.0 553.0,309.0 Q 546.0,318.0 528.0,325.0 C 502.0,339.0 462.0,347.0 459.0,317.0" fill="black" stroke="#000000"/>
</svg>
