<?xml version="1.0" ?>
<svg baseProfile="full" height="1024" version="1.1" viewBox="0 0 1024 1024" width="1024" xmlns="http://www.w3.org/2000/svg" xmlns:ev="http://www.w3.org/2001/xml-events" xmlns:xlink="http://www.w3.org/1999/xlink">
	<defs/>
	<path d="M 716.0,462.0 Q 634.0,447.0 548.0,424.0 Q 539.0,420.0 536.0,423.0 Q 535.0,424.0 539.0,432.0 Q 617.0,528.0 633.0,544.0 Q 645.0,553.0 639.0,564.0 Q 633.0,576.0 594.0,595.0 C 567.0,609.0 552.0,616.0 558.0,588.0 Q 558.0,584.0 560.0,577.0 Q 578.0,520.0 489.0,435.0 Q 440.0,399.0 453.0,380.0 Q 459.0,370.0 476.0,357.0 Q 486.0,347.0 498.0,357.0 Q 543.0,394.0 730.0,441.0 L 732.0,441.0 C 761.0,447.0 745.0,468.0 716.0,462.0" fill="black" stroke="#000000"/>
</svg>
