<?xml version="1.0" ?>
<svg baseProfile="full" height="1024" version="1.1" viewBox="0 0 1024 1024" width="1024" xmlns="http://www.w3.org/2000/svg" xmlns:ev="http://www.w3.org/2001/xml-events" xmlns:xlink="http://www.w3.org/1999/xlink">
	<defs/>
	<path d="M 961.0,68.0 Q 948.0,101.0 928.0,196.0 Q 927.0,209.0 921.0,214.0 Q 915.0,217.0 912.0,201.0 Q 894.0,99.0 878.0,67.0 Q 871.0,57.0 850.0,53.0 Q 801.0,44.0 759.0,62.0 Q 743.0,71.0 738.0,82.0 Q 711.0,139.0 743.0,319.0 Q 749.0,346.0 703.0,367.0 Q 690.0,371.0 683.0,366.0 Q 676.0,362.0 681.0,345.0 Q 693.0,308.0 690.0,273.0 Q 677.0,65.0 712.0,31.0 Q 770.0,-23.0 892.0,1.0 Q 896.0,2.0 901.0,3.0 Q 929.0,10.0 957.0,31.0 Q 973.0,46.0 961.0,68.0" fill="black" stroke="#000000"/>
</svg>
