<?xml version="1.0" ?>
<svg baseProfile="full" height="1024" version="1.1" viewBox="0 0 1024 1024" width="1024" xmlns="http://www.w3.org/2000/svg" xmlns:ev="http://www.w3.org/2001/xml-events" xmlns:xlink="http://www.w3.org/1999/xlink">
	<defs/>
	<path d="M 621.0,733.0 Q 636.0,760.0 651.0,780.0 Q 658.0,786.0 656.0,796.0 Q 653.0,806.0 640.0,817.0 Q 604.0,847.0 571.0,837.0 Q 562.0,834.0 566.0,822.0 Q 585.0,747.0 480.0,606.0 Q 477.0,605.0 476.0,601.0 Q 446.0,561.0 368.0,480.0 Q 361.0,474.0 371.0,472.0 Q 420.0,481.0 519.0,583.0 Q 567.0,644.0 610.0,713.0 L 621.0,733.0" fill="black" stroke="#000000"/>
	<path d="M 610.0,713.0 Q 766.0,526.0 814.0,514.0 Q 917.0,514.0 963.0,522.0 Q 966.0,523.0 972.0,524.0 Q 990.0,525.0 992.0,531.0 Q 993.0,538.0 979.0,543.0 Q 936.0,559.0 883.0,574.0 Q 769.0,611.0 621.0,733.0 C 598.0,752.0 591.0,736.0 610.0,713.0" fill="black" stroke="#000000"/>
	<path d="M 570.0,558.0 Q 577.0,483.0 488.0,385.0 Q 479.0,385.0 450.0,348.0 Q 440.0,333.0 456.0,337.0 Q 471.0,338.0 492.0,352.0 Q 559.0,394.0 600.0,451.0 Q 625.0,485.0 648.0,513.0 Q 658.0,525.0 646.0,541.0 Q 606.0,577.0 580.0,575.0 Q 570.0,574.0 570.0,558.0" fill="black" stroke="#000000"/>
	<path d="M 635.0,430.0 Q 635.0,340.0 510.0,232.0 Q 506.0,231.0 458.0,191.0 Q 449.0,178.0 463.0,180.0 Q 529.0,186.0 628.0,293.0 Q 637.0,309.0 704.0,383.0 Q 714.0,393.0 703.0,409.0 Q 670.0,445.0 645.0,445.0 Q 635.0,444.0 635.0,430.0" fill="black" stroke="#000000"/>
	<path d="M 695.0,303.0 Q 691.0,162.0 509.0,8.0 Q 472.0,-10.0 423.0,-59.0 Q 411.0,-75.0 429.0,-72.0 Q 457.0,-71.0 495.0,-46.0 Q 618.0,30.0 691.0,134.0 Q 737.0,197.0 780.0,246.0 Q 793.0,259.0 779.0,277.0 Q 734.0,322.0 707.0,320.0 Q 694.0,319.0 695.0,303.0" fill="black" stroke="#000000"/>
</svg>
