<?xml version="1.0" ?>
<svg baseProfile="full" height="1024" version="1.1" viewBox="0 0 1024 1024" width="1024" xmlns="http://www.w3.org/2000/svg" xmlns:ev="http://www.w3.org/2001/xml-events" xmlns:xlink="http://www.w3.org/1999/xlink">
	<defs/>
	<path d="M 445.0,357.0 Q 363.0,342.0 288.0,318.0 Q 275.0,312.0 273.0,317.0 Q 264.0,324.0 271.0,345.0 Q 296.0,469.0 313.0,504.0 Q 322.0,519.0 310.0,532.0 Q 291.0,557.0 260.0,572.0 Q 245.0,579.0 236.0,571.0 Q 229.0,565.0 238.0,547.0 Q 254.0,516.0 248.0,474.0 Q 238.0,362.0 195.0,309.0 Q 182.0,293.0 188.0,281.0 Q 195.0,260.0 215.0,243.0 Q 228.0,231.0 246.0,245.0 Q 294.0,284.0 441.0,310.0 Q 526.0,325.0 638.0,322.0 Q 662.0,319.0 671.0,327.0 Q 678.0,333.0 671.0,345.0 Q 664.0,358.0 624.0,379.0 Q 600.0,391.0 537.0,374.0 Q 510.0,373.0 497.0,367.0 L 445.0,357.0" fill="black" stroke="#000000"/>
</svg>
