<?xml version="1.0" ?>
<svg baseProfile="full" height="1024" version="1.1" viewBox="0 0 1024 1024" width="1024" xmlns="http://www.w3.org/2000/svg" xmlns:ev="http://www.w3.org/2001/xml-events" xmlns:xlink="http://www.w3.org/1999/xlink">
	<defs/>
	<path d="M 510.0,533.0 Q 532.0,530.0 550.0,535.0 Q 575.0,544.0 689.0,563.0 Q 708.0,566.0 715.0,557.0 Q 734.0,535.0 734.0,484.0 Q 735.0,324.0 722.0,220.0 Q 697.0,58.0 662.0,39.0 Q 650.0,35.0 574.0,72.0 Q 544.0,84.0 542.0,81.0 Q 538.0,74.0 553.0,58.0 Q 604.0,1.0 629.0,-47.0 Q 648.0,-78.0 667.0,-73.0 Q 716.0,-58.0 758.0,69.0 Q 783.0,156.0 800.0,439.0 Q 804.0,512.0 824.0,537.0 Q 843.0,559.0 819.0,578.0 Q 741.0,627.0 706.0,615.0 Q 603.0,585.0 513.0,570.0 C 483.0,565.0 480.0,533.0 510.0,533.0" fill="black" stroke="#000000"/>
</svg>
