<?xml version="1.0" ?>
<svg baseProfile="full" height="1024" version="1.1" viewBox="0 0 1024 1024" width="1024" xmlns="http://www.w3.org/2000/svg" xmlns:ev="http://www.w3.org/2001/xml-events" xmlns:xlink="http://www.w3.org/1999/xlink">
	<defs/>
	<path d="M 475.0,365.0 Q 472.0,17.0 485.0,-11.0 Q 486.0,-12.0 488.0,-16.0 Q 503.0,-32.0 512.0,-10.0 Q 530.0,32.0 530.0,370.0 L 530.0,407.0 Q 531.0,519.0 534.0,600.0 L 535.0,636.0 Q 538.0,742.0 559.0,778.0 Q 566.0,794.0 545.0,811.0 Q 520.0,830.0 475.0,843.0 Q 454.0,847.0 441.0,833.0 Q 431.0,826.0 444.0,812.0 Q 472.0,787.0 475.0,753.0 Q 475.0,704.0 476.0,628.0 L 476.0,593.0 Q 476.0,517.0 476.0,419.0 Q 475.0,409.0 475.0,399.0 L 475.0,365.0" fill="black" stroke="#000000"/>
</svg>
