<?xml version="1.0" ?>
<svg baseProfile="full" height="1024" version="1.1" viewBox="0 0 1024 1024" width="1024" xmlns="http://www.w3.org/2000/svg" xmlns:ev="http://www.w3.org/2001/xml-events" xmlns:xlink="http://www.w3.org/1999/xlink">
	<defs/>
	<path d="M 577.0,76.0 Q 614.0,119.0 680.0,208.0 Q 711.0,245.0 732.0,255.0 Q 754.0,265.0 755.0,276.0 Q 756.0,288.0 739.0,301.0 Q 717.0,320.0 693.0,332.0 Q 668.0,344.0 630.0,325.0 Q 534.0,300.0 470.0,297.0 Q 446.0,290.0 452.0,320.0 Q 462.0,375.0 476.0,431.0 L 485.0,475.0 Q 498.0,539.0 514.0,603.0 L 525.0,654.0 Q 543.0,741.0 563.0,765.0 Q 576.0,781.0 556.0,797.0 Q 534.0,813.0 487.0,832.0 Q 471.0,838.0 462.0,830.0 Q 452.0,823.0 467.0,801.0 Q 485.0,774.0 471.0,643.0 L 465.0,596.0 Q 461.0,578.0 459.0,556.0 Q 452.0,516.0 442.0,470.0 L 430.0,424.0 Q 402.0,331.0 388.0,314.0 Q 349.0,278.0 379.0,237.0 Q 386.0,225.0 406.0,239.0 Q 473.0,279.0 619.0,285.0 Q 644.0,286.0 644.0,282.0 L 557.0,91.0 C 545.0,64.0 558.0,53.0 577.0,76.0" fill="black" stroke="#000000"/>
</svg>
