<?xml version="1.0" ?>
<svg baseProfile="full" height="1024" version="1.1" viewBox="0 0 1024 1024" width="1024" xmlns="http://www.w3.org/2000/svg" xmlns:ev="http://www.w3.org/2001/xml-events" xmlns:xlink="http://www.w3.org/1999/xlink">
	<defs/>
	<path d="M 509.0,92.0 Q 567.0,95.0 622.0,99.0 Q 772.0,111.0 921.0,90.0 Q 946.0,86.0 952.0,96.0 Q 961.0,109.0 948.0,122.0 Q 918.0,152.0 874.0,173.0 Q 859.0,180.0 832.0,172.0 Q 763.0,160.0 694.0,151.0 L 636.0,146.0 Q 540.0,139.0 487.0,134.0 Q 435.0,131.0 394.0,126.0 L 345.0,122.0 Q 311.0,121.0 288.0,118.0 Q 213.0,108.0 102.0,110.0 Q 89.0,111.0 86.0,99.0 Q 85.0,86.0 104.0,71.0 Q 152.0,35.0 187.0,48.0 Q 226.0,60.0 389.0,81.0 Q 446.0,88.0 509.0,92.0" fill="black" stroke="#000000"/>
</svg>
