<?xml version="1.0" ?>
<svg baseProfile="full" height="1024" version="1.1" viewBox="0 0 1024 1024" width="1024" xmlns="http://www.w3.org/2000/svg" xmlns:ev="http://www.w3.org/2001/xml-events" xmlns:xlink="http://www.w3.org/1999/xlink">
	<defs/>
	<path d="M 679.0,797.0 Q 680.0,800.0 768.0,810.0 Q 778.0,809.0 785.0,820.0 Q 786.0,830.0 766.0,840.0 Q 730.0,858.0 656.0,833.0 Q 641.0,830.0 628.0,826.0 Q 562.0,811.0 463.0,798.0 Q 438.0,794.0 458.0,779.0 Q 488.0,758.0 511.0,762.0 L 551.0,771.0 Q 590.0,781.0 638.0,789.0 L 679.0,797.0" fill="black" stroke="#000000"/>
	<path d="M 441.0,676.0 Q 431.0,680.0 398.0,682.0 Q 388.0,683.0 385.0,679.0 Q 379.0,672.0 389.0,659.0 Q 417.0,619.0 440.0,547.0 Q 446.0,525.0 460.0,512.0 Q 479.0,496.0 481.0,510.0 Q 482.0,514.0 482.0,517.0 L 480.0,541.0 Q 479.0,548.0 477.0,557.0 Q 461.0,615.0 454.0,642.0 C 446.0,671.0 445.0,675.0 441.0,676.0" fill="black" stroke="#000000"/>
	<path d="M 748.0,564.0 L 749.0,563.0 Q 752.0,548.0 763.0,548.0 Q 781.0,551.0 812.0,600.0 Q 830.0,646.0 865.0,671.0 Q 883.0,684.0 869.0,700.0 Q 854.0,716.0 810.0,743.0 Q 795.0,752.0 730.0,736.0 Q 705.0,733.0 693.0,729.0 L 646.0,720.0 Q 610.0,714.0 578.0,706.0 L 535.0,696.0 Q 480.0,684.0 441.0,676.0 C 412.0,670.0 426.0,631.0 454.0,642.0 Q 472.0,651.0 540.0,666.0 L 578.0,676.0 Q 606.0,683.0 644.0,690.0 L 686.0,698.0 Q 767.0,714.0 784.0,705.0 Q 790.0,701.0 784.0,681.0 Q 763.0,615.0 751.0,589.0 C 743.0,571.0 743.0,571.0 748.0,564.0" fill="black" stroke="#000000"/>
	<path d="M 511.0,762.0 Q 523.0,738.0 535.0,696.0 L 540.0,666.0 Q 543.0,630.0 552.0,561.0 Q 551.0,560.0 549.0,556.0 C 538.0,528.0 586.0,534.0 584.0,564.0 Q 580.0,630.0 579.0,674.0 Q 578.0,675.0 578.0,676.0 L 578.0,706.0 Q 578.0,725.0 580.0,731.0 Q 581.0,749.0 570.0,759.0 Q 561.0,766.0 551.0,771.0 C 525.0,785.0 498.0,789.0 511.0,762.0" fill="black" stroke="#000000"/>
	<path d="M 693.0,729.0 Q 693.0,735.0 707.0,766.0 Q 710.0,773.0 697.0,785.0 Q 687.0,792.0 679.0,797.0 C 654.0,813.0 625.0,816.0 638.0,789.0 Q 648.0,770.0 648.0,757.0 Q 647.0,739.0 646.0,720.0 L 644.0,690.0 Q 638.0,636.0 630.0,574.0 C 626.0,544.0 657.0,553.0 663.0,582.0 Q 675.0,643.0 686.0,698.0 L 693.0,729.0" fill="black" stroke="#000000"/>
	<path d="M 592.0,536.0 Q 676.0,554.0 748.0,564.0 C 778.0,568.0 779.0,579.0 751.0,589.0 Q 744.0,592.0 737.0,593.0 Q 713.0,596.0 663.0,582.0 L 630.0,574.0 Q 606.0,570.0 584.0,564.0 L 549.0,556.0 Q 510.0,550.0 480.0,541.0 C 451.0,533.0 452.0,515.0 482.0,517.0 Q 494.0,517.0 550.0,528.0 L 592.0,536.0" fill="black" stroke="#000000"/>
	<path d="M 552.0,426.0 Q 603.0,439.0 832.0,478.0 Q 842.0,477.0 850.0,488.0 Q 850.0,498.0 830.0,508.0 Q 796.0,526.0 722.0,501.0 Q 680.0,491.0 638.0,479.0 Q 604.0,472.0 573.0,463.0 L 516.0,451.0 Q 492.0,451.0 367.0,430.0 Q 342.0,426.0 362.0,411.0 Q 392.0,390.0 427.0,398.0 Q 458.0,407.0 496.0,413.0 L 552.0,426.0" fill="black" stroke="#000000"/>
	<path d="M 515.0,369.0 Q 534.0,397.0 552.0,426.0 L 573.0,463.0 Q 588.0,490.0 595.0,498.0 Q 605.0,505.0 604.0,517.0 Q 600.0,527.0 592.0,536.0 C 574.0,560.0 559.0,556.0 550.0,528.0 Q 549.0,525.0 548.0,521.0 Q 547.0,517.0 516.0,451.0 L 496.0,413.0 Q 495.0,413.0 495.0,411.0 Q 438.0,320.0 348.0,257.0 Q 342.0,253.0 339.0,250.0 Q 335.0,243.0 343.0,242.0 Q 374.0,239.0 451.0,300.0 Q 452.0,303.0 456.0,304.0 Q 474.0,322.0 491.0,340.0 L 515.0,369.0" fill="black" stroke="#000000"/>
</svg>
