<?xml version="1.0" ?>
<svg baseProfile="full" height="1024" version="1.1" viewBox="0 0 1024 1024" width="1024" xmlns="http://www.w3.org/2000/svg" xmlns:ev="http://www.w3.org/2001/xml-events" xmlns:xlink="http://www.w3.org/1999/xlink">
	<defs/>
	<path d="M 706.0,457.0 Q 787.0,470.0 929.0,459.0 Q 954.0,458.0 960.0,467.0 Q 967.0,480.0 954.0,493.0 Q 923.0,520.0 876.0,539.0 Q 861.0,545.0 835.0,536.0 Q 772.0,520.0 712.0,508.0 L 664.0,500.0 Q 583.0,490.0 530.0,480.0 L 485.0,473.0 Q 400.0,463.0 345.0,454.0 L 292.0,446.0 Q 288.0,446.0 284.0,445.0 Q 208.0,430.0 96.0,425.0 Q 81.0,425.0 80.0,413.0 Q 80.0,400.0 100.0,386.0 Q 118.0,373.0 151.0,362.0 Q 161.0,358.0 181.0,367.0 Q 223.0,385.0 296.0,395.0 L 346.0,407.0 Q 410.0,422.0 486.0,432.0 L 531.0,437.0 Q 645.0,452.0 661.0,453.0 L 706.0,457.0" fill="black" stroke="#000000"/>
	<path d="M 486.0,432.0 Q 486.0,323.0 469.0,284.0 C 459.0,256.0 554.0,273.0 541.0,300.0 Q 537.0,301.0 535.0,312.0 Q 534.0,372.0 531.0,437.0 L 530.0,480.0 Q 523.0,658.0 525.0,681.0 Q 529.0,693.0 517.0,705.0 Q 507.0,714.0 480.0,726.0 Q 461.0,735.0 453.0,728.0 Q 446.0,721.0 454.0,707.0 Q 481.0,665.0 485.0,473.0 L 486.0,432.0" fill="black" stroke="#000000"/>
	<path d="M 691.0,323.0 Q 698.0,392.0 706.0,457.0 L 712.0,508.0 Q 721.0,631.0 748.0,720.0 Q 752.0,730.0 733.0,747.0 Q 699.0,768.0 674.0,773.0 Q 658.0,777.0 650.0,769.0 Q 641.0,762.0 649.0,747.0 Q 673.0,708.0 671.0,683.0 Q 670.0,595.0 664.0,500.0 L 661.0,453.0 Q 655.0,389.0 649.0,321.0 C 646.0,291.0 688.0,293.0 691.0,323.0" fill="black" stroke="#000000"/>
	<path d="M 469.0,284.0 Q 445.0,263.0 482.0,225.0 Q 483.0,224.0 486.0,222.0 Q 496.0,215.0 511.0,227.0 Q 556.0,266.0 701.0,282.0 Q 722.0,283.0 721.0,293.0 Q 720.0,306.0 695.0,321.0 Q 694.0,322.0 691.0,323.0 L 649.0,321.0 Q 622.0,315.0 600.0,311.0 Q 542.0,301.0 541.0,300.0 C 512.0,293.0 470.0,285.0 469.0,284.0" fill="black" stroke="#000000"/>
	<path d="M 345.0,454.0 Q 345.0,464.0 345.0,473.0 Q 341.0,582.0 344.0,604.0 Q 354.0,623.0 335.0,633.0 Q 292.0,652.0 272.0,652.0 Q 260.0,653.0 252.0,645.0 Q 243.0,638.0 258.0,623.0 Q 276.0,604.0 292.0,446.0 L 296.0,395.0 Q 314.0,260.0 292.0,129.0 Q 286.0,105.0 277.0,96.0 Q 246.0,66.0 294.0,34.0 Q 310.0,21.0 327.0,37.0 Q 378.0,103.0 731.0,103.0 Q 779.0,104.0 804.0,101.0 Q 849.0,97.0 850.0,118.0 Q 849.0,133.0 815.0,152.0 Q 781.0,171.0 762.0,169.0 Q 728.0,166.0 469.0,125.0 Q 370.0,106.0 362.0,116.0 Q 353.0,123.0 354.0,169.0 Q 355.0,193.0 352.0,249.0 Q 349.0,276.0 346.0,407.0 L 345.0,454.0" fill="black" stroke="#000000"/>
</svg>
