<?xml version="1.0" ?>
<svg baseProfile="full" height="1024" version="1.1" viewBox="0 0 1024 1024" width="1024" xmlns="http://www.w3.org/2000/svg" xmlns:ev="http://www.w3.org/2001/xml-events" xmlns:xlink="http://www.w3.org/1999/xlink">
	<defs/>
	<path d="M 195.0,739.0 Q 192.0,740.0 184.0,741.0 Q 151.0,749.0 147.0,741.0 Q 143.0,737.0 151.0,725.0 Q 179.0,674.0 198.0,610.0 Q 202.0,588.0 217.0,574.0 Q 233.0,559.0 236.0,570.0 Q 237.0,580.0 236.0,593.0 L 233.0,612.0 Q 227.0,630.0 208.0,710.0 C 201.0,738.0 201.0,738.0 195.0,739.0" fill="black" stroke="#000000"/>
	<path d="M 464.0,633.0 Q 464.0,632.0 465.0,630.0 Q 467.0,610.0 479.0,610.0 Q 497.0,613.0 523.0,668.0 Q 539.0,711.0 569.0,733.0 Q 585.0,746.0 572.0,759.0 Q 561.0,771.0 519.0,796.0 Q 508.0,803.0 440.0,788.0 Q 432.0,788.0 195.0,739.0 C 166.0,733.0 179.0,704.0 208.0,710.0 Q 212.0,710.0 217.0,711.0 Q 250.0,722.0 274.0,727.0 L 275.0,727.0 L 291.0,731.0 Q 329.0,742.0 384.0,751.0 L 411.0,755.0 Q 477.0,770.0 495.0,760.0 Q 503.0,757.0 491.0,712.0 Q 477.0,663.0 466.0,647.0 C 462.0,640.0 462.0,640.0 464.0,633.0" fill="black" stroke="#000000"/>
	<path d="M 321.0,632.0 Q 321.0,635.0 322.0,637.0 Q 322.0,647.0 297.0,725.0 Q 293.0,729.0 291.0,731.0 C 272.0,750.0 272.0,750.0 275.0,727.0 Q 285.0,645.0 307.0,628.0 C 319.0,617.0 319.0,617.0 321.0,632.0" fill="black" stroke="#000000"/>
	<path d="M 404.0,655.0 Q 413.0,678.0 421.0,698.0 L 437.0,727.0 Q 440.0,733.0 436.0,737.0 Q 428.0,749.0 411.0,755.0 C 383.0,766.0 370.0,771.0 384.0,751.0 Q 394.0,741.0 387.0,698.0 L 377.0,647.0 C 371.0,618.0 393.0,627.0 404.0,655.0" fill="black" stroke="#000000"/>
	<path d="M 236.0,593.0 L 464.0,633.0 C 476.0,635.0 476.0,635.0 466.0,647.0 Q 465.0,651.0 461.0,653.0 Q 441.0,664.0 404.0,655.0 L 377.0,647.0 Q 345.0,639.0 321.0,632.0 L 307.0,628.0 Q 268.0,622.0 233.0,612.0 C 204.0,604.0 206.0,588.0 236.0,593.0" fill="black" stroke="#000000"/>
	<path d="M 72.0,515.0 Q 61.0,514.0 58.0,508.0 Q 54.0,498.0 68.0,488.0 Q 99.0,464.0 136.0,474.0 Q 318.0,525.0 506.0,546.0 L 509.0,546.0 Q 524.0,548.0 520.0,559.0 Q 517.0,568.0 507.0,572.0 Q 485.0,583.0 465.0,580.0 Q 185.0,524.0 72.0,515.0" fill="black" stroke="#000000"/>
	<path d="M 219.0,453.0 Q 209.0,456.0 192.0,456.0 Q 188.0,457.0 185.0,456.0 Q 173.0,453.0 185.0,437.0 Q 191.0,427.0 196.0,419.0 Q 209.0,396.0 221.0,355.0 Q 230.0,327.0 247.0,312.0 C 277.0,283.0 268.0,311.0 256.0,353.0 Q 242.0,400.0 236.0,428.0 C 231.0,450.0 231.0,450.0 219.0,453.0" fill="black" stroke="#000000"/>
	<path d="M 444.0,382.0 Q 463.0,437.0 484.0,447.0 Q 496.0,462.0 485.0,474.0 Q 473.0,484.0 432.0,503.0 Q 428.0,504.0 424.0,506.0 Q 415.0,508.0 389.0,498.0 Q 315.0,468.0 219.0,453.0 C 189.0,448.0 207.0,421.0 236.0,428.0 Q 246.0,430.0 255.0,433.0 L 388.0,463.0 Q 403.0,466.0 412.0,461.0 Q 418.0,453.0 406.0,388.0 C 401.0,358.0 434.0,354.0 444.0,382.0" fill="black" stroke="#000000"/>
	<path d="M 273.0,327.0 Q 279.0,325.0 293.0,329.0 Q 373.0,345.0 454.0,355.0 Q 464.0,355.0 464.0,363.0 Q 464.0,370.0 444.0,382.0 L 406.0,388.0 Q 402.0,388.0 394.0,386.0 Q 335.0,367.0 264.0,355.0 Q 259.0,355.0 256.0,353.0 C 227.0,344.0 243.0,330.0 273.0,327.0" fill="black" stroke="#000000"/>
	<path d="M 247.0,312.0 Q 231.0,232.0 95.0,127.0 Q 89.0,125.0 87.0,120.0 Q 87.0,116.0 91.0,114.0 Q 129.0,114.0 232.0,204.0 L 253.0,225.0 Q 272.0,253.0 295.0,269.0 Q 302.0,274.0 298.0,290.0 Q 291.0,311.0 273.0,327.0 C 255.0,345.0 254.0,341.0 247.0,312.0" fill="black" stroke="#000000"/>
	<path d="M 232.0,204.0 Q 248.0,165.0 242.0,110.0 Q 236.0,63.0 221.0,44.0 Q 211.0,27.0 217.0,6.0 Q 223.0,-17.0 238.0,-27.0 Q 247.0,-34.0 257.0,-20.0 Q 288.0,18.0 391.0,110.0 Q 404.0,122.0 406.0,127.0 Q 407.0,137.0 390.0,129.0 Q 287.0,69.0 279.0,71.0 Q 273.0,74.0 273.0,88.0 Q 280.0,161.0 285.0,177.0 Q 289.0,194.0 279.0,204.0 Q 267.0,220.0 253.0,225.0 C 226.0,239.0 222.0,232.0 232.0,204.0" fill="black" stroke="#000000"/>
	<path d="M 417.0,221.0 Q 454.0,252.0 471.0,264.0 L 508.0,287.0 Q 512.0,290.0 510.0,295.0 Q 509.0,300.0 502.0,307.0 Q 478.0,332.0 460.0,331.0 Q 449.0,331.0 451.0,316.0 Q 453.0,301.0 405.0,229.0 C 388.0,204.0 394.0,202.0 417.0,221.0" fill="black" stroke="#000000"/>
	<path d="M 405.0,229.0 Q 376.0,243.0 354.0,253.0 Q 346.0,256.0 346.0,247.0 Q 346.0,243.0 347.0,241.0 Q 350.0,232.0 368.0,218.0 Q 459.0,143.0 466.0,131.0 Q 477.0,119.0 487.0,116.0 Q 494.0,114.0 501.0,122.0 Q 508.0,133.0 499.0,163.0 Q 492.0,184.0 417.0,221.0 L 405.0,229.0" fill="black" stroke="#000000"/>
	<path d="M 612.0,666.0 L 721.0,764.0 Q 736.0,778.0 759.0,793.0 Q 779.0,805.0 765.0,819.0 Q 753.0,835.0 725.0,845.0 Q 705.0,854.0 694.0,853.0 Q 679.0,849.0 683.0,837.0 Q 687.0,817.0 659.0,767.0 L 592.0,669.0 C 575.0,644.0 590.0,646.0 612.0,666.0" fill="black" stroke="#000000"/>
	<path d="M 595.0,319.0 L 595.0,363.0 L 595.0,385.0 Q 595.0,394.0 596.0,453.0 L 596.0,474.0 Q 596.0,514.0 597.0,542.0 L 600.0,568.0 Q 603.0,624.0 614.0,634.0 C 635.0,674.0 617.0,653.0 592.0,669.0 Q 566.0,688.0 551.0,683.0 Q 539.0,678.0 542.0,670.0 L 546.0,662.0 Q 559.0,635.0 559.0,512.0 Q 553.0,333.0 541.0,290.0 Q 535.0,270.0 550.0,256.0 Q 568.0,241.0 590.0,254.0 C 595.0,256.0 595.0,289.0 595.0,319.0" fill="black" stroke="#000000"/>
</svg>
