<?xml version="1.0" ?>
<svg baseProfile="full" height="1024" version="1.1" viewBox="0 0 1024 1024" width="1024" xmlns="http://www.w3.org/2000/svg" xmlns:ev="http://www.w3.org/2001/xml-events" xmlns:xlink="http://www.w3.org/1999/xlink">
	<defs/>
	<path d="M 195.0,739.0 Q 192.0,740.0 184.0,741.0 Q 151.0,749.0 147.0,741.0 Q 143.0,737.0 151.0,725.0 Q 179.0,674.0 198.0,610.0 Q 202.0,588.0 217.0,574.0 Q 233.0,559.0 236.0,570.0 Q 237.0,580.0 236.0,593.0 L 233.0,612.0 Q 227.0,630.0 208.0,710.0 C 201.0,738.0 201.0,738.0 195.0,739.0" fill="black" stroke="#000000"/>
	<path d="M 464.0,633.0 Q 464.0,632.0 465.0,630.0 Q 467.0,610.0 479.0,610.0 Q 497.0,613.0 523.0,668.0 Q 539.0,711.0 569.0,733.0 Q 585.0,746.0 572.0,759.0 Q 561.0,771.0 519.0,796.0 Q 508.0,803.0 440.0,788.0 Q 432.0,788.0 195.0,739.0 C 166.0,733.0 179.0,704.0 208.0,710.0 Q 212.0,710.0 217.0,711.0 Q 250.0,722.0 274.0,727.0 L 275.0,727.0 L 291.0,731.0 Q 329.0,742.0 384.0,751.0 L 411.0,755.0 Q 477.0,770.0 495.0,760.0 Q 503.0,757.0 491.0,712.0 Q 477.0,663.0 466.0,647.0 C 462.0,640.0 462.0,640.0 464.0,633.0" fill="black" stroke="#000000"/>
	<path d="M 321.0,632.0 Q 321.0,635.0 322.0,637.0 Q 322.0,647.0 297.0,725.0 Q 293.0,729.0 291.0,731.0 C 272.0,750.0 272.0,750.0 275.0,727.0 Q 285.0,645.0 307.0,628.0 C 319.0,617.0 319.0,617.0 321.0,632.0" fill="black" stroke="#000000"/>
	<path d="M 404.0,655.0 Q 413.0,678.0 421.0,698.0 L 437.0,727.0 Q 440.0,733.0 436.0,737.0 Q 428.0,749.0 411.0,755.0 C 383.0,766.0 370.0,771.0 384.0,751.0 Q 394.0,741.0 387.0,698.0 L 377.0,647.0 C 371.0,618.0 393.0,627.0 404.0,655.0" fill="black" stroke="#000000"/>
	<path d="M 236.0,593.0 L 464.0,633.0 C 476.0,635.0 476.0,635.0 466.0,647.0 Q 465.0,651.0 461.0,653.0 Q 441.0,664.0 404.0,655.0 L 377.0,647.0 Q 345.0,639.0 321.0,632.0 L 307.0,628.0 Q 268.0,622.0 233.0,612.0 C 204.0,604.0 206.0,588.0 236.0,593.0" fill="black" stroke="#000000"/>
	<path d="M 72.0,515.0 Q 61.0,514.0 58.0,508.0 Q 54.0,498.0 68.0,488.0 Q 99.0,464.0 136.0,474.0 Q 318.0,525.0 506.0,546.0 L 509.0,546.0 Q 524.0,548.0 520.0,559.0 Q 517.0,568.0 507.0,572.0 Q 485.0,583.0 465.0,580.0 Q 185.0,524.0 72.0,515.0" fill="black" stroke="#000000"/>
	<path d="M 219.0,453.0 Q 209.0,456.0 192.0,456.0 Q 188.0,457.0 185.0,456.0 Q 173.0,453.0 185.0,437.0 Q 191.0,427.0 196.0,419.0 Q 209.0,396.0 221.0,355.0 Q 230.0,327.0 247.0,312.0 C 277.0,283.0 268.0,311.0 256.0,353.0 Q 242.0,400.0 236.0,428.0 C 231.0,450.0 231.0,450.0 219.0,453.0" fill="black" stroke="#000000"/>
</svg>
