<?xml version="1.0" ?>
<svg baseProfile="full" height="1024" version="1.1" viewBox="0 0 1024 1024" width="1024" xmlns="http://www.w3.org/2000/svg" xmlns:ev="http://www.w3.org/2001/xml-events" xmlns:xlink="http://www.w3.org/1999/xlink">
	<defs/>
	<path d="M 288.0,717.0 Q 288.0,711.0 298.0,700.0 Q 335.0,655.0 355.0,628.0 Q 364.0,616.0 373.0,613.0 Q 389.0,608.0 398.0,623.0 Q 406.0,636.0 400.0,666.0 Q 400.0,669.0 398.0,672.0 Q 388.0,695.0 341.0,718.0 Q 304.0,737.0 293.0,733.0 Q 288.0,730.0 288.0,717.0" fill="black" stroke="#000000"/>
	<path d="M 439.0,780.0 Q 440.0,775.0 443.0,770.0 L 497.0,688.0 Q 502.0,680.0 506.0,676.0 Q 522.0,664.0 535.0,679.0 Q 542.0,692.0 541.0,717.0 L 541.0,719.0 Q 536.0,743.0 492.0,772.0 Q 457.0,795.0 445.0,794.0 Q 442.0,791.0 439.0,780.0" fill="black" stroke="#000000"/>
</svg>
