<?xml version="1.0" ?>
<svg baseProfile="full" height="1024" version="1.1" viewBox="0 0 1024 1024" width="1024" xmlns="http://www.w3.org/2000/svg" xmlns:ev="http://www.w3.org/2001/xml-events" xmlns:xlink="http://www.w3.org/1999/xlink">
	<defs/>
	<path d="M 480.0,484.0 Q 525.0,466.0 640.0,466.0 Q 664.0,469.0 673.0,456.0 Q 683.0,437.0 668.0,400.0 Q 634.0,252.0 605.0,192.0 Q 583.0,143.0 564.0,130.0 Q 540.0,105.0 502.0,124.0 Q 469.0,134.0 427.0,152.0 Q 409.0,156.0 411.0,149.0 Q 412.0,139.0 431.0,125.0 Q 476.0,79.0 500.0,44.0 Q 512.0,20.0 530.0,20.0 Q 546.0,19.0 576.0,36.0 Q 613.0,64.0 640.0,120.0 Q 671.0,184.0 721.0,356.0 Q 734.0,398.0 756.0,420.0 Q 775.0,433.0 774.0,448.0 Q 773.0,464.0 704.0,511.0 Q 682.0,526.0 660.0,515.0 Q 579.0,500.0 494.0,515.0 C 464.0,519.0 451.0,493.0 480.0,484.0" fill="black" stroke="#000000"/>
</svg>
