<?xml version="1.0" ?>
<svg baseProfile="full" height="1024" version="1.1" viewBox="0 0 1024 1024" width="1024" xmlns="http://www.w3.org/2000/svg" xmlns:ev="http://www.w3.org/2001/xml-events" xmlns:xlink="http://www.w3.org/1999/xlink">
	<defs/>
	<path d="M 587.0,58.0 Q 553.0,65.0 517.0,72.0 Q 495.0,76.0 496.0,67.0 Q 569.0,15.0 610.0,-24.0 Q 625.0,-45.0 642.0,-50.0 Q 652.0,-54.0 661.0,-43.0 Q 706.0,14.0 702.0,73.0 Q 695.0,206.0 690.0,394.0 L 689.0,442.0 Q 685.0,676.0 701.0,705.0 Q 714.0,727.0 701.0,738.0 Q 677.0,759.0 637.0,775.0 Q 618.0,782.0 600.0,774.0 Q 512.0,726.0 378.0,715.0 C 348.0,712.0 377.0,678.0 406.0,684.0 Q 407.0,684.0 589.0,723.0 Q 611.0,730.0 617.0,718.0 Q 626.0,696.0 629.0,659.0 Q 633.0,541.0 634.0,436.0 L 634.0,389.0 Q 634.0,83.0 616.0,59.0 Q 610.0,52.0 587.0,58.0" fill="black" stroke="#000000"/>
</svg>
