<?xml version="1.0" ?>
<svg baseProfile="full" height="1024" version="1.1" viewBox="0 0 1024 1024" width="1024" xmlns="http://www.w3.org/2000/svg" xmlns:ev="http://www.w3.org/2001/xml-events" xmlns:xlink="http://www.w3.org/1999/xlink">
	<defs/>
	<path d="M 690.0,394.0 Q 780.0,403.0 923.0,387.0 Q 947.0,383.0 953.0,392.0 Q 962.0,405.0 949.0,419.0 Q 876.0,485.0 812.0,463.0 Q 749.0,451.0 689.0,442.0 L 634.0,436.0 Q 417.0,417.0 396.0,413.0 L 346.0,407.0 Q 312.0,406.0 287.0,401.0 Q 212.0,391.0 102.0,390.0 Q 87.0,390.0 86.0,378.0 Q 85.0,365.0 104.0,350.0 Q 149.0,317.0 187.0,329.0 Q 214.0,341.0 341.0,358.0 L 391.0,366.0 Q 424.0,372.0 624.0,390.0 Q 627.0,390.0 634.0,389.0 L 690.0,394.0" fill="black" stroke="#000000"/>
</svg>
