<?xml version="1.0" ?>
<svg baseProfile="full" height="1024" version="1.1" viewBox="0 0 1024 1024" width="1024" xmlns="http://www.w3.org/2000/svg" xmlns:ev="http://www.w3.org/2001/xml-events" xmlns:xlink="http://www.w3.org/1999/xlink">
	<defs/>
	<path d="M 764.0,345.0 Q 782.0,320.0 797.0,314.0 Q 807.0,307.0 819.0,327.0 Q 832.0,354.0 853.0,493.0 Q 860.0,521.0 879.0,543.0 Q 889.0,553.0 880.0,566.0 Q 867.0,579.0 828.0,601.0 Q 812.0,608.0 628.0,566.0 Q 574.0,554.0 530.0,547.0 C 500.0,542.0 528.0,512.0 557.0,521.0 Q 587.0,531.0 635.0,540.0 L 673.0,548.0 Q 779.0,573.0 795.0,559.0 Q 808.0,544.0 807.0,528.0 Q 788.0,377.0 772.0,366.0 C 762.0,348.0 762.0,348.0 764.0,345.0" fill="black" stroke="#000000"/>
</svg>
