<?xml version="1.0" ?>
<svg baseProfile="full" height="1024" version="1.1" viewBox="0 0 1024 1024" width="1024" xmlns="http://www.w3.org/2000/svg" xmlns:ev="http://www.w3.org/2001/xml-events" xmlns:xlink="http://www.w3.org/1999/xlink">
	<defs/>
	<path d="M 361.0,723.0 Q 351.0,729.0 316.0,735.0 Q 309.0,737.0 305.0,735.0 Q 302.0,734.0 302.0,733.0 Q 298.0,729.0 301.0,721.0 Q 302.0,719.0 304.0,712.0 Q 333.0,654.0 351.0,557.0 Q 355.0,527.0 370.0,508.0 Q 382.0,494.0 388.0,498.0 Q 390.0,500.0 392.0,503.0 Q 394.0,512.0 394.0,523.0 L 394.0,545.0 Q 390.0,574.0 382.0,610.0 L 377.0,633.0 L 367.0,692.0 C 362.0,722.0 362.0,723.0 361.0,723.0" fill="black" stroke="#000000"/>
</svg>
