<?xml version="1.0" ?>
<svg baseProfile="full" height="1024" version="1.1" viewBox="0 0 1024 1024" width="1024" xmlns="http://www.w3.org/2000/svg" xmlns:ev="http://www.w3.org/2001/xml-events" xmlns:xlink="http://www.w3.org/1999/xlink">
	<defs/>
	<path d="M 360.0,337.0 L 288.0,341.0 Q 269.0,342.0 272.0,351.0 Q 274.0,355.0 277.0,357.0 Q 313.0,400.0 355.0,441.0 Q 367.0,453.0 367.0,460.0 Q 365.0,472.0 336.0,499.0 Q 325.0,512.0 312.0,510.0 L 310.0,510.0 Q 302.0,510.0 304.0,500.0 Q 312.0,474.0 287.0,433.0 Q 278.0,416.0 257.0,385.0 Q 246.0,367.0 223.0,353.0 Q 208.0,343.0 209.0,332.0 Q 210.0,316.0 221.0,301.0 Q 226.0,292.0 235.0,295.0 Q 276.0,318.0 345.0,318.0 C 375.0,318.0 390.0,335.0 360.0,337.0" fill="black" stroke="#000000"/>
</svg>
