<?xml version="1.0" ?>
<svg baseProfile="full" height="1024" version="1.1" viewBox="0 0 1024 1024" width="1024" xmlns="http://www.w3.org/2000/svg" xmlns:ev="http://www.w3.org/2001/xml-events" xmlns:xlink="http://www.w3.org/1999/xlink">
	<defs/>
	<path d="M 409.0,241.0 Q 353.0,231.0 321.0,223.0 Q 307.0,219.0 308.0,225.0 Q 309.0,229.0 314.0,235.0 Q 405.0,347.0 455.0,385.0 Q 463.0,392.0 461.0,398.0 L 460.0,402.0 Q 453.0,417.0 425.0,435.0 Q 414.0,441.0 406.0,441.0 Q 398.0,440.0 398.0,425.0 Q 400.0,412.0 381.0,376.0 L 360.0,337.0 L 345.0,318.0 Q 266.0,221.0 250.0,216.0 Q 239.0,209.0 240.0,196.0 Q 241.0,186.0 261.0,170.0 Q 267.0,163.0 274.0,165.0 Q 277.0,165.0 282.0,169.0 Q 337.0,204.0 417.0,225.0 C 446.0,233.0 439.0,246.0 409.0,241.0" fill="black" stroke="#000000"/>
</svg>
