<?xml version="1.0" ?>
<svg baseProfile="full" height="1024" version="1.1" viewBox="0 0 1024 1024" width="1024" xmlns="http://www.w3.org/2000/svg" xmlns:ev="http://www.w3.org/2001/xml-events" xmlns:xlink="http://www.w3.org/1999/xlink">
	<defs/>
	<path d="M 612.0,361.0 L 610.0,362.0 L 608.0,361.0 Q 570.0,363.0 530.0,363.0 Q 526.0,363.0 523.0,363.0 Q 512.0,364.0 515.0,370.0 Q 515.0,373.0 519.0,376.0 Q 556.0,423.0 588.0,455.0 Q 600.0,466.0 600.0,474.0 Q 598.0,484.0 569.0,510.0 Q 559.0,522.0 543.0,519.0 Q 536.0,519.0 537.0,511.0 Q 539.0,508.0 539.0,506.0 Q 545.0,487.0 525.0,448.0 Q 512.0,422.0 499.0,402.0 Q 489.0,386.0 468.0,370.0 Q 455.0,361.0 455.0,351.0 Q 458.0,337.0 468.0,321.0 Q 473.0,314.0 482.0,317.0 Q 504.0,330.0 600.0,343.0 C 630.0,347.0 642.0,360.0 612.0,361.0" fill="black" stroke="#000000"/>
</svg>
