<?xml version="1.0" ?>
<svg baseProfile="full" height="1024" version="1.1" viewBox="0 0 1024 1024" width="1024" xmlns="http://www.w3.org/2000/svg" xmlns:ev="http://www.w3.org/2001/xml-events" xmlns:xlink="http://www.w3.org/1999/xlink">
	<defs/>
	<path d="M 361.0,723.0 Q 351.0,729.0 316.0,735.0 Q 309.0,737.0 305.0,735.0 Q 302.0,734.0 302.0,733.0 Q 298.0,729.0 301.0,721.0 Q 302.0,719.0 304.0,712.0 Q 333.0,654.0 351.0,557.0 Q 355.0,527.0 370.0,508.0 Q 382.0,494.0 388.0,498.0 Q 390.0,500.0 392.0,503.0 Q 394.0,512.0 394.0,523.0 L 394.0,545.0 Q 390.0,574.0 382.0,610.0 L 377.0,633.0 L 367.0,692.0 C 362.0,722.0 362.0,723.0 361.0,723.0" fill="black" stroke="#000000"/>
	<path d="M 564.0,542.0 Q 578.0,522.0 592.0,515.0 Q 598.0,511.0 606.0,517.0 Q 610.0,520.0 615.0,527.0 Q 627.0,548.0 653.0,653.0 Q 662.0,682.0 682.0,705.0 Q 691.0,713.0 688.0,721.0 Q 687.0,725.0 684.0,729.0 Q 670.0,745.0 631.0,768.0 Q 619.0,774.0 592.0,769.0 Q 581.0,768.0 561.0,761.0 Q 551.0,761.0 361.0,723.0 C 332.0,717.0 338.0,684.0 367.0,692.0 L 368.0,692.0 Q 434.0,711.0 559.0,731.0 Q 574.0,733.0 586.0,731.0 Q 592.0,729.0 596.0,727.0 Q 607.0,717.0 604.0,706.0 L 604.0,702.0 Q 587.0,601.0 578.0,584.0 Q 574.0,575.0 563.0,570.0 C 550.0,560.0 550.0,560.0 564.0,542.0" fill="black" stroke="#000000"/>
</svg>
