<?xml version="1.0" ?>
<svg baseProfile="full" height="1024" version="1.1" viewBox="0 0 1024 1024" width="1024" xmlns="http://www.w3.org/2000/svg" xmlns:ev="http://www.w3.org/2001/xml-events" xmlns:xlink="http://www.w3.org/1999/xlink">
	<defs/>
	<path d="M 621.0,733.0 Q 636.0,760.0 651.0,780.0 Q 658.0,786.0 656.0,796.0 Q 653.0,806.0 640.0,817.0 Q 604.0,847.0 571.0,837.0 Q 562.0,834.0 566.0,822.0 Q 585.0,747.0 480.0,606.0 Q 477.0,605.0 476.0,601.0 Q 446.0,561.0 368.0,480.0 Q 361.0,474.0 371.0,472.0 Q 420.0,481.0 519.0,583.0 Q 567.0,644.0 610.0,713.0 L 621.0,733.0" fill="black" stroke="#000000"/>
	<path d="M 610.0,713.0 Q 766.0,526.0 814.0,514.0 Q 917.0,514.0 963.0,522.0 Q 966.0,523.0 972.0,524.0 Q 990.0,525.0 992.0,531.0 Q 993.0,538.0 979.0,543.0 Q 936.0,559.0 883.0,574.0 Q 769.0,611.0 621.0,733.0 C 598.0,752.0 591.0,736.0 610.0,713.0" fill="black" stroke="#000000"/>
</svg>
