<?xml version="1.0" ?>
<svg baseProfile="full" height="1024" version="1.1" viewBox="0 0 1024 1024" width="1024" xmlns="http://www.w3.org/2000/svg" xmlns:ev="http://www.w3.org/2001/xml-events" xmlns:xlink="http://www.w3.org/1999/xlink">
	<defs/>
	<path d="M 501.0,577.0 Q 624.0,692.0 670.0,708.0 Q 692.0,715.0 685.0,734.0 Q 681.0,752.0 608.0,791.0 Q 587.0,801.0 562.0,792.0 Q 493.0,767.0 388.0,737.0 Q 360.0,728.0 294.0,731.0 Q 269.0,731.0 278.0,709.0 Q 287.0,696.0 307.0,683.0 Q 341.0,664.0 378.0,686.0 Q 538.0,752.0 563.0,739.0 Q 576.0,729.0 570.0,715.0 Q 531.0,658.0 488.0,591.0 C 472.0,566.0 479.0,557.0 501.0,577.0" fill="black" stroke="#000000"/>
	<path d="M 540.0,462.0 Q 525.0,553.0 501.0,577.0 L 488.0,591.0 Q 475.0,601.0 457.0,607.0 Q 438.0,614.0 428.0,608.0 Q 415.0,601.0 428.0,589.0 Q 462.0,564.0 471.0,520.0 Q 496.0,441.0 496.0,359.0 Q 497.0,280.0 478.0,230.0 Q 465.0,208.0 434.0,214.0 Q 406.0,220.0 380.0,226.0 Q 370.0,229.0 373.0,218.0 Q 377.0,211.0 394.0,198.0 Q 430.0,167.0 441.0,141.0 Q 451.0,125.0 466.0,126.0 Q 479.0,127.0 505.0,152.0 Q 565.0,209.0 549.0,398.0 Q 548.0,407.0 547.0,413.0 L 540.0,462.0" fill="black" stroke="#000000"/>
	<path d="M 145.0,448.0 Q 132.0,447.0 131.0,439.0 Q 130.0,432.0 145.0,425.0 Q 191.0,401.0 217.0,412.0 Q 320.0,445.0 330.0,444.0 Q 342.0,440.0 331.0,417.0 Q 283.0,308.0 240.0,256.0 Q 195.0,198.0 115.0,137.0 Q 99.0,125.0 110.0,123.0 Q 120.0,122.0 139.0,131.0 Q 211.0,164.0 271.0,222.0 Q 328.0,274.0 399.0,412.0 Q 409.0,433.0 420.0,444.0 Q 435.0,454.0 426.0,465.0 Q 417.0,477.0 381.0,490.0 Q 359.0,502.0 317.0,481.0 Q 257.0,460.0 145.0,448.0" fill="black" stroke="#000000"/>
	<path d="M 579.0,422.0 Q 618.0,443.0 731.0,511.0 Q 753.0,527.0 779.0,536.0 Q 804.0,545.0 793.0,565.0 Q 780.0,584.0 753.0,603.0 Q 728.0,619.0 714.0,618.0 Q 701.0,617.0 704.0,602.0 Q 705.0,569.0 639.0,505.0 Q 605.0,471.0 568.0,435.0 Q 567.0,435.0 567.0,434.0 C 546.0,413.0 553.0,408.0 579.0,422.0" fill="black" stroke="#000000"/>
	<path d="M 567.0,434.0 Q 552.0,449.0 540.0,462.0 C 519.0,484.0 528.0,436.0 547.0,413.0 Q 757.0,157.0 802.0,153.0 Q 805.0,153.0 809.0,153.0 Q 878.0,166.0 938.0,178.0 Q 963.0,182.0 964.0,188.0 Q 965.0,195.0 934.0,207.0 Q 775.0,261.0 731.0,292.0 Q 686.0,325.0 579.0,422.0 L 567.0,434.0" fill="black" stroke="#000000"/>
	<path d="M 238.0,43.0 Q 216.0,42.0 232.0,23.0 Q 247.0,7.0 265.0,1.0 Q 287.0,-6.0 305.0,-1.0 Q 470.0,35.0 722.0,27.0 Q 740.0,27.0 759.0,25.0 Q 781.0,24.0 786.0,33.0 Q 793.0,46.0 775.0,61.0 Q 721.0,104.0 680.0,97.0 Q 577.0,79.0 238.0,43.0" fill="black" stroke="#000000"/>
</svg>
