<?xml version="1.0" ?>
<svg baseProfile="full" height="1024" version="1.1" viewBox="0 0 1024 1024" width="1024" xmlns="http://www.w3.org/2000/svg" xmlns:ev="http://www.w3.org/2001/xml-events" xmlns:xlink="http://www.w3.org/1999/xlink">
	<defs/>
	<path d="M 670.0,645.0 Q 763.0,655.0 907.0,643.0 Q 932.0,640.0 938.0,649.0 Q 947.0,662.0 934.0,675.0 Q 903.0,703.0 857.0,724.0 Q 842.0,731.0 815.0,722.0 Q 752.0,707.0 555.0,683.0 Q 444.0,674.0 315.0,654.0 Q 248.0,644.0 145.0,642.0 Q 130.0,642.0 129.0,630.0 Q 129.0,617.0 148.0,602.0 Q 187.0,572.0 237.0,584.0 Q 294.0,600.0 344.0,606.0 L 396.0,616.0 Q 481.0,631.0 616.0,640.0 L 670.0,645.0" fill="black" stroke="#000000"/>
	<path d="M 344.0,606.0 Q 371.0,558.0 360.0,393.0 Q 359.0,387.0 359.0,379.0 Q 344.0,204.0 204.0,76.0 Q 189.0,63.0 186.0,56.0 Q 185.0,49.0 196.0,50.0 Q 235.0,50.0 305.0,123.0 Q 383.0,207.0 403.0,338.0 Q 419.0,420.0 424.0,544.0 Q 428.0,565.0 429.0,576.0 Q 436.0,597.0 415.0,607.0 Q 405.0,613.0 396.0,616.0 C 369.0,629.0 332.0,634.0 344.0,606.0" fill="black" stroke="#000000"/>
	<path d="M 616.0,640.0 Q 646.0,579.0 628.0,257.0 Q 621.0,146.0 614.0,119.0 Q 596.0,65.0 660.0,1.0 Q 661.0,0.0 664.0,-3.0 Q 677.0,-4.0 682.0,11.0 Q 695.0,47.0 691.0,80.0 Q 672.0,512.0 687.0,616.0 Q 687.0,626.0 670.0,645.0 C 652.0,669.0 606.0,668.0 616.0,640.0" fill="black" stroke="#000000"/>
</svg>
