<?xml version="1.0" ?>
<svg baseProfile="full" height="1024" version="1.1" viewBox="0 0 1024 1024" width="1024" xmlns="http://www.w3.org/2000/svg" xmlns:ev="http://www.w3.org/2001/xml-events" xmlns:xlink="http://www.w3.org/1999/xlink">
	<defs/>
	<path d="M 710.0,425.0 Q 701.0,443.0 674.0,459.0 Q 664.0,465.0 651.0,465.0 Q 645.0,462.0 645.0,447.0 Q 645.0,427.0 630.0,397.0 Q 623.0,381.0 612.0,361.0 L 600.0,343.0 Q 534.0,259.0 512.0,244.0 Q 499.0,235.0 502.0,225.0 Q 502.0,214.0 523.0,196.0 Q 530.0,189.0 539.0,191.0 Q 543.0,192.0 546.0,194.0 Q 594.0,226.0 670.0,244.0 L 674.0,244.0 C 704.0,249.0 695.0,261.0 665.0,260.0 Q 625.0,259.0 590.0,251.0 Q 569.0,246.0 570.0,253.0 Q 571.0,258.0 579.0,267.0 Q 703.0,407.0 706.0,409.0 Q 714.0,417.0 710.0,425.0" fill="black" stroke="#000000"/>
</svg>
