<?xml version="1.0" ?>
<svg baseProfile="full" height="1024" version="1.1" viewBox="0 0 1024 1024" width="1024" xmlns="http://www.w3.org/2000/svg" xmlns:ev="http://www.w3.org/2001/xml-events" xmlns:xlink="http://www.w3.org/1999/xlink">
	<defs/>
	<path d="M 356.0,649.0 Q 377.0,628.0 363.0,494.0 L 357.0,456.0 Q 339.0,366.0 278.0,263.0 Q 274.0,257.0 272.0,252.0 Q 269.0,242.0 278.0,245.0 Q 306.0,251.0 361.0,342.0 Q 362.0,345.0 364.0,347.0 L 374.0,369.0 Q 389.0,403.0 400.0,443.0 Q 401.0,453.0 405.0,463.0 L 413.0,503.0 Q 417.0,527.0 420.0,549.0 Q 421.0,588.0 429.0,609.0 Q 436.0,622.0 430.0,633.0 Q 417.0,646.0 394.0,656.0 C 367.0,669.0 341.0,675.0 356.0,649.0" fill="black" stroke="#000000"/>
</svg>
