<?xml version="1.0" ?>
<svg baseProfile="full" height="1024" version="1.1" viewBox="0 0 1024 1024" width="1024" xmlns="http://www.w3.org/2000/svg" xmlns:ev="http://www.w3.org/2001/xml-events" xmlns:xlink="http://www.w3.org/1999/xlink">
	<defs/>
	<path d="M 496.0,370.0 Q 366.0,354.0 273.0,337.0 Q 170.0,319.0 92.0,317.0 Q 77.0,317.0 76.0,305.0 Q 76.0,292.0 96.0,278.0 Q 139.0,245.0 177.0,259.0 Q 279.0,301.0 471.0,326.0 L 539.0,335.0 Q 740.0,368.0 933.0,351.0 Q 958.0,350.0 964.0,358.0 Q 971.0,373.0 958.0,384.0 Q 927.0,412.0 880.0,431.0 Q 865.0,437.0 839.0,428.0 Q 793.0,412.0 731.0,403.0 Q 628.0,390.0 541.0,377.0 L 496.0,370.0" fill="black" stroke="#000000"/>
</svg>
