<?xml version="1.0" ?>
<svg baseProfile="full" height="1024" version="1.1" viewBox="0 0 1024 1024" width="1024" xmlns="http://www.w3.org/2000/svg" xmlns:ev="http://www.w3.org/2001/xml-events" xmlns:xlink="http://www.w3.org/1999/xlink">
	<defs/>
	<path d="M 471.0,326.0 Q 471.0,254.0 371.0,154.0 Q 340.0,123.0 283.0,96.0 Q 250.0,84.0 250.0,72.0 Q 247.0,53.0 258.0,30.0 Q 268.0,6.0 282.0,0.0 Q 291.0,-4.0 304.0,2.0 Q 412.0,62.0 681.0,110.0 Q 688.0,111.0 697.0,112.0 C 727.0,116.0 712.0,139.0 682.0,136.0 Q 543.0,120.0 397.0,100.0 Q 385.0,99.0 383.0,101.0 Q 380.0,105.0 389.0,114.0 Q 510.0,255.0 556.0,290.0 Q 575.0,305.0 565.0,316.0 Q 558.0,326.0 539.0,335.0 C 514.0,351.0 474.0,356.0 471.0,326.0" fill="black" stroke="#000000"/>
</svg>
