<?xml version="1.0" ?>
<svg baseProfile="full" height="1024" version="1.1" viewBox="0 0 1024 1024" width="1024" xmlns="http://www.w3.org/2000/svg" xmlns:ev="http://www.w3.org/2001/xml-events" xmlns:xlink="http://www.w3.org/1999/xlink">
	<defs/>
	<path d="M 486.0,725.0 Q 576.0,741.0 776.0,764.0 Q 789.0,761.0 799.0,777.0 Q 800.0,790.0 774.0,804.0 Q 731.0,829.0 664.0,809.0 Q 468.0,770.0 296.0,751.0 Q 275.0,750.0 254.0,746.0 Q 220.0,742.0 246.0,721.0 Q 285.0,691.0 311.0,695.0 Q 317.0,698.0 437.0,718.0 L 486.0,725.0" fill="black" stroke="#000000"/>
	<path d="M 497.0,367.0 Q 504.0,457.0 510.0,533.0 L 513.0,570.0 Q 519.0,646.0 522.0,662.0 Q 531.0,683.0 520.0,695.0 Q 504.0,714.0 486.0,725.0 C 461.0,742.0 426.0,746.0 437.0,718.0 Q 452.0,688.0 453.0,602.0 Q 450.0,532.0 445.0,357.0 C 444.0,327.0 495.0,337.0 497.0,367.0" fill="black" stroke="#000000"/>
	<path d="M 445.0,357.0 Q 363.0,342.0 288.0,318.0 Q 275.0,312.0 273.0,317.0 Q 264.0,324.0 271.0,345.0 Q 296.0,469.0 313.0,504.0 Q 322.0,519.0 310.0,532.0 Q 291.0,557.0 260.0,572.0 Q 245.0,579.0 236.0,571.0 Q 229.0,565.0 238.0,547.0 Q 254.0,516.0 248.0,474.0 Q 238.0,362.0 195.0,309.0 Q 182.0,293.0 188.0,281.0 Q 195.0,260.0 215.0,243.0 Q 228.0,231.0 246.0,245.0 Q 294.0,284.0 441.0,310.0 Q 526.0,325.0 638.0,322.0 Q 662.0,319.0 671.0,327.0 Q 678.0,333.0 671.0,345.0 Q 664.0,358.0 624.0,379.0 Q 600.0,391.0 537.0,374.0 Q 510.0,373.0 497.0,367.0 L 445.0,357.0" fill="black" stroke="#000000"/>
	<path d="M 510.0,533.0 Q 532.0,530.0 550.0,535.0 Q 575.0,544.0 689.0,563.0 Q 708.0,566.0 715.0,557.0 Q 734.0,535.0 734.0,484.0 Q 735.0,324.0 722.0,220.0 Q 697.0,58.0 662.0,39.0 Q 650.0,35.0 574.0,72.0 Q 544.0,84.0 542.0,81.0 Q 538.0,74.0 553.0,58.0 Q 604.0,1.0 629.0,-47.0 Q 648.0,-78.0 667.0,-73.0 Q 716.0,-58.0 758.0,69.0 Q 783.0,156.0 800.0,439.0 Q 804.0,512.0 824.0,537.0 Q 843.0,559.0 819.0,578.0 Q 741.0,627.0 706.0,615.0 Q 603.0,585.0 513.0,570.0 C 483.0,565.0 480.0,533.0 510.0,533.0" fill="black" stroke="#000000"/>
</svg>
