<?xml version="1.0" ?>
<svg baseProfile="full" height="1024" version="1.1" viewBox="0 0 1024 1024" width="1024" xmlns="http://www.w3.org/2000/svg" xmlns:ev="http://www.w3.org/2001/xml-events" xmlns:xlink="http://www.w3.org/1999/xlink">
	<defs/>
	<path d="M 579.0,602.0 Q 607.0,645.0 636.0,705.0 Q 652.0,741.0 667.0,758.0 Q 674.0,768.0 669.0,781.0 Q 663.0,793.0 635.0,811.0 Q 608.0,824.0 591.0,823.0 Q 573.0,819.0 583.0,799.0 Q 619.0,744.0 467.0,493.0 Q 460.0,483.0 457.0,477.0 Q 456.0,467.0 468.0,470.0 Q 496.0,479.0 561.0,576.0 L 579.0,602.0" fill="black" stroke="#000000"/>
	<path d="M 561.0,576.0 Q 560.0,576.0 562.0,575.0 Q 608.0,557.0 676.0,578.0 Q 734.0,596.0 796.0,615.0 Q 826.0,625.0 830.0,629.0 Q 839.0,639.0 833.0,648.0 Q 823.0,660.0 792.0,664.0 Q 767.0,667.0 668.0,627.0 Q 623.0,615.0 579.0,602.0 C 550.0,594.0 534.0,588.0 561.0,576.0" fill="black" stroke="#000000"/>
	<path d="M 555.0,316.0 Q 583.0,331.0 630.0,350.0 L 677.0,371.0 Q 713.0,387.0 757.0,406.0 Q 776.0,410.0 780.0,399.0 Q 786.0,390.0 758.0,278.0 Q 752.0,241.0 726.0,251.0 Q 705.0,258.0 684.0,265.0 Q 672.0,266.0 675.0,260.0 Q 679.0,250.0 740.0,197.0 Q 759.0,175.0 774.0,192.0 Q 805.0,229.0 815.0,285.0 Q 822.0,322.0 829.0,361.0 Q 838.0,392.0 863.0,419.0 Q 875.0,432.0 861.0,443.0 Q 845.0,453.0 800.0,462.0 Q 784.0,466.0 771.0,454.0 Q 747.0,433.0 700.0,412.0 Q 690.0,408.0 683.0,403.0 L 634.0,383.0 Q 598.0,370.0 563.0,355.0 L 511.0,337.0 Q 463.0,322.0 433.0,313.0 Q 421.0,312.0 420.0,304.0 Q 419.0,298.0 455.0,285.0 Q 477.0,278.0 497.0,288.0 Q 501.0,291.0 508.0,294.0 L 555.0,316.0" fill="black" stroke="#000000"/>
	<path d="M 630.0,350.0 Q 629.0,344.0 629.0,337.0 Q 614.0,220.0 618.0,200.0 Q 622.0,190.0 631.0,194.0 Q 649.0,209.0 677.0,371.0 L 683.0,403.0 Q 693.0,461.0 703.0,483.0 Q 713.0,499.0 703.0,511.0 Q 691.0,526.0 667.0,540.0 Q 649.0,550.0 628.0,544.0 Q 618.0,538.0 628.0,523.0 Q 643.0,492.0 634.0,383.0 L 630.0,350.0" fill="black" stroke="#000000"/>
	<path d="M 972.0,101.0 Q 959.0,152.0 957.0,238.0 Q 956.0,253.0 949.0,258.0 Q 942.0,262.0 938.0,245.0 Q 917.0,139.0 901.0,121.0 Q 862.0,84.0 709.0,89.0 Q 627.0,96.0 592.0,113.0 Q 561.0,131.0 556.0,152.0 Q 535.0,206.0 555.0,316.0 L 563.0,355.0 Q 566.0,368.0 572.0,379.0 Q 584.0,407.0 567.0,422.0 Q 522.0,458.0 508.0,455.0 Q 495.0,449.0 501.0,434.0 Q 517.0,400.0 512.0,349.0 Q 511.0,343.0 511.0,337.0 L 508.0,294.0 Q 504.0,179.0 512.0,150.0 Q 521.0,110.0 549.0,86.0 Q 612.0,38.0 819.0,39.0 Q 915.0,40.0 953.0,60.0 Q 981.0,72.0 972.0,101.0" fill="black" stroke="#000000"/>
</svg>
