<?xml version="1.0" ?>
<svg baseProfile="full" height="1024" version="1.1" viewBox="0 0 1024 1024" width="1024" xmlns="http://www.w3.org/2000/svg" xmlns:ev="http://www.w3.org/2001/xml-events" xmlns:xlink="http://www.w3.org/1999/xlink">
	<defs/>
	<path d="M 534.0,358.0 Q 524.0,365.0 515.0,369.0 C 489.0,384.0 484.0,369.0 491.0,340.0 Q 498.0,318.0 499.0,289.0 Q 500.0,192.0 508.0,172.0 Q 517.0,147.0 535.0,130.0 Q 592.0,79.0 725.0,93.0 Q 786.0,102.0 807.0,118.0 Q 831.0,130.0 822.0,154.0 Q 809.0,191.0 800.0,254.0 Q 799.0,266.0 793.0,270.0 Q 787.0,274.0 784.0,258.0 Q 771.0,182.0 760.0,167.0 Q 754.0,152.0 729.0,147.0 Q 633.0,128.0 572.0,151.0 Q 550.0,161.0 545.0,176.0 Q 521.0,233.0 546.0,311.0 Q 547.0,321.0 550.0,333.0 C 553.0,347.0 553.0,347.0 534.0,358.0" fill="black" stroke="#000000"/>
</svg>
