<?xml version="1.0" ?>
<svg baseProfile="full" height="1024" version="1.1" viewBox="0 0 1024 1024" width="1024" xmlns="http://www.w3.org/2000/svg" xmlns:ev="http://www.w3.org/2001/xml-events" xmlns:xlink="http://www.w3.org/1999/xlink">
	<defs/>
	<path d="M 748.0,564.0 L 749.0,563.0 Q 752.0,548.0 763.0,548.0 Q 781.0,551.0 812.0,600.0 Q 830.0,646.0 865.0,671.0 Q 883.0,684.0 869.0,700.0 Q 854.0,716.0 810.0,743.0 Q 795.0,752.0 730.0,736.0 Q 705.0,733.0 693.0,729.0 L 646.0,720.0 Q 610.0,714.0 578.0,706.0 L 535.0,696.0 Q 480.0,684.0 441.0,676.0 C 412.0,670.0 426.0,631.0 454.0,642.0 Q 472.0,651.0 540.0,666.0 L 578.0,676.0 Q 606.0,683.0 644.0,690.0 L 686.0,698.0 Q 767.0,714.0 784.0,705.0 Q 790.0,701.0 784.0,681.0 Q 763.0,615.0 751.0,589.0 C 743.0,571.0 743.0,571.0 748.0,564.0" fill="black" stroke="#000000"/>
</svg>
