<?xml version="1.0" ?>
<svg baseProfile="full" height="1024" version="1.1" viewBox="0 0 1024 1024" width="1024" xmlns="http://www.w3.org/2000/svg" xmlns:ev="http://www.w3.org/2001/xml-events" xmlns:xlink="http://www.w3.org/1999/xlink">
	<defs/>
	<path d="M 597.0,383.0 Q 552.0,443.0 500.0,468.0 C 474.0,482.0 451.0,468.0 474.0,449.0 Q 480.0,446.0 491.0,435.0 L 539.0,392.0 Q 549.0,380.0 561.0,366.0 L 596.0,308.0 Q 641.0,236.0 604.0,91.0 Q 594.0,54.0 583.0,50.0 Q 574.0,46.0 515.0,54.0 Q 473.0,63.0 472.0,56.0 Q 471.0,49.0 483.0,35.0 Q 543.0,-14.0 567.0,-48.0 Q 580.0,-67.0 597.0,-64.0 Q 616.0,-61.0 633.0,-36.0 Q 678.0,51.0 670.0,196.0 Q 658.0,274.0 647.0,299.0 L 597.0,383.0" fill="black" stroke="#000000"/>
</svg>
