<?xml version="1.0" ?>
<svg baseProfile="full" height="1024" version="1.1" viewBox="0 0 1024 1024" width="1024" xmlns="http://www.w3.org/2000/svg" xmlns:ev="http://www.w3.org/2001/xml-events" xmlns:xlink="http://www.w3.org/1999/xlink">
	<defs/>
	<path d="M 690.0,415.0 Q 708.0,466.0 713.0,543.0 Q 717.0,587.0 725.0,603.0 Q 728.0,612.0 720.0,619.0 Q 698.0,635.0 666.0,644.0 Q 641.0,651.0 625.0,646.0 Q 606.0,640.0 622.0,625.0 Q 667.0,589.0 655.0,490.0 Q 647.0,384.0 550.0,310.0 Q 525.0,294.0 523.0,292.0 Q 522.0,290.0 522.0,289.0 Q 522.0,286.0 529.0,286.0 Q 531.0,286.0 536.0,286.0 Q 581.0,286.0 655.0,353.0 Q 657.0,356.0 664.0,367.0 Q 673.0,378.0 682.0,397.0 L 690.0,415.0" fill="black" stroke="#000000"/>
</svg>
