<?xml version="1.0" ?>
<svg baseProfile="full" height="1024" version="1.1" viewBox="0 0 1024 1024" width="1024" xmlns="http://www.w3.org/2000/svg" xmlns:ev="http://www.w3.org/2001/xml-events" xmlns:xlink="http://www.w3.org/1999/xlink">
	<defs/>
	<path d="M 355.0,583.0 L 569.0,615.0 Q 682.0,632.0 688.0,622.0 Q 702.0,604.0 696.0,550.0 Q 686.0,406.0 653.0,340.0 Q 641.0,319.0 628.0,314.0 Q 609.0,306.0 563.0,329.0 Q 557.0,331.0 552.0,331.0 Q 541.0,332.0 553.0,312.0 Q 598.0,261.0 618.0,223.0 Q 643.0,199.0 665.0,223.0 Q 717.0,264.0 739.0,349.0 Q 753.0,407.0 760.0,535.0 Q 762.0,596.0 782.0,628.0 Q 796.0,641.0 789.0,653.0 Q 779.0,665.0 723.0,688.0 Q 702.0,698.0 680.0,682.0 Q 674.0,678.0 661.0,674.0 Q 651.0,670.0 551.0,647.0 Q 488.0,631.0 321.0,610.0 L 291.0,607.0 C 261.0,604.0 278.0,578.0 308.0,580.0 L 355.0,583.0" fill="black" stroke="#000000"/>
	<path d="M 291.0,607.0 Q 287.0,610.0 282.0,613.0 Q 258.0,630.0 243.0,623.0 Q 237.0,617.0 241.0,597.0 Q 253.0,553.0 250.0,524.0 Q 243.0,438.0 241.0,321.0 Q 237.0,131.0 249.0,93.0 Q 255.0,51.0 296.0,22.0 Q 383.0,-41.0 606.0,-40.0 Q 651.0,-39.0 690.0,-33.0 Q 826.0,-17.0 941.0,53.0 Q 960.0,69.0 949.0,94.0 Q 937.0,129.0 923.0,229.0 Q 923.0,245.0 916.0,251.0 Q 909.0,255.0 906.0,237.0 Q 872.0,131.0 851.0,98.0 Q 819.0,63.0 735.0,40.0 Q 538.0,-12.0 374.0,47.0 Q 312.0,74.0 296.0,112.0 Q 274.0,161.0 284.0,276.0 Q 285.0,288.0 288.0,331.0 Q 302.0,551.0 306.0,572.0 Q 308.0,578.0 308.0,580.0 C 310.0,598.0 310.0,598.0 291.0,607.0" fill="black" stroke="#000000"/>
</svg>
