<?xml version="1.0" ?>
<svg baseProfile="full" height="1024" version="1.1" viewBox="0 0 1024 1024" width="1024" xmlns="http://www.w3.org/2000/svg" xmlns:ev="http://www.w3.org/2001/xml-events" xmlns:xlink="http://www.w3.org/1999/xlink">
	<defs/>
	<path d="M 173.0,686.0 Q 164.0,690.0 133.0,694.0 Q 122.0,696.0 120.0,692.0 Q 114.0,686.0 122.0,670.0 Q 152.0,612.0 172.0,525.0 Q 176.0,496.0 192.0,480.0 Q 211.0,461.0 215.0,474.0 Q 220.0,486.0 217.0,508.0 L 213.0,535.0 Q 194.0,626.0 188.0,657.0 C 183.0,683.0 183.0,683.0 173.0,686.0" fill="black" stroke="#000000"/>
	<path d="M 357.0,563.0 Q 377.0,643.0 402.0,666.0 Q 426.0,694.0 402.0,708.0 L 355.0,737.0 Q 336.0,748.0 288.0,721.0 Q 233.0,700.0 173.0,686.0 C 144.0,679.0 160.0,646.0 188.0,657.0 Q 192.0,661.0 290.0,684.0 Q 318.0,692.0 324.0,680.0 Q 329.0,674.0 303.0,564.0 C 296.0,535.0 349.0,534.0 357.0,563.0" fill="black" stroke="#000000"/>
	<path d="M 280.0,517.0 Q 296.0,523.0 368.0,534.0 Q 378.0,537.0 379.0,542.0 Q 378.0,551.0 361.0,563.0 L 357.0,563.0 L 303.0,564.0 Q 274.0,553.0 248.0,545.0 Q 227.0,541.0 213.0,535.0 C 185.0,524.0 187.0,505.0 217.0,508.0 L 243.0,511.0 L 280.0,517.0" fill="black" stroke="#000000"/>
	<path d="M 299.0,237.0 Q 302.0,309.0 306.0,371.0 L 308.0,410.0 Q 308.0,416.0 310.0,445.0 Q 314.0,490.0 310.0,495.0 Q 292.0,512.0 280.0,517.0 C 254.0,531.0 231.0,539.0 243.0,511.0 Q 255.0,492.0 258.0,388.0 Q 257.0,282.0 257.0,223.0 C 257.0,193.0 298.0,207.0 299.0,237.0" fill="black" stroke="#000000"/>
	<path d="M 306.0,371.0 Q 337.0,382.0 373.0,392.0 Q 396.0,400.0 384.0,411.0 Q 370.0,423.0 347.0,421.0 Q 331.0,421.0 308.0,410.0 C 281.0,397.0 278.0,361.0 306.0,371.0" fill="black" stroke="#000000"/>
</svg>
