<?xml version="1.0" ?>
<svg baseProfile="full" height="1024" version="1.1" viewBox="0 0 1024 1024" width="1024" xmlns="http://www.w3.org/2000/svg" xmlns:ev="http://www.w3.org/2001/xml-events" xmlns:xlink="http://www.w3.org/1999/xlink">
	<defs/>
	<path d="M 483.0,-31.0 Q 487.0,-56.0 494.0,-65.0 Q 500.0,-72.0 507.0,-70.0 Q 534.0,-49.0 535.0,165.0 Q 535.0,178.0 536.0,192.0 L 537.0,233.0 Q 538.0,272.0 540.0,321.0 L 542.0,367.0 Q 545.0,388.0 551.0,415.0 Q 555.0,433.0 541.0,442.0 Q 510.0,464.0 494.0,466.0 Q 482.0,472.0 466.0,463.0 Q 457.0,456.0 464.0,445.0 Q 482.0,415.0 483.0,353.0 L 483.0,311.0 Q 483.0,271.0 482.0,224.0 L 481.0,187.0 Q 475.0,34.0 483.0,-31.0" fill="black" stroke="#000000"/>
</svg>
