<?xml version="1.0" ?>
<svg baseProfile="full" height="1024" version="1.1" viewBox="0 0 1024 1024" width="1024" xmlns="http://www.w3.org/2000/svg" xmlns:ev="http://www.w3.org/2001/xml-events" xmlns:xlink="http://www.w3.org/1999/xlink">
	<defs/>
	<path d="M 511.0,464.0 Q 568.0,474.0 768.0,482.0 Q 784.0,482.0 791.0,474.0 Q 800.0,467.0 800.0,424.0 Q 803.0,243.0 779.0,140.0 Q 770.0,103.0 738.0,107.0 Q 707.0,114.0 679.0,122.0 Q 663.0,129.0 661.0,122.0 Q 660.0,113.0 671.0,97.0 Q 738.0,21.0 754.0,-17.0 Q 764.0,-33.0 776.0,-32.0 Q 792.0,-29.0 807.0,-2.0 Q 844.0,58.0 864.0,231.0 Q 882.0,439.0 894.0,459.0 Q 915.0,483.0 899.0,490.0 Q 881.0,509.0 839.0,528.0 Q 814.0,546.0 784.0,535.0 Q 750.0,525.0 662.0,518.0 Q 583.0,512.0 520.0,504.0 L 455.0,495.0 Q 418.0,492.0 387.0,485.0 Q 303.0,469.0 223.0,459.0 C 193.0,455.0 216.0,410.0 244.0,421.0 Q 259.0,439.0 449.0,457.0 L 511.0,464.0" fill="black" stroke="#000000"/>
</svg>
