<?xml version="1.0" ?>
<svg baseProfile="full" height="1024" version="1.1" viewBox="0 0 1024 1024" width="1024" xmlns="http://www.w3.org/2000/svg" xmlns:ev="http://www.w3.org/2001/xml-events" xmlns:xlink="http://www.w3.org/1999/xlink">
	<defs/>
	<path d="M 468.0,731.0 Q 484.0,715.0 502.0,693.0 Q 514.0,680.0 529.0,680.0 Q 539.0,680.0 545.0,693.0 Q 549.0,706.0 543.0,735.0 Q 539.0,751.0 515.0,762.0 Q 460.0,783.0 444.0,779.0 Q 440.0,775.0 440.0,763.0 Q 443.0,753.0 468.0,731.0" fill="black" stroke="#000000"/>
	<path d="M 688.0,798.0 Q 670.0,767.0 618.0,695.0 Q 608.0,677.0 626.0,681.0 Q 644.0,693.0 734.0,754.0 Q 753.0,772.0 778.0,783.0 Q 800.0,795.0 787.0,813.0 Q 772.0,829.0 745.0,844.0 Q 720.0,857.0 706.0,854.0 Q 693.0,853.0 697.0,838.0 Q 701.0,819.0 688.0,798.0" fill="black" stroke="#000000"/>
	<path d="M 580.0,599.0 Q 754.0,638.0 759.0,642.0 Q 766.0,649.0 763.0,657.0 Q 756.0,667.0 730.0,675.0 Q 702.0,679.0 675.0,669.0 Q 621.0,650.0 564.0,636.0 Q 500.0,621.0 424.0,614.0 Q 391.0,608.0 415.0,593.0 Q 454.0,572.0 515.0,586.0 Q 525.0,589.0 538.0,590.0 L 580.0,599.0" fill="black" stroke="#000000"/>
</svg>
