<?xml version="1.0" ?>
<svg baseProfile="full" height="1024" version="1.1" viewBox="0 0 1024 1024" width="1024" xmlns="http://www.w3.org/2000/svg" xmlns:ev="http://www.w3.org/2001/xml-events" xmlns:xlink="http://www.w3.org/1999/xlink">
	<defs/>
	<path d="M 468.0,731.0 Q 484.0,715.0 502.0,693.0 Q 514.0,680.0 529.0,680.0 Q 539.0,680.0 545.0,693.0 Q 549.0,706.0 543.0,735.0 Q 539.0,751.0 515.0,762.0 Q 460.0,783.0 444.0,779.0 Q 440.0,775.0 440.0,763.0 Q 443.0,753.0 468.0,731.0" fill="black" stroke="#000000"/>
	<path d="M 688.0,798.0 Q 670.0,767.0 618.0,695.0 Q 608.0,677.0 626.0,681.0 Q 644.0,693.0 734.0,754.0 Q 753.0,772.0 778.0,783.0 Q 800.0,795.0 787.0,813.0 Q 772.0,829.0 745.0,844.0 Q 720.0,857.0 706.0,854.0 Q 693.0,853.0 697.0,838.0 Q 701.0,819.0 688.0,798.0" fill="black" stroke="#000000"/>
	<path d="M 580.0,599.0 Q 754.0,638.0 759.0,642.0 Q 766.0,649.0 763.0,657.0 Q 756.0,667.0 730.0,675.0 Q 702.0,679.0 675.0,669.0 Q 621.0,650.0 564.0,636.0 Q 500.0,621.0 424.0,614.0 Q 391.0,608.0 415.0,593.0 Q 454.0,572.0 515.0,586.0 Q 525.0,589.0 538.0,590.0 L 580.0,599.0" fill="black" stroke="#000000"/>
	<path d="M 500.0,468.0 Q 537.0,498.0 563.0,524.0 Q 579.0,540.0 589.0,549.0 Q 596.0,556.0 593.0,570.0 Q 587.0,588.0 580.0,599.0 C 565.0,625.0 549.0,618.0 538.0,590.0 Q 511.0,515.0 381.0,420.0 Q 375.0,417.0 374.0,411.0 Q 373.0,407.0 378.0,407.0 Q 403.0,404.0 474.0,449.0 L 500.0,468.0" fill="black" stroke="#000000"/>
	<path d="M 597.0,383.0 Q 552.0,443.0 500.0,468.0 C 474.0,482.0 451.0,468.0 474.0,449.0 Q 480.0,446.0 491.0,435.0 L 539.0,392.0 Q 549.0,380.0 561.0,366.0 L 596.0,308.0 Q 641.0,236.0 604.0,91.0 Q 594.0,54.0 583.0,50.0 Q 574.0,46.0 515.0,54.0 Q 473.0,63.0 472.0,56.0 Q 471.0,49.0 483.0,35.0 Q 543.0,-14.0 567.0,-48.0 Q 580.0,-67.0 597.0,-64.0 Q 616.0,-61.0 633.0,-36.0 Q 678.0,51.0 670.0,196.0 Q 658.0,274.0 647.0,299.0 L 597.0,383.0" fill="black" stroke="#000000"/>
	<path d="M 491.0,435.0 Q 490.0,434.0 490.0,431.0 Q 480.0,371.0 348.0,259.0 Q 330.0,246.0 353.0,249.0 Q 416.0,256.0 514.0,363.0 Q 529.0,381.0 539.0,392.0 C 559.0,414.0 498.0,464.0 491.0,435.0" fill="black" stroke="#000000"/>
</svg>
