<?xml version="1.0" ?>
<svg baseProfile="full" height="1024" version="1.1" viewBox="0 0 1024 1024" width="1024" xmlns="http://www.w3.org/2000/svg" xmlns:ev="http://www.w3.org/2001/xml-events" xmlns:xlink="http://www.w3.org/1999/xlink">
	<defs/>
	<path d="M 555.0,316.0 Q 583.0,331.0 630.0,350.0 L 677.0,371.0 Q 713.0,387.0 757.0,406.0 Q 776.0,410.0 780.0,399.0 Q 786.0,390.0 758.0,278.0 Q 752.0,241.0 726.0,251.0 Q 705.0,258.0 684.0,265.0 Q 672.0,266.0 675.0,260.0 Q 679.0,250.0 740.0,197.0 Q 759.0,175.0 774.0,192.0 Q 805.0,229.0 815.0,285.0 Q 822.0,322.0 829.0,361.0 Q 838.0,392.0 863.0,419.0 Q 875.0,432.0 861.0,443.0 Q 845.0,453.0 800.0,462.0 Q 784.0,466.0 771.0,454.0 Q 747.0,433.0 700.0,412.0 Q 690.0,408.0 683.0,403.0 L 634.0,383.0 Q 598.0,370.0 563.0,355.0 L 511.0,337.0 Q 463.0,322.0 433.0,313.0 Q 421.0,312.0 420.0,304.0 Q 419.0,298.0 455.0,285.0 Q 477.0,278.0 497.0,288.0 Q 501.0,291.0 508.0,294.0 L 555.0,316.0" fill="black" stroke="#000000"/>
</svg>
