<?xml version="1.0" ?>
<svg baseProfile="full" height="1024" version="1.1" viewBox="0 0 1024 1024" width="1024" xmlns="http://www.w3.org/2000/svg" xmlns:ev="http://www.w3.org/2001/xml-events" xmlns:xlink="http://www.w3.org/1999/xlink">
	<defs/>
	<path d="M 938.0,87.0 Q 911.0,144.0 892.0,245.0 Q 888.0,261.0 881.0,268.0 Q 872.0,275.0 869.0,258.0 Q 862.0,200.0 851.0,153.0 Q 847.0,122.0 822.0,102.0 Q 782.0,63.0 598.0,65.0 Q 528.0,72.0 501.0,86.0 Q 479.0,101.0 465.0,129.0 Q 447.0,171.0 459.0,399.0 L 463.0,448.0 Q 467.0,524.0 478.0,560.0 Q 487.0,582.0 456.0,605.0 Q 432.0,621.0 412.0,631.0 C 386.0,646.0 359.0,642.0 372.0,615.0 Q 403.0,552.0 405.0,547.0 Q 408.0,511.0 409.0,438.0 L 409.0,390.0 Q 402.0,140.0 420.0,102.0 Q 427.0,84.0 442.0,68.0 Q 503.0,-1.0 734.0,8.0 Q 837.0,12.0 915.0,46.0 Q 952.0,59.0 938.0,87.0" fill="black" stroke="#000000"/>
</svg>
