<?xml version="1.0" ?>
<svg baseProfile="full" height="1024" version="1.1" viewBox="0 0 1024 1024" width="1024" xmlns="http://www.w3.org/2000/svg" xmlns:ev="http://www.w3.org/2001/xml-events" xmlns:xlink="http://www.w3.org/1999/xlink">
	<defs/>
	<path d="M 511.0,719.0 Q 610.0,731.0 821.0,732.0 Q 843.0,732.0 848.0,741.0 Q 854.0,754.0 836.0,769.0 Q 779.0,809.0 739.0,801.0 Q 580.0,768.0 205.0,720.0 Q 183.0,717.0 200.0,699.0 Q 215.0,684.0 234.0,679.0 Q 256.0,673.0 274.0,678.0 Q 359.0,702.0 457.0,713.0 L 511.0,719.0" fill="black" stroke="#000000"/>
	<path d="M 513.0,407.0 Q 516.0,486.0 521.0,553.0 L 523.0,582.0 Q 526.0,654.0 529.0,674.0 Q 538.0,698.0 511.0,719.0 C 489.0,739.0 450.0,742.0 457.0,713.0 Q 466.0,680.0 468.0,575.0 Q 467.0,511.0 466.0,399.0 C 466.0,369.0 512.0,377.0 513.0,407.0" fill="black" stroke="#000000"/>
	<path d="M 521.0,553.0 Q 566.0,537.0 611.0,550.0 Q 660.0,560.0 712.0,570.0 Q 736.0,576.0 739.0,579.0 Q 749.0,588.0 743.0,596.0 Q 736.0,608.0 706.0,615.0 Q 675.0,619.0 644.0,607.0 Q 619.0,600.0 590.0,592.0 Q 559.0,585.0 523.0,582.0 C 493.0,579.0 493.0,562.0 521.0,553.0" fill="black" stroke="#000000"/>
	<path d="M 279.0,310.0 Q 387.0,367.0 643.0,391.0 Q 674.0,392.0 686.0,382.0 Q 705.0,360.0 695.0,319.0 Q 679.0,228.0 638.0,108.0 Q 628.0,83.0 607.0,70.0 Q 598.0,67.0 511.0,97.0 Q 493.0,107.0 491.0,98.0 Q 490.0,88.0 508.0,70.0 Q 551.0,21.0 568.0,-19.0 Q 587.0,-53.0 613.0,-34.0 Q 671.0,3.0 695.0,55.0 Q 710.0,95.0 750.0,295.0 Q 759.0,341.0 781.0,361.0 Q 797.0,377.0 790.0,388.0 Q 778.0,401.0 728.0,428.0 Q 701.0,443.0 626.0,424.0 Q 569.0,417.0 513.0,407.0 L 466.0,399.0 Q 387.0,386.0 316.0,368.0 Q 292.0,365.0 298.0,380.0 Q 314.0,479.0 332.0,520.0 Q 339.0,536.0 329.0,548.0 Q 313.0,564.0 296.0,571.0 Q 272.0,581.0 263.0,576.0 Q 254.0,570.0 261.0,556.0 Q 279.0,514.0 253.0,403.0 Q 246.0,388.0 221.0,361.0 Q 211.0,346.0 219.0,334.0 Q 229.0,322.0 250.0,306.0 Q 262.0,297.0 279.0,310.0" fill="black" stroke="#000000"/>
</svg>
