<?xml version="1.0" ?>
<svg baseProfile="full" height="1024" version="1.1" viewBox="0 0 1024 1024" width="1024" xmlns="http://www.w3.org/2000/svg" xmlns:ev="http://www.w3.org/2001/xml-events" xmlns:xlink="http://www.w3.org/1999/xlink">
	<defs/>
	<path d="M 522.0,763.0 Q 512.0,769.0 486.0,772.0 Q 476.0,775.0 472.0,771.0 Q 468.0,765.0 474.0,751.0 Q 502.0,688.0 518.0,586.0 Q 521.0,555.0 538.0,534.0 Q 554.0,515.0 558.0,529.0 Q 561.0,536.0 562.0,548.0 L 562.0,568.0 Q 561.0,581.0 558.0,596.0 Q 554.0,620.0 550.0,640.0 L 546.0,665.0 Q 539.0,711.0 536.0,732.0 C 532.0,758.0 532.0,758.0 522.0,763.0" fill="black" stroke="#000000"/>
	<path d="M 703.0,567.0 Q 719.0,545.0 733.0,538.0 Q 743.0,531.0 757.0,550.0 Q 770.0,572.0 796.0,696.0 Q 803.0,724.0 824.0,747.0 Q 836.0,759.0 826.0,771.0 Q 811.0,787.0 772.0,810.0 Q 759.0,816.0 688.0,800.0 Q 678.0,800.0 522.0,763.0 C 493.0,756.0 508.0,721.0 536.0,732.0 Q 536.0,733.0 538.0,734.0 Q 599.0,753.0 706.0,771.0 Q 728.0,775.0 737.0,767.0 Q 749.0,754.0 747.0,740.0 Q 725.0,605.0 710.0,594.0 C 698.0,573.0 698.0,573.0 703.0,567.0" fill="black" stroke="#000000"/>
	<path d="M 550.0,640.0 Q 553.0,644.0 692.0,666.0 Q 713.0,670.0 705.0,681.0 Q 695.0,694.0 673.0,697.0 Q 651.0,700.0 546.0,665.0 C 518.0,656.0 522.0,629.0 550.0,640.0" fill="black" stroke="#000000"/>
	<path d="M 562.0,548.0 L 703.0,567.0 C 733.0,571.0 738.0,585.0 710.0,594.0 Q 707.0,595.0 701.0,597.0 Q 685.0,600.0 562.0,568.0 C 533.0,560.0 532.0,544.0 562.0,548.0" fill="black" stroke="#000000"/>
	<path d="M 516.0,460.0 Q 480.0,453.0 507.0,438.0 Q 546.0,414.0 601.0,431.0 Q 671.0,447.0 742.0,463.0 Q 775.0,472.0 780.0,477.0 Q 787.0,484.0 783.0,493.0 Q 776.0,503.0 748.0,510.0 Q 726.0,513.0 624.0,481.0 Q 561.0,466.0 516.0,460.0" fill="black" stroke="#000000"/>
</svg>
