<?xml version="1.0" ?>
<svg baseProfile="full" height="1024" version="1.1" viewBox="0 0 1024 1024" width="1024" xmlns="http://www.w3.org/2000/svg" xmlns:ev="http://www.w3.org/2001/xml-events" xmlns:xlink="http://www.w3.org/1999/xlink">
	<defs/>
	<path d="M 460.0,496.0 Q 367.0,331.0 357.0,314.0 Q 353.0,311.0 350.0,305.0 Q 263.0,187.0 115.0,58.0 Q 108.0,54.0 104.0,47.0 Q 98.0,37.0 110.0,35.0 Q 143.0,32.0 266.0,135.0 Q 308.0,172.0 349.0,220.0 Q 449.0,341.0 527.0,509.0 L 542.0,542.0 Q 558.0,582.0 574.0,622.0 Q 614.0,725.0 630.0,751.0 Q 643.0,764.0 639.0,780.0 Q 627.0,804.0 598.0,828.0 Q 580.0,846.0 565.0,844.0 Q 550.0,840.0 553.0,823.0 Q 563.0,786.0 552.0,735.0 Q 540.0,704.0 528.0,664.0 Q 503.0,594.0 475.0,530.0 L 460.0,496.0" fill="black" stroke="#000000"/>
</svg>
