<?xml version="1.0" ?>
<svg baseProfile="full" height="1024" version="1.1" viewBox="0 0 1024 1024" width="1024" xmlns="http://www.w3.org/2000/svg" xmlns:ev="http://www.w3.org/2001/xml-events" xmlns:xlink="http://www.w3.org/1999/xlink">
	<defs/>
	<path d="M 360.0,348.0 Q 453.0,399.0 692.0,424.0 Q 720.0,427.0 731.0,417.0 Q 752.0,395.0 742.0,350.0 Q 727.0,256.0 686.0,129.0 Q 676.0,102.0 654.0,88.0 Q 645.0,85.0 563.0,106.0 Q 544.0,116.0 543.0,106.0 Q 542.0,96.0 562.0,78.0 Q 599.0,32.0 614.0,-6.0 Q 635.0,-40.0 662.0,-20.0 Q 720.0,16.0 746.0,73.0 Q 759.0,115.0 801.0,325.0 Q 808.0,374.0 831.0,396.0 Q 847.0,412.0 840.0,424.0 Q 828.0,437.0 776.0,465.0 Q 746.0,480.0 669.0,461.0 Q 548.0,446.0 398.0,409.0 Q 373.0,406.0 379.0,422.0 Q 388.0,504.0 398.0,568.0 L 402.0,593.0 Q 420.0,699.0 441.0,758.0 Q 448.0,776.0 438.0,788.0 Q 420.0,804.0 403.0,812.0 Q 378.0,821.0 369.0,816.0 Q 359.0,810.0 367.0,796.0 Q 376.0,780.0 375.0,758.0 Q 365.0,595.0 335.0,456.0 Q 334.0,438.0 299.0,402.0 Q 287.0,386.0 296.0,373.0 Q 306.0,360.0 330.0,344.0 Q 342.0,335.0 360.0,348.0" fill="black" stroke="#000000"/>
</svg>
