<?xml version="1.0" ?>
<svg baseProfile="full" height="1024" version="1.1" viewBox="0 0 1024 1024" width="1024" xmlns="http://www.w3.org/2000/svg" xmlns:ev="http://www.w3.org/2001/xml-events" xmlns:xlink="http://www.w3.org/1999/xlink">
	<defs/>
	<path d="M 417.0,224.0 Q 576.0,245.0 654.0,241.0 Q 676.0,240.0 682.0,249.0 Q 689.0,262.0 676.0,273.0 Q 645.0,297.0 602.0,312.0 Q 589.0,316.0 564.0,307.0 Q 522.0,295.0 479.0,286.0 Q 346.0,265.0 256.0,247.0 Q 214.0,238.0 151.0,233.0 Q 138.0,232.0 138.0,221.0 Q 138.0,209.0 157.0,197.0 Q 173.0,187.0 204.0,177.0 Q 214.0,174.0 232.0,183.0 Q 242.0,187.0 286.0,197.0 Q 344.0,213.0 417.0,224.0" fill="black" stroke="#000000"/>
</svg>
