<?xml version="1.0" ?>
<svg baseProfile="full" height="1024" version="1.1" viewBox="0 0 1024 1024" width="1024" xmlns="http://www.w3.org/2000/svg" xmlns:ev="http://www.w3.org/2001/xml-events" xmlns:xlink="http://www.w3.org/1999/xlink">
	<defs/>
	<path d="M 325.0,548.0 Q 354.0,559.0 374.0,563.0 Q 409.0,573.0 415.0,579.0 Q 419.0,584.0 418.0,591.0 Q 418.0,592.0 417.0,595.0 Q 410.0,606.0 380.0,612.0 Q 362.0,613.0 344.0,610.0 Q 335.0,607.0 327.0,604.0 L 276.0,582.0 Q 190.0,557.0 134.0,547.0 L 130.0,546.0 Q 111.0,539.0 117.0,531.0 Q 119.0,527.0 126.0,523.0 Q 172.0,503.0 225.0,521.0 Q 247.0,527.0 274.0,534.0 L 325.0,548.0" fill="black" stroke="#000000"/>
	<path d="M 270.0,347.0 Q 270.0,263.0 269.0,158.0 Q 267.0,133.0 255.0,125.0 Q 252.0,123.0 225.0,130.0 L 192.0,141.0 Q 169.0,153.0 165.0,149.0 Q 162.0,149.0 163.0,145.0 Q 164.0,138.0 182.0,121.0 Q 237.0,65.0 249.0,35.0 Q 263.0,1.0 278.0,-2.0 Q 288.0,-3.0 298.0,12.0 Q 305.0,20.0 310.0,29.0 Q 329.0,74.0 332.0,151.0 Q 325.0,278.0 323.0,392.0 L 323.0,424.0 Q 323.0,473.0 325.0,548.0 L 327.0,604.0 Q 339.0,739.0 347.0,768.0 Q 359.0,788.0 339.0,804.0 L 324.0,813.0 Q 325.0,812.0 310.0,819.0 Q 279.0,837.0 261.0,833.0 Q 244.0,831.0 247.0,815.0 L 253.0,804.0 L 254.0,803.0 Q 276.0,774.0 276.0,741.0 L 276.0,582.0 L 274.0,534.0 Q 274.0,472.0 272.0,392.0 L 270.0,347.0" fill="black" stroke="#000000"/>
	<path d="M 272.0,392.0 Q 193.0,342.0 118.0,288.0 Q 84.0,267.0 63.0,259.0 Q 51.0,253.0 50.0,245.0 Q 49.0,239.0 55.0,231.0 Q 60.0,226.0 63.0,223.0 Q 82.0,211.0 106.0,204.0 Q 122.0,200.0 130.0,213.0 Q 169.0,257.0 270.0,347.0 L 323.0,392.0 Q 343.0,411.0 365.0,424.0 Q 386.0,437.0 394.0,454.0 Q 400.0,465.0 391.0,466.0 L 390.0,466.0 Q 386.0,466.0 323.0,424.0 L 272.0,392.0" fill="black" stroke="#000000"/>
	<path d="M 544.0,663.0 Q 602.0,663.0 606.0,664.0 Q 846.0,711.0 877.0,723.0 Q 877.0,725.0 878.0,725.0 Q 884.0,729.0 883.0,737.0 Q 877.0,751.0 849.0,758.0 Q 832.0,761.0 775.0,747.0 L 708.0,727.0 Q 554.0,699.0 527.0,696.0 C 497.0,692.0 514.0,663.0 544.0,663.0" fill="black" stroke="#000000"/>
	<path d="M 615.0,493.0 Q 602.0,507.0 576.0,506.0 Q 575.0,505.0 572.0,505.0 Q 564.0,502.0 566.0,496.0 Q 566.0,494.0 568.0,492.0 Q 592.0,453.0 585.0,380.0 Q 583.0,363.0 578.0,337.0 Q 564.0,311.0 573.0,287.0 Q 578.0,273.0 589.0,263.0 Q 594.0,253.0 600.0,255.0 L 604.0,257.0 Q 625.0,280.0 624.0,340.0 L 624.0,342.0 Q 623.0,435.0 624.0,463.0 C 625.0,485.0 625.0,485.0 615.0,493.0" fill="black" stroke="#000000"/>
	<path d="M 737.0,488.0 Q 809.0,509.0 829.0,504.0 Q 833.0,504.0 836.0,501.0 Q 848.0,491.0 845.0,394.0 Q 845.0,381.0 845.0,374.0 Q 845.0,343.0 835.0,329.0 Q 802.0,329.0 774.0,330.0 Q 772.0,327.0 775.0,322.0 Q 776.0,321.0 782.0,316.0 Q 817.0,280.0 837.0,252.0 Q 848.0,242.0 860.0,245.0 Q 864.0,245.0 866.0,246.0 Q 876.0,250.0 885.0,274.0 Q 902.0,310.0 901.0,355.0 Q 900.0,357.0 900.0,361.0 Q 896.0,427.0 898.0,468.0 Q 899.0,486.0 902.0,499.0 Q 907.0,508.0 906.0,514.0 Q 906.0,515.0 902.0,519.0 Q 884.0,531.0 855.0,543.0 Q 838.0,551.0 825.0,543.0 Q 796.0,527.0 741.0,517.0 Q 739.0,517.0 737.0,515.0 L 692.0,506.0 L 615.0,493.0 C 585.0,488.0 595.0,455.0 624.0,463.0 Q 630.0,466.0 692.0,478.0 L 737.0,488.0" fill="black" stroke="#000000"/>
	<path d="M 692.0,478.0 Q 692.0,137.0 702.0,119.0 Q 703.0,115.0 706.0,110.0 Q 709.0,106.0 713.0,106.0 L 716.0,108.0 Q 723.0,110.0 727.0,123.0 Q 737.0,151.0 737.0,363.0 Q 736.0,412.0 737.0,488.0 L 737.0,515.0 Q 737.0,568.0 747.0,613.0 Q 747.0,623.0 743.0,630.0 Q 741.0,633.0 737.0,636.0 Q 708.0,655.0 696.0,657.0 Q 690.0,659.0 682.0,657.0 L 672.0,653.0 Q 667.0,647.0 668.0,642.0 Q 670.0,639.0 671.0,637.0 Q 690.0,605.0 692.0,536.0 Q 692.0,535.0 692.0,506.0 L 692.0,478.0" fill="black" stroke="#000000"/>
</svg>
