<?xml version="1.0" ?>
<svg baseProfile="full" height="1024" version="1.1" viewBox="0 0 1024 1024" width="1024" xmlns="http://www.w3.org/2000/svg" xmlns:ev="http://www.w3.org/2001/xml-events" xmlns:xlink="http://www.w3.org/1999/xlink">
	<defs/>
	<path d="M 273.0,370.0 Q 277.0,445.0 283.0,467.0 Q 283.0,470.0 283.0,472.0 C 285.0,485.0 285.0,485.0 263.0,500.0 Q 244.0,515.0 224.0,521.0 Q 215.0,524.0 209.0,516.0 Q 205.0,510.0 212.0,500.0 Q 251.0,401.0 211.0,193.0 Q 190.0,103.0 190.0,101.0 Q 190.0,100.0 191.0,98.0 Q 198.0,65.0 209.0,53.0 Q 219.0,40.0 230.0,52.0 Q 261.0,86.0 263.0,197.0 Q 263.0,201.0 272.0,352.0 L 273.0,370.0" fill="black" stroke="#000000"/>
</svg>
