<?xml version="1.0" ?>
<svg baseProfile="full" height="1024" version="1.1" viewBox="0 0 1024 1024" width="1024" xmlns="http://www.w3.org/2000/svg" xmlns:ev="http://www.w3.org/2001/xml-events" xmlns:xlink="http://www.w3.org/1999/xlink">
	<defs/>
	<path d="M 591.0,375.0 Q 594.0,460.0 600.0,488.0 C 603.0,504.0 603.0,504.0 581.0,519.0 Q 563.0,534.0 540.0,541.0 Q 531.0,542.0 525.0,535.0 Q 521.0,529.0 529.0,519.0 Q 557.0,453.0 544.0,252.0 Q 543.0,248.0 543.0,243.0 Q 539.0,182.0 518.0,121.0 Q 511.0,96.0 514.0,78.0 Q 523.0,45.0 533.0,32.0 Q 543.0,19.0 554.0,32.0 Q 584.0,68.0 585.0,189.0 Q 585.0,270.0 590.0,349.0 L 591.0,375.0" fill="black" stroke="#000000"/>
</svg>
