<?xml version="1.0" ?>
<svg baseProfile="full" height="1024" version="1.1" viewBox="0 0 1024 1024" width="1024" xmlns="http://www.w3.org/2000/svg" xmlns:ev="http://www.w3.org/2001/xml-events" xmlns:xlink="http://www.w3.org/1999/xlink">
	<defs/>
	<path d="M 600.0,488.0 Q 610.0,488.0 701.0,513.0 Q 723.0,517.0 728.0,506.0 Q 740.0,479.0 751.0,279.0 Q 757.0,110.0 745.0,89.0 Q 741.0,83.0 720.0,87.0 Q 696.0,91.0 672.0,95.0 Q 651.0,101.0 652.0,91.0 Q 707.0,43.0 738.0,7.0 Q 751.0,-12.0 769.0,-17.0 Q 779.0,-21.0 787.0,-10.0 Q 829.0,44.0 825.0,99.0 Q 786.0,447.0 810.0,497.0 Q 822.0,518.0 809.0,528.0 Q 787.0,547.0 747.0,562.0 Q 728.0,569.0 711.0,561.0 Q 678.0,542.0 658.0,535.0 Q 633.0,526.0 581.0,519.0 C 551.0,515.0 571.0,482.0 600.0,488.0" fill="black" stroke="#000000"/>
</svg>
