<?xml version="1.0" ?>
<svg baseProfile="full" height="1024" version="1.1" viewBox="0 0 1024 1024" width="1024" xmlns="http://www.w3.org/2000/svg" xmlns:ev="http://www.w3.org/2001/xml-events" xmlns:xlink="http://www.w3.org/1999/xlink">
	<defs/>
	<path d="M 124.0,547.0 Q 151.0,483.0 129.0,316.0 Q 120.0,285.0 150.0,245.0 Q 160.0,233.0 171.0,246.0 Q 195.0,279.0 193.0,323.0 Q 189.0,420.0 203.0,513.0 Q 210.0,538.0 189.0,550.0 Q 171.0,562.0 153.0,572.0 Q 140.0,576.0 129.0,571.0 Q 120.0,564.0 124.0,547.0" fill="black" stroke="#000000"/>
	<path d="M 287.0,109.0 Q 275.0,67.0 302.0,3.0 Q 309.0,-16.0 317.0,-19.0 Q 324.0,-26.0 332.0,-17.0 Q 339.0,-13.0 350.0,9.0 Q 360.0,34.0 360.0,68.0 Q 359.0,117.0 365.0,566.0 Q 366.0,659.0 384.0,721.0 Q 393.0,737.0 390.0,751.0 Q 383.0,761.0 325.0,797.0 Q 300.0,815.0 279.0,798.0 Q 273.0,794.0 280.0,777.0 Q 311.0,729.0 313.0,665.0 Q 313.0,236.0 298.0,155.0 Q 292.0,133.0 287.0,109.0" fill="black" stroke="#000000"/>
</svg>
