<?xml version="1.0" ?>
<svg baseProfile="full" height="1024" version="1.1" viewBox="0 0 1024 1024" width="1024" xmlns="http://www.w3.org/2000/svg" xmlns:ev="http://www.w3.org/2001/xml-events" xmlns:xlink="http://www.w3.org/1999/xlink">
	<defs/>
	<path d="M 124.0,547.0 Q 151.0,483.0 129.0,316.0 Q 120.0,285.0 150.0,245.0 Q 160.0,233.0 171.0,246.0 Q 195.0,279.0 193.0,323.0 Q 189.0,420.0 203.0,513.0 Q 210.0,538.0 189.0,550.0 Q 171.0,562.0 153.0,572.0 Q 140.0,576.0 129.0,571.0 Q 120.0,564.0 124.0,547.0" fill="black" stroke="#000000"/>
	<path d="M 287.0,109.0 Q 275.0,67.0 302.0,3.0 Q 309.0,-16.0 317.0,-19.0 Q 324.0,-26.0 332.0,-17.0 Q 339.0,-13.0 350.0,9.0 Q 360.0,34.0 360.0,68.0 Q 359.0,117.0 365.0,566.0 Q 366.0,659.0 384.0,721.0 Q 393.0,737.0 390.0,751.0 Q 383.0,761.0 325.0,797.0 Q 300.0,815.0 279.0,798.0 Q 273.0,794.0 280.0,777.0 Q 311.0,729.0 313.0,665.0 Q 313.0,236.0 298.0,155.0 Q 292.0,133.0 287.0,109.0" fill="black" stroke="#000000"/>
	<path d="M 582.0,582.0 Q 664.0,756.0 665.0,761.0 Q 664.0,765.0 662.0,770.0 Q 655.0,783.0 622.0,802.0 Q 591.0,817.0 570.0,814.0 Q 551.0,808.0 563.0,786.0 Q 579.0,761.0 573.0,736.0 Q 542.0,591.0 434.0,406.0 Q 425.0,393.0 424.0,386.0 Q 423.0,374.0 437.0,379.0 Q 474.0,397.0 566.0,554.0 Q 566.0,555.0 568.0,557.0 L 582.0,582.0" fill="black" stroke="#000000"/>
	<path d="M 568.0,557.0 Q 620.0,532.0 682.0,549.0 Q 865.0,594.0 872.0,600.0 Q 882.0,610.0 876.0,619.0 Q 867.0,632.0 834.0,638.0 Q 804.0,644.0 707.0,609.0 Q 620.0,588.0 582.0,582.0 C 552.0,577.0 541.0,569.0 568.0,557.0" fill="black" stroke="#000000"/>
	<path d="M 619.0,461.0 Q 650.0,434.0 684.0,401.0 Q 696.0,388.0 710.0,389.0 Q 720.0,389.0 725.0,401.0 Q 729.0,414.0 722.0,441.0 Q 718.0,463.0 685.0,480.0 Q 610.0,510.0 596.0,507.0 Q 592.0,503.0 592.0,492.0 Q 595.0,482.0 619.0,461.0" fill="black" stroke="#000000"/>
	<path d="M 496.0,320.0 Q 483.0,326.0 459.0,330.0 Q 446.0,334.0 441.0,328.0 Q 434.0,321.0 443.0,304.0 Q 476.0,225.0 492.0,98.0 Q 493.0,59.0 515.0,33.0 Q 534.0,8.0 540.0,26.0 Q 544.0,36.0 545.0,51.0 L 544.0,90.0 Q 519.0,267.0 518.0,286.0 C 516.0,313.0 516.0,313.0 496.0,320.0" fill="black" stroke="#000000"/>
	<path d="M 805.0,115.0 Q 833.0,256.0 881.0,299.0 Q 900.0,318.0 883.0,338.0 Q 865.0,353.0 809.0,379.0 Q 790.0,388.0 766.0,378.0 Q 664.0,339.0 496.0,320.0 C 466.0,316.0 489.0,280.0 518.0,286.0 Q 528.0,287.0 541.0,291.0 Q 578.0,298.0 618.0,304.0 L 659.0,311.0 Q 762.0,335.0 777.0,321.0 Q 790.0,308.0 787.0,280.0 Q 772.0,192.0 752.0,122.0 C 744.0,93.0 799.0,86.0 805.0,115.0" fill="black" stroke="#000000"/>
	<path d="M 668.0,106.0 Q 672.0,191.0 676.0,255.0 Q 680.0,294.0 659.0,311.0 C 637.0,332.0 610.0,333.0 618.0,304.0 Q 624.0,298.0 629.0,100.0 C 630.0,70.0 667.0,76.0 668.0,106.0" fill="black" stroke="#000000"/>
</svg>
