<?xml version="1.0" ?>
<svg baseProfile="full" height="1024" version="1.1" viewBox="0 0 1024 1024" width="1024" xmlns="http://www.w3.org/2000/svg" xmlns:ev="http://www.w3.org/2001/xml-events" xmlns:xlink="http://www.w3.org/1999/xlink">
	<defs/>
	<path d="M 513.0,662.0 Q 559.0,666.0 604.0,672.0 Q 721.0,687.0 848.0,678.0 Q 872.0,675.0 878.0,685.0 Q 885.0,698.0 872.0,710.0 Q 800.0,770.0 742.0,747.0 Q 526.0,702.0 214.0,670.0 Q 192.0,670.0 168.0,668.0 Q 155.0,667.0 154.0,656.0 Q 153.0,643.0 173.0,630.0 Q 189.0,618.0 221.0,607.0 Q 231.0,603.0 250.0,612.0 Q 263.0,616.0 328.0,629.0 Q 410.0,650.0 513.0,662.0" fill="black" stroke="#000000"/>
	<path d="M 273.0,370.0 Q 277.0,445.0 283.0,467.0 Q 283.0,470.0 283.0,472.0 C 285.0,485.0 285.0,485.0 263.0,500.0 Q 244.0,515.0 224.0,521.0 Q 215.0,524.0 209.0,516.0 Q 205.0,510.0 212.0,500.0 Q 251.0,401.0 211.0,193.0 Q 190.0,103.0 190.0,101.0 Q 190.0,100.0 191.0,98.0 Q 198.0,65.0 209.0,53.0 Q 219.0,40.0 230.0,52.0 Q 261.0,86.0 263.0,197.0 Q 263.0,201.0 272.0,352.0 L 273.0,370.0" fill="black" stroke="#000000"/>
</svg>
