<?xml version="1.0" ?>
<svg baseProfile="full" height="1024" version="1.1" viewBox="0 0 1024 1024" width="1024" xmlns="http://www.w3.org/2000/svg" xmlns:ev="http://www.w3.org/2001/xml-events" xmlns:xlink="http://www.w3.org/1999/xlink">
	<defs/>
	<path d="M 513.0,662.0 Q 559.0,666.0 604.0,672.0 Q 721.0,687.0 848.0,678.0 Q 872.0,675.0 878.0,685.0 Q 885.0,698.0 872.0,710.0 Q 800.0,770.0 742.0,747.0 Q 526.0,702.0 214.0,670.0 Q 192.0,670.0 168.0,668.0 Q 155.0,667.0 154.0,656.0 Q 153.0,643.0 173.0,630.0 Q 189.0,618.0 221.0,607.0 Q 231.0,603.0 250.0,612.0 Q 263.0,616.0 328.0,629.0 Q 410.0,650.0 513.0,662.0" fill="black" stroke="#000000"/>
	<path d="M 273.0,370.0 Q 277.0,445.0 283.0,467.0 Q 283.0,470.0 283.0,472.0 C 285.0,485.0 285.0,485.0 263.0,500.0 Q 244.0,515.0 224.0,521.0 Q 215.0,524.0 209.0,516.0 Q 205.0,510.0 212.0,500.0 Q 251.0,401.0 211.0,193.0 Q 190.0,103.0 190.0,101.0 Q 190.0,100.0 191.0,98.0 Q 198.0,65.0 209.0,53.0 Q 219.0,40.0 230.0,52.0 Q 261.0,86.0 263.0,197.0 Q 263.0,201.0 272.0,352.0 L 273.0,370.0" fill="black" stroke="#000000"/>
	<path d="M 283.0,472.0 Q 301.0,475.0 371.0,494.0 Q 390.0,500.0 395.0,490.0 Q 399.0,477.0 402.0,456.0 Q 412.0,263.0 406.0,145.0 Q 405.0,118.0 397.0,106.0 Q 393.0,100.0 373.0,105.0 Q 348.0,109.0 323.0,115.0 Q 304.0,121.0 305.0,111.0 Q 359.0,68.0 390.0,34.0 Q 403.0,15.0 417.0,11.0 Q 426.0,8.0 434.0,17.0 Q 468.0,65.0 470.0,131.0 Q 443.0,435.0 468.0,478.0 Q 480.0,497.0 468.0,506.0 Q 449.0,524.0 413.0,538.0 Q 397.0,545.0 341.0,518.0 Q 310.0,509.0 263.0,500.0 C 234.0,494.0 254.0,466.0 283.0,472.0" fill="black" stroke="#000000"/>
	<path d="M 272.0,352.0 Q 347.0,288.0 358.0,286.0 Q 365.0,287.0 370.0,296.0 Q 373.0,308.0 366.0,329.0 Q 362.0,344.0 338.0,355.0 Q 314.0,364.0 288.0,370.0 Q 276.0,373.0 273.0,370.0 C 257.0,364.0 257.0,364.0 272.0,352.0" fill="black" stroke="#000000"/>
	<path d="M 591.0,375.0 Q 594.0,460.0 600.0,488.0 C 603.0,504.0 603.0,504.0 581.0,519.0 Q 563.0,534.0 540.0,541.0 Q 531.0,542.0 525.0,535.0 Q 521.0,529.0 529.0,519.0 Q 557.0,453.0 544.0,252.0 Q 543.0,248.0 543.0,243.0 Q 539.0,182.0 518.0,121.0 Q 511.0,96.0 514.0,78.0 Q 523.0,45.0 533.0,32.0 Q 543.0,19.0 554.0,32.0 Q 584.0,68.0 585.0,189.0 Q 585.0,270.0 590.0,349.0 L 591.0,375.0" fill="black" stroke="#000000"/>
	<path d="M 600.0,488.0 Q 610.0,488.0 701.0,513.0 Q 723.0,517.0 728.0,506.0 Q 740.0,479.0 751.0,279.0 Q 757.0,110.0 745.0,89.0 Q 741.0,83.0 720.0,87.0 Q 696.0,91.0 672.0,95.0 Q 651.0,101.0 652.0,91.0 Q 707.0,43.0 738.0,7.0 Q 751.0,-12.0 769.0,-17.0 Q 779.0,-21.0 787.0,-10.0 Q 829.0,44.0 825.0,99.0 Q 786.0,447.0 810.0,497.0 Q 822.0,518.0 809.0,528.0 Q 787.0,547.0 747.0,562.0 Q 728.0,569.0 711.0,561.0 Q 678.0,542.0 658.0,535.0 Q 633.0,526.0 581.0,519.0 C 551.0,515.0 571.0,482.0 600.0,488.0" fill="black" stroke="#000000"/>
	<path d="M 590.0,349.0 Q 606.0,337.0 666.0,283.0 Q 676.0,273.0 689.0,274.0 Q 698.0,274.0 701.0,285.0 Q 705.0,295.0 698.0,319.0 Q 694.0,338.0 664.0,353.0 Q 601.0,378.0 591.0,375.0 C 561.0,374.0 566.0,367.0 590.0,349.0" fill="black" stroke="#000000"/>
</svg>
