<?xml version="1.0" ?>
<svg baseProfile="full" height="1024" version="1.1" viewBox="0 0 1024 1024" width="1024" xmlns="http://www.w3.org/2000/svg" xmlns:ev="http://www.w3.org/2001/xml-events" xmlns:xlink="http://www.w3.org/1999/xlink">
	<defs/>
	<path d="M 522.0,763.0 Q 512.0,769.0 486.0,772.0 Q 476.0,775.0 472.0,771.0 Q 468.0,765.0 474.0,751.0 Q 502.0,688.0 518.0,586.0 Q 521.0,555.0 538.0,534.0 Q 554.0,515.0 558.0,529.0 Q 561.0,536.0 562.0,548.0 L 562.0,568.0 Q 561.0,581.0 558.0,596.0 Q 554.0,620.0 550.0,640.0 L 546.0,665.0 Q 539.0,711.0 536.0,732.0 C 532.0,758.0 532.0,758.0 522.0,763.0" fill="black" stroke="#000000"/>
	<path d="M 703.0,567.0 Q 719.0,545.0 733.0,538.0 Q 743.0,531.0 757.0,550.0 Q 770.0,572.0 796.0,696.0 Q 803.0,724.0 824.0,747.0 Q 836.0,759.0 826.0,771.0 Q 811.0,787.0 772.0,810.0 Q 759.0,816.0 688.0,800.0 Q 678.0,800.0 522.0,763.0 C 493.0,756.0 508.0,721.0 536.0,732.0 Q 536.0,733.0 538.0,734.0 Q 599.0,753.0 706.0,771.0 Q 728.0,775.0 737.0,767.0 Q 749.0,754.0 747.0,740.0 Q 725.0,605.0 710.0,594.0 C 698.0,573.0 698.0,573.0 703.0,567.0" fill="black" stroke="#000000"/>
</svg>
