<?xml version="1.0" ?>
<svg baseProfile="full" height="1024" version="1.1" viewBox="0 0 1024 1024" width="1024" xmlns="http://www.w3.org/2000/svg" xmlns:ev="http://www.w3.org/2001/xml-events" xmlns:xlink="http://www.w3.org/1999/xlink">
	<defs/>
	<path d="M 422.0,31.0 Q 423.0,21.0 429.0,14.0 Q 439.0,-9.0 447.0,-9.0 Q 459.0,-8.0 472.0,18.0 Q 481.0,33.0 481.0,73.0 Q 481.0,78.0 480.0,82.0 Q 476.0,130.0 482.0,157.0 Q 488.0,186.0 495.0,196.0 Q 500.0,206.0 498.0,212.0 Q 498.0,216.0 496.0,218.0 Q 473.0,237.0 433.0,252.0 Q 423.0,255.0 414.0,253.0 Q 411.0,252.0 402.0,249.0 Q 382.0,235.0 265.0,210.0 C 236.0,204.0 246.0,183.0 276.0,185.0 Q 277.0,185.0 290.0,186.0 Q 409.0,223.0 419.0,211.0 Q 431.0,195.0 431.0,147.0 L 431.0,145.0 Q 431.0,118.0 429.0,96.0 Q 427.0,67.0 425.0,59.0 L 422.0,31.0" fill="black" stroke="#000000"/>
</svg>
