<?xml version="1.0" ?>
<svg baseProfile="full" height="1024" version="1.1" viewBox="0 0 1024 1024" width="1024" xmlns="http://www.w3.org/2000/svg" xmlns:ev="http://www.w3.org/2001/xml-events" xmlns:xlink="http://www.w3.org/1999/xlink">
	<defs/>
	<path d="M 254.0,216.0 Q 325.0,274.0 359.0,347.0 Q 365.0,354.0 368.0,356.0 L 382.0,370.0 Q 383.0,374.0 383.0,376.0 Q 383.0,399.0 347.0,416.0 Q 329.0,425.0 319.0,423.0 Q 314.0,423.0 312.0,412.0 Q 316.0,353.0 253.0,276.0 Q 226.0,242.0 176.0,196.0 L 172.0,192.0 Q 132.0,158.0 34.0,93.0 Q 29.0,91.0 31.0,88.0 Q 32.0,87.0 35.0,86.0 Q 90.0,86.0 210.0,174.0 Q 225.0,188.0 227.0,190.0 L 254.0,216.0" fill="black" stroke="#000000"/>
</svg>
