<?xml version="1.0" ?>
<svg baseProfile="full" height="1024" version="1.1" viewBox="0 0 1024 1024" width="1024" xmlns="http://www.w3.org/2000/svg" xmlns:ev="http://www.w3.org/2001/xml-events" xmlns:xlink="http://www.w3.org/1999/xlink">
	<defs/>
	<path d="M 244.0,729.0 Q 295.0,678.0 355.0,604.0 Q 370.0,583.0 385.0,579.0 Q 392.0,578.0 401.0,586.0 Q 414.0,599.0 404.0,643.0 Q 391.0,703.0 246.0,759.0 Q 237.0,765.0 235.0,753.0 Q 234.0,740.0 244.0,729.0" fill="black" stroke="#000000"/>
	<path d="M 536.0,529.0 Q 608.0,583.0 651.0,621.0 Q 744.0,708.0 783.0,726.0 Q 810.0,739.0 795.0,760.0 Q 779.0,781.0 746.0,798.0 Q 715.0,814.0 700.0,810.0 Q 684.0,807.0 690.0,791.0 Q 699.0,740.0 597.0,637.0 Q 557.0,594.0 514.0,544.0 C 494.0,521.0 512.0,511.0 536.0,529.0" fill="black" stroke="#000000"/>
</svg>
