<?xml version="1.0" ?>
<svg baseProfile="full" height="1024" version="1.1" viewBox="0 0 1024 1024" width="1024" xmlns="http://www.w3.org/2000/svg" xmlns:ev="http://www.w3.org/2001/xml-events" xmlns:xlink="http://www.w3.org/1999/xlink">
	<defs/>
	<path d="M 535.0,654.0 Q 704.0,690.0 710.0,695.0 Q 720.0,702.0 715.0,712.0 Q 708.0,724.0 678.0,732.0 Q 647.0,739.0 617.0,728.0 Q 577.0,715.0 539.0,704.0 L 480.0,690.0 Q 407.0,677.0 327.0,669.0 Q 290.0,665.0 316.0,646.0 Q 358.0,621.0 415.0,633.0 Q 446.0,639.0 482.0,645.0 L 535.0,654.0" fill="black" stroke="#000000"/>
	<path d="M 521.0,432.0 Q 528.0,547.0 535.0,654.0 L 539.0,704.0 Q 539.0,716.0 555.0,782.0 Q 558.0,792.0 538.0,808.0 Q 502.0,827.0 478.0,831.0 Q 462.0,835.0 454.0,826.0 Q 447.0,819.0 455.0,803.0 Q 477.0,770.0 478.0,748.0 Q 479.0,720.0 480.0,690.0 L 482.0,645.0 Q 483.0,542.0 479.0,426.0 C 478.0,396.0 519.0,402.0 521.0,432.0" fill="black" stroke="#000000"/>
</svg>
