<?xml version="1.0" ?>
<svg baseProfile="full" height="1024" version="1.1" viewBox="0 0 1024 1024" width="1024" xmlns="http://www.w3.org/2000/svg" xmlns:ev="http://www.w3.org/2001/xml-events" xmlns:xlink="http://www.w3.org/1999/xlink">
	<defs/>
	<path d="M 464.0,148.0 Q 485.0,55.0 558.0,10.0 Q 675.0,-56.0 856.0,-17.0 Q 871.0,-11.0 887.0,-5.0 Q 909.0,5.0 910.0,20.0 Q 914.0,29.0 881.0,49.0 Q 830.0,89.0 793.0,132.0 Q 781.0,148.0 777.0,140.0 Q 790.0,43.0 789.0,36.0 Q 777.0,29.0 748.0,25.0 Q 604.0,18.0 545.0,70.0 Q 517.0,92.0 504.0,134.0 Q 497.0,155.0 485.0,159.0 Q 473.0,166.0 466.0,162.0 Q 462.0,161.0 464.0,148.0" fill="black" stroke="#000000"/>
</svg>
