<?xml version="1.0" ?>
<svg baseProfile="full" height="1024" version="1.1" viewBox="0 0 1024 1024" width="1024" xmlns="http://www.w3.org/2000/svg" xmlns:ev="http://www.w3.org/2001/xml-events" xmlns:xlink="http://www.w3.org/1999/xlink">
	<defs/>
	<path d="M 515.0,329.0 Q 523.0,329.0 533.0,334.0 Q 631.0,360.0 831.0,394.0 Q 851.0,396.0 860.0,386.0 Q 881.0,379.0 883.0,351.0 Q 889.0,276.0 873.0,143.0 Q 874.0,122.0 855.0,122.0 Q 827.0,125.0 805.0,128.0 Q 790.0,129.0 794.0,122.0 Q 795.0,112.0 821.0,92.0 Q 857.0,65.0 876.0,33.0 Q 889.0,24.0 902.0,29.0 Q 930.0,49.0 943.0,141.0 Q 945.0,172.0 945.0,176.0 Q 929.0,363.0 945.0,388.0 Q 955.0,400.0 947.0,411.0 Q 937.0,420.0 894.0,439.0 Q 876.0,447.0 860.0,437.0 Q 843.0,431.0 776.0,421.0 Q 732.0,415.0 694.0,406.0 L 655.0,398.0 Q 637.0,397.0 622.0,392.0 Q 549.0,380.0 502.0,368.0 C 473.0,361.0 486.0,321.0 515.0,329.0" fill="black" stroke="#000000"/>
</svg>
