<?xml version="1.0" ?>
<svg baseProfile="full" height="1024" version="1.1" viewBox="0 0 1024 1024" width="1024" xmlns="http://www.w3.org/2000/svg" xmlns:ev="http://www.w3.org/2001/xml-events" xmlns:xlink="http://www.w3.org/1999/xlink">
	<defs/>
	<path d="M 519.0,53.0 Q 517.0,149.0 517.0,156.0 L 529.0,400.0 L 530.0,439.0 Q 531.0,469.0 533.0,518.0 Q 546.0,730.0 559.0,778.0 Q 563.0,793.0 539.0,808.0 Q 508.0,829.0 464.0,837.0 Q 445.0,841.0 433.0,830.0 Q 429.0,825.0 429.0,821.0 Q 428.0,812.0 443.0,790.0 Q 465.0,757.0 466.0,733.0 Q 470.0,664.0 470.0,600.0 L 465.0,397.0 Q 461.0,363.0 457.0,296.0 Q 455.0,262.0 443.0,216.0 Q 439.0,171.0 439.0,129.0 Q 437.0,25.0 447.0,-3.0 Q 462.0,-58.0 490.0,-75.0 Q 498.0,-76.0 502.0,-71.0 Q 517.0,-56.0 519.0,53.0" fill="black" stroke="#000000"/>
	<path d="M 529.0,400.0 Q 570.0,394.0 663.0,410.0 Q 784.0,435.0 791.0,441.0 Q 797.0,447.0 798.0,453.0 Q 798.0,470.0 753.0,483.0 Q 725.0,489.0 622.0,457.0 L 530.0,439.0 C 501.0,433.0 499.0,403.0 529.0,400.0" fill="black" stroke="#000000"/>
</svg>
