<?xml version="1.0" ?>
<svg baseProfile="full" height="1024" version="1.1" viewBox="0 0 1024 1024" width="1024" xmlns="http://www.w3.org/2000/svg" xmlns:ev="http://www.w3.org/2001/xml-events" xmlns:xlink="http://www.w3.org/1999/xlink">
	<defs/>
	<path d="M 405.0,168.0 Q 339.0,128.0 335.0,128.0 Q 331.0,131.0 329.0,144.0 Q 332.0,333.0 341.0,380.0 Q 345.0,396.0 334.0,406.0 Q 321.0,419.0 309.0,426.0 C 284.0,443.0 260.0,440.0 278.0,416.0 Q 299.0,395.0 297.0,354.0 Q 301.0,191.0 290.0,135.0 Q 286.0,110.0 276.0,95.0 Q 266.0,76.0 274.0,58.0 Q 284.0,30.0 300.0,21.0 Q 310.0,14.0 319.0,31.0 Q 340.0,64.0 414.0,153.0 C 433.0,176.0 431.0,184.0 405.0,168.0" fill="black" stroke="#000000"/>
</svg>
