<?xml version="1.0" ?>
<svg baseProfile="full" height="1024" version="1.1" viewBox="0 0 1024 1024" width="1024" xmlns="http://www.w3.org/2000/svg" xmlns:ev="http://www.w3.org/2001/xml-events" xmlns:xlink="http://www.w3.org/1999/xlink">
	<defs/>
	<path d="M 639.0,413.0 Q 640.0,417.0 641.0,420.0 Q 645.0,436.0 634.0,446.0 Q 624.0,456.0 615.0,462.0 C 592.0,481.0 569.0,481.0 581.0,453.0 Q 580.0,453.0 581.0,452.0 Q 597.0,421.0 597.0,394.0 Q 601.0,183.0 586.0,111.0 Q 582.0,86.0 572.0,71.0 Q 562.0,53.0 569.0,34.0 Q 579.0,6.0 594.0,-3.0 Q 604.0,-10.0 614.0,7.0 Q 638.0,41.0 719.0,131.0 C 739.0,153.0 736.0,163.0 710.0,147.0 Q 637.0,102.0 632.0,103.0 Q 626.0,106.0 625.0,120.0 Q 628.0,325.0 637.0,398.0 L 639.0,413.0" fill="black" stroke="#000000"/>
</svg>
