<?xml version="1.0" ?>
<svg baseProfile="full" height="1024" version="1.1" viewBox="0 0 1024 1024" width="1024" xmlns="http://www.w3.org/2000/svg" xmlns:ev="http://www.w3.org/2001/xml-events" xmlns:xlink="http://www.w3.org/1999/xlink">
	<defs/>
	<path d="M 683.0,458.0 Q 629.0,458.0 584.0,458.0 Q 547.0,458.0 566.0,481.0 Q 636.0,602.0 705.0,691.0 Q 720.0,709.0 717.0,716.0 Q 714.0,732.0 674.0,763.0 Q 658.0,778.0 638.0,773.0 Q 626.0,770.0 633.0,754.0 Q 651.0,714.0 560.0,544.0 Q 541.0,505.0 499.0,468.0 Q 480.0,455.0 481.0,441.0 Q 485.0,422.0 500.0,403.0 Q 510.0,393.0 523.0,399.0 Q 554.0,414.0 652.0,430.0 Q 656.0,431.0 661.0,430.0 C 691.0,432.0 713.0,458.0 683.0,458.0" fill="black" stroke="#000000"/>
</svg>
