<?xml version="1.0" ?>
<svg baseProfile="full" height="1024" version="1.1" viewBox="0 0 1024 1024" width="1024" xmlns="http://www.w3.org/2000/svg" xmlns:ev="http://www.w3.org/2001/xml-events" xmlns:xlink="http://www.w3.org/1999/xlink">
	<defs/>
	<path d="M 496.0,729.0 Q 514.0,675.0 404.0,530.0 Q 398.0,524.0 406.0,524.0 Q 436.0,524.0 502.0,602.0 Q 502.0,605.0 505.0,606.0 Q 526.0,634.0 556.0,689.0 Q 566.0,708.0 567.0,712.0 Q 558.0,733.0 525.0,740.0 Q 509.0,744.0 500.0,741.0 Q 493.0,740.0 496.0,729.0" fill="black" stroke="#000000"/>
	<path d="M 613.0,801.0 Q 641.0,785.0 660.0,757.0 Q 817.0,544.0 851.0,540.0 Q 899.0,540.0 964.0,553.0 Q 977.0,556.0 982.0,562.0 Q 985.0,568.0 977.0,571.0 Q 845.0,623.0 775.0,689.0 Q 726.0,734.0 663.0,805.0 Q 653.0,818.0 640.0,819.0 Q 615.0,820.0 607.0,812.0 Q 604.0,806.0 613.0,801.0" fill="black" stroke="#000000"/>
</svg>
