<?xml version="1.0" ?>
<svg baseProfile="full" height="1024" version="1.1" viewBox="0 0 1024 1024" width="1024" xmlns="http://www.w3.org/2000/svg" xmlns:ev="http://www.w3.org/2001/xml-events" xmlns:xlink="http://www.w3.org/1999/xlink">
	<defs/>
	<path d="M 496.0,729.0 Q 514.0,675.0 404.0,530.0 Q 398.0,524.0 406.0,524.0 Q 436.0,524.0 502.0,602.0 Q 502.0,605.0 505.0,606.0 Q 526.0,634.0 556.0,689.0 Q 566.0,708.0 567.0,712.0 Q 558.0,733.0 525.0,740.0 Q 509.0,744.0 500.0,741.0 Q 493.0,740.0 496.0,729.0" fill="black" stroke="#000000"/>
	<path d="M 613.0,801.0 Q 641.0,785.0 660.0,757.0 Q 817.0,544.0 851.0,540.0 Q 899.0,540.0 964.0,553.0 Q 977.0,556.0 982.0,562.0 Q 985.0,568.0 977.0,571.0 Q 845.0,623.0 775.0,689.0 Q 726.0,734.0 663.0,805.0 Q 653.0,818.0 640.0,819.0 Q 615.0,820.0 607.0,812.0 Q 604.0,806.0 613.0,801.0" fill="black" stroke="#000000"/>
	<path d="M 570.0,550.0 Q 646.0,575.0 725.0,601.0 Q 732.0,608.0 727.0,615.0 Q 720.0,624.0 697.0,627.0 Q 672.0,630.0 649.0,618.0 Q 619.0,605.0 587.0,594.0 Q 551.0,582.0 508.0,575.0 Q 480.0,568.0 501.0,556.0 Q 511.0,552.0 524.0,549.0 L 570.0,550.0" fill="black" stroke="#000000"/>
	<path d="M 524.0,549.0 Q 533.0,530.0 527.0,507.0 Q 512.0,470.0 486.0,451.0 Q 471.0,439.0 474.0,428.0 Q 475.0,415.0 489.0,403.0 Q 499.0,394.0 512.0,401.0 Q 549.0,432.0 618.0,459.0 Q 657.0,475.0 679.0,465.0 Q 695.0,455.0 690.0,429.0 Q 684.0,395.0 664.0,368.0 Q 649.0,349.0 636.0,344.0 Q 620.0,341.0 561.0,361.0 Q 548.0,368.0 547.0,362.0 Q 546.0,356.0 556.0,346.0 Q 586.0,310.0 606.0,280.0 Q 613.0,270.0 622.0,269.0 Q 635.0,268.0 651.0,277.0 Q 699.0,310.0 733.0,406.0 Q 737.0,434.0 749.0,448.0 Q 758.0,458.0 750.0,469.0 Q 738.0,482.0 704.0,498.0 Q 689.0,505.0 671.0,501.0 Q 631.0,485.0 562.0,463.0 Q 550.0,460.0 555.0,473.0 Q 576.0,507.0 583.0,515.0 Q 593.0,527.0 585.0,540.0 Q 578.0,546.0 570.0,550.0 C 546.0,568.0 516.0,578.0 524.0,549.0" fill="black" stroke="#000000"/>
	<path d="M 486.0,237.0 Q 476.0,243.0 446.0,249.0 Q 434.0,253.0 431.0,248.0 Q 424.0,242.0 432.0,227.0 Q 454.0,176.0 466.0,93.0 Q 467.0,77.0 474.0,62.0 C 486.0,34.0 506.0,35.0 507.0,65.0 Q 508.0,78.0 506.0,98.0 Q 499.0,176.0 496.0,204.0 C 493.0,234.0 493.0,234.0 486.0,237.0" fill="black" stroke="#000000"/>
	<path d="M 809.0,103.0 Q 833.0,188.0 855.0,223.0 Q 865.0,233.0 861.0,244.0 Q 855.0,259.0 800.0,284.0 Q 785.0,291.0 772.0,287.0 Q 642.0,259.0 486.0,237.0 C 456.0,233.0 468.0,194.0 496.0,204.0 Q 505.0,210.0 551.0,217.0 L 570.0,221.0 Q 607.0,230.0 647.0,236.0 L 684.0,242.0 Q 753.0,258.0 771.0,248.0 Q 777.0,244.0 777.0,228.0 Q 770.0,173.0 752.0,94.0 C 745.0,65.0 801.0,74.0 809.0,103.0" fill="black" stroke="#000000"/>
	<path d="M 594.0,75.0 Q 594.0,76.0 595.0,77.0 Q 598.0,104.0 582.0,192.0 Q 582.0,210.0 570.0,221.0 C 549.0,243.0 545.0,246.0 551.0,217.0 Q 551.0,216.0 552.0,214.0 Q 552.0,106.0 571.0,73.0 C 585.0,46.0 586.0,46.0 594.0,75.0" fill="black" stroke="#000000"/>
</svg>
