<?xml version="1.0" ?>
<svg baseProfile="full" height="1024" version="1.1" viewBox="0 0 1024 1024" width="1024" xmlns="http://www.w3.org/2000/svg" xmlns:ev="http://www.w3.org/2001/xml-events" xmlns:xlink="http://www.w3.org/1999/xlink">
	<defs/>
	<path d="M 490.0,392.0 Q 493.0,402.0 497.0,413.0 Q 504.0,437.0 511.0,464.0 L 520.0,504.0 Q 527.0,553.0 543.0,611.0 Q 552.0,633.0 530.0,647.0 Q 508.0,662.0 492.0,669.0 C 465.0,683.0 440.0,691.0 449.0,662.0 Q 464.0,614.0 465.0,602.0 Q 465.0,557.0 455.0,495.0 L 449.0,457.0 Q 424.0,319.0 304.0,226.0 Q 286.0,213.0 282.0,206.0 Q 279.0,199.0 293.0,198.0 Q 333.0,195.0 398.0,250.0 Q 435.0,281.0 458.0,318.0 Q 471.0,342.0 483.0,371.0 L 490.0,392.0" fill="black" stroke="#000000"/>
</svg>
