<?xml version="1.0" ?>
<svg baseProfile="full" height="1024" version="1.1" viewBox="0 0 1024 1024" width="1024" xmlns="http://www.w3.org/2000/svg" xmlns:ev="http://www.w3.org/2001/xml-events" xmlns:xlink="http://www.w3.org/1999/xlink">
	<defs/>
	<path d="M 515.0,369.0 Q 534.0,397.0 552.0,426.0 L 573.0,463.0 Q 588.0,490.0 595.0,498.0 Q 605.0,505.0 604.0,517.0 Q 600.0,527.0 592.0,536.0 C 574.0,560.0 559.0,556.0 550.0,528.0 Q 549.0,525.0 548.0,521.0 Q 547.0,517.0 516.0,451.0 L 496.0,413.0 Q 495.0,413.0 495.0,411.0 Q 438.0,320.0 348.0,257.0 Q 342.0,253.0 339.0,250.0 Q 335.0,243.0 343.0,242.0 Q 374.0,239.0 451.0,300.0 Q 452.0,303.0 456.0,304.0 Q 474.0,322.0 491.0,340.0 L 515.0,369.0" fill="black" stroke="#000000"/>
</svg>
