<?xml version="1.0" ?>
<svg baseProfile="full" height="1024" version="1.1" viewBox="0 0 1024 1024" width="1024" xmlns="http://www.w3.org/2000/svg" xmlns:ev="http://www.w3.org/2001/xml-events" xmlns:xlink="http://www.w3.org/1999/xlink">
	<defs/>
	<path d="M 550.0,333.0 Q 608.0,348.0 653.0,352.0 Q 663.0,353.0 666.0,349.0 Q 670.0,345.0 671.0,329.0 Q 672.0,289.0 666.0,269.0 Q 654.0,244.0 632.0,247.0 Q 617.0,250.0 603.0,253.0 Q 584.0,259.0 598.0,241.0 Q 628.0,211.0 641.0,189.0 Q 651.0,177.0 661.0,186.0 Q 694.0,207.0 715.0,303.0 Q 715.0,331.0 731.0,352.0 Q 740.0,362.0 736.0,369.0 Q 729.0,376.0 691.0,393.0 Q 676.0,400.0 662.0,390.0 Q 647.0,383.0 534.0,358.0 C 505.0,351.0 521.0,326.0 550.0,333.0" fill="black" stroke="#000000"/>
</svg>
