<?xml version="1.0" ?>
<svg baseProfile="full" height="1024" version="1.1" viewBox="0 0 1024 1024" width="1024" xmlns="http://www.w3.org/2000/svg" xmlns:ev="http://www.w3.org/2001/xml-events" xmlns:xlink="http://www.w3.org/1999/xlink">
	<defs/>
	<path d="M 486.0,108.0 Q 365.0,99.0 302.0,91.0 Q 229.0,81.0 121.0,82.0 Q 105.0,82.0 104.0,69.0 Q 103.0,56.0 123.0,39.0 Q 142.0,24.0 177.0,11.0 Q 189.0,7.0 209.0,15.0 Q 255.0,30.0 410.0,51.0 Q 465.0,58.0 528.0,63.0 Q 585.0,66.0 638.0,70.0 Q 773.0,83.0 931.0,66.0 Q 958.0,62.0 965.0,72.0 Q 974.0,87.0 960.0,100.0 Q 927.0,131.0 879.0,154.0 Q 863.0,161.0 833.0,153.0 Q 760.0,138.0 686.0,129.0 Q 598.0,122.0 541.0,114.0 L 486.0,108.0" fill="black" stroke="#000000"/>
</svg>
