<?xml version="1.0" ?>
<svg baseProfile="full" height="1024" version="1.1" viewBox="0 0 1024 1024" width="1024" xmlns="http://www.w3.org/2000/svg" xmlns:ev="http://www.w3.org/2001/xml-events" xmlns:xlink="http://www.w3.org/1999/xlink">
	<defs/>
	<path d="M 752.0,425.0 Q 765.0,462.0 777.0,498.0 Q 793.0,546.0 828.0,578.0 Q 853.0,603.0 821.0,624.0 Q 793.0,648.0 762.0,666.0 Q 743.0,679.0 717.0,668.0 Q 677.0,655.0 615.0,646.0 Q 575.0,642.0 535.0,636.0 L 476.0,628.0 Q 427.0,622.0 380.0,613.0 Q 307.0,603.0 254.0,596.0 C 224.0,592.0 237.0,551.0 267.0,556.0 Q 274.0,556.0 286.0,559.0 Q 400.0,587.0 476.0,593.0 L 534.0,600.0 Q 604.0,609.0 698.0,615.0 Q 717.0,616.0 724.0,607.0 Q 739.0,583.0 693.0,435.0 C 684.0,406.0 742.0,397.0 752.0,425.0" fill="black" stroke="#000000"/>
</svg>
