<?xml version="1.0" ?>
<svg baseProfile="full" height="1024" version="1.1" viewBox="0 0 1024 1024" width="1024" xmlns="http://www.w3.org/2000/svg" xmlns:ev="http://www.w3.org/2001/xml-events" xmlns:xlink="http://www.w3.org/1999/xlink">
	<defs/>
	<path d="M 145.0,448.0 Q 132.0,447.0 131.0,439.0 Q 130.0,432.0 145.0,425.0 Q 191.0,401.0 217.0,412.0 Q 320.0,445.0 330.0,444.0 Q 342.0,440.0 331.0,417.0 Q 283.0,308.0 240.0,256.0 Q 195.0,198.0 115.0,137.0 Q 99.0,125.0 110.0,123.0 Q 120.0,122.0 139.0,131.0 Q 211.0,164.0 271.0,222.0 Q 328.0,274.0 399.0,412.0 Q 409.0,433.0 420.0,444.0 Q 435.0,454.0 426.0,465.0 Q 417.0,477.0 381.0,490.0 Q 359.0,502.0 317.0,481.0 Q 257.0,460.0 145.0,448.0" fill="black" stroke="#000000"/>
</svg>
