<?xml version="1.0" ?>
<svg baseProfile="full" height="1024" version="1.1" viewBox="0 0 1024 1024" width="1024" xmlns="http://www.w3.org/2000/svg" xmlns:ev="http://www.w3.org/2001/xml-events" xmlns:xlink="http://www.w3.org/1999/xlink">
	<defs/>
	<path d="M 545.0,622.0 Q 603.0,634.0 668.0,645.0 Q 735.0,658.0 746.0,668.0 Q 756.0,677.0 751.0,686.0 Q 744.0,699.0 711.0,709.0 Q 677.0,716.0 642.0,705.0 Q 594.0,689.0 546.0,676.0 L 484.0,661.0 Q 390.0,643.0 281.0,633.0 Q 239.0,629.0 268.0,608.0 Q 314.0,581.0 392.0,595.0 Q 435.0,604.0 485.0,611.0 L 545.0,622.0" fill="black" stroke="#000000"/>
	<path d="M 542.0,441.0 Q 606.0,453.0 676.0,464.0 Q 743.0,477.0 753.0,486.0 Q 765.0,496.0 759.0,506.0 Q 752.0,519.0 717.0,530.0 Q 681.0,539.0 645.0,526.0 Q 594.0,510.0 542.0,496.0 L 485.0,484.0 Q 394.0,466.0 286.0,459.0 Q 243.0,453.0 272.0,432.0 Q 320.0,407.0 407.0,418.0 Q 443.0,424.0 485.0,431.0 L 542.0,441.0" fill="black" stroke="#000000"/>
	<path d="M 542.0,256.0 Q 618.0,262.0 888.0,263.0 Q 913.0,263.0 920.0,274.0 Q 927.0,289.0 906.0,306.0 Q 840.0,355.0 794.0,345.0 Q 698.0,326.0 542.0,303.0 L 484.0,295.0 Q 327.0,276.0 144.0,255.0 Q 117.0,254.0 137.0,231.0 Q 176.0,195.0 224.0,205.0 Q 338.0,235.0 468.0,248.0 Q 474.0,249.0 483.0,250.0 L 542.0,256.0" fill="black" stroke="#000000"/>
</svg>
