<?xml version="1.0" ?>
<svg baseProfile="full" height="1024" version="1.1" viewBox="0 0 1024 1024" width="1024" xmlns="http://www.w3.org/2000/svg" xmlns:ev="http://www.w3.org/2001/xml-events" xmlns:xlink="http://www.w3.org/1999/xlink">
	<defs/>
	<path d="M 309.0,426.0 Q 423.0,471.0 435.0,474.0 Q 448.0,475.0 451.0,481.0 Q 454.0,488.0 445.0,497.0 Q 400.0,530.0 372.0,526.0 Q 366.0,522.0 366.0,514.0 Q 366.0,493.0 247.0,425.0 C 221.0,410.0 229.0,398.0 257.0,409.0 Q 264.0,412.0 278.0,416.0 L 309.0,426.0" fill="black" stroke="#000000"/>
	<path d="M 247.0,425.0 Q 202.0,446.0 190.0,445.0 Q 172.0,441.0 186.0,423.0 Q 208.0,386.0 196.0,234.0 Q 190.0,195.0 172.0,149.0 Q 154.0,104.0 94.0,43.0 Q 82.0,33.0 79.0,26.0 Q 78.0,20.0 88.0,21.0 Q 115.0,21.0 170.0,75.0 Q 230.0,144.0 246.0,279.0 Q 252.0,366.0 257.0,401.0 Q 258.0,405.0 257.0,409.0 C 258.0,420.0 258.0,420.0 247.0,425.0" fill="black" stroke="#000000"/>
</svg>
