<?xml version="1.0" ?>
<svg baseProfile="full" height="1024" version="1.1" viewBox="0 0 1024 1024" width="1024" xmlns="http://www.w3.org/2000/svg" xmlns:ev="http://www.w3.org/2001/xml-events" xmlns:xlink="http://www.w3.org/1999/xlink">
	<defs/>
	<path d="M 408.0,234.0 Q 408.0,286.0 409.0,339.0 L 409.0,373.0 Q 410.0,448.0 415.0,479.0 C 418.0,504.0 418.0,504.0 408.0,512.0 Q 386.0,534.0 350.0,544.0 Q 340.0,545.0 334.0,537.0 Q 330.0,531.0 338.0,520.0 Q 362.0,462.0 363.0,405.0 Q 372.0,168.0 337.0,53.0 Q 328.0,25.0 334.0,5.0 Q 344.0,-29.0 356.0,-43.0 Q 368.0,-58.0 378.0,-43.0 Q 393.0,-25.0 401.0,27.0 L 406.0,66.0 Q 407.0,99.0 408.0,204.0 L 408.0,234.0" fill="black" stroke="#000000"/>
	<path d="M 633.0,406.0 Q 660.0,472.0 691.0,489.0 Q 707.0,507.0 694.0,525.0 Q 631.0,576.0 595.0,567.0 Q 589.0,567.0 586.0,565.0 Q 528.0,538.0 408.0,512.0 C 379.0,506.0 386.0,472.0 415.0,479.0 Q 430.0,483.0 574.0,516.0 Q 592.0,520.0 599.0,513.0 Q 606.0,506.0 603.0,489.0 Q 593.0,446.0 579.0,411.0 C 568.0,383.0 621.0,378.0 633.0,406.0" fill="black" stroke="#000000"/>
	<path d="M 409.0,339.0 Q 416.0,338.0 427.0,340.0 Q 496.0,358.0 644.0,373.0 Q 654.0,374.0 656.0,384.0 Q 656.0,391.0 633.0,406.0 C 613.0,420.0 608.0,419.0 579.0,411.0 Q 485.0,386.0 409.0,373.0 C 379.0,368.0 379.0,340.0 409.0,339.0" fill="black" stroke="#000000"/>
	<path d="M 674.0,97.0 Q 704.0,181.0 739.0,204.0 Q 758.0,225.0 742.0,245.0 Q 658.0,309.0 601.0,281.0 Q 525.0,253.0 408.0,234.0 C 378.0,229.0 378.0,208.0 408.0,204.0 Q 433.0,198.0 464.0,208.0 Q 537.0,221.0 608.0,235.0 Q 626.0,239.0 633.0,232.0 Q 643.0,222.0 640.0,201.0 Q 628.0,146.0 614.0,99.0 C 606.0,70.0 664.0,69.0 674.0,97.0" fill="black" stroke="#000000"/>
	<path d="M 401.0,27.0 Q 408.0,27.0 417.0,28.0 Q 505.0,44.0 693.0,54.0 Q 705.0,55.0 707.0,65.0 Q 708.0,74.0 674.0,97.0 C 659.0,108.0 643.0,105.0 614.0,99.0 Q 499.0,77.0 406.0,66.0 C 376.0,62.0 371.0,26.0 401.0,27.0" fill="black" stroke="#000000"/>
</svg>
