<?xml version="1.0" ?>
<svg baseProfile="full" height="1024" version="1.1" viewBox="0 0 1024 1024" width="1024" xmlns="http://www.w3.org/2000/svg" xmlns:ev="http://www.w3.org/2001/xml-events" xmlns:xlink="http://www.w3.org/1999/xlink">
	<defs/>
	<path d="M 373.0,605.0 Q 400.0,574.0 427.0,536.0 Q 440.0,520.0 457.0,517.0 Q 469.0,516.0 477.0,529.0 Q 484.0,545.0 480.0,578.0 Q 476.0,614.0 376.0,658.0 Q 360.0,665.0 352.0,663.0 Q 346.0,660.0 346.0,646.0 Q 347.0,633.0 373.0,605.0" fill="black" stroke="#000000"/>
	<path d="M 547.0,446.0 Q 346.0,272.0 292.0,251.0 Q 279.0,244.0 282.0,233.0 Q 286.0,218.0 299.0,214.0 Q 330.0,207.0 371.0,202.0 Q 384.0,203.0 392.0,218.0 Q 414.0,258.0 443.0,290.0 Q 489.0,339.0 533.0,390.0 Q 540.0,399.0 547.0,407.0 C 566.0,430.0 570.0,466.0 547.0,446.0" fill="black" stroke="#000000"/>
	<path d="M 595.0,64.0 Q 594.0,113.0 599.0,562.0 Q 599.0,655.0 616.0,717.0 Q 626.0,733.0 622.0,747.0 Q 615.0,757.0 557.0,793.0 Q 532.0,811.0 511.0,794.0 Q 505.0,788.0 512.0,773.0 Q 543.0,727.0 545.0,679.0 Q 546.0,610.0 549.0,532.0 Q 548.0,490.0 547.0,446.0 L 547.0,407.0 Q 544.0,206.0 533.0,151.0 Q 509.0,66.0 532.0,15.0 Q 533.0,8.0 538.0,-1.0 Q 545.0,-20.0 553.0,-23.0 Q 560.0,-30.0 568.0,-21.0 Q 575.0,-17.0 586.0,5.0 Q 596.0,30.0 595.0,64.0" fill="black" stroke="#000000"/>
</svg>
