<?xml version="1.0" ?>
<svg baseProfile="full" height="1024" version="1.1" viewBox="0 0 1024 1024" width="1024" xmlns="http://www.w3.org/2000/svg" xmlns:ev="http://www.w3.org/2001/xml-events" xmlns:xlink="http://www.w3.org/1999/xlink">
	<defs/>
	<path d="M 378.0,715.0 Q 335.0,734.0 321.0,731.0 Q 300.0,727.0 318.0,704.0 Q 357.0,647.0 346.0,416.0 Q 346.0,413.0 346.0,407.0 L 341.0,358.0 Q 314.0,181.0 206.0,63.0 Q 151.0,5.0 149.0,0.0 Q 148.0,-7.0 160.0,-6.0 Q 176.0,-5.0 197.0,11.0 Q 252.0,53.0 285.0,93.0 Q 372.0,198.0 391.0,366.0 L 396.0,413.0 Q 405.0,512.0 401.0,647.0 Q 405.0,672.0 406.0,684.0 C 408.0,703.0 406.0,704.0 378.0,715.0" fill="black" stroke="#000000"/>
	<path d="M 587.0,58.0 Q 553.0,65.0 517.0,72.0 Q 495.0,76.0 496.0,67.0 Q 569.0,15.0 610.0,-24.0 Q 625.0,-45.0 642.0,-50.0 Q 652.0,-54.0 661.0,-43.0 Q 706.0,14.0 702.0,73.0 Q 695.0,206.0 690.0,394.0 L 689.0,442.0 Q 685.0,676.0 701.0,705.0 Q 714.0,727.0 701.0,738.0 Q 677.0,759.0 637.0,775.0 Q 618.0,782.0 600.0,774.0 Q 512.0,726.0 378.0,715.0 C 348.0,712.0 377.0,678.0 406.0,684.0 Q 407.0,684.0 589.0,723.0 Q 611.0,730.0 617.0,718.0 Q 626.0,696.0 629.0,659.0 Q 633.0,541.0 634.0,436.0 L 634.0,389.0 Q 634.0,83.0 616.0,59.0 Q 610.0,52.0 587.0,58.0" fill="black" stroke="#000000"/>
	<path d="M 468.0,576.0 Q 498.0,516.0 531.0,492.0 Q 546.0,486.0 559.0,498.0 Q 568.0,510.0 569.0,528.0 Q 568.0,553.0 552.0,572.0 Q 519.0,611.0 472.0,620.0 Q 466.0,621.0 463.0,620.0 Q 456.0,620.0 456.0,607.0 Q 455.0,594.0 468.0,576.0" fill="black" stroke="#000000"/>
	<path d="M 690.0,394.0 Q 780.0,403.0 923.0,387.0 Q 947.0,383.0 953.0,392.0 Q 962.0,405.0 949.0,419.0 Q 876.0,485.0 812.0,463.0 Q 749.0,451.0 689.0,442.0 L 634.0,436.0 Q 417.0,417.0 396.0,413.0 L 346.0,407.0 Q 312.0,406.0 287.0,401.0 Q 212.0,391.0 102.0,390.0 Q 87.0,390.0 86.0,378.0 Q 85.0,365.0 104.0,350.0 Q 149.0,317.0 187.0,329.0 Q 214.0,341.0 341.0,358.0 L 391.0,366.0 Q 424.0,372.0 624.0,390.0 Q 627.0,390.0 634.0,389.0 L 690.0,394.0" fill="black" stroke="#000000"/>
</svg>
