<?xml version="1.0" ?>
<svg baseProfile="full" height="1024" version="1.1" viewBox="0 0 1024 1024" width="1024" xmlns="http://www.w3.org/2000/svg" xmlns:ev="http://www.w3.org/2001/xml-events" xmlns:xlink="http://www.w3.org/1999/xlink">
	<defs/>
	<path d="M 257.0,350.0 Q 282.0,329.0 310.0,305.0 Q 323.0,295.0 336.0,296.0 Q 345.0,297.0 349.0,308.0 Q 353.0,321.0 344.0,347.0 Q 331.0,375.0 251.0,391.0 Q 238.0,392.0 232.0,391.0 Q 228.0,387.0 229.0,376.0 Q 233.0,366.0 257.0,350.0" fill="black" stroke="#000000"/>
	<path d="M 166.0,251.0 Q 205.0,206.0 237.0,191.0 Q 250.0,188.0 259.0,201.0 Q 265.0,213.0 262.0,228.0 Q 253.0,265.0 177.0,287.0 Q 161.0,291.0 153.0,287.0 Q 147.0,286.0 150.0,275.0 Q 151.0,265.0 166.0,251.0" fill="black" stroke="#000000"/>
</svg>
