<?xml version="1.0" ?>
<svg baseProfile="full" height="1024" version="1.1" viewBox="0 0 1024 1024" width="1024" xmlns="http://www.w3.org/2000/svg" xmlns:ev="http://www.w3.org/2001/xml-events" xmlns:xlink="http://www.w3.org/1999/xlink">
	<defs/>
	<path d="M 257.0,350.0 Q 282.0,329.0 310.0,305.0 Q 323.0,295.0 336.0,296.0 Q 345.0,297.0 349.0,308.0 Q 353.0,321.0 344.0,347.0 Q 331.0,375.0 251.0,391.0 Q 238.0,392.0 232.0,391.0 Q 228.0,387.0 229.0,376.0 Q 233.0,366.0 257.0,350.0" fill="black" stroke="#000000"/>
	<path d="M 166.0,251.0 Q 205.0,206.0 237.0,191.0 Q 250.0,188.0 259.0,201.0 Q 265.0,213.0 262.0,228.0 Q 253.0,265.0 177.0,287.0 Q 161.0,291.0 153.0,287.0 Q 147.0,286.0 150.0,275.0 Q 151.0,265.0 166.0,251.0" fill="black" stroke="#000000"/>
	<path d="M 184.0,55.0 Q 172.0,54.0 172.0,37.0 Q 175.0,-33.0 203.0,-56.0 Q 207.0,-63.0 218.0,-62.0 Q 225.0,-61.0 230.0,-39.0 Q 237.0,-6.0 333.0,171.0 Q 342.0,184.0 342.0,190.0 Q 342.0,200.0 333.0,195.0 Q 327.0,192.0 217.0,78.0 Q 205.0,65.0 184.0,55.0" fill="black" stroke="#000000"/>
	<path d="M 519.0,345.0 Q 538.0,381.0 555.0,409.0 Q 564.0,421.0 550.0,433.0 Q 508.0,460.0 487.0,455.0 Q 477.0,452.0 481.0,439.0 Q 499.0,363.0 420.0,260.0 Q 401.0,238.0 392.0,223.0 Q 386.0,210.0 399.0,214.0 Q 412.0,217.0 431.0,233.0 Q 480.0,276.0 509.0,326.0 L 519.0,345.0" fill="black" stroke="#000000"/>
</svg>
