<?xml version="1.0" ?>
<svg baseProfile="full" height="1024" version="1.1" viewBox="0 0 1024 1024" width="1024" xmlns="http://www.w3.org/2000/svg" xmlns:ev="http://www.w3.org/2001/xml-events" xmlns:xlink="http://www.w3.org/1999/xlink">
	<defs/>
	<path d="M 312.0,686.0 L 310.0,693.0 Q 298.0,718.0 285.0,727.0 Q 272.0,739.0 267.0,729.0 Q 264.0,724.0 263.0,716.0 Q 267.0,686.0 243.0,649.0 Q 231.0,631.0 210.0,608.0 Q 196.0,592.0 204.0,561.0 Q 207.0,548.0 218.0,525.0 Q 230.0,508.0 242.0,516.0 Q 248.0,518.0 254.0,527.0 Q 264.0,543.0 304.0,651.0 C 314.0,679.0 314.0,679.0 312.0,686.0" fill="black" stroke="#000000"/>
	<path d="M 588.0,697.0 Q 720.0,724.0 766.0,716.0 Q 780.0,710.0 778.0,699.0 Q 778.0,694.0 733.0,611.0 Q 722.0,595.0 729.0,592.0 Q 736.0,588.0 745.0,594.0 Q 751.0,596.0 756.0,600.0 Q 817.0,643.0 868.0,658.0 Q 909.0,669.0 908.0,681.0 Q 906.0,692.0 835.0,745.0 Q 815.0,761.0 763.0,756.0 L 402.0,701.0 Q 347.0,692.0 312.0,686.0 C 282.0,681.0 275.0,657.0 304.0,651.0 Q 318.0,645.0 333.0,647.0 Q 341.0,648.0 345.0,649.0 Q 375.0,659.0 408.0,666.0 L 431.0,670.0 Q 464.0,682.0 542.0,691.0 L 588.0,697.0" fill="black" stroke="#000000"/>
	<path d="M 408.0,666.0 Q 408.0,569.0 276.0,440.0 Q 270.0,435.0 270.0,429.0 Q 269.0,427.0 270.0,426.0 Q 271.0,426.0 274.0,426.0 Q 347.0,445.0 443.0,578.0 Q 456.0,598.0 466.0,609.0 Q 472.0,616.0 470.0,623.0 Q 468.0,627.0 467.0,629.0 Q 447.0,666.0 431.0,670.0 C 409.0,681.0 409.0,681.0 408.0,666.0" fill="black" stroke="#000000"/>
	<path d="M 542.0,691.0 Q 554.0,678.0 554.0,577.0 Q 554.0,474.0 720.0,484.0 Q 735.0,485.0 743.0,486.0 Q 776.0,489.0 788.0,498.0 Q 798.0,506.0 794.0,514.0 Q 794.0,516.0 792.0,518.0 Q 782.0,530.0 752.0,545.0 Q 739.0,550.0 729.0,547.0 L 719.0,543.0 Q 698.0,527.0 666.0,527.0 Q 646.0,527.0 629.0,531.0 Q 621.0,533.0 613.0,538.0 Q 602.0,548.0 598.0,575.0 Q 596.0,606.0 604.0,631.0 Q 607.0,643.0 613.0,654.0 Q 619.0,670.0 607.0,684.0 L 596.0,692.0 L 588.0,697.0 C 563.0,713.0 530.0,718.0 542.0,691.0" fill="black" stroke="#000000"/>
</svg>
