<?xml version="1.0" ?>
<svg baseProfile="full" height="1024" version="1.1" viewBox="0 0 1024 1024" width="1024" xmlns="http://www.w3.org/2000/svg" xmlns:ev="http://www.w3.org/2001/xml-events" xmlns:xlink="http://www.w3.org/1999/xlink">
	<defs/>
	<path d="M 734.0,673.0 Q 700.0,674.0 672.0,676.0 Q 645.0,677.0 660.0,692.0 Q 703.0,755.0 744.0,801.0 Q 754.0,814.0 753.0,820.0 Q 752.0,830.0 723.0,856.0 Q 711.0,866.0 697.0,864.0 Q 688.0,863.0 693.0,850.0 Q 702.0,820.0 646.0,726.0 Q 634.0,704.0 610.0,685.0 Q 597.0,675.0 597.0,665.0 Q 598.0,650.0 610.0,637.0 Q 617.0,628.0 627.0,633.0 Q 645.0,643.0 722.0,654.0 C 752.0,658.0 764.0,672.0 734.0,673.0" fill="black" stroke="#000000"/>
</svg>
