<?xml version="1.0" ?>
<svg baseProfile="full" height="1024" version="1.1" viewBox="0 0 1024 1024" width="1024" xmlns="http://www.w3.org/2000/svg" xmlns:ev="http://www.w3.org/2001/xml-events" xmlns:xlink="http://www.w3.org/1999/xlink">
	<defs/>
	<path d="M 277.0,631.0 Q 240.0,628.0 208.0,626.0 Q 184.0,625.0 196.0,640.0 Q 238.0,713.0 279.0,768.0 Q 291.0,781.0 288.0,788.0 Q 287.0,800.0 254.0,824.0 Q 241.0,834.0 225.0,831.0 Q 216.0,828.0 222.0,816.0 Q 240.0,774.0 167.0,654.0 Q 157.0,642.0 144.0,629.0 Q 129.0,616.0 131.0,607.0 Q 135.0,592.0 148.0,578.0 Q 157.0,569.0 166.0,576.0 Q 200.0,600.0 263.0,610.0 C 293.0,615.0 307.0,633.0 277.0,631.0" fill="black" stroke="#000000"/>
</svg>
