<?xml version="1.0" ?>
<svg baseProfile="full" height="1024" version="1.1" viewBox="0 0 1024 1024" width="1024" xmlns="http://www.w3.org/2000/svg" xmlns:ev="http://www.w3.org/2001/xml-events" xmlns:xlink="http://www.w3.org/1999/xlink">
	<defs/>
	<path d="M 324.0,704.0 Q 349.0,673.0 378.0,635.0 Q 390.0,619.0 406.0,617.0 Q 416.0,616.0 425.0,629.0 Q 432.0,644.0 428.0,676.0 Q 422.0,715.0 327.0,754.0 Q 311.0,761.0 304.0,759.0 Q 298.0,756.0 298.0,742.0 Q 299.0,730.0 324.0,704.0" fill="black" stroke="#000000"/>
	<path d="M 460.0,496.0 Q 367.0,331.0 357.0,314.0 Q 353.0,311.0 350.0,305.0 Q 263.0,187.0 115.0,58.0 Q 108.0,54.0 104.0,47.0 Q 98.0,37.0 110.0,35.0 Q 143.0,32.0 266.0,135.0 Q 308.0,172.0 349.0,220.0 Q 449.0,341.0 527.0,509.0 L 542.0,542.0 Q 558.0,582.0 574.0,622.0 Q 614.0,725.0 630.0,751.0 Q 643.0,764.0 639.0,780.0 Q 627.0,804.0 598.0,828.0 Q 580.0,846.0 565.0,844.0 Q 550.0,840.0 553.0,823.0 Q 563.0,786.0 552.0,735.0 Q 540.0,704.0 528.0,664.0 Q 503.0,594.0 475.0,530.0 L 460.0,496.0" fill="black" stroke="#000000"/>
	<path d="M 475.0,530.0 Q 459.0,529.0 443.0,525.0 Q 298.0,504.0 216.0,507.0 Q 194.0,510.0 192.0,497.0 Q 191.0,485.0 216.0,468.0 Q 247.0,446.0 277.0,454.0 Q 368.0,479.0 460.0,496.0 L 527.0,509.0 Q 612.0,525.0 699.0,534.0 Q 727.0,535.0 733.0,521.0 Q 742.0,502.0 738.0,454.0 Q 725.0,276.0 692.0,181.0 Q 674.0,121.0 655.0,103.0 Q 642.0,88.0 613.0,96.0 Q 571.0,109.0 533.0,121.0 Q 508.0,128.0 526.0,105.0 Q 581.0,50.0 612.0,6.0 Q 624.0,-19.0 648.0,-11.0 Q 670.0,-7.0 696.0,23.0 Q 772.0,101.0 798.0,406.0 Q 804.0,473.0 829.0,514.0 Q 848.0,539.0 838.0,551.0 Q 819.0,573.0 778.0,591.0 Q 748.0,606.0 717.0,591.0 Q 641.0,563.0 542.0,542.0 L 475.0,530.0" fill="black" stroke="#000000"/>
	<path d="M 496.0,321.0 Q 524.0,291.0 554.0,256.0 Q 564.0,243.0 580.0,242.0 Q 590.0,241.0 597.0,253.0 Q 603.0,266.0 598.0,296.0 Q 591.0,332.0 497.0,368.0 Q 482.0,372.0 476.0,371.0 Q 472.0,368.0 471.0,355.0 Q 472.0,345.0 496.0,321.0" fill="black" stroke="#000000"/>
</svg>
