<?xml version="1.0" ?>
<svg baseProfile="full" height="1024" version="1.1" viewBox="0 0 1024 1024" width="1024" xmlns="http://www.w3.org/2000/svg" xmlns:ev="http://www.w3.org/2001/xml-events" xmlns:xlink="http://www.w3.org/1999/xlink">
	<defs/>
	<path d="M 98.0,106.0 Q 81.0,106.0 80.0,94.0 Q 80.0,93.0 80.0,91.0 Q 82.0,73.0 109.0,57.0 Q 149.0,31.0 196.0,42.0 Q 314.0,82.0 670.0,100.0 Q 749.0,104.0 827.0,98.0 L 924.0,86.0 Q 961.0,82.0 967.0,91.0 Q 978.0,106.0 963.0,121.0 Q 929.0,153.0 882.0,175.0 Q 866.0,182.0 837.0,173.0 Q 798.0,165.0 515.0,137.0 L 458.0,132.0 Q 382.0,127.0 267.0,115.0 Q 167.0,104.0 98.0,106.0" fill="black" stroke="#000000"/>
</svg>
