<?xml version="1.0" ?>
<svg baseProfile="full" height="1024" version="1.1" viewBox="0 0 1024 1024" width="1024" xmlns="http://www.w3.org/2000/svg" xmlns:ev="http://www.w3.org/2001/xml-events" xmlns:xlink="http://www.w3.org/1999/xlink">
	<defs/>
	<path d="M 670.0,645.0 Q 763.0,655.0 907.0,643.0 Q 932.0,640.0 938.0,649.0 Q 947.0,662.0 934.0,675.0 Q 903.0,703.0 857.0,724.0 Q 842.0,731.0 815.0,722.0 Q 752.0,707.0 555.0,683.0 Q 444.0,674.0 315.0,654.0 Q 248.0,644.0 145.0,642.0 Q 130.0,642.0 129.0,630.0 Q 129.0,617.0 148.0,602.0 Q 187.0,572.0 237.0,584.0 Q 294.0,600.0 344.0,606.0 L 396.0,616.0 Q 481.0,631.0 616.0,640.0 L 670.0,645.0" fill="black" stroke="#000000"/>
</svg>
