<?xml version="1.0" ?>
<svg baseProfile="full" height="1024" version="1.1" viewBox="0 0 1024 1024" width="1024" xmlns="http://www.w3.org/2000/svg" xmlns:ev="http://www.w3.org/2001/xml-events" xmlns:xlink="http://www.w3.org/1999/xlink">
	<defs/>
	<path d="M 249.0,651.0 Q 277.0,675.0 354.0,752.0 Q 369.0,770.0 390.0,783.0 Q 408.0,796.0 395.0,810.0 Q 380.0,823.0 354.0,833.0 Q 329.0,842.0 318.0,838.0 Q 306.0,834.0 313.0,822.0 Q 320.0,800.0 239.0,663.0 Q 238.0,662.0 236.0,658.0 C 221.0,632.0 226.0,631.0 249.0,651.0" fill="black" stroke="#000000"/>
	<path d="M 225.0,313.0 Q 238.0,376.0 244.0,408.0 L 247.0,431.0 Q 251.0,473.0 253.0,513.0 L 255.0,540.0 Q 258.0,604.0 261.0,613.0 C 265.0,640.0 265.0,640.0 257.0,645.0 Q 253.0,649.0 249.0,651.0 L 236.0,658.0 Q 199.0,676.0 187.0,670.0 Q 177.0,663.0 183.0,651.0 Q 202.0,627.0 203.0,562.0 Q 203.0,394.0 173.0,283.0 Q 146.0,199.0 81.0,77.0 Q 77.0,70.0 75.0,65.0 Q 74.0,55.0 83.0,57.0 Q 114.0,64.0 178.0,181.0 Q 187.0,202.0 198.0,226.0 Q 208.0,256.0 218.0,288.0 L 225.0,313.0" fill="black" stroke="#000000"/>
	<path d="M 376.0,431.0 Q 391.0,409.0 405.0,402.0 Q 415.0,395.0 428.0,414.0 Q 441.0,439.0 470.0,580.0 Q 477.0,608.0 497.0,630.0 Q 507.0,640.0 497.0,653.0 Q 484.0,668.0 446.0,689.0 Q 437.0,692.0 285.0,655.0 Q 270.0,651.0 257.0,645.0 C 229.0,634.0 235.0,599.0 261.0,613.0 Q 271.0,625.0 391.0,649.0 Q 409.0,653.0 415.0,647.0 Q 428.0,632.0 425.0,616.0 Q 400.0,469.0 383.0,456.0 C 371.0,437.0 371.0,437.0 376.0,431.0" fill="black" stroke="#000000"/>
	<path d="M 253.0,513.0 Q 313.0,526.0 358.0,535.0 Q 377.0,539.0 369.0,550.0 Q 359.0,560.0 338.0,563.0 Q 311.0,566.0 255.0,540.0 C 228.0,527.0 224.0,507.0 253.0,513.0" fill="black" stroke="#000000"/>
	<path d="M 244.0,408.0 Q 248.0,408.0 256.0,409.0 Q 322.0,422.0 376.0,431.0 C 406.0,436.0 411.0,445.0 383.0,456.0 Q 377.0,459.0 369.0,460.0 Q 348.0,461.0 247.0,431.0 C 218.0,422.0 214.0,407.0 244.0,408.0" fill="black" stroke="#000000"/>
	<path d="M 218.0,288.0 Q 219.0,288.0 220.0,288.0 Q 238.0,276.0 266.0,285.0 Q 368.0,319.0 373.0,309.0 Q 382.0,296.0 376.0,260.0 Q 363.0,164.0 339.0,122.0 Q 323.0,97.0 301.0,101.0 Q 277.0,110.0 257.0,120.0 Q 236.0,129.0 250.0,107.0 Q 287.0,65.0 305.0,34.0 Q 321.0,15.0 339.0,30.0 Q 390.0,67.0 415.0,184.0 Q 430.0,289.0 447.0,308.0 Q 457.0,318.0 452.0,328.0 Q 445.0,338.0 399.0,357.0 Q 386.0,363.0 342.0,343.0 Q 284.0,328.0 225.0,313.0 C 196.0,306.0 190.0,298.0 218.0,288.0" fill="black" stroke="#000000"/>
</svg>
