<?xml version="1.0" ?>
<svg baseProfile="full" height="1024" version="1.1" viewBox="0 0 1024 1024" width="1024" xmlns="http://www.w3.org/2000/svg" xmlns:ev="http://www.w3.org/2001/xml-events" xmlns:xlink="http://www.w3.org/1999/xlink">
	<defs/>
	<path d="M 376.0,431.0 Q 391.0,409.0 405.0,402.0 Q 415.0,395.0 428.0,414.0 Q 441.0,439.0 470.0,580.0 Q 477.0,608.0 497.0,630.0 Q 507.0,640.0 497.0,653.0 Q 484.0,668.0 446.0,689.0 Q 437.0,692.0 285.0,655.0 Q 270.0,651.0 257.0,645.0 C 229.0,634.0 235.0,599.0 261.0,613.0 Q 271.0,625.0 391.0,649.0 Q 409.0,653.0 415.0,647.0 Q 428.0,632.0 425.0,616.0 Q 400.0,469.0 383.0,456.0 C 371.0,437.0 371.0,437.0 376.0,431.0" fill="black" stroke="#000000"/>
</svg>
