<?xml version="1.0" ?>
<svg baseProfile="full" height="1024" version="1.1" viewBox="0 0 1024 1024" width="1024" xmlns="http://www.w3.org/2000/svg" xmlns:ev="http://www.w3.org/2001/xml-events" xmlns:xlink="http://www.w3.org/1999/xlink">
	<defs/>
	<path d="M 218.0,288.0 Q 219.0,288.0 220.0,288.0 Q 238.0,276.0 266.0,285.0 Q 368.0,319.0 373.0,309.0 Q 382.0,296.0 376.0,260.0 Q 363.0,164.0 339.0,122.0 Q 323.0,97.0 301.0,101.0 Q 277.0,110.0 257.0,120.0 Q 236.0,129.0 250.0,107.0 Q 287.0,65.0 305.0,34.0 Q 321.0,15.0 339.0,30.0 Q 390.0,67.0 415.0,184.0 Q 430.0,289.0 447.0,308.0 Q 457.0,318.0 452.0,328.0 Q 445.0,338.0 399.0,357.0 Q 386.0,363.0 342.0,343.0 Q 284.0,328.0 225.0,313.0 C 196.0,306.0 190.0,298.0 218.0,288.0" fill="black" stroke="#000000"/>
</svg>
