<?xml version="1.0" ?>
<svg baseProfile="full" height="1024" version="1.1" viewBox="0 0 1024 1024" width="1024" xmlns="http://www.w3.org/2000/svg" xmlns:ev="http://www.w3.org/2001/xml-events" xmlns:xlink="http://www.w3.org/1999/xlink">
	<defs/>
	<path d="M 585.0,690.0 Q 604.0,696.0 788.0,710.0 Q 800.0,709.0 811.0,722.0 Q 812.0,735.0 788.0,748.0 Q 746.0,773.0 687.0,757.0 Q 488.0,718.0 235.0,696.0 Q 201.0,695.0 226.0,673.0 Q 265.0,643.0 292.0,647.0 Q 406.0,666.0 547.0,686.0 L 585.0,690.0" fill="black" stroke="#000000"/>
	<path d="M 547.0,686.0 Q 547.0,685.0 548.0,683.0 Q 549.0,641.0 500.0,567.0 L 464.0,517.0 Q 454.0,507.0 443.0,493.0 Q 349.0,382.0 111.0,236.0 Q 101.0,232.0 112.0,227.0 Q 185.0,227.0 349.0,341.0 Q 391.0,377.0 467.0,447.0 L 520.0,504.0 Q 601.0,603.0 624.0,622.0 Q 633.0,626.0 633.0,637.0 Q 633.0,647.0 621.0,662.0 Q 599.0,689.0 585.0,690.0 C 558.0,704.0 548.0,709.0 547.0,686.0" fill="black" stroke="#000000"/>
	<path d="M 500.0,567.0 Q 470.0,597.0 457.0,603.0 Q 447.0,604.0 443.0,598.0 Q 436.0,580.0 451.0,554.0 Q 461.0,535.0 464.0,517.0 L 467.0,447.0 Q 467.0,369.0 450.0,287.0 Q 446.0,268.0 454.0,234.0 Q 466.0,200.0 477.0,188.0 Q 495.0,172.0 507.0,199.0 Q 522.0,239.0 521.0,286.0 Q 517.0,458.0 520.0,504.0 C 521.0,534.0 521.0,546.0 500.0,567.0" fill="black" stroke="#000000"/>
</svg>
