<?xml version="1.0" ?>
<svg baseProfile="full" height="1024" version="1.1" viewBox="0 0 1024 1024" width="1024" xmlns="http://www.w3.org/2000/svg" xmlns:ev="http://www.w3.org/2001/xml-events" xmlns:xlink="http://www.w3.org/1999/xlink">
	<defs/>
	<path d="M 518.0,382.0 Q 572.0,385.0 623.0,389.0 Q 758.0,399.0 900.0,383.0 Q 928.0,379.0 935.0,390.0 Q 944.0,405.0 930.0,419.0 Q 896.0,452.0 845.0,475.0 Q 829.0,482.0 798.0,473.0 Q 723.0,460.0 480.0,434.0 Q 180.0,409.0 137.0,408.0 Q 130.0,408.0 124.0,408.0 Q 108.0,408.0 106.0,395.0 Q 105.0,380.0 127.0,363.0 Q 146.0,348.0 183.0,334.0 Q 195.0,330.0 216.0,338.0 Q 232.0,344.0 306.0,354.0 Q 400.0,373.0 518.0,382.0" fill="black" stroke="#000000"/>
</svg>
