<?xml version="1.0" ?>
<svg baseProfile="full" height="1024" version="1.1" viewBox="0 0 1024 1024" width="1024" xmlns="http://www.w3.org/2000/svg" xmlns:ev="http://www.w3.org/2001/xml-events" xmlns:xlink="http://www.w3.org/1999/xlink">
	<defs/>
	<path d="M 552.0,521.0 Q 618.0,534.0 689.0,547.0 Q 770.0,565.0 782.0,576.0 Q 792.0,585.0 787.0,594.0 Q 780.0,607.0 747.0,617.0 Q 713.0,624.0 678.0,612.0 Q 617.0,593.0 556.0,574.0 L 502.0,560.0 Q 493.0,559.0 486.0,557.0 Q 374.0,532.0 244.0,521.0 Q 202.0,515.0 232.0,496.0 Q 280.0,469.0 342.0,481.0 Q 418.0,496.0 500.0,511.0 L 552.0,521.0" fill="black" stroke="#000000"/>
	<path d="M 509.0,230.0 Q 536.0,300.0 542.0,396.0 Q 546.0,460.0 552.0,521.0 L 556.0,574.0 Q 557.0,688.0 590.0,759.0 Q 597.0,775.0 586.0,788.0 Q 561.0,810.0 517.0,823.0 Q 489.0,830.0 478.0,824.0 Q 468.0,817.0 476.0,802.0 Q 501.0,759.0 503.0,706.0 Q 504.0,633.0 502.0,560.0 L 500.0,511.0 Q 488.0,340.0 467.0,270.0 L 450.0,228.0 Q 425.0,174.0 376.0,137.0 Q 306.0,82.0 154.0,34.0 Q 139.0,30.0 138.0,24.0 Q 138.0,20.0 151.0,17.0 Q 176.0,11.0 235.0,25.0 Q 337.0,44.0 409.0,100.0 Q 457.0,137.0 487.0,185.0 L 509.0,230.0" fill="black" stroke="#000000"/>
</svg>
