<?xml version="1.0" ?>
<svg baseProfile="full" height="1024" version="1.1" viewBox="0 0 1024 1024" width="1024" xmlns="http://www.w3.org/2000/svg" xmlns:ev="http://www.w3.org/2001/xml-events" xmlns:xlink="http://www.w3.org/1999/xlink">
	<defs/>
	<path d="M 408.0,234.0 Q 408.0,286.0 409.0,339.0 L 409.0,373.0 Q 410.0,448.0 415.0,479.0 C 418.0,504.0 418.0,504.0 408.0,512.0 Q 386.0,534.0 350.0,544.0 Q 340.0,545.0 334.0,537.0 Q 330.0,531.0 338.0,520.0 Q 362.0,462.0 363.0,405.0 Q 372.0,168.0 337.0,53.0 Q 328.0,25.0 334.0,5.0 Q 344.0,-29.0 356.0,-43.0 Q 368.0,-58.0 378.0,-43.0 Q 393.0,-25.0 401.0,27.0 L 406.0,66.0 Q 407.0,99.0 408.0,204.0 L 408.0,234.0" fill="black" stroke="#000000"/>
</svg>
