<?xml version="1.0" ?>
<svg baseProfile="full" height="1024" version="1.1" viewBox="0 0 1024 1024" width="1024" xmlns="http://www.w3.org/2000/svg" xmlns:ev="http://www.w3.org/2001/xml-events" xmlns:xlink="http://www.w3.org/1999/xlink">
	<defs/>
	<path d="M 679.0,797.0 Q 680.0,800.0 768.0,810.0 Q 778.0,809.0 785.0,820.0 Q 786.0,830.0 766.0,840.0 Q 730.0,858.0 656.0,833.0 Q 641.0,830.0 628.0,826.0 Q 562.0,811.0 463.0,798.0 Q 438.0,794.0 458.0,779.0 Q 488.0,758.0 511.0,762.0 L 551.0,771.0 Q 590.0,781.0 638.0,789.0 L 679.0,797.0" fill="black" stroke="#000000"/>
	<path d="M 441.0,676.0 Q 431.0,680.0 398.0,682.0 Q 388.0,683.0 385.0,679.0 Q 379.0,672.0 389.0,659.0 Q 417.0,619.0 440.0,547.0 Q 446.0,525.0 460.0,512.0 Q 479.0,496.0 481.0,510.0 Q 482.0,514.0 482.0,517.0 L 480.0,541.0 Q 479.0,548.0 477.0,557.0 Q 461.0,615.0 454.0,642.0 C 446.0,671.0 445.0,675.0 441.0,676.0" fill="black" stroke="#000000"/>
</svg>
