<?xml version="1.0" ?>
<svg baseProfile="full" height="1024" version="1.1" viewBox="0 0 1024 1024" width="1024" xmlns="http://www.w3.org/2000/svg" xmlns:ev="http://www.w3.org/2001/xml-events" xmlns:xlink="http://www.w3.org/1999/xlink">
	<defs/>
	<path d="M 571.0,760.0 Q 605.0,738.0 642.0,710.0 Q 657.0,700.0 671.0,701.0 Q 681.0,702.0 685.0,716.0 Q 688.0,731.0 676.0,758.0 Q 661.0,792.0 560.0,805.0 Q 545.0,806.0 540.0,803.0 Q 536.0,799.0 538.0,787.0 Q 542.0,777.0 571.0,760.0" fill="black" stroke="#000000"/>
	<path d="M 594.0,595.0 Q 792.0,640.0 799.0,645.0 Q 808.0,652.0 803.0,661.0 Q 796.0,671.0 768.0,679.0 Q 744.0,683.0 634.0,649.0 Q 508.0,625.0 473.0,620.0 Q 437.0,614.0 463.0,598.0 Q 502.0,577.0 558.0,588.0 L 594.0,595.0" fill="black" stroke="#000000"/>
</svg>
