<?xml version="1.0" ?>
<svg baseProfile="full" height="1024" version="1.1" viewBox="0 0 1024 1024" width="1024" xmlns="http://www.w3.org/2000/svg" xmlns:ev="http://www.w3.org/2001/xml-events" xmlns:xlink="http://www.w3.org/1999/xlink">
	<defs/>
	<path d="M 737.0,488.0 Q 809.0,509.0 829.0,504.0 Q 833.0,504.0 836.0,501.0 Q 848.0,491.0 845.0,394.0 Q 845.0,381.0 845.0,374.0 Q 845.0,343.0 835.0,329.0 Q 802.0,329.0 774.0,330.0 Q 772.0,327.0 775.0,322.0 Q 776.0,321.0 782.0,316.0 Q 817.0,280.0 837.0,252.0 Q 848.0,242.0 860.0,245.0 Q 864.0,245.0 866.0,246.0 Q 876.0,250.0 885.0,274.0 Q 902.0,310.0 901.0,355.0 Q 900.0,357.0 900.0,361.0 Q 896.0,427.0 898.0,468.0 Q 899.0,486.0 902.0,499.0 Q 907.0,508.0 906.0,514.0 Q 906.0,515.0 902.0,519.0 Q 884.0,531.0 855.0,543.0 Q 838.0,551.0 825.0,543.0 Q 796.0,527.0 741.0,517.0 Q 739.0,517.0 737.0,515.0 L 692.0,506.0 L 615.0,493.0 C 585.0,488.0 595.0,455.0 624.0,463.0 Q 630.0,466.0 692.0,478.0 L 737.0,488.0" fill="black" stroke="#000000"/>
</svg>
