<?xml version="1.0" ?>
<svg baseProfile="full" height="1024" version="1.1" viewBox="0 0 1024 1024" width="1024" xmlns="http://www.w3.org/2000/svg" xmlns:ev="http://www.w3.org/2001/xml-events" xmlns:xlink="http://www.w3.org/1999/xlink">
	<defs/>
	<path d="M 692.0,478.0 Q 692.0,137.0 702.0,119.0 Q 703.0,115.0 706.0,110.0 Q 709.0,106.0 713.0,106.0 L 716.0,108.0 Q 723.0,110.0 727.0,123.0 Q 737.0,151.0 737.0,363.0 Q 736.0,412.0 737.0,488.0 L 737.0,515.0 Q 737.0,568.0 747.0,613.0 Q 747.0,623.0 743.0,630.0 Q 741.0,633.0 737.0,636.0 Q 708.0,655.0 696.0,657.0 Q 690.0,659.0 682.0,657.0 L 672.0,653.0 Q 667.0,647.0 668.0,642.0 Q 670.0,639.0 671.0,637.0 Q 690.0,605.0 692.0,536.0 Q 692.0,535.0 692.0,506.0 L 692.0,478.0" fill="black" stroke="#000000"/>
</svg>
