<?xml version="1.0" ?>
<svg baseProfile="full" height="1024" version="1.1" viewBox="0 0 1024 1024" width="1024" xmlns="http://www.w3.org/2000/svg" xmlns:ev="http://www.w3.org/2001/xml-events" xmlns:xlink="http://www.w3.org/1999/xlink">
	<defs/>
	<path d="M 527.0,696.0 Q 516.0,705.0 496.0,714.0 Q 480.0,723.0 472.0,721.0 Q 463.0,718.0 464.0,706.0 Q 465.0,700.0 466.0,696.0 Q 486.0,661.0 486.0,595.0 Q 492.0,437.0 484.0,279.0 Q 480.0,204.0 474.0,130.0 Q 469.0,90.0 445.0,55.0 Q 438.0,42.0 441.0,27.0 Q 441.0,22.0 443.0,18.0 Q 451.0,-5.0 462.0,-14.0 Q 472.0,-24.0 490.0,-10.0 Q 549.0,25.0 633.0,40.0 Q 720.0,53.0 864.0,49.0 Q 890.0,49.0 918.0,48.0 Q 935.0,47.0 941.0,53.0 Q 945.0,55.0 945.0,59.0 Q 945.0,74.0 916.0,96.0 Q 904.0,106.0 848.0,102.0 L 786.0,94.0 L 778.0,93.0 Q 593.0,80.0 553.0,73.0 Q 531.0,69.0 527.0,91.0 Q 524.0,103.0 527.0,122.0 Q 533.0,322.0 537.0,572.0 Q 537.0,627.0 544.0,663.0 C 547.0,684.0 547.0,684.0 527.0,696.0" fill="black" stroke="#000000"/>
</svg>
