<?xml version="1.0" ?>
<svg baseProfile="full" height="1024" version="1.1" viewBox="0 0 1024 1024" width="1024" xmlns="http://www.w3.org/2000/svg" xmlns:ev="http://www.w3.org/2001/xml-events" xmlns:xlink="http://www.w3.org/1999/xlink">
	<defs/>
	<path d="M 321.0,674.0 Q 311.0,680.0 271.0,683.0 Q 258.0,684.0 255.0,679.0 Q 249.0,672.0 260.0,656.0 Q 291.0,610.0 316.0,529.0 Q 322.0,505.0 338.0,490.0 Q 359.0,469.0 363.0,486.0 Q 364.0,492.0 364.0,500.0 L 359.0,537.0 Q 341.0,609.0 335.0,638.0 C 329.0,667.0 328.0,671.0 321.0,674.0" fill="black" stroke="#000000"/>
	<path d="M 710.0,569.0 Q 743.0,632.0 773.0,649.0 Q 795.0,670.0 769.0,689.0 Q 747.0,710.0 722.0,727.0 Q 709.0,739.0 638.0,719.0 Q 613.0,718.0 547.0,706.0 L 486.0,697.0 Q 449.0,693.0 412.0,686.0 Q 360.0,679.0 321.0,674.0 C 291.0,670.0 306.0,631.0 335.0,638.0 Q 336.0,639.0 339.0,639.0 Q 418.0,658.0 462.0,663.0 Q 472.0,664.0 487.0,666.0 L 545.0,673.0 Q 599.0,680.0 669.0,684.0 Q 685.0,685.0 690.0,678.0 Q 696.0,660.0 659.0,578.0 C 647.0,551.0 696.0,543.0 710.0,569.0" fill="black" stroke="#000000"/>
	<path d="M 543.0,520.0 Q 619.0,527.0 721.0,532.0 Q 733.0,533.0 734.0,542.0 Q 735.0,549.0 710.0,569.0 C 695.0,582.0 689.0,581.0 659.0,578.0 Q 656.0,579.0 654.0,578.0 Q 596.0,568.0 543.0,558.0 L 487.0,549.0 Q 420.0,542.0 359.0,537.0 C 329.0,535.0 334.0,499.0 364.0,500.0 Q 368.0,500.0 374.0,500.0 Q 419.0,509.0 487.0,515.0 L 543.0,520.0" fill="black" stroke="#000000"/>
</svg>
