<?xml version="1.0" ?>
<svg baseProfile="full" height="1024" version="1.1" viewBox="0 0 1024 1024" width="1024" xmlns="http://www.w3.org/2000/svg" xmlns:ev="http://www.w3.org/2001/xml-events" xmlns:xlink="http://www.w3.org/1999/xlink">
	<defs/>
	<path d="M 654.0,759.0 Q 611.0,711.0 511.0,650.0 Q 508.0,643.0 513.0,640.0 Q 541.0,640.0 662.0,706.0 Q 692.0,728.0 744.0,746.0 Q 757.0,747.0 760.0,755.0 Q 761.0,765.0 751.0,773.0 Q 696.0,803.0 668.0,795.0 Q 662.0,791.0 663.0,782.0 Q 664.0,769.0 654.0,759.0" fill="black" stroke="#000000"/>
	<path d="M 498.0,567.0 Q 517.0,548.0 538.0,526.0 Q 548.0,516.0 561.0,515.0 Q 568.0,515.0 573.0,525.0 Q 577.0,535.0 572.0,559.0 Q 565.0,586.0 497.0,605.0 Q 485.0,608.0 480.0,606.0 Q 476.0,605.0 476.0,594.0 Q 479.0,585.0 498.0,567.0" fill="black" stroke="#000000"/>
	<path d="M 612.0,616.0 Q 646.0,559.0 668.0,555.0 Q 678.0,554.0 686.0,567.0 Q 687.0,577.0 682.0,596.0 Q 676.0,609.0 658.0,618.0 Q 630.0,634.0 618.0,638.0 Q 611.0,641.0 609.0,631.0 Q 608.0,624.0 612.0,616.0" fill="black" stroke="#000000"/>
	<path d="M 781.0,638.0 Q 754.0,589.0 698.0,513.0 Q 694.0,506.0 699.0,499.0 Q 706.0,498.0 714.0,503.0 Q 811.0,590.0 858.0,623.0 Q 876.0,630.0 871.0,641.0 Q 864.0,657.0 842.0,674.0 Q 820.0,690.0 797.0,691.0 Q 782.0,690.0 785.0,669.0 Q 789.0,656.0 781.0,638.0" fill="black" stroke="#000000"/>
	<path d="M 573.0,425.0 Q 580.0,435.0 589.0,445.0 Q 596.0,454.0 586.0,465.0 Q 553.0,492.0 535.0,489.0 Q 528.0,488.0 528.0,476.0 Q 537.0,421.0 478.0,354.0 Q 465.0,338.0 457.0,329.0 Q 450.0,319.0 462.0,321.0 Q 472.0,322.0 486.0,332.0 Q 531.0,362.0 557.0,402.0 Q 558.0,406.0 561.0,409.0 L 573.0,425.0" fill="black" stroke="#000000"/>
	<path d="M 673.0,400.0 Q 808.0,431.0 811.0,434.0 Q 820.0,441.0 815.0,449.0 Q 808.0,459.0 782.0,466.0 Q 754.0,470.0 727.0,460.0 Q 694.0,448.0 660.0,440.0 Q 621.0,430.0 576.0,426.0 Q 573.0,426.0 573.0,425.0 C 547.0,420.0 547.0,420.0 561.0,409.0 Q 582.0,388.0 634.0,392.0 L 673.0,400.0" fill="black" stroke="#000000"/>
	<path d="M 698.0,276.0 Q 765.0,286.0 865.0,289.0 Q 913.0,289.0 920.0,298.0 Q 924.0,308.0 910.0,320.0 Q 859.0,353.0 802.0,335.0 Q 757.0,326.0 699.0,313.0 L 647.0,303.0 Q 562.0,288.0 466.0,272.0 Q 448.0,269.0 462.0,255.0 Q 475.0,243.0 490.0,240.0 Q 508.0,236.0 522.0,240.0 Q 579.0,259.0 648.0,268.0 L 698.0,276.0" fill="black" stroke="#000000"/>
	<path d="M 689.0,127.0 Q 693.0,209.0 698.0,276.0 L 699.0,313.0 Q 702.0,373.0 703.0,374.0 Q 702.0,377.0 701.0,377.0 Q 688.0,390.0 673.0,400.0 C 648.0,417.0 622.0,420.0 634.0,392.0 Q 646.0,371.0 647.0,303.0 L 648.0,268.0 Q 648.0,214.0 648.0,118.0 C 648.0,88.0 688.0,97.0 689.0,127.0" fill="black" stroke="#000000"/>
	<path d="M 828.0,150.0 Q 753.0,141.0 689.0,127.0 L 648.0,118.0 Q 596.0,108.0 551.0,93.0 Q 535.0,90.0 540.0,108.0 Q 553.0,162.0 544.0,178.0 Q 531.0,194.0 510.0,208.0 Q 500.0,215.0 491.0,213.0 Q 481.0,209.0 487.0,192.0 Q 500.0,158.0 493.0,124.0 Q 487.0,93.0 473.0,78.0 Q 457.0,62.0 463.0,50.0 Q 473.0,35.0 488.0,25.0 Q 501.0,18.0 510.0,25.0 Q 540.0,59.0 753.0,107.0 Q 805.0,119.0 822.0,112.0 Q 823.0,113.0 826.0,113.0 C 856.0,110.0 858.0,154.0 828.0,150.0" fill="black" stroke="#000000"/>
	<path d="M 826.0,113.0 Q 817.0,71.0 841.0,36.0 Q 850.0,24.0 858.0,35.0 Q 876.0,54.0 870.0,125.0 Q 873.0,194.0 879.0,211.0 Q 883.0,224.0 874.0,234.0 Q 858.0,244.0 830.0,256.0 Q 820.0,260.0 810.0,254.0 Q 804.0,250.0 807.0,240.0 Q 822.0,225.0 828.0,150.0 L 826.0,113.0" fill="black" stroke="#000000"/>
</svg>
