<?xml version="1.0" ?>
<svg baseProfile="full" height="1024" version="1.1" viewBox="0 0 1024 1024" width="1024" xmlns="http://www.w3.org/2000/svg" xmlns:ev="http://www.w3.org/2001/xml-events" xmlns:xlink="http://www.w3.org/1999/xlink">
	<defs/>
	<path d="M 587.0,638.0 Q 562.0,639.0 542.0,638.0 Q 517.0,637.0 529.0,653.0 Q 559.0,711.0 588.0,755.0 Q 597.0,768.0 594.0,773.0 Q 593.0,783.0 563.0,801.0 Q 551.0,810.0 539.0,806.0 Q 532.0,803.0 536.0,793.0 Q 554.0,766.0 501.0,658.0 Q 494.0,651.0 485.0,640.0 Q 473.0,630.0 475.0,621.0 Q 479.0,609.0 489.0,597.0 Q 496.0,590.0 505.0,596.0 Q 518.0,605.0 563.0,618.0 Q 569.0,619.0 575.0,619.0 C 605.0,621.0 617.0,637.0 587.0,638.0" fill="black" stroke="#000000"/>
	<path d="M 598.0,517.0 Q 576.0,516.0 548.0,510.0 Q 521.0,501.0 539.0,523.0 Q 564.0,562.0 626.0,642.0 Q 645.0,667.0 661.0,683.0 Q 668.0,690.0 665.0,697.0 Q 658.0,710.0 634.0,722.0 Q 624.0,728.0 617.0,726.0 Q 610.0,723.0 612.0,712.0 Q 613.0,691.0 587.0,638.0 L 575.0,619.0 L 575.0,618.0 Q 506.0,513.0 485.0,503.0 Q 476.0,496.0 478.0,487.0 Q 479.0,477.0 497.0,464.0 Q 504.0,457.0 515.0,464.0 Q 548.0,488.0 603.0,505.0 C 632.0,514.0 628.0,519.0 598.0,517.0" fill="black" stroke="#000000"/>
	<path d="M 603.0,505.0 Q 615.0,475.0 627.0,471.0 Q 634.0,467.0 643.0,476.0 Q 647.0,483.0 646.0,498.0 Q 639.0,529.0 600.0,552.0 Q 596.0,555.0 592.0,548.0 Q 588.0,542.0 598.0,517.0 L 603.0,505.0" fill="black" stroke="#000000"/>
	<path d="M 774.0,657.0 Q 744.0,658.0 720.0,657.0 Q 701.0,656.0 711.0,668.0 Q 750.0,728.0 787.0,772.0 Q 797.0,782.0 795.0,788.0 Q 794.0,798.0 769.0,818.0 Q 759.0,827.0 746.0,825.0 Q 739.0,824.0 743.0,813.0 Q 753.0,789.0 702.0,699.0 Q 692.0,680.0 669.0,661.0 Q 656.0,651.0 658.0,644.0 Q 661.0,631.0 670.0,620.0 Q 677.0,613.0 685.0,617.0 Q 700.0,627.0 753.0,640.0 Q 757.0,641.0 764.0,641.0 C 794.0,643.0 804.0,656.0 774.0,657.0" fill="black" stroke="#000000"/>
	<path d="M 793.0,549.0 Q 765.0,548.0 731.0,539.0 Q 709.0,532.0 723.0,550.0 Q 826.0,676.0 856.0,696.0 Q 865.0,703.0 861.0,710.0 Q 854.0,725.0 830.0,739.0 Q 818.0,746.0 812.0,745.0 Q 805.0,742.0 806.0,731.0 Q 806.0,712.0 774.0,657.0 L 764.0,641.0 Q 763.0,641.0 763.0,640.0 Q 688.0,543.0 666.0,533.0 Q 656.0,526.0 658.0,516.0 Q 658.0,506.0 676.0,492.0 Q 683.0,482.0 695.0,491.0 Q 738.0,519.0 801.0,536.0 C 830.0,544.0 823.0,551.0 793.0,549.0" fill="black" stroke="#000000"/>
	<path d="M 801.0,536.0 Q 825.0,500.0 833.0,499.0 Q 840.0,498.0 846.0,505.0 Q 852.0,514.0 851.0,535.0 Q 848.0,554.0 798.0,582.0 Q 789.0,586.0 784.0,586.0 Q 780.0,585.0 779.0,576.0 Q 779.0,569.0 793.0,549.0 L 801.0,536.0" fill="black" stroke="#000000"/>
	<path d="M 729.0,428.0 Q 796.0,441.0 860.0,448.0 Q 879.0,451.0 872.0,462.0 Q 865.0,474.0 843.0,479.0 Q 824.0,483.0 789.0,475.0 Q 605.0,439.0 447.0,414.0 Q 443.0,414.0 441.0,411.0 C 435.0,409.0 435.0,409.0 441.0,405.0 Q 462.0,384.0 511.0,391.0 Q 512.0,392.0 518.0,392.0 L 541.0,396.0 Q 623.0,412.0 702.0,424.0 L 729.0,428.0" fill="black" stroke="#000000"/>
	<path d="M 518.0,392.0 Q 522.0,382.0 521.0,366.0 Q 506.0,314.0 477.0,286.0 Q 462.0,274.0 479.0,250.0 Q 485.0,244.0 492.0,248.0 Q 505.0,255.0 549.0,266.0 Q 550.0,267.0 553.0,266.0 C 583.0,269.0 595.0,281.0 565.0,282.0 Q 543.0,283.0 524.0,282.0 Q 505.0,281.0 514.0,294.0 Q 538.0,330.0 560.0,357.0 Q 567.0,367.0 566.0,371.0 Q 565.0,380.0 541.0,396.0 C 516.0,413.0 511.0,417.0 518.0,392.0" fill="black" stroke="#000000"/>
	<path d="M 553.0,266.0 Q 507.0,199.0 488.0,190.0 Q 479.0,184.0 480.0,176.0 Q 481.0,167.0 498.0,154.0 Q 505.0,147.0 514.0,154.0 Q 545.0,175.0 609.0,197.0 C 637.0,207.0 634.0,213.0 604.0,209.0 Q 576.0,206.0 545.0,198.0 Q 524.0,191.0 538.0,207.0 Q 598.0,291.0 639.0,324.0 Q 646.0,331.0 643.0,337.0 Q 636.0,350.0 615.0,362.0 Q 605.0,368.0 599.0,366.0 Q 592.0,365.0 594.0,354.0 Q 595.0,336.0 565.0,282.0 L 553.0,266.0" fill="black" stroke="#000000"/>
	<path d="M 609.0,197.0 Q 618.0,178.0 628.0,174.0 Q 635.0,171.0 643.0,180.0 Q 646.0,187.0 645.0,200.0 Q 639.0,227.0 603.0,244.0 Q 599.0,247.0 596.0,240.0 Q 593.0,237.0 604.0,209.0 L 609.0,197.0" fill="black" stroke="#000000"/>
	<path d="M 767.0,306.0 Q 737.0,306.0 712.0,304.0 Q 690.0,303.0 701.0,318.0 Q 755.0,399.0 756.0,401.0 Q 755.0,411.0 729.0,428.0 C 704.0,445.0 694.0,452.0 702.0,424.0 Q 706.0,414.0 705.0,395.0 Q 692.0,338.0 659.0,308.0 Q 640.0,290.0 662.0,267.0 Q 669.0,260.0 677.0,265.0 Q 693.0,275.0 749.0,288.0 Q 752.0,289.0 756.0,289.0 C 786.0,294.0 797.0,306.0 767.0,306.0" fill="black" stroke="#000000"/>
</svg>
