<?xml version="1.0" ?>
<svg baseProfile="full" height="1024" version="1.1" viewBox="0 0 1024 1024" width="1024" xmlns="http://www.w3.org/2000/svg" xmlns:ev="http://www.w3.org/2001/xml-events" xmlns:xlink="http://www.w3.org/1999/xlink">
	<defs/>
	<path d="M 545.0,491.0 Q 503.0,453.0 372.0,310.0 Q 368.0,306.0 367.0,304.0 Q 346.0,286.0 346.0,314.0 Q 349.0,525.0 353.0,550.0 Q 357.0,571.0 342.0,582.0 Q 333.0,590.0 306.0,600.0 Q 259.0,616.0 247.0,604.0 Q 245.0,602.0 245.0,600.0 Q 242.0,594.0 255.0,574.0 Q 280.0,535.0 286.0,502.0 Q 290.0,486.0 292.0,453.0 Q 297.0,359.0 282.0,314.0 Q 280.0,270.0 243.0,215.0 Q 226.0,196.0 249.0,159.0 Q 263.0,136.0 276.0,127.0 Q 292.0,118.0 306.0,137.0 Q 363.0,241.0 545.0,461.0 C 564.0,484.0 567.0,512.0 545.0,491.0" fill="black" stroke="#000000"/>
</svg>
