<?xml version="1.0" ?>
<svg baseProfile="full" height="1024" version="1.1" viewBox="0 0 1024 1024" width="1024" xmlns="http://www.w3.org/2000/svg" xmlns:ev="http://www.w3.org/2001/xml-events" xmlns:xlink="http://www.w3.org/1999/xlink">
	<defs/>
	<path d="M 464.0,633.0 Q 464.0,632.0 465.0,630.0 Q 467.0,610.0 479.0,610.0 Q 497.0,613.0 523.0,668.0 Q 539.0,711.0 569.0,733.0 Q 585.0,746.0 572.0,759.0 Q 561.0,771.0 519.0,796.0 Q 508.0,803.0 440.0,788.0 Q 432.0,788.0 195.0,739.0 C 166.0,733.0 179.0,704.0 208.0,710.0 Q 212.0,710.0 217.0,711.0 Q 250.0,722.0 274.0,727.0 L 275.0,727.0 L 291.0,731.0 Q 329.0,742.0 384.0,751.0 L 411.0,755.0 Q 477.0,770.0 495.0,760.0 Q 503.0,757.0 491.0,712.0 Q 477.0,663.0 466.0,647.0 C 462.0,640.0 462.0,640.0 464.0,633.0" fill="black" stroke="#000000"/>
</svg>
