<?xml version="1.0" ?>
<svg baseProfile="full" height="1024" version="1.1" viewBox="0 0 1024 1024" width="1024" xmlns="http://www.w3.org/2000/svg" xmlns:ev="http://www.w3.org/2001/xml-events" xmlns:xlink="http://www.w3.org/1999/xlink">
	<defs/>
	<path d="M 232.0,204.0 Q 248.0,165.0 242.0,110.0 Q 236.0,63.0 221.0,44.0 Q 211.0,27.0 217.0,6.0 Q 223.0,-17.0 238.0,-27.0 Q 247.0,-34.0 257.0,-20.0 Q 288.0,18.0 391.0,110.0 Q 404.0,122.0 406.0,127.0 Q 407.0,137.0 390.0,129.0 Q 287.0,69.0 279.0,71.0 Q 273.0,74.0 273.0,88.0 Q 280.0,161.0 285.0,177.0 Q 289.0,194.0 279.0,204.0 Q 267.0,220.0 253.0,225.0 C 226.0,239.0 222.0,232.0 232.0,204.0" fill="black" stroke="#000000"/>
</svg>
