<?xml version="1.0" ?>
<svg baseProfile="full" height="1024" version="1.1" viewBox="0 0 1024 1024" width="1024" xmlns="http://www.w3.org/2000/svg" xmlns:ev="http://www.w3.org/2001/xml-events" xmlns:xlink="http://www.w3.org/1999/xlink">
	<defs/>
	<path d="M 595.0,319.0 L 595.0,363.0 L 595.0,385.0 Q 595.0,394.0 596.0,453.0 L 596.0,474.0 Q 596.0,514.0 597.0,542.0 L 600.0,568.0 Q 603.0,624.0 614.0,634.0 C 635.0,674.0 617.0,653.0 592.0,669.0 Q 566.0,688.0 551.0,683.0 Q 539.0,678.0 542.0,670.0 L 546.0,662.0 Q 559.0,635.0 559.0,512.0 Q 553.0,333.0 541.0,290.0 Q 535.0,270.0 550.0,256.0 Q 568.0,241.0 590.0,254.0 C 595.0,256.0 595.0,289.0 595.0,319.0" fill="black" stroke="#000000"/>
</svg>
