<?xml version="1.0" ?>
<svg baseProfile="full" height="1024" version="1.1" viewBox="0 0 1024 1024" width="1024" xmlns="http://www.w3.org/2000/svg" xmlns:ev="http://www.w3.org/2001/xml-events" xmlns:xlink="http://www.w3.org/1999/xlink">
	<defs/>
	<path d="M 724.0,469.0 Q 739.0,449.0 749.0,443.0 Q 759.0,436.0 771.0,454.0 Q 784.0,473.0 820.0,589.0 Q 829.0,616.0 850.0,636.0 Q 858.0,644.0 856.0,653.0 Q 852.0,668.0 803.0,700.0 Q 794.0,705.0 763.0,700.0 L 728.0,692.0 Q 693.0,692.0 612.0,666.0 C 583.0,657.0 585.0,625.0 614.0,634.0 Q 661.0,650.0 744.0,663.0 Q 756.0,665.0 763.0,663.0 Q 781.0,659.0 778.0,639.0 Q 754.0,531.0 741.0,510.0 Q 736.0,503.0 725.0,498.0 C 709.0,488.0 709.0,488.0 724.0,469.0" fill="black" stroke="#000000"/>
</svg>
