<?xml version="1.0" ?>
<svg baseProfile="full" height="1024" version="1.1" viewBox="0 0 1024 1024" width="1024" xmlns="http://www.w3.org/2000/svg" xmlns:ev="http://www.w3.org/2001/xml-events" xmlns:xlink="http://www.w3.org/1999/xlink">
	<defs/>
	<path d="M 598.0,431.0 Q 624.0,673.0 645.0,752.0 Q 650.0,765.0 623.0,782.0 Q 596.0,800.0 566.0,808.0 Q 548.0,811.0 540.0,803.0 Q 538.0,802.0 537.0,800.0 Q 532.0,793.0 543.0,774.0 Q 559.0,745.0 561.0,727.0 Q 563.0,588.0 552.0,421.0 Q 553.0,421.0 555.0,422.0 L 598.0,431.0" fill="black" stroke="#000000"/>
	<path d="M 394.0,602.0 Q 395.0,592.0 406.0,576.0 Q 438.0,530.0 456.0,501.0 Q 461.0,492.0 468.0,486.0 Q 486.0,472.0 503.0,490.0 Q 510.0,504.0 509.0,538.0 Q 508.0,557.0 482.0,578.0 L 424.0,612.0 Q 409.0,618.0 402.0,617.0 Q 395.0,613.0 394.0,602.0" fill="black" stroke="#000000"/>
</svg>
