<?xml version="1.0" ?>
<svg baseProfile="full" height="1024" version="1.1" viewBox="0 0 1024 1024" width="1024" xmlns="http://www.w3.org/2000/svg" xmlns:ev="http://www.w3.org/2001/xml-events" xmlns:xlink="http://www.w3.org/1999/xlink">
	<defs/>
	<path d="M 819.0,481.0 Q 844.0,586.0 877.0,617.0 Q 891.0,637.0 878.0,656.0 Q 864.0,670.0 820.0,696.0 Q 806.0,702.0 786.0,694.0 Q 708.0,650.0 584.0,622.0 C 555.0,615.0 564.0,590.0 594.0,591.0 Q 608.0,590.0 623.0,595.0 Q 659.0,606.0 666.0,608.0 L 696.0,617.0 Q 702.0,619.0 772.0,641.0 Q 791.0,648.0 798.0,638.0 Q 808.0,627.0 804.0,606.0 Q 790.0,533.0 776.0,488.0 C 767.0,459.0 812.0,452.0 819.0,481.0" fill="black" stroke="#000000"/>
</svg>
