<?xml version="1.0" ?>
<svg baseProfile="full" height="1024" version="1.1" viewBox="0 0 1024 1024" width="1024" xmlns="http://www.w3.org/2000/svg" xmlns:ev="http://www.w3.org/2001/xml-events" xmlns:xlink="http://www.w3.org/1999/xlink">
	<defs/>
	<path d="M 584.0,622.0 Q 580.0,627.0 572.0,633.0 Q 549.0,649.0 538.0,641.0 Q 534.0,638.0 539.0,614.0 Q 549.0,562.0 547.0,537.0 Q 542.0,319.0 553.0,247.0 Q 562.0,185.0 590.0,155.0 Q 629.0,116.0 690.0,102.0 Q 782.0,80.0 892.0,118.0 Q 937.0,135.0 978.0,174.0 Q 984.0,180.0 986.0,184.0 Q 990.0,194.0 982.0,218.0 Q 960.0,282.0 952.0,325.0 Q 951.0,342.0 944.0,345.0 Q 939.0,347.0 937.0,330.0 Q 921.0,242.0 907.0,215.0 Q 900.0,201.0 880.0,188.0 Q 826.0,153.0 739.0,161.0 Q 713.0,163.0 692.0,169.0 Q 620.0,188.0 599.0,239.0 Q 577.0,292.0 580.0,408.0 L 582.0,427.0 Q 584.0,508.0 594.0,591.0 C 596.0,613.0 596.0,613.0 584.0,622.0" fill="black" stroke="#000000"/>
</svg>
