<?xml version="1.0" ?>
<svg baseProfile="full" height="1024" version="1.1" viewBox="0 0 1024 1024" width="1024" xmlns="http://www.w3.org/2000/svg" xmlns:ev="http://www.w3.org/2001/xml-events" xmlns:xlink="http://www.w3.org/1999/xlink">
	<defs/>
	<path d="M 378.0,274.0 Q 398.0,241.0 412.0,238.0 Q 422.0,235.0 433.0,250.0 Q 450.0,274.0 480.0,417.0 Q 486.0,437.0 496.0,451.0 L 512.0,469.0 Q 519.0,478.0 511.0,488.0 Q 498.0,504.0 460.0,527.0 Q 442.0,533.0 383.0,517.0 Q 343.0,513.0 314.0,502.0 L 278.0,494.0 Q 274.0,494.0 175.0,469.0 C 146.0,462.0 154.0,429.0 182.0,439.0 Q 182.0,441.0 267.0,463.0 L 297.0,469.0 Q 406.0,501.0 428.0,486.0 Q 441.0,476.0 437.0,455.0 Q 413.0,334.0 402.0,311.0 Q 396.0,294.0 384.0,291.0 C 373.0,282.0 373.0,282.0 378.0,274.0" fill="black" stroke="#000000"/>
</svg>
