<?xml version="1.0" ?>
<svg baseProfile="full" height="1024" version="1.1" viewBox="0 0 1024 1024" width="1024" xmlns="http://www.w3.org/2000/svg" xmlns:ev="http://www.w3.org/2001/xml-events" xmlns:xlink="http://www.w3.org/1999/xlink">
	<defs/>
	<path d="M 443.0,610.0 Q 292.0,590.0 141.0,572.0 Q 122.0,570.0 135.0,553.0 Q 172.0,521.0 208.0,531.0 Q 277.0,550.0 298.0,555.0 Q 438.0,587.0 594.0,598.0 L 641.0,600.0 Q 743.0,608.0 855.0,608.0 Q 887.0,608.0 917.0,608.0 Q 937.0,608.0 943.0,617.0 Q 950.0,628.0 931.0,643.0 Q 927.0,647.0 922.0,650.0 Q 869.0,682.0 838.0,675.0 Q 767.0,660.0 586.0,630.0 L 547.0,624.0 L 531.0,622.0 Q 489.0,617.0 478.0,613.0 L 443.0,610.0" fill="black" stroke="#000000"/>
</svg>
