<?xml version="1.0" ?>
<svg baseProfile="full" height="1024" version="1.1" viewBox="0 0 1024 1024" width="1024" xmlns="http://www.w3.org/2000/svg" xmlns:ev="http://www.w3.org/2001/xml-events" xmlns:xlink="http://www.w3.org/1999/xlink">
	<defs/>
	<path d="M 287.0,662.0 Q 339.0,735.0 351.0,741.0 Q 356.0,747.0 357.0,753.0 Q 359.0,766.0 328.0,795.0 Q 307.0,813.0 289.0,813.0 Q 272.0,811.0 278.0,793.0 Q 284.0,776.0 274.0,747.0 Q 247.0,666.0 131.0,537.0 Q 122.0,526.0 121.0,523.0 Q 120.0,520.0 120.0,519.0 Q 120.0,514.0 129.0,515.0 Q 169.0,519.0 270.0,643.0 L 287.0,662.0" fill="black" stroke="#000000"/>
	<path d="M 314.0,502.0 Q 437.0,619.0 466.0,633.0 Q 484.0,643.0 472.0,657.0 Q 459.0,670.0 424.0,692.0 Q 416.0,698.0 372.0,684.0 Q 309.0,664.0 287.0,662.0 C 257.0,658.0 241.0,652.0 270.0,643.0 Q 290.0,632.0 363.0,645.0 Q 368.0,645.0 371.0,643.0 Q 374.0,639.0 368.0,629.0 L 278.0,494.0 C 261.0,469.0 292.0,481.0 314.0,502.0" fill="black" stroke="#000000"/>
	<path d="M 175.0,469.0 Q 172.0,472.0 162.0,474.0 Q 124.0,486.0 117.0,478.0 Q 114.0,472.0 122.0,455.0 Q 153.0,384.0 172.0,291.0 Q 176.0,260.0 194.0,239.0 Q 201.0,229.0 206.0,229.0 Q 218.0,225.0 218.0,257.0 L 215.0,285.0 Q 214.0,294.0 209.0,318.0 Q 186.0,417.0 182.0,439.0 C 176.0,468.0 176.0,468.0 175.0,469.0" fill="black" stroke="#000000"/>
	<path d="M 378.0,274.0 Q 398.0,241.0 412.0,238.0 Q 422.0,235.0 433.0,250.0 Q 450.0,274.0 480.0,417.0 Q 486.0,437.0 496.0,451.0 L 512.0,469.0 Q 519.0,478.0 511.0,488.0 Q 498.0,504.0 460.0,527.0 Q 442.0,533.0 383.0,517.0 Q 343.0,513.0 314.0,502.0 L 278.0,494.0 Q 274.0,494.0 175.0,469.0 C 146.0,462.0 154.0,429.0 182.0,439.0 Q 182.0,441.0 267.0,463.0 L 297.0,469.0 Q 406.0,501.0 428.0,486.0 Q 441.0,476.0 437.0,455.0 Q 413.0,334.0 402.0,311.0 Q 396.0,294.0 384.0,291.0 C 373.0,282.0 373.0,282.0 378.0,274.0" fill="black" stroke="#000000"/>
	<path d="M 319.0,361.0 L 374.0,369.0 Q 394.0,372.0 386.0,383.0 Q 380.0,392.0 368.0,396.0 Q 347.0,404.0 321.0,396.0 L 278.0,383.0 Q 251.0,377.0 223.0,368.0 Q 210.0,365.0 225.0,353.0 Q 227.0,351.0 278.0,355.0 L 319.0,361.0" fill="black" stroke="#000000"/>
	<path d="M 316.0,308.0 Q 316.0,312.0 319.0,361.0 L 321.0,396.0 Q 321.0,401.0 323.0,413.0 Q 323.0,447.0 321.0,449.0 Q 308.0,463.0 297.0,469.0 C 271.0,485.0 259.0,492.0 267.0,463.0 Q 276.0,433.0 278.0,383.0 L 278.0,355.0 Q 278.0,341.0 278.0,298.0 C 278.0,268.0 315.0,278.0 316.0,308.0" fill="black" stroke="#000000"/>
	<path d="M 218.0,257.0 Q 224.0,257.0 234.0,258.0 Q 297.0,270.0 378.0,274.0 C 402.0,275.0 402.0,275.0 384.0,291.0 Q 378.0,296.0 374.0,300.0 Q 351.0,319.0 316.0,308.0 L 278.0,298.0 Q 245.0,292.0 215.0,285.0 C 186.0,278.0 188.0,256.0 218.0,257.0" fill="black" stroke="#000000"/>
	<path d="M 106.0,194.0 L 55.0,106.0 Q 43.0,89.0 43.0,69.0 Q 44.0,44.0 57.0,29.0 Q 61.0,24.0 68.0,21.0 Q 82.0,16.0 93.0,32.0 Q 118.0,78.0 133.0,188.0 Q 133.0,208.0 122.0,212.0 Q 116.0,209.0 106.0,194.0" fill="black" stroke="#000000"/>
	<path d="M 172.0,182.0 Q 172.0,174.0 176.0,157.0 Q 188.0,111.0 211.0,83.0 Q 218.0,76.0 229.0,82.0 Q 234.0,86.0 237.0,91.0 Q 255.0,123.0 196.0,180.0 Q 187.0,190.0 180.0,190.0 Q 175.0,190.0 172.0,182.0" fill="black" stroke="#000000"/>
	<path d="M 274.0,202.0 Q 272.0,188.0 286.0,161.0 Q 305.0,122.0 321.0,108.0 Q 325.0,106.0 331.0,106.0 Q 347.0,106.0 351.0,131.0 Q 353.0,162.0 314.0,192.0 Q 283.0,211.0 279.5,211.0 Q 276.0,211.0 274.0,202.0" fill="black" stroke="#000000"/>
	<path d="M 368.0,211.0 Q 369.0,200.0 401.0,163.0 Q 433.0,123.0 441.0,122.0 L 445.0,122.0 Q 463.0,125.0 459.0,164.0 Q 458.0,180.0 437.0,194.0 Q 384.0,225.0 373.0,223.0 Q 368.0,221.0 368.0,211.0" fill="black" stroke="#000000"/>
	<path d="M 819.0,481.0 Q 844.0,586.0 877.0,617.0 Q 891.0,637.0 878.0,656.0 Q 864.0,670.0 820.0,696.0 Q 806.0,702.0 786.0,694.0 Q 708.0,650.0 584.0,622.0 C 555.0,615.0 564.0,590.0 594.0,591.0 Q 608.0,590.0 623.0,595.0 Q 659.0,606.0 666.0,608.0 L 696.0,617.0 Q 702.0,619.0 772.0,641.0 Q 791.0,648.0 798.0,638.0 Q 808.0,627.0 804.0,606.0 Q 790.0,533.0 776.0,488.0 C 767.0,459.0 812.0,452.0 819.0,481.0" fill="black" stroke="#000000"/>
	<path d="M 666.0,608.0 Q 672.0,606.0 666.0,451.0 C 665.0,421.0 701.0,433.0 704.0,463.0 L 715.0,564.0 Q 715.0,568.0 715.0,570.0 Q 715.0,598.0 696.0,617.0 C 676.0,639.0 657.0,637.0 666.0,608.0" fill="black" stroke="#000000"/>
</svg>
