<?xml version="1.0" ?>
<svg baseProfile="full" height="1024" version="1.1" viewBox="0 0 1024 1024" width="1024" xmlns="http://www.w3.org/2000/svg" xmlns:ev="http://www.w3.org/2001/xml-events" xmlns:xlink="http://www.w3.org/1999/xlink">
	<defs/>
	<path d="M 287.0,662.0 Q 339.0,735.0 351.0,741.0 Q 356.0,747.0 357.0,753.0 Q 359.0,766.0 328.0,795.0 Q 307.0,813.0 289.0,813.0 Q 272.0,811.0 278.0,793.0 Q 284.0,776.0 274.0,747.0 Q 247.0,666.0 131.0,537.0 Q 122.0,526.0 121.0,523.0 Q 120.0,520.0 120.0,519.0 Q 120.0,514.0 129.0,515.0 Q 169.0,519.0 270.0,643.0 L 287.0,662.0" fill="black" stroke="#000000"/>
	<path d="M 314.0,502.0 Q 437.0,619.0 466.0,633.0 Q 484.0,643.0 472.0,657.0 Q 459.0,670.0 424.0,692.0 Q 416.0,698.0 372.0,684.0 Q 309.0,664.0 287.0,662.0 C 257.0,658.0 241.0,652.0 270.0,643.0 Q 290.0,632.0 363.0,645.0 Q 368.0,645.0 371.0,643.0 Q 374.0,639.0 368.0,629.0 L 278.0,494.0 C 261.0,469.0 292.0,481.0 314.0,502.0" fill="black" stroke="#000000"/>
	<path d="M 175.0,469.0 Q 172.0,472.0 162.0,474.0 Q 124.0,486.0 117.0,478.0 Q 114.0,472.0 122.0,455.0 Q 153.0,384.0 172.0,291.0 Q 176.0,260.0 194.0,239.0 Q 201.0,229.0 206.0,229.0 Q 218.0,225.0 218.0,257.0 L 215.0,285.0 Q 214.0,294.0 209.0,318.0 Q 186.0,417.0 182.0,439.0 C 176.0,468.0 176.0,468.0 175.0,469.0" fill="black" stroke="#000000"/>
</svg>
