<?xml version="1.0" ?>
<svg baseProfile="full" height="1024" version="1.1" viewBox="0 0 1024 1024" width="1024" xmlns="http://www.w3.org/2000/svg" xmlns:ev="http://www.w3.org/2001/xml-events" xmlns:xlink="http://www.w3.org/1999/xlink">
	<defs/>
	<path d="M 385.0,753.0 Q 388.0,786.0 400.0,808.0 Q 403.0,813.0 396.0,821.0 Q 390.0,827.0 386.0,830.0 Q 359.0,848.0 337.0,853.0 Q 329.0,855.0 321.0,852.0 L 318.0,849.0 Q 311.0,842.0 318.0,829.0 Q 327.0,812.0 329.0,802.0 Q 333.0,729.0 332.0,645.0 C 332.0,615.0 364.0,623.0 369.0,653.0 L 380.0,725.0 L 385.0,753.0" fill="black" stroke="#000000"/>
	<path d="M 380.0,725.0 L 392.0,725.0 Q 448.0,739.0 484.0,747.0 L 486.0,747.0 Q 502.0,753.0 498.0,760.0 L 496.0,764.0 Q 483.0,776.0 460.0,778.0 Q 419.0,778.0 385.0,753.0 C 361.0,736.0 350.0,725.0 380.0,725.0" fill="black" stroke="#000000"/>
</svg>
