<?xml version="1.0" ?>
<svg baseProfile="full" height="1024" version="1.1" viewBox="0 0 1024 1024" width="1024" xmlns="http://www.w3.org/2000/svg" xmlns:ev="http://www.w3.org/2001/xml-events" xmlns:xlink="http://www.w3.org/1999/xlink">
	<defs/>
	<path d="M 385.0,753.0 Q 388.0,786.0 400.0,808.0 Q 403.0,813.0 396.0,821.0 Q 390.0,827.0 386.0,830.0 Q 359.0,848.0 337.0,853.0 Q 329.0,855.0 321.0,852.0 L 318.0,849.0 Q 311.0,842.0 318.0,829.0 Q 327.0,812.0 329.0,802.0 Q 333.0,729.0 332.0,645.0 C 332.0,615.0 364.0,623.0 369.0,653.0 L 380.0,725.0 L 385.0,753.0" fill="black" stroke="#000000"/>
	<path d="M 380.0,725.0 L 392.0,725.0 Q 448.0,739.0 484.0,747.0 L 486.0,747.0 Q 502.0,753.0 498.0,760.0 L 496.0,764.0 Q 483.0,776.0 460.0,778.0 Q 419.0,778.0 385.0,753.0 C 361.0,736.0 350.0,725.0 380.0,725.0" fill="black" stroke="#000000"/>
	<path d="M 190.0,613.0 Q 176.0,642.0 168.0,649.0 Q 157.0,658.0 153.0,651.0 Q 150.0,647.0 149.0,639.0 Q 153.0,613.0 133.0,583.0 Q 120.0,564.0 106.0,550.0 Q 96.0,533.0 102.0,509.0 L 110.0,488.0 L 114.0,480.0 Q 124.0,466.0 133.0,471.0 Q 138.0,473.0 143.0,482.0 Q 155.0,500.0 168.0,533.0 Q 176.0,565.0 186.0,589.0 C 193.0,607.0 193.0,607.0 190.0,613.0" fill="black" stroke="#000000"/>
	<path d="M 332.0,645.0 Q 296.0,639.0 254.0,628.0 Q 192.0,614.0 190.0,613.0 C 161.0,606.0 156.0,594.0 186.0,589.0 Q 197.0,585.0 215.0,587.0 Q 222.0,588.0 237.0,591.0 Q 312.0,621.0 455.0,643.0 Q 479.0,648.0 488.0,647.0 L 490.0,647.0 Q 500.0,640.0 498.0,632.0 L 476.0,559.0 Q 480.0,557.0 489.0,561.0 Q 494.0,563.0 499.0,566.0 Q 542.0,597.0 580.0,608.0 Q 610.0,614.0 610.0,623.0 Q 606.0,633.0 546.0,672.0 Q 534.0,682.0 494.0,677.0 Q 474.0,675.0 449.0,668.0 Q 416.0,665.0 369.0,653.0 L 332.0,645.0" fill="black" stroke="#000000"/>
	<path d="M 263.0,547.0 Q 245.0,543.0 246.0,537.0 Q 247.0,533.0 255.0,528.0 Q 274.0,517.0 312.0,521.0 Q 325.0,521.0 349.0,526.0 L 404.0,539.0 Q 419.0,543.0 421.0,545.0 Q 427.0,551.0 425.0,557.0 L 424.0,559.0 Q 418.0,568.0 394.0,573.0 Q 386.0,574.0 353.0,566.0 L 312.0,555.0 L 263.0,547.0" fill="black" stroke="#000000"/>
	<path d="M 208.0,449.0 Q 210.0,441.0 196.0,419.0 L 180.0,396.0 Q 162.0,374.0 125.0,343.0 Q 122.0,339.0 124.0,337.0 Q 126.0,337.0 130.0,337.0 Q 182.0,353.0 256.0,417.0 Q 263.0,425.0 272.0,432.0 Q 278.0,437.0 278.0,444.0 Q 274.0,449.0 261.0,455.0 Q 232.0,461.0 214.0,459.0 Q 208.0,458.0 208.0,449.0" fill="black" stroke="#000000"/>
</svg>
