<?xml version="1.0" ?>
<svg baseProfile="full" height="1024" version="1.1" viewBox="0 0 1024 1024" width="1024" xmlns="http://www.w3.org/2000/svg" xmlns:ev="http://www.w3.org/2001/xml-events" xmlns:xlink="http://www.w3.org/1999/xlink">
	<defs/>
	<path d="M 584.0,695.0 Q 659.0,786.0 677.0,798.0 Q 693.0,811.0 680.0,825.0 Q 664.0,837.0 638.0,844.0 Q 614.0,851.0 604.0,845.0 Q 594.0,841.0 599.0,830.0 Q 608.0,806.0 568.0,724.0 Q 559.0,708.0 550.0,687.0 C 538.0,660.0 565.0,672.0 584.0,695.0" fill="black" stroke="#000000"/>
	<path d="M 474.0,679.0 Q 464.0,680.0 460.0,676.0 Q 456.0,670.0 464.0,656.0 Q 492.0,611.0 513.0,534.0 Q 517.0,512.0 533.0,497.0 Q 551.0,479.0 554.0,493.0 Q 555.0,499.0 555.0,506.0 L 553.0,527.0 Q 552.0,534.0 550.0,544.0 Q 546.0,562.0 542.0,576.0 L 537.0,597.0 Q 528.0,634.0 526.0,649.0 C 521.0,679.0 504.0,679.0 474.0,679.0" fill="black" stroke="#000000"/>
	<path d="M 735.0,529.0 Q 735.0,528.0 736.0,527.0 Q 740.0,512.0 751.0,513.0 Q 764.0,514.0 771.0,527.0 Q 781.0,537.0 802.0,593.0 Q 817.0,639.0 850.0,665.0 Q 866.0,678.0 853.0,693.0 Q 837.0,708.0 793.0,732.0 Q 781.0,741.0 714.0,724.0 Q 681.0,724.0 584.0,695.0 L 550.0,687.0 Q 496.0,678.0 474.0,679.0 C 444.0,678.0 498.0,639.0 526.0,649.0 Q 587.0,671.0 730.0,698.0 Q 755.0,701.0 765.0,697.0 Q 772.0,691.0 767.0,667.0 Q 749.0,577.0 736.0,555.0 C 729.0,539.0 729.0,539.0 735.0,529.0" fill="black" stroke="#000000"/>
	<path d="M 542.0,576.0 Q 546.0,576.0 554.0,577.0 Q 633.0,593.0 694.0,605.0 Q 712.0,609.0 705.0,618.0 Q 696.0,628.0 677.0,632.0 Q 659.0,633.0 537.0,597.0 C 508.0,589.0 512.0,574.0 542.0,576.0" fill="black" stroke="#000000"/>
	<path d="M 622.0,514.0 Q 683.0,524.0 735.0,529.0 C 765.0,532.0 765.0,546.0 736.0,555.0 Q 732.0,556.0 727.0,558.0 Q 705.0,562.0 553.0,527.0 C 524.0,520.0 525.0,505.0 555.0,506.0 Q 567.0,506.0 588.0,509.0 L 622.0,514.0" fill="black" stroke="#000000"/>
	<path d="M 637.0,362.0 Q 640.0,371.0 644.0,444.0 Q 645.0,460.0 648.0,479.0 Q 652.0,497.0 637.0,506.0 Q 630.0,510.0 622.0,514.0 C 595.0,528.0 585.0,533.0 588.0,509.0 Q 588.0,506.0 589.0,502.0 Q 601.0,478.0 598.0,386.0 Q 595.0,370.0 614.0,342.0 C 628.0,320.0 631.0,333.0 637.0,362.0" fill="black" stroke="#000000"/>
	<path d="M 493.0,459.0 Q 480.0,423.0 461.0,391.0 Q 448.0,364.0 463.0,341.0 Q 470.0,328.0 484.0,339.0 Q 520.0,369.0 516.0,417.0 Q 517.0,442.0 511.0,460.0 Q 507.0,467.0 502.0,467.0 Q 496.0,466.0 493.0,459.0" fill="black" stroke="#000000"/>
	<path d="M 803.0,448.0 Q 840.0,421.0 880.0,389.0 Q 893.0,377.0 907.0,379.0 Q 917.0,380.0 921.0,392.0 Q 925.0,405.0 915.0,433.0 Q 908.0,455.0 872.0,471.0 Q 787.0,498.0 776.0,491.0 Q 772.0,487.0 773.0,475.0 Q 777.0,465.0 803.0,448.0" fill="black" stroke="#000000"/>
	<path d="M 614.0,342.0 Q 566.0,302.0 455.0,248.0 Q 448.0,247.0 455.0,242.0 Q 507.0,236.0 611.0,296.0 Q 615.0,300.0 622.0,303.0 Q 662.0,328.0 729.0,386.0 Q 738.0,393.0 743.0,396.0 Q 750.0,399.0 751.0,406.0 Q 752.0,413.0 745.0,425.0 Q 730.0,452.0 702.0,457.0 Q 695.0,457.0 694.0,448.0 Q 694.0,420.0 637.0,362.0 L 614.0,342.0" fill="black" stroke="#000000"/>
	<path d="M 729.0,348.0 Q 723.0,288.0 591.0,197.0 Q 588.0,197.0 586.0,194.0 Q 549.0,170.0 459.0,129.0 Q 452.0,128.0 459.0,122.0 Q 565.0,110.0 764.0,283.0 Q 774.0,290.0 780.0,294.0 Q 787.0,297.0 787.0,305.0 Q 788.0,312.0 781.0,325.0 Q 766.0,353.0 737.0,358.0 Q 730.0,358.0 729.0,348.0" fill="black" stroke="#000000"/>
</svg>
