<?xml version="1.0" ?>
<svg baseProfile="full" height="1024" version="1.1" viewBox="0 0 1024 1024" width="1024" xmlns="http://www.w3.org/2000/svg" xmlns:ev="http://www.w3.org/2001/xml-events" xmlns:xlink="http://www.w3.org/1999/xlink">
	<defs/>
	<path d="M 791.0,565.0 Q 746.0,562.0 693.0,550.0 Q 668.0,543.0 685.0,562.0 Q 710.0,593.0 771.0,655.0 Q 795.0,683.0 817.0,700.0 Q 827.0,707.0 822.0,716.0 Q 815.0,732.0 789.0,749.0 Q 776.0,756.0 768.0,755.0 Q 761.0,754.0 761.0,740.0 Q 762.0,719.0 734.0,673.0 L 722.0,654.0 Q 721.0,653.0 718.0,648.0 Q 645.0,555.0 620.0,543.0 Q 610.0,536.0 611.0,525.0 Q 611.0,513.0 631.0,497.0 Q 640.0,487.0 652.0,496.0 Q 707.0,529.0 796.0,550.0 C 825.0,557.0 821.0,567.0 791.0,565.0" fill="black" stroke="#000000"/>
</svg>
