<?xml version="1.0" ?>
<svg baseProfile="full" height="1024" version="1.1" viewBox="0 0 1024 1024" width="1024" xmlns="http://www.w3.org/2000/svg" xmlns:ev="http://www.w3.org/2001/xml-events" xmlns:xlink="http://www.w3.org/1999/xlink">
	<defs/>
	<path d="M 323.0,524.0 Q 278.0,515.0 226.0,498.0 Q 207.0,491.0 219.0,507.0 Q 319.0,642.0 370.0,681.0 Q 380.0,688.0 375.0,697.0 Q 368.0,713.0 340.0,728.0 Q 327.0,735.0 320.0,734.0 Q 311.0,731.0 313.0,719.0 Q 314.0,695.0 277.0,631.0 L 263.0,610.0 Q 181.0,498.0 157.0,486.0 Q 145.0,479.0 148.0,467.0 Q 149.0,457.0 170.0,441.0 Q 179.0,431.0 191.0,441.0 Q 254.0,486.0 328.0,508.0 C 357.0,517.0 352.0,530.0 323.0,524.0" fill="black" stroke="#000000"/>
</svg>
