<?xml version="1.0" ?>
<svg baseProfile="full" height="1024" version="1.1" viewBox="0 0 1024 1024" width="1024" xmlns="http://www.w3.org/2000/svg" xmlns:ev="http://www.w3.org/2001/xml-events" xmlns:xlink="http://www.w3.org/1999/xlink">
	<defs/>
	<path d="M 381.0,722.0 Q 360.0,738.0 342.0,747.0 Q 329.0,751.0 319.0,745.0 Q 309.0,741.0 313.0,729.0 Q 323.0,707.0 333.0,691.0 Q 343.0,663.0 344.0,616.0 Q 347.0,564.0 345.0,122.0 C 345.0,92.0 394.0,96.0 394.0,126.0 Q 394.0,232.0 394.0,328.0 L 394.0,356.0 Q 394.0,434.0 395.0,504.0 L 396.0,524.0 Q 396.0,677.0 400.0,686.0 C 402.0,707.0 402.0,707.0 381.0,722.0" fill="black" stroke="#000000"/>
	<path d="M 694.0,151.0 Q 694.0,632.0 723.0,685.0 Q 736.0,721.0 737.0,721.0 Q 727.0,742.0 666.0,778.0 Q 651.0,790.0 570.0,760.0 Q 450.0,730.0 381.0,722.0 C 351.0,718.0 371.0,678.0 400.0,686.0 Q 404.0,687.0 409.0,689.0 Q 550.0,723.0 607.0,730.0 Q 631.0,734.0 638.0,726.0 Q 647.0,710.0 646.0,675.0 Q 643.0,371.0 636.0,146.0 C 635.0,116.0 694.0,121.0 694.0,151.0" fill="black" stroke="#000000"/>
</svg>
