<?xml version="1.0" ?>
<svg baseProfile="full" height="1024" version="1.1" viewBox="0 0 1024 1024" width="1024" xmlns="http://www.w3.org/2000/svg" xmlns:ev="http://www.w3.org/2001/xml-events" xmlns:xlink="http://www.w3.org/1999/xlink">
	<defs/>
	<path d="M 381.0,722.0 Q 360.0,738.0 342.0,747.0 Q 329.0,751.0 319.0,745.0 Q 309.0,741.0 313.0,729.0 Q 323.0,707.0 333.0,691.0 Q 343.0,663.0 344.0,616.0 Q 347.0,564.0 345.0,122.0 C 345.0,92.0 394.0,96.0 394.0,126.0 Q 394.0,232.0 394.0,328.0 L 394.0,356.0 Q 394.0,434.0 395.0,504.0 L 396.0,524.0 Q 396.0,677.0 400.0,686.0 C 402.0,707.0 402.0,707.0 381.0,722.0" fill="black" stroke="#000000"/>
	<path d="M 694.0,151.0 Q 694.0,632.0 723.0,685.0 Q 736.0,721.0 737.0,721.0 Q 727.0,742.0 666.0,778.0 Q 651.0,790.0 570.0,760.0 Q 450.0,730.0 381.0,722.0 C 351.0,718.0 371.0,678.0 400.0,686.0 Q 404.0,687.0 409.0,689.0 Q 550.0,723.0 607.0,730.0 Q 631.0,734.0 638.0,726.0 Q 647.0,710.0 646.0,675.0 Q 643.0,371.0 636.0,146.0 C 635.0,116.0 694.0,121.0 694.0,151.0" fill="black" stroke="#000000"/>
	<path d="M 395.0,504.0 Q 431.0,488.0 510.0,504.0 Q 580.0,520.0 584.0,522.0 Q 591.0,529.0 587.0,537.0 Q 580.0,547.0 553.0,554.0 Q 525.0,558.0 499.0,546.0 Q 460.0,533.0 403.0,526.0 Q 399.0,526.0 396.0,524.0 C 367.0,515.0 367.0,515.0 395.0,504.0" fill="black" stroke="#000000"/>
	<path d="M 394.0,328.0 Q 430.0,313.0 477.0,323.0 Q 525.0,332.0 573.0,341.0 Q 595.0,345.0 599.0,349.0 Q 608.0,356.0 603.0,365.0 Q 596.0,375.0 568.0,383.0 Q 538.0,389.0 510.0,377.0 Q 447.0,359.0 394.0,356.0 C 364.0,354.0 366.0,339.0 394.0,328.0" fill="black" stroke="#000000"/>
	<path d="M 509.0,92.0 Q 567.0,95.0 622.0,99.0 Q 772.0,111.0 921.0,90.0 Q 946.0,86.0 952.0,96.0 Q 961.0,109.0 948.0,122.0 Q 918.0,152.0 874.0,173.0 Q 859.0,180.0 832.0,172.0 Q 763.0,160.0 694.0,151.0 L 636.0,146.0 Q 540.0,139.0 487.0,134.0 Q 435.0,131.0 394.0,126.0 L 345.0,122.0 Q 311.0,121.0 288.0,118.0 Q 213.0,108.0 102.0,110.0 Q 89.0,111.0 86.0,99.0 Q 85.0,86.0 104.0,71.0 Q 152.0,35.0 187.0,48.0 Q 226.0,60.0 389.0,81.0 Q 446.0,88.0 509.0,92.0" fill="black" stroke="#000000"/>
</svg>
