<?xml version="1.0" ?>
<svg baseProfile="full" height="1024" version="1.1" viewBox="0 0 1024 1024" width="1024" xmlns="http://www.w3.org/2000/svg" xmlns:ev="http://www.w3.org/2001/xml-events" xmlns:xlink="http://www.w3.org/1999/xlink">
	<defs/>
	<path d="M 621.0,462.0 Q 640.0,529.0 650.0,600.0 Q 663.0,694.0 683.0,735.0 Q 690.0,748.0 681.0,758.0 Q 660.0,779.0 620.0,799.0 Q 596.0,812.0 576.0,808.0 Q 551.0,801.0 569.0,779.0 Q 599.0,742.0 596.0,706.0 Q 589.0,576.0 566.0,491.0 Q 527.0,322.0 409.0,209.0 Q 355.0,164.0 354.0,163.0 Q 348.0,156.0 368.0,155.0 Q 426.0,155.0 524.0,260.0 Q 536.0,275.0 549.0,293.0 Q 582.0,347.0 611.0,430.0 L 621.0,462.0" fill="black" stroke="#000000"/>
</svg>
