<?xml version="1.0" ?>
<svg baseProfile="full" height="1024" version="1.1" viewBox="0 0 1024 1024" width="1024" xmlns="http://www.w3.org/2000/svg" xmlns:ev="http://www.w3.org/2001/xml-events" xmlns:xlink="http://www.w3.org/1999/xlink">
	<defs/>
	<path d="M 735.0,269.0 Q 776.0,352.0 813.0,511.0 Q 820.0,541.0 839.0,564.0 Q 850.0,577.0 847.0,586.0 Q 845.0,592.0 840.0,595.0 Q 824.0,606.0 790.0,612.0 Q 780.0,614.0 741.0,598.0 L 698.0,577.0 Q 609.0,545.0 575.0,536.0 Q 562.0,533.0 557.0,525.0 Q 555.0,521.0 562.0,517.0 Q 565.0,515.0 572.0,514.0 Q 598.0,506.0 627.0,514.0 Q 643.0,517.0 657.0,523.0 Q 713.0,552.0 725.0,553.0 Q 753.0,553.0 749.0,525.0 Q 728.0,379.0 696.0,314.0 L 673.0,270.0 Q 615.0,175.0 515.0,129.0 Q 506.0,125.0 510.0,122.0 Q 512.0,119.0 517.0,117.0 Q 519.0,111.0 547.0,112.0 L 561.0,114.0 Q 633.0,125.0 706.0,220.0 L 735.0,269.0" fill="black" stroke="#000000"/>
</svg>
