<?xml version="1.0" ?>
<svg baseProfile="full" height="1024" version="1.1" viewBox="0 0 1024 1024" width="1024" xmlns="http://www.w3.org/2000/svg" xmlns:ev="http://www.w3.org/2001/xml-events" xmlns:xlink="http://www.w3.org/1999/xlink">
	<defs/>
	<path d="M 706.0,220.0 L 790.0,100.0 Q 806.0,76.0 833.0,75.0 Q 933.0,71.0 974.0,75.0 Q 993.0,77.0 998.0,82.0 Q 1000.0,87.0 997.0,90.0 Q 995.0,92.0 992.0,94.0 Q 829.0,164.0 735.0,269.0 L 696.0,314.0 L 606.0,433.0 Q 596.0,452.0 578.0,455.0 Q 563.0,457.0 552.0,455.0 Q 547.0,454.0 544.0,451.0 Q 542.0,447.0 545.0,443.0 Q 546.0,441.0 549.0,439.0 Q 586.0,414.0 606.0,377.0 Q 632.0,331.0 673.0,270.0 L 706.0,220.0" fill="black" stroke="#000000"/>
</svg>
