<?xml version="1.0" ?>
<svg baseProfile="full" height="1024" version="1.1" viewBox="0 0 1024 1024" width="1024" xmlns="http://www.w3.org/2000/svg" xmlns:ev="http://www.w3.org/2001/xml-events" xmlns:xlink="http://www.w3.org/1999/xlink">
	<defs/>
	<path d="M 265.0,210.0 Q 260.0,214.0 254.0,216.0 C 227.0,228.0 223.0,220.0 227.0,190.0 L 227.0,186.0 Q 241.0,147.0 235.0,100.0 Q 235.0,90.0 227.0,84.0 Q 213.0,60.0 223.0,33.0 Q 227.0,22.0 239.0,7.0 Q 247.0,1.0 251.0,2.0 Q 255.0,3.0 257.0,7.0 Q 258.0,8.0 267.0,24.0 L 270.0,49.0 Q 274.0,63.0 274.0,96.0 L 272.0,134.0 Q 272.0,172.0 276.0,185.0 C 279.0,201.0 279.0,201.0 265.0,210.0" fill="black" stroke="#000000"/>
</svg>
