<?xml version="1.0" ?>
<svg baseProfile="full" height="1024" version="1.1" viewBox="0 0 1024 1024" width="1024" xmlns="http://www.w3.org/2000/svg" xmlns:ev="http://www.w3.org/2001/xml-events" xmlns:xlink="http://www.w3.org/1999/xlink">
	<defs/>
	<path d="M 283.0,472.0 Q 301.0,475.0 371.0,494.0 Q 390.0,500.0 395.0,490.0 Q 399.0,477.0 402.0,456.0 Q 412.0,263.0 406.0,145.0 Q 405.0,118.0 397.0,106.0 Q 393.0,100.0 373.0,105.0 Q 348.0,109.0 323.0,115.0 Q 304.0,121.0 305.0,111.0 Q 359.0,68.0 390.0,34.0 Q 403.0,15.0 417.0,11.0 Q 426.0,8.0 434.0,17.0 Q 468.0,65.0 470.0,131.0 Q 443.0,435.0 468.0,478.0 Q 480.0,497.0 468.0,506.0 Q 449.0,524.0 413.0,538.0 Q 397.0,545.0 341.0,518.0 Q 310.0,509.0 263.0,500.0 C 234.0,494.0 254.0,466.0 283.0,472.0" fill="black" stroke="#000000"/>
</svg>
