<?xml version="1.0" ?>
<svg baseProfile="full" height="1024" version="1.1" viewBox="0 0 1024 1024" width="1024" xmlns="http://www.w3.org/2000/svg" xmlns:ev="http://www.w3.org/2001/xml-events" xmlns:xlink="http://www.w3.org/1999/xlink">
	<defs/>
	<path d="M 710.0,569.0 Q 743.0,632.0 773.0,649.0 Q 795.0,670.0 769.0,689.0 Q 747.0,710.0 722.0,727.0 Q 709.0,739.0 638.0,719.0 Q 613.0,718.0 547.0,706.0 L 486.0,697.0 Q 449.0,693.0 412.0,686.0 Q 360.0,679.0 321.0,674.0 C 291.0,670.0 306.0,631.0 335.0,638.0 Q 336.0,639.0 339.0,639.0 Q 418.0,658.0 462.0,663.0 Q 472.0,664.0 487.0,666.0 L 545.0,673.0 Q 599.0,680.0 669.0,684.0 Q 685.0,685.0 690.0,678.0 Q 696.0,660.0 659.0,578.0 C 647.0,551.0 696.0,543.0 710.0,569.0" fill="black" stroke="#000000"/>
</svg>
