<?xml version="1.0" ?>
<svg baseProfile="full" height="1024" version="1.1" viewBox="0 0 1024 1024" width="1024" xmlns="http://www.w3.org/2000/svg" xmlns:ev="http://www.w3.org/2001/xml-events" xmlns:xlink="http://www.w3.org/1999/xlink">
	<defs/>
	<path d="M 754.0,283.0 Q 790.0,352.0 822.0,371.0 Q 847.0,393.0 818.0,416.0 Q 793.0,441.0 764.0,460.0 Q 748.0,475.0 693.0,459.0 Q 653.0,453.0 542.0,439.0 L 487.0,433.0 Q 441.0,429.0 393.0,421.0 Q 335.0,414.0 290.0,409.0 C 260.0,406.0 274.0,363.0 303.0,369.0 Q 405.0,391.0 487.0,398.0 L 542.0,402.0 Q 611.0,409.0 702.0,413.0 Q 721.0,414.0 727.0,404.0 Q 736.0,385.0 693.0,291.0 C 681.0,264.0 740.0,257.0 754.0,283.0" fill="black" stroke="#000000"/>
</svg>
