<?xml version="1.0" ?>
<svg baseProfile="full" height="1024" version="1.1" viewBox="0 0 1024 1024" width="1024" xmlns="http://www.w3.org/2000/svg" xmlns:ev="http://www.w3.org/2001/xml-events" xmlns:xlink="http://www.w3.org/1999/xlink">
	<defs/>
	<path d="M 370.0,458.0 Q 309.0,458.0 258.0,458.0 Q 224.0,458.0 242.0,479.0 Q 309.0,588.0 375.0,669.0 Q 390.0,685.0 387.0,693.0 Q 386.0,708.0 347.0,739.0 Q 331.0,752.0 313.0,750.0 Q 301.0,747.0 307.0,731.0 Q 325.0,692.0 235.0,536.0 Q 216.0,502.0 177.0,468.0 Q 158.0,455.0 159.0,442.0 Q 163.0,423.0 177.0,405.0 Q 187.0,395.0 199.0,401.0 Q 236.0,420.0 352.0,433.0 C 382.0,436.0 400.0,458.0 370.0,458.0" fill="black" stroke="#000000"/>
	<path d="M 352.0,433.0 Q 247.0,283.0 218.0,270.0 Q 205.0,261.0 207.0,247.0 Q 208.0,234.0 234.0,214.0 Q 244.0,201.0 259.0,214.0 Q 322.0,251.0 425.0,281.0 Q 444.0,285.0 447.0,293.0 Q 450.0,303.0 430.0,301.0 Q 375.0,294.0 308.0,280.0 Q 271.0,267.0 295.0,297.0 Q 437.0,505.0 502.0,561.0 Q 514.0,571.0 508.0,581.0 Q 498.0,600.0 464.0,618.0 Q 448.0,627.0 439.0,624.0 Q 429.0,621.0 432.0,606.0 Q 435.0,558.0 370.0,458.0 L 352.0,433.0" fill="black" stroke="#000000"/>
	<path d="M 683.0,458.0 Q 629.0,458.0 584.0,458.0 Q 547.0,458.0 566.0,481.0 Q 636.0,602.0 705.0,691.0 Q 720.0,709.0 717.0,716.0 Q 714.0,732.0 674.0,763.0 Q 658.0,778.0 638.0,773.0 Q 626.0,770.0 633.0,754.0 Q 651.0,714.0 560.0,544.0 Q 541.0,505.0 499.0,468.0 Q 480.0,455.0 481.0,441.0 Q 485.0,422.0 500.0,403.0 Q 510.0,393.0 523.0,399.0 Q 554.0,414.0 652.0,430.0 Q 656.0,431.0 661.0,430.0 C 691.0,432.0 713.0,458.0 683.0,458.0" fill="black" stroke="#000000"/>
</svg>
