<?xml version="1.0" ?>
<svg baseProfile="full" height="1024" version="1.1" viewBox="0 0 1024 1024" width="1024" xmlns="http://www.w3.org/2000/svg" xmlns:ev="http://www.w3.org/2001/xml-events" xmlns:xlink="http://www.w3.org/1999/xlink">
	<defs/>
	<path d="M 509.0,326.0 L 510.0,325.0 Q 532.0,306.0 555.0,315.0 Q 613.0,340.0 679.0,357.0 Q 713.0,367.0 724.0,364.0 Q 737.0,354.0 733.0,344.0 Q 734.0,340.0 731.0,335.0 Q 722.0,307.0 710.0,280.0 Q 704.0,270.0 709.0,265.0 Q 713.0,261.0 723.0,272.0 Q 805.0,335.0 841.0,350.0 Q 850.0,351.0 850.0,360.0 Q 851.0,373.0 822.0,385.0 Q 753.0,422.0 738.0,414.0 Q 657.0,377.0 519.0,345.0 C 492.0,339.0 492.0,339.0 509.0,326.0" fill="black" stroke="#000000"/>
</svg>
