<?xml version="1.0" ?>
<svg baseProfile="full" height="1024" version="1.1" viewBox="0 0 1024 1024" width="1024" xmlns="http://www.w3.org/2000/svg" xmlns:ev="http://www.w3.org/2001/xml-events" xmlns:xlink="http://www.w3.org/1999/xlink">
	<defs/>
	<path d="M 360.0,527.0 Q 490.0,596.0 563.0,656.0 Q 611.0,690.0 654.0,711.0 Q 675.0,717.0 676.0,727.0 Q 677.0,740.0 660.0,751.0 Q 630.0,763.0 574.0,771.0 Q 553.0,775.0 538.0,770.0 Q 531.0,763.0 533.0,750.0 Q 542.0,705.0 343.0,542.0 C 320.0,523.0 334.0,513.0 360.0,527.0" fill="black" stroke="#000000"/>
	<path d="M 366.0,424.0 Q 360.0,526.0 360.0,527.0 C 360.0,531.0 360.0,531.0 343.0,542.0 Q 318.0,560.0 289.0,567.0 Q 273.0,571.0 262.0,564.0 Q 253.0,557.0 262.0,539.0 Q 293.0,487.0 309.0,429.0 Q 321.0,371.0 347.0,143.0 C 350.0,113.0 398.0,117.0 394.0,147.0 Q 367.0,369.0 368.0,388.0 L 366.0,424.0" fill="black" stroke="#000000"/>
</svg>
