<?xml version="1.0" ?>
<svg baseProfile="full" height="1024" version="1.1" viewBox="0 0 1024 1024" width="1024" xmlns="http://www.w3.org/2000/svg" xmlns:ev="http://www.w3.org/2001/xml-events" xmlns:xlink="http://www.w3.org/1999/xlink">
	<defs/>
	<path d="M 493.0,825.0 Q 521.0,809.0 553.0,790.0 Q 568.0,781.0 582.0,785.0 Q 591.0,786.0 593.0,800.0 Q 594.0,813.0 580.0,839.0 Q 571.0,855.0 541.0,862.0 Q 469.0,872.0 459.0,863.0 Q 455.0,859.0 460.0,847.0 Q 464.0,838.0 493.0,825.0" fill="black" stroke="#000000"/>
	<path d="M 342.0,705.0 Q 384.0,695.0 460.0,704.0 Q 769.0,752.0 791.0,764.0 Q 791.0,765.0 793.0,765.0 Q 803.0,772.0 798.0,780.0 Q 792.0,793.0 764.0,801.0 Q 737.0,807.0 631.0,778.0 Q 445.0,741.0 339.0,735.0 Q 332.0,735.0 328.0,732.0 C 299.0,726.0 313.0,711.0 342.0,705.0" fill="black" stroke="#000000"/>
</svg>
