<?xml version="1.0" ?>
<svg baseProfile="full" height="1024" version="1.1" viewBox="0 0 1024 1024" width="1024" xmlns="http://www.w3.org/2000/svg" xmlns:ev="http://www.w3.org/2001/xml-events" xmlns:xlink="http://www.w3.org/1999/xlink">
	<defs/>
	<path d="M 493.0,825.0 Q 521.0,809.0 553.0,790.0 Q 568.0,781.0 582.0,785.0 Q 591.0,786.0 593.0,800.0 Q 594.0,813.0 580.0,839.0 Q 571.0,855.0 541.0,862.0 Q 469.0,872.0 459.0,863.0 Q 455.0,859.0 460.0,847.0 Q 464.0,838.0 493.0,825.0" fill="black" stroke="#000000"/>
	<path d="M 342.0,705.0 Q 384.0,695.0 460.0,704.0 Q 769.0,752.0 791.0,764.0 Q 791.0,765.0 793.0,765.0 Q 803.0,772.0 798.0,780.0 Q 792.0,793.0 764.0,801.0 Q 737.0,807.0 631.0,778.0 Q 445.0,741.0 339.0,735.0 Q 332.0,735.0 328.0,732.0 C 299.0,726.0 313.0,711.0 342.0,705.0" fill="black" stroke="#000000"/>
	<path d="M 328.0,732.0 Q 282.0,771.0 257.0,762.0 Q 244.0,755.0 251.0,740.0 Q 272.0,710.0 268.0,645.0 Q 247.0,408.0 198.0,275.0 Q 156.0,169.0 60.0,24.0 Q 54.0,17.0 52.0,11.0 Q 49.0,-1.0 60.0,2.0 Q 102.0,8.0 195.0,158.0 Q 207.0,180.0 219.0,203.0 Q 297.0,366.0 319.0,576.0 Q 328.0,663.0 342.0,705.0 C 346.0,718.0 346.0,718.0 328.0,732.0" fill="black" stroke="#000000"/>
	<path d="M 400.0,538.0 Q 416.0,559.0 437.0,588.0 Q 447.0,606.0 457.0,614.0 Q 464.0,621.0 460.0,631.0 Q 457.0,640.0 437.0,656.0 Q 418.0,669.0 404.0,668.0 Q 391.0,667.0 397.0,651.0 Q 404.0,639.0 400.0,628.0 Q 382.0,571.0 324.0,486.0 Q 317.0,479.0 316.0,474.0 Q 313.0,467.0 323.0,468.0 Q 332.0,469.0 378.0,514.0 L 400.0,538.0" fill="black" stroke="#000000"/>
	<path d="M 378.0,514.0 Q 391.0,487.0 372.0,401.0 Q 362.0,371.0 388.0,337.0 L 389.0,336.0 Q 401.0,326.0 408.0,343.0 Q 418.0,370.0 418.0,400.0 Q 419.0,473.0 423.0,490.0 Q 427.0,506.0 421.0,514.0 Q 412.0,526.0 400.0,538.0 C 379.0,559.0 367.0,542.0 378.0,514.0" fill="black" stroke="#000000"/>
	<path d="M 534.0,588.0 Q 546.0,604.0 558.0,623.0 Q 570.0,644.0 580.0,653.0 Q 586.0,660.0 583.0,669.0 Q 580.0,678.0 561.0,692.0 Q 545.0,702.0 531.0,703.0 Q 519.0,702.0 525.0,687.0 Q 537.0,665.0 491.0,582.0 Q 470.0,545.0 440.0,504.0 Q 433.0,497.0 432.0,493.0 Q 431.0,486.0 439.0,488.0 Q 463.0,494.0 515.0,562.0 L 534.0,588.0" fill="black" stroke="#000000"/>
</svg>
