<?xml version="1.0" ?>
<svg baseProfile="full" height="1024" version="1.1" viewBox="0 0 1024 1024" width="1024" xmlns="http://www.w3.org/2000/svg" xmlns:ev="http://www.w3.org/2001/xml-events" xmlns:xlink="http://www.w3.org/1999/xlink">
	<defs/>
	<path d="M 370.0,458.0 Q 309.0,458.0 258.0,458.0 Q 224.0,458.0 242.0,479.0 Q 309.0,588.0 375.0,669.0 Q 390.0,685.0 387.0,693.0 Q 386.0,708.0 347.0,739.0 Q 331.0,752.0 313.0,750.0 Q 301.0,747.0 307.0,731.0 Q 325.0,692.0 235.0,536.0 Q 216.0,502.0 177.0,468.0 Q 158.0,455.0 159.0,442.0 Q 163.0,423.0 177.0,405.0 Q 187.0,395.0 199.0,401.0 Q 236.0,420.0 352.0,433.0 C 382.0,436.0 400.0,458.0 370.0,458.0" fill="black" stroke="#000000"/>
	<path d="M 352.0,433.0 Q 247.0,283.0 218.0,270.0 Q 205.0,261.0 207.0,247.0 Q 208.0,234.0 234.0,214.0 Q 244.0,201.0 259.0,214.0 Q 322.0,251.0 425.0,281.0 Q 444.0,285.0 447.0,293.0 Q 450.0,303.0 430.0,301.0 Q 375.0,294.0 308.0,280.0 Q 271.0,267.0 295.0,297.0 Q 437.0,505.0 502.0,561.0 Q 514.0,571.0 508.0,581.0 Q 498.0,600.0 464.0,618.0 Q 448.0,627.0 439.0,624.0 Q 429.0,621.0 432.0,606.0 Q 435.0,558.0 370.0,458.0 L 352.0,433.0" fill="black" stroke="#000000"/>
	<path d="M 683.0,458.0 Q 629.0,458.0 584.0,458.0 Q 547.0,458.0 566.0,481.0 Q 636.0,602.0 705.0,691.0 Q 720.0,709.0 717.0,716.0 Q 714.0,732.0 674.0,763.0 Q 658.0,778.0 638.0,773.0 Q 626.0,770.0 633.0,754.0 Q 651.0,714.0 560.0,544.0 Q 541.0,505.0 499.0,468.0 Q 480.0,455.0 481.0,441.0 Q 485.0,422.0 500.0,403.0 Q 510.0,393.0 523.0,399.0 Q 554.0,414.0 652.0,430.0 Q 656.0,431.0 661.0,430.0 C 691.0,432.0 713.0,458.0 683.0,458.0" fill="black" stroke="#000000"/>
	<path d="M 661.0,430.0 Q 564.0,309.0 536.0,297.0 Q 520.0,290.0 523.0,273.0 Q 523.0,258.0 550.0,235.0 Q 560.0,222.0 577.0,233.0 Q 655.0,272.0 782.0,294.0 Q 803.0,295.0 807.0,305.0 Q 811.0,315.0 789.0,314.0 Q 722.0,313.0 636.0,300.0 Q 590.0,288.0 622.0,322.0 Q 662.0,374.0 758.0,476.0 Q 789.0,515.0 817.0,537.0 Q 830.0,547.0 825.0,558.0 Q 815.0,579.0 780.0,600.0 Q 762.0,610.0 753.0,608.0 Q 741.0,605.0 743.0,589.0 Q 746.0,547.0 683.0,458.0 L 661.0,430.0" fill="black" stroke="#000000"/>
	<path d="M 517.0,89.0 Q 566.0,92.0 612.0,97.0 Q 735.0,107.0 867.0,95.0 Q 892.0,92.0 898.0,101.0 Q 905.0,114.0 893.0,127.0 Q 862.0,155.0 817.0,176.0 Q 802.0,183.0 775.0,174.0 Q 696.0,158.0 483.0,134.0 Q 186.0,107.0 169.0,106.0 Q 163.0,106.0 157.0,106.0 Q 142.0,106.0 141.0,94.0 Q 141.0,81.0 160.0,66.0 Q 178.0,53.0 210.0,41.0 Q 222.0,37.0 240.0,45.0 Q 256.0,49.0 322.0,61.0 Q 409.0,80.0 517.0,89.0" fill="black" stroke="#000000"/>
</svg>
