<?xml version="1.0" ?>
<svg baseProfile="full" height="1024" version="1.1" viewBox="0 0 1024 1024" width="1024" xmlns="http://www.w3.org/2000/svg" xmlns:ev="http://www.w3.org/2001/xml-events" xmlns:xlink="http://www.w3.org/1999/xlink">
	<defs/>
	<path d="M 412.0,631.0 Q 487.0,662.0 544.0,695.0 Q 593.0,717.0 635.0,728.0 Q 654.0,729.0 658.0,739.0 Q 661.0,751.0 647.0,763.0 Q 623.0,779.0 574.0,796.0 Q 556.0,803.0 542.0,801.0 Q 533.0,797.0 534.0,784.0 Q 534.0,745.0 338.0,635.0 Q 287.0,607.0 224.0,577.0 Q 220.0,567.0 226.0,564.0 Q 247.0,564.0 372.0,615.0 L 412.0,631.0" fill="black" stroke="#000000"/>
	<path d="M 459.0,399.0 Q 460.0,400.0 465.0,400.0 Q 679.0,433.0 786.0,433.0 Q 849.0,433.0 854.0,440.0 Q 861.0,455.0 847.0,466.0 Q 814.0,493.0 768.0,510.0 Q 752.0,514.0 726.0,505.0 Q 662.0,486.0 597.0,472.0 Q 513.0,459.0 463.0,448.0 L 409.0,438.0 Q 310.0,422.0 258.0,411.0 Q 194.0,396.0 98.0,389.0 Q 83.0,388.0 83.0,376.0 Q 83.0,363.0 104.0,349.0 Q 122.0,339.0 155.0,328.0 Q 167.0,324.0 185.0,334.0 Q 200.0,341.0 268.0,356.0 Q 331.0,375.0 409.0,390.0 L 459.0,399.0" fill="black" stroke="#000000"/>
</svg>
