<?xml version="1.0" ?>
<svg baseProfile="full" height="1024" version="1.1" viewBox="0 0 1024 1024" width="1024" xmlns="http://www.w3.org/2000/svg" xmlns:ev="http://www.w3.org/2001/xml-events" xmlns:xlink="http://www.w3.org/1999/xlink">
	<defs/>
	<path d="M 602.0,487.0 Q 659.0,491.0 745.0,497.0 Q 761.0,497.0 766.0,489.0 Q 776.0,482.0 777.0,439.0 Q 787.0,258.0 767.0,153.0 Q 758.0,111.0 723.0,115.0 Q 677.0,125.0 633.0,132.0 Q 617.0,136.0 617.0,129.0 Q 617.0,122.0 630.0,109.0 Q 724.0,43.0 750.0,8.0 Q 760.0,-8.0 772.0,-6.0 Q 788.0,-3.0 801.0,25.0 Q 835.0,88.0 846.0,279.0 Q 849.0,457.0 863.0,481.0 Q 882.0,505.0 867.0,510.0 Q 851.0,528.0 809.0,545.0 Q 784.0,561.0 756.0,550.0 Q 723.0,540.0 641.0,532.0 Q 625.0,531.0 608.0,528.0 L 550.0,522.0 Q 471.0,515.0 413.0,503.0 L 363.0,494.0 Q 302.0,484.0 243.0,473.0 C 213.0,468.0 221.0,426.0 250.0,434.0 Q 292.0,449.0 352.0,456.0 Q 353.0,457.0 357.0,456.0 L 405.0,463.0 Q 481.0,476.0 546.0,483.0 L 602.0,487.0" fill="black" stroke="#000000"/>
</svg>
