<?xml version="1.0" ?>
<svg baseProfile="full" height="1024" version="1.1" viewBox="0 0 1024 1024" width="1024" xmlns="http://www.w3.org/2000/svg" xmlns:ev="http://www.w3.org/2001/xml-events" xmlns:xlink="http://www.w3.org/1999/xlink">
	<defs/>
	<path d="M 574.0,375.0 Q 595.0,453.0 602.0,487.0 L 608.0,528.0 Q 614.0,613.0 622.0,634.0 Q 629.0,647.0 623.0,661.0 Q 608.0,676.0 583.0,687.0 C 556.0,700.0 524.0,707.0 537.0,680.0 Q 537.0,679.0 539.0,676.0 Q 560.0,640.0 550.0,522.0 L 546.0,483.0 Q 545.0,477.0 545.0,470.0 Q 527.0,347.0 442.0,198.0 Q 438.0,192.0 436.0,186.0 Q 433.0,176.0 444.0,177.0 Q 469.0,181.0 532.0,278.0 Q 541.0,296.0 551.0,315.0 Q 558.0,331.0 564.0,348.0 L 574.0,375.0" fill="black" stroke="#000000"/>
</svg>
