<?xml version="1.0" ?>
<svg baseProfile="full" height="1024" version="1.1" viewBox="0 0 1024 1024" width="1024" xmlns="http://www.w3.org/2000/svg" xmlns:ev="http://www.w3.org/2001/xml-events" xmlns:xlink="http://www.w3.org/1999/xlink">
	<defs/>
	<path d="M 654.0,759.0 Q 611.0,711.0 511.0,650.0 Q 508.0,643.0 513.0,640.0 Q 541.0,640.0 662.0,706.0 Q 692.0,728.0 744.0,746.0 Q 757.0,747.0 760.0,755.0 Q 761.0,765.0 751.0,773.0 Q 696.0,803.0 668.0,795.0 Q 662.0,791.0 663.0,782.0 Q 664.0,769.0 654.0,759.0" fill="black" stroke="#000000"/>
	<path d="M 498.0,567.0 Q 517.0,548.0 538.0,526.0 Q 548.0,516.0 561.0,515.0 Q 568.0,515.0 573.0,525.0 Q 577.0,535.0 572.0,559.0 Q 565.0,586.0 497.0,605.0 Q 485.0,608.0 480.0,606.0 Q 476.0,605.0 476.0,594.0 Q 479.0,585.0 498.0,567.0" fill="black" stroke="#000000"/>
</svg>
