<?xml version="1.0" ?>
<svg baseProfile="full" height="1024" version="1.1" viewBox="0 0 1024 1024" width="1024" xmlns="http://www.w3.org/2000/svg" xmlns:ev="http://www.w3.org/2001/xml-events" xmlns:xlink="http://www.w3.org/1999/xlink">
	<defs/>
	<path d="M 654.0,759.0 Q 611.0,711.0 511.0,650.0 Q 508.0,643.0 513.0,640.0 Q 541.0,640.0 662.0,706.0 Q 692.0,728.0 744.0,746.0 Q 757.0,747.0 760.0,755.0 Q 761.0,765.0 751.0,773.0 Q 696.0,803.0 668.0,795.0 Q 662.0,791.0 663.0,782.0 Q 664.0,769.0 654.0,759.0" fill="black" stroke="#000000"/>
	<path d="M 498.0,567.0 Q 517.0,548.0 538.0,526.0 Q 548.0,516.0 561.0,515.0 Q 568.0,515.0 573.0,525.0 Q 577.0,535.0 572.0,559.0 Q 565.0,586.0 497.0,605.0 Q 485.0,608.0 480.0,606.0 Q 476.0,605.0 476.0,594.0 Q 479.0,585.0 498.0,567.0" fill="black" stroke="#000000"/>
	<path d="M 612.0,616.0 Q 646.0,559.0 668.0,555.0 Q 678.0,554.0 686.0,567.0 Q 687.0,577.0 682.0,596.0 Q 676.0,609.0 658.0,618.0 Q 630.0,634.0 618.0,638.0 Q 611.0,641.0 609.0,631.0 Q 608.0,624.0 612.0,616.0" fill="black" stroke="#000000"/>
	<path d="M 781.0,638.0 Q 754.0,589.0 698.0,513.0 Q 694.0,506.0 699.0,499.0 Q 706.0,498.0 714.0,503.0 Q 811.0,590.0 858.0,623.0 Q 876.0,630.0 871.0,641.0 Q 864.0,657.0 842.0,674.0 Q 820.0,690.0 797.0,691.0 Q 782.0,690.0 785.0,669.0 Q 789.0,656.0 781.0,638.0" fill="black" stroke="#000000"/>
	<path d="M 573.0,425.0 Q 580.0,435.0 589.0,445.0 Q 596.0,454.0 586.0,465.0 Q 553.0,492.0 535.0,489.0 Q 528.0,488.0 528.0,476.0 Q 537.0,421.0 478.0,354.0 Q 465.0,338.0 457.0,329.0 Q 450.0,319.0 462.0,321.0 Q 472.0,322.0 486.0,332.0 Q 531.0,362.0 557.0,402.0 Q 558.0,406.0 561.0,409.0 L 573.0,425.0" fill="black" stroke="#000000"/>
</svg>
