<?xml version="1.0" ?>
<svg baseProfile="full" height="1024" version="1.1" viewBox="0 0 1024 1024" width="1024" xmlns="http://www.w3.org/2000/svg" xmlns:ev="http://www.w3.org/2001/xml-events" xmlns:xlink="http://www.w3.org/1999/xlink">
	<defs/>
	<path d="M 545.0,461.0 Q 545.0,203.0 518.0,102.0 Q 509.0,60.0 535.0,-3.0 Q 540.0,-14.0 545.0,-21.0 Q 557.0,-33.0 564.0,-24.0 Q 569.0,-22.0 574.0,-14.0 Q 594.0,14.0 593.0,63.0 Q 592.0,112.0 593.0,570.0 Q 593.0,664.0 610.0,731.0 Q 619.0,747.0 615.0,760.0 Q 609.0,771.0 551.0,806.0 Q 525.0,821.0 505.0,808.0 Q 498.0,801.0 506.0,785.0 Q 511.0,778.0 514.0,772.0 Q 531.0,745.0 537.0,706.0 Q 541.0,668.0 545.0,491.0 L 545.0,461.0" fill="black" stroke="#000000"/>
</svg>
