<?xml version="1.0" ?>
<svg baseProfile="full" height="1024" version="1.1" viewBox="0 0 1024 1024" width="1024" xmlns="http://www.w3.org/2000/svg" xmlns:ev="http://www.w3.org/2001/xml-events" xmlns:xlink="http://www.w3.org/1999/xlink">
	<defs/>
	<path d="M 587.0,638.0 Q 562.0,639.0 542.0,638.0 Q 517.0,637.0 529.0,653.0 Q 559.0,711.0 588.0,755.0 Q 597.0,768.0 594.0,773.0 Q 593.0,783.0 563.0,801.0 Q 551.0,810.0 539.0,806.0 Q 532.0,803.0 536.0,793.0 Q 554.0,766.0 501.0,658.0 Q 494.0,651.0 485.0,640.0 Q 473.0,630.0 475.0,621.0 Q 479.0,609.0 489.0,597.0 Q 496.0,590.0 505.0,596.0 Q 518.0,605.0 563.0,618.0 Q 569.0,619.0 575.0,619.0 C 605.0,621.0 617.0,637.0 587.0,638.0" fill="black" stroke="#000000"/>
</svg>
