<?xml version="1.0" ?>
<svg baseProfile="full" height="1024" version="1.1" viewBox="0 0 1024 1024" width="1024" xmlns="http://www.w3.org/2000/svg" xmlns:ev="http://www.w3.org/2001/xml-events" xmlns:xlink="http://www.w3.org/1999/xlink">
	<defs/>
	<path d="M 501.0,577.0 Q 624.0,692.0 670.0,708.0 Q 692.0,715.0 685.0,734.0 Q 681.0,752.0 608.0,791.0 Q 587.0,801.0 562.0,792.0 Q 493.0,767.0 388.0,737.0 Q 360.0,728.0 294.0,731.0 Q 269.0,731.0 278.0,709.0 Q 287.0,696.0 307.0,683.0 Q 341.0,664.0 378.0,686.0 Q 538.0,752.0 563.0,739.0 Q 576.0,729.0 570.0,715.0 Q 531.0,658.0 488.0,591.0 C 472.0,566.0 479.0,557.0 501.0,577.0" fill="black" stroke="#000000"/>
	<path d="M 540.0,462.0 Q 525.0,553.0 501.0,577.0 L 488.0,591.0 Q 475.0,601.0 457.0,607.0 Q 438.0,614.0 428.0,608.0 Q 415.0,601.0 428.0,589.0 Q 462.0,564.0 471.0,520.0 Q 496.0,441.0 496.0,359.0 Q 497.0,280.0 478.0,230.0 Q 465.0,208.0 434.0,214.0 Q 406.0,220.0 380.0,226.0 Q 370.0,229.0 373.0,218.0 Q 377.0,211.0 394.0,198.0 Q 430.0,167.0 441.0,141.0 Q 451.0,125.0 466.0,126.0 Q 479.0,127.0 505.0,152.0 Q 565.0,209.0 549.0,398.0 Q 548.0,407.0 547.0,413.0 L 540.0,462.0" fill="black" stroke="#000000"/>
</svg>
