<?xml version="1.0" ?>
<svg baseProfile="full" height="1024" version="1.1" viewBox="0 0 1024 1024" width="1024" xmlns="http://www.w3.org/2000/svg" xmlns:ev="http://www.w3.org/2001/xml-events" xmlns:xlink="http://www.w3.org/1999/xlink">
	<defs/>
	<path d="M 616.0,802.0 Q 641.0,781.0 670.0,757.0 Q 683.0,745.0 698.0,746.0 Q 708.0,747.0 713.0,760.0 Q 717.0,775.0 707.0,803.0 Q 695.0,830.0 609.0,847.0 Q 593.0,850.0 588.0,847.0 Q 584.0,843.0 585.0,831.0 Q 589.0,821.0 616.0,802.0" fill="black" stroke="#000000"/>
	<path d="M 496.0,636.0 Q 532.0,621.0 576.0,631.0 Q 682.0,653.0 793.0,675.0 Q 842.0,688.0 851.0,694.0 Q 858.0,701.0 855.0,709.0 Q 848.0,719.0 822.0,727.0 Q 798.0,733.0 704.0,701.0 Q 589.0,671.0 496.0,662.0 Q 489.0,661.0 487.0,659.0 C 458.0,651.0 468.0,646.0 496.0,636.0" fill="black" stroke="#000000"/>
</svg>
