<?xml version="1.0" ?>
<svg baseProfile="full" height="1024" version="1.1" viewBox="0 0 1024 1024" width="1024" xmlns="http://www.w3.org/2000/svg" xmlns:ev="http://www.w3.org/2001/xml-events" xmlns:xlink="http://www.w3.org/1999/xlink">
	<defs/>
	<path d="M 291.0,607.0 Q 287.0,610.0 282.0,613.0 Q 258.0,630.0 243.0,623.0 Q 237.0,617.0 241.0,597.0 Q 253.0,553.0 250.0,524.0 Q 243.0,438.0 241.0,321.0 Q 237.0,131.0 249.0,93.0 Q 255.0,51.0 296.0,22.0 Q 383.0,-41.0 606.0,-40.0 Q 651.0,-39.0 690.0,-33.0 Q 826.0,-17.0 941.0,53.0 Q 960.0,69.0 949.0,94.0 Q 937.0,129.0 923.0,229.0 Q 923.0,245.0 916.0,251.0 Q 909.0,255.0 906.0,237.0 Q 872.0,131.0 851.0,98.0 Q 819.0,63.0 735.0,40.0 Q 538.0,-12.0 374.0,47.0 Q 312.0,74.0 296.0,112.0 Q 274.0,161.0 284.0,276.0 Q 285.0,288.0 288.0,331.0 Q 302.0,551.0 306.0,572.0 Q 308.0,578.0 308.0,580.0 C 310.0,598.0 310.0,598.0 291.0,607.0" fill="black" stroke="#000000"/>
</svg>
