<?xml version="1.0" ?>
<svg baseProfile="full" height="1024" version="1.1" viewBox="0 0 1024 1024" width="1024" xmlns="http://www.w3.org/2000/svg" xmlns:ev="http://www.w3.org/2001/xml-events" xmlns:xlink="http://www.w3.org/1999/xlink">
	<defs/>
	<path d="M 443.0,715.0 Q 449.0,729.0 501.0,798.0 Q 513.0,811.0 498.0,827.0 Q 455.0,862.0 426.0,860.0 Q 414.0,860.0 416.0,844.0 Q 421.0,780.0 378.0,709.0 Q 357.0,673.0 321.0,635.0 Q 302.0,623.0 270.0,583.0 Q 265.0,573.0 269.0,570.0 Q 270.0,569.0 276.0,570.0 Q 341.0,581.0 428.0,694.0 L 443.0,715.0" fill="black" stroke="#000000"/>
	<path d="M 531.0,559.0 Q 586.0,639.0 667.0,694.0 Q 682.0,703.0 678.0,714.0 Q 678.0,717.0 674.0,720.0 Q 664.0,730.0 615.0,758.0 Q 604.0,762.0 592.0,759.0 L 581.0,754.0 Q 576.0,754.0 488.0,725.0 Q 470.0,718.0 443.0,715.0 C 413.0,711.0 400.0,703.0 428.0,694.0 Q 442.0,686.0 480.0,690.0 Q 498.0,692.0 525.0,696.0 Q 551.0,700.0 557.0,698.0 Q 560.0,696.0 559.0,690.0 Q 534.0,610.0 490.0,552.0 L 490.0,551.0 C 473.0,526.0 514.0,534.0 531.0,559.0" fill="black" stroke="#000000"/>
	<path d="M 314.0,527.0 Q 308.0,533.0 255.0,539.0 Q 246.0,539.0 241.0,537.0 Q 239.0,537.0 237.0,535.0 Q 233.0,529.0 237.0,521.0 L 243.0,511.0 Q 279.0,455.0 302.0,372.0 Q 309.0,345.0 326.0,329.0 Q 342.0,314.0 349.0,319.0 Q 351.0,321.0 353.0,325.0 L 355.0,339.0 L 349.0,374.0 L 323.0,488.0 C 316.0,517.0 314.0,527.0 314.0,527.0" fill="black" stroke="#000000"/>
	<path d="M 700.0,406.0 Q 739.0,488.0 776.0,504.0 Q 798.0,523.0 782.0,545.0 Q 764.0,563.0 708.0,595.0 Q 688.0,606.0 663.0,598.0 Q 598.0,574.0 531.0,559.0 L 490.0,551.0 Q 402.0,535.0 314.0,527.0 C 284.0,524.0 294.0,479.0 323.0,488.0 Q 331.0,490.0 343.0,494.0 L 504.0,520.0 Q 562.0,533.0 624.0,543.0 Q 647.0,547.0 662.0,543.0 Q 670.0,540.0 674.0,535.0 Q 681.0,526.0 665.0,478.0 L 646.0,425.0 Q 645.0,423.0 643.0,419.0 C 632.0,391.0 687.0,379.0 700.0,406.0" fill="black" stroke="#000000"/>
	<path d="M 425.0,348.0 L 580.0,366.0 L 705.0,374.0 Q 714.0,376.0 717.0,385.0 Q 717.0,392.0 700.0,406.0 L 643.0,419.0 L 636.0,419.0 Q 564.0,404.0 498.0,393.0 L 437.0,384.0 L 349.0,374.0 C 319.0,371.0 325.0,339.0 355.0,339.0 L 368.0,339.0 L 425.0,348.0" fill="black" stroke="#000000"/>
	<path d="M 310.0,192.0 L 323.0,194.0 Q 412.0,213.0 472.0,223.0 Q 492.0,225.0 490.0,235.0 Q 490.0,237.0 488.0,241.0 Q 474.0,256.0 449.0,259.0 Q 421.0,261.0 368.0,243.0 Q 345.0,235.0 310.0,220.0 C 282.0,208.0 280.0,187.0 310.0,192.0" fill="black" stroke="#000000"/>
</svg>
