<?xml version="1.0" ?>
<svg baseProfile="full" height="1024" version="1.1" viewBox="0 0 1024 1024" width="1024" xmlns="http://www.w3.org/2000/svg" xmlns:ev="http://www.w3.org/2001/xml-events" xmlns:xlink="http://www.w3.org/1999/xlink">
	<defs/>
	<path d="M 444.0,562.0 Q 574.0,584.0 711.0,605.0 Q 807.0,623.0 821.0,634.0 Q 831.0,643.0 827.0,654.0 Q 820.0,669.0 785.0,679.0 Q 751.0,688.0 713.0,676.0 Q 568.0,633.0 465.0,615.0 L 409.0,606.0 Q 310.0,594.0 203.0,587.0 Q 158.0,583.0 189.0,560.0 Q 234.0,530.0 337.0,547.0 Q 361.0,551.0 389.0,554.0 L 444.0,562.0" fill="black" stroke="#000000"/>
	<path d="M 560.0,320.0 Q 645.0,332.0 704.0,335.0 Q 752.0,338.0 754.0,351.0 Q 755.0,367.0 721.0,388.0 Q 691.0,406.0 560.0,374.0 L 505.0,363.0 Q 445.0,354.0 375.0,343.0 Q 354.0,340.0 353.0,345.0 L 444.0,562.0 L 465.0,615.0 Q 520.0,747.0 544.0,764.0 Q 566.0,782.0 553.0,795.0 Q 492.0,849.0 462.0,850.0 Q 450.0,849.0 457.0,824.0 Q 470.0,775.0 409.0,606.0 L 389.0,554.0 Q 334.0,403.0 275.0,353.0 Q 248.0,331.0 267.0,278.0 Q 274.0,259.0 293.0,267.0 Q 369.0,294.0 506.0,313.0 L 560.0,320.0" fill="black" stroke="#000000"/>
	<path d="M 560.0,374.0 Q 561.0,408.0 572.0,433.0 Q 582.0,452.0 564.0,466.0 Q 537.0,488.0 506.0,499.0 Q 487.0,506.0 478.0,498.0 Q 472.0,491.0 483.0,475.0 Q 504.0,439.0 505.0,363.0 L 506.0,313.0 Q 507.0,88.0 489.0,74.0 Q 480.0,67.0 467.0,71.0 Q 422.0,84.0 379.0,99.0 Q 366.0,102.0 367.0,94.0 Q 368.0,87.0 378.0,78.0 Q 463.0,5.0 494.0,-39.0 Q 509.0,-57.0 525.0,-43.0 Q 565.0,-1.0 564.0,67.0 Q 561.0,103.0 560.0,320.0 L 560.0,374.0" fill="black" stroke="#000000"/>
</svg>
