<?xml version="1.0" ?>
<svg baseProfile="full" height="1024" version="1.1" viewBox="0 0 1024 1024" width="1024" xmlns="http://www.w3.org/2000/svg" xmlns:ev="http://www.w3.org/2001/xml-events" xmlns:xlink="http://www.w3.org/1999/xlink">
	<defs/>
	<path d="M 446.0,766.0 Q 480.0,739.0 515.0,706.0 Q 530.0,693.0 547.0,693.0 Q 559.0,694.0 564.0,708.0 Q 570.0,724.0 559.0,757.0 Q 547.0,796.0 440.0,819.0 Q 424.0,823.0 416.0,819.0 Q 410.0,815.0 412.0,801.0 Q 416.0,788.0 446.0,766.0" fill="black" stroke="#000000"/>
	<path d="M 311.0,281.0 Q 464.0,372.0 633.0,513.0 Q 666.0,541.0 738.0,570.0 Q 763.0,579.0 749.0,597.0 Q 737.0,619.0 682.0,648.0 Q 667.0,655.0 651.0,644.0 Q 581.0,596.0 300.0,559.0 Q 251.0,555.0 229.0,556.0 Q 213.0,557.0 209.0,542.0 Q 208.0,529.0 240.0,504.0 Q 268.0,482.0 297.0,497.0 Q 346.0,524.0 576.0,567.0 Q 592.0,570.0 596.0,564.0 Q 600.0,560.0 588.0,548.0 Q 407.0,388.0 258.0,283.0 C 234.0,266.0 285.0,265.0 311.0,281.0" fill="black" stroke="#000000"/>
</svg>
