<?xml version="1.0" ?>
<svg baseProfile="full" height="1024" version="1.1" viewBox="0 0 1024 1024" width="1024" xmlns="http://www.w3.org/2000/svg" xmlns:ev="http://www.w3.org/2001/xml-events" xmlns:xlink="http://www.w3.org/1999/xlink">
	<defs/>
	<path d="M 384.0,399.0 Q 306.0,383.0 249.0,360.0 Q 228.0,353.0 232.0,379.0 Q 236.0,473.0 242.0,570.0 Q 245.0,600.0 232.0,616.0 Q 187.0,661.0 156.0,654.0 Q 143.0,647.0 154.0,625.0 Q 197.0,540.0 187.0,452.0 Q 181.0,367.0 148.0,329.0 Q 129.0,307.0 139.0,290.0 Q 154.0,274.0 176.0,262.0 Q 192.0,255.0 204.0,265.0 Q 237.0,311.0 356.0,345.0 Q 372.0,351.0 381.0,350.0 C 411.0,354.0 413.0,405.0 384.0,399.0" fill="black" stroke="#000000"/>
</svg>
