<?xml version="1.0" ?>
<svg baseProfile="full" height="1024" version="1.1" viewBox="0 0 1024 1024" width="1024" xmlns="http://www.w3.org/2000/svg" xmlns:ev="http://www.w3.org/2001/xml-events" xmlns:xlink="http://www.w3.org/1999/xlink">
	<defs/>
	<path d="M 803.0,220.0 Q 775.0,217.0 743.0,211.0 Q 719.0,204.0 735.0,222.0 Q 756.0,247.0 803.0,295.0 Q 825.0,322.0 844.0,336.0 Q 853.0,343.0 848.0,350.0 Q 841.0,365.0 818.0,379.0 Q 806.0,386.0 800.0,385.0 Q 793.0,384.0 793.0,371.0 Q 793.0,355.0 767.0,306.0 L 756.0,289.0 Q 693.0,211.0 678.0,205.0 Q 668.0,199.0 669.0,188.0 Q 670.0,178.0 688.0,164.0 Q 695.0,154.0 707.0,163.0 Q 755.0,191.0 813.0,205.0 C 842.0,212.0 833.0,223.0 803.0,220.0" fill="black" stroke="#000000"/>
</svg>
