<?xml version="1.0" ?>
<svg baseProfile="full" height="1024" version="1.1" viewBox="0 0 1024 1024" width="1024" xmlns="http://www.w3.org/2000/svg" xmlns:ev="http://www.w3.org/2001/xml-events" xmlns:xlink="http://www.w3.org/1999/xlink">
	<defs/>
	<path d="M 774.0,657.0 Q 744.0,658.0 720.0,657.0 Q 701.0,656.0 711.0,668.0 Q 750.0,728.0 787.0,772.0 Q 797.0,782.0 795.0,788.0 Q 794.0,798.0 769.0,818.0 Q 759.0,827.0 746.0,825.0 Q 739.0,824.0 743.0,813.0 Q 753.0,789.0 702.0,699.0 Q 692.0,680.0 669.0,661.0 Q 656.0,651.0 658.0,644.0 Q 661.0,631.0 670.0,620.0 Q 677.0,613.0 685.0,617.0 Q 700.0,627.0 753.0,640.0 Q 757.0,641.0 764.0,641.0 C 794.0,643.0 804.0,656.0 774.0,657.0" fill="black" stroke="#000000"/>
</svg>
