<?xml version="1.0" ?>
<svg baseProfile="full" height="1024" version="1.1" viewBox="0 0 1024 1024" width="1024" xmlns="http://www.w3.org/2000/svg" xmlns:ev="http://www.w3.org/2001/xml-events" xmlns:xlink="http://www.w3.org/1999/xlink">
	<defs/>
	<path d="M 553.0,266.0 Q 507.0,199.0 488.0,190.0 Q 479.0,184.0 480.0,176.0 Q 481.0,167.0 498.0,154.0 Q 505.0,147.0 514.0,154.0 Q 545.0,175.0 609.0,197.0 C 637.0,207.0 634.0,213.0 604.0,209.0 Q 576.0,206.0 545.0,198.0 Q 524.0,191.0 538.0,207.0 Q 598.0,291.0 639.0,324.0 Q 646.0,331.0 643.0,337.0 Q 636.0,350.0 615.0,362.0 Q 605.0,368.0 599.0,366.0 Q 592.0,365.0 594.0,354.0 Q 595.0,336.0 565.0,282.0 L 553.0,266.0" fill="black" stroke="#000000"/>
</svg>
