<?xml version="1.0" ?>
<svg baseProfile="full" height="1024" version="1.1" viewBox="0 0 1024 1024" width="1024" xmlns="http://www.w3.org/2000/svg" xmlns:ev="http://www.w3.org/2001/xml-events" xmlns:xlink="http://www.w3.org/1999/xlink">
	<defs/>
	<path d="M 535.0,654.0 Q 704.0,690.0 710.0,695.0 Q 720.0,702.0 715.0,712.0 Q 708.0,724.0 678.0,732.0 Q 647.0,739.0 617.0,728.0 Q 577.0,715.0 539.0,704.0 L 480.0,690.0 Q 407.0,677.0 327.0,669.0 Q 290.0,665.0 316.0,646.0 Q 358.0,621.0 415.0,633.0 Q 446.0,639.0 482.0,645.0 L 535.0,654.0" fill="black" stroke="#000000"/>
	<path d="M 521.0,432.0 Q 528.0,547.0 535.0,654.0 L 539.0,704.0 Q 539.0,716.0 555.0,782.0 Q 558.0,792.0 538.0,808.0 Q 502.0,827.0 478.0,831.0 Q 462.0,835.0 454.0,826.0 Q 447.0,819.0 455.0,803.0 Q 477.0,770.0 478.0,748.0 Q 479.0,720.0 480.0,690.0 L 482.0,645.0 Q 483.0,542.0 479.0,426.0 C 478.0,396.0 519.0,402.0 521.0,432.0" fill="black" stroke="#000000"/>
	<path d="M 316.0,522.0 Q 343.0,500.0 372.0,471.0 Q 384.0,459.0 399.0,460.0 Q 409.0,460.0 413.0,473.0 Q 417.0,486.0 409.0,513.0 Q 405.0,532.0 374.0,546.0 Q 310.0,573.0 292.0,567.0 Q 288.0,563.0 289.0,551.0 Q 292.0,541.0 316.0,522.0" fill="black" stroke="#000000"/>
	<path d="M 654.0,595.0 Q 632.0,558.0 587.0,501.0 Q 581.0,494.0 587.0,487.0 Q 594.0,486.0 602.0,490.0 Q 686.0,553.0 726.0,576.0 Q 744.0,582.0 740.0,592.0 Q 733.0,608.0 714.0,626.0 Q 695.0,642.0 672.0,644.0 Q 659.0,644.0 659.0,624.0 Q 662.0,611.0 654.0,595.0" fill="black" stroke="#000000"/>
	<path d="M 708.0,406.0 Q 769.0,407.0 869.0,408.0 Q 890.0,408.0 895.0,417.0 Q 901.0,430.0 883.0,445.0 Q 822.0,493.0 759.0,472.0 Q 665.0,454.0 521.0,432.0 L 479.0,426.0 Q 319.0,407.0 133.0,384.0 Q 111.0,381.0 128.0,363.0 Q 143.0,348.0 162.0,342.0 Q 184.0,336.0 202.0,341.0 Q 242.0,353.0 290.0,362.0 L 334.0,371.0 Q 371.0,380.0 415.0,384.0 L 466.0,389.0 Q 548.0,402.0 666.0,405.0 L 708.0,406.0" fill="black" stroke="#000000"/>
	<path d="M 290.0,362.0 Q 329.0,323.0 312.0,150.0 Q 311.0,140.0 309.0,131.0 Q 305.0,100.0 290.0,83.0 Q 277.0,61.0 285.0,38.0 Q 297.0,4.0 314.0,-9.0 Q 326.0,-16.0 339.0,3.0 Q 375.0,46.0 494.0,151.0 Q 513.0,166.0 514.0,173.0 Q 515.0,188.0 494.0,176.0 Q 376.0,112.0 365.0,116.0 Q 356.0,122.0 357.0,143.0 Q 361.0,284.0 368.0,319.0 Q 372.0,343.0 334.0,371.0 C 311.0,390.0 272.0,386.0 290.0,362.0" fill="black" stroke="#000000"/>
	<path d="M 592.0,263.0 Q 682.0,326.0 727.0,350.0 Q 743.0,354.0 741.0,365.0 Q 731.0,390.0 708.0,406.0 C 684.0,424.0 666.0,435.0 666.0,405.0 Q 665.0,404.0 666.0,400.0 Q 667.0,387.0 659.0,372.0 Q 631.0,335.0 578.0,275.0 C 558.0,252.0 567.0,246.0 592.0,263.0" fill="black" stroke="#000000"/>
	<path d="M 415.0,384.0 Q 472.0,347.0 576.0,213.0 Q 702.0,60.0 753.0,56.0 Q 844.0,52.0 918.0,61.0 Q 955.0,65.0 953.0,76.0 Q 952.0,82.0 770.0,142.0 Q 677.0,181.0 592.0,263.0 L 578.0,275.0 Q 536.0,315.0 495.0,363.0 Q 480.0,379.0 466.0,389.0 C 443.0,408.0 391.0,402.0 415.0,384.0" fill="black" stroke="#000000"/>
</svg>
