<?xml version="1.0" ?>
<svg baseProfile="full" height="1024" version="1.1" viewBox="0 0 1024 1024" width="1024" xmlns="http://www.w3.org/2000/svg" xmlns:ev="http://www.w3.org/2001/xml-events" xmlns:xlink="http://www.w3.org/1999/xlink">
	<defs/>
	<path d="M 435.0,100.0 Q 407.0,107.0 373.0,116.0 Q 360.0,120.0 361.0,112.0 Q 361.0,103.0 373.0,94.0 Q 445.0,39.0 491.0,-5.0 Q 503.0,-15.0 518.0,2.0 Q 560.0,60.0 553.0,141.0 Q 541.0,447.0 548.0,561.0 Q 548.0,579.0 550.0,596.0 Q 556.0,624.0 549.0,635.0 Q 545.0,642.0 531.0,651.0 C 509.0,671.0 457.0,671.0 470.0,644.0 Q 485.0,629.0 485.0,573.0 Q 488.0,443.0 488.0,148.0 Q 487.0,112.0 477.0,99.0 Q 464.0,92.0 435.0,100.0" fill="black" stroke="#000000"/>
</svg>
