<?xml version="1.0" ?>
<svg baseProfile="full" height="1024" version="1.1" viewBox="0 0 1024 1024" width="1024" xmlns="http://www.w3.org/2000/svg" xmlns:ev="http://www.w3.org/2001/xml-events" xmlns:xlink="http://www.w3.org/1999/xlink">
	<defs/>
	<path d="M 398.0,707.0 Q 408.0,666.0 421.0,653.0 Q 432.0,642.0 437.0,653.0 Q 439.0,668.0 435.0,717.0 L 431.0,746.0 Q 429.0,776.0 428.0,782.0 Q 429.0,800.0 412.0,804.0 Q 378.0,819.0 359.0,811.0 Q 343.0,805.0 357.0,788.0 Q 380.0,760.0 388.0,739.0 L 398.0,707.0" fill="black" stroke="#000000"/>
	<path d="M 233.0,677.0 Q 253.0,665.0 272.0,671.0 L 398.0,707.0 L 435.0,717.0 L 459.0,723.0 Q 466.0,727.0 472.0,731.0 Q 485.0,737.0 474.0,746.0 Q 470.0,749.0 464.0,751.0 Q 451.0,750.0 431.0,746.0 L 388.0,739.0 Q 334.0,733.0 260.0,721.0 Q 227.0,718.0 206.0,721.0 Q 190.0,723.0 192.0,718.0 Q 199.0,698.0 233.0,677.0" fill="black" stroke="#000000"/>
</svg>
