<?xml version="1.0" ?>
<svg baseProfile="full" height="1024" version="1.1" viewBox="0 0 1024 1024" width="1024" xmlns="http://www.w3.org/2000/svg" xmlns:ev="http://www.w3.org/2001/xml-events" xmlns:xlink="http://www.w3.org/1999/xlink">
	<defs/>
	<path d="M 398.0,707.0 Q 408.0,666.0 421.0,653.0 Q 432.0,642.0 437.0,653.0 Q 439.0,668.0 435.0,717.0 L 431.0,746.0 Q 429.0,776.0 428.0,782.0 Q 429.0,800.0 412.0,804.0 Q 378.0,819.0 359.0,811.0 Q 343.0,805.0 357.0,788.0 Q 380.0,760.0 388.0,739.0 L 398.0,707.0" fill="black" stroke="#000000"/>
	<path d="M 233.0,677.0 Q 253.0,665.0 272.0,671.0 L 398.0,707.0 L 435.0,717.0 L 459.0,723.0 Q 466.0,727.0 472.0,731.0 Q 485.0,737.0 474.0,746.0 Q 470.0,749.0 464.0,751.0 Q 451.0,750.0 431.0,746.0 L 388.0,739.0 Q 334.0,733.0 260.0,721.0 Q 227.0,718.0 206.0,721.0 Q 190.0,723.0 192.0,718.0 Q 199.0,698.0 233.0,677.0" fill="black" stroke="#000000"/>
	<path d="M 641.0,760.0 Q 647.0,774.0 664.0,797.0 Q 674.0,809.0 669.0,816.0 Q 668.0,817.0 667.0,819.0 Q 657.0,835.0 627.0,853.0 Q 615.0,860.0 598.0,855.0 Q 587.0,850.0 594.0,838.0 Q 604.0,817.0 587.0,752.0 L 578.0,718.0 Q 561.0,660.0 561.0,651.0 Q 561.0,638.0 574.0,647.0 Q 588.0,657.0 620.0,716.0 L 641.0,760.0" fill="black" stroke="#000000"/>
	<path d="M 620.0,716.0 Q 660.0,738.0 797.0,727.0 Q 814.0,725.0 813.0,739.0 Q 813.0,747.0 808.0,755.0 Q 766.0,788.0 684.0,766.0 Q 659.0,765.0 641.0,760.0 L 587.0,752.0 Q 570.0,751.0 557.0,748.0 Q 529.0,745.0 559.0,727.0 Q 564.0,723.0 578.0,718.0 C 603.0,708.0 603.0,708.0 620.0,716.0" fill="black" stroke="#000000"/>
	<path d="M 386.0,476.0 Q 458.0,494.0 464.0,498.0 Q 470.0,502.0 466.0,510.0 Q 461.0,516.0 436.0,521.5 Q 411.0,527.0 392.0,521.0 L 338.0,505.0 Q 265.0,490.0 220.0,483.0 Q 186.0,476.0 211.0,464.0 Q 251.0,449.0 286.0,456.0 L 339.0,466.0 L 386.0,476.0" fill="black" stroke="#000000"/>
	<path d="M 379.0,407.0 Q 380.0,427.0 386.0,476.0 L 392.0,521.0 Q 392.0,561.0 410.0,608.0 L 410.0,610.0 Q 410.0,619.0 381.0,634.0 Q 351.0,649.0 335.0,648.0 Q 318.0,647.0 316.0,643.0 Q 308.0,636.0 320.0,620.0 Q 331.0,604.0 332.0,600.0 Q 333.0,595.0 334.0,583.0 Q 335.0,571.0 338.0,505.0 L 339.0,466.0 Q 339.0,429.0 338.0,397.0 C 337.0,367.0 377.0,377.0 379.0,407.0" fill="black" stroke="#000000"/>
	<path d="M 338.0,397.0 L 143.0,366.0 Q 114.0,363.0 137.0,347.0 Q 173.0,326.0 196.0,331.0 Q 223.0,343.0 500.0,384.0 Q 510.0,383.0 519.0,394.0 Q 521.0,406.0 496.0,414.0 Q 459.0,431.0 379.0,407.0 L 338.0,397.0" fill="black" stroke="#000000"/>
	<path d="M 217.0,299.0 Q 211.0,255.0 112.0,167.0 Q 108.0,164.0 106.0,162.0 Q 102.0,158.0 109.0,159.0 Q 112.0,159.0 119.0,160.0 Q 169.0,167.0 263.0,260.0 Q 282.0,278.0 283.0,278.0 Q 292.0,287.0 289.0,294.0 Q 283.0,306.0 249.0,310.0 Q 231.0,313.0 225.0,311.0 Q 218.0,310.0 217.0,299.0" fill="black" stroke="#000000"/>
</svg>
