<?xml version="1.0" ?>
<svg baseProfile="full" height="1024" version="1.1" viewBox="0 0 1024 1024" width="1024" xmlns="http://www.w3.org/2000/svg" xmlns:ev="http://www.w3.org/2001/xml-events" xmlns:xlink="http://www.w3.org/1999/xlink">
	<defs/>
	<path d="M 198.0,381.0 Q 198.0,387.0 200.0,395.0 Q 208.0,449.0 211.0,506.0 L 212.0,544.0 Q 212.0,694.0 217.0,705.0 C 219.0,724.0 219.0,724.0 196.0,735.0 Q 152.0,759.0 133.0,751.0 Q 123.0,742.0 131.0,729.0 Q 153.0,706.0 158.0,641.0 L 159.0,613.0 Q 165.0,446.0 139.0,318.0 Q 112.0,204.0 48.0,82.0 L 42.0,69.0 Q 41.0,59.0 51.0,63.0 Q 67.0,67.0 92.0,104.0 Q 135.0,169.0 168.0,257.0 Q 180.0,296.0 190.0,345.0 L 198.0,381.0" fill="black" stroke="#000000"/>
</svg>
