<?xml version="1.0" ?>
<svg baseProfile="full" height="1024" version="1.1" viewBox="0 0 1024 1024" width="1024" xmlns="http://www.w3.org/2000/svg" xmlns:ev="http://www.w3.org/2001/xml-events" xmlns:xlink="http://www.w3.org/1999/xlink">
	<defs/>
	<path d="M 579.0,602.0 Q 607.0,645.0 636.0,705.0 Q 652.0,741.0 667.0,758.0 Q 674.0,768.0 669.0,781.0 Q 663.0,793.0 635.0,811.0 Q 608.0,824.0 591.0,823.0 Q 573.0,819.0 583.0,799.0 Q 619.0,744.0 467.0,493.0 Q 460.0,483.0 457.0,477.0 Q 456.0,467.0 468.0,470.0 Q 496.0,479.0 561.0,576.0 L 579.0,602.0" fill="black" stroke="#000000"/>
	<path d="M 561.0,576.0 Q 560.0,576.0 562.0,575.0 Q 608.0,557.0 676.0,578.0 Q 734.0,596.0 796.0,615.0 Q 826.0,625.0 830.0,629.0 Q 839.0,639.0 833.0,648.0 Q 823.0,660.0 792.0,664.0 Q 767.0,667.0 668.0,627.0 Q 623.0,615.0 579.0,602.0 C 550.0,594.0 534.0,588.0 561.0,576.0" fill="black" stroke="#000000"/>
</svg>
