<?xml version="1.0" ?>
<svg baseProfile="full" height="1024" version="1.1" viewBox="0 0 1024 1024" width="1024" xmlns="http://www.w3.org/2000/svg" xmlns:ev="http://www.w3.org/2001/xml-events" xmlns:xlink="http://www.w3.org/1999/xlink">
	<defs/>
	<path d="M 473.0,826.0 Q 497.0,807.0 522.0,785.0 Q 535.0,775.0 548.0,776.0 Q 558.0,777.0 561.0,788.0 Q 565.0,801.0 555.0,827.0 Q 549.0,843.0 523.0,854.0 Q 460.0,872.0 448.0,867.0 Q 444.0,863.0 446.0,852.0 Q 449.0,842.0 473.0,826.0" fill="black" stroke="#000000"/>
	<path d="M 408.0,697.0 Q 381.0,690.0 402.0,679.0 Q 435.0,663.0 475.0,675.0 Q 524.0,688.0 574.0,701.0 Q 596.0,708.0 600.0,711.0 Q 607.0,717.0 603.0,723.0 Q 597.0,732.0 575.0,736.0 Q 553.0,739.0 530.0,729.0 Q 505.0,719.0 476.0,710.0 Q 445.0,703.0 408.0,697.0" fill="black" stroke="#000000"/>
</svg>
