<?xml version="1.0" ?>
<svg baseProfile="full" height="1024" version="1.1" viewBox="0 0 1024 1024" width="1024" xmlns="http://www.w3.org/2000/svg" xmlns:ev="http://www.w3.org/2001/xml-events" xmlns:xlink="http://www.w3.org/1999/xlink">
	<defs/>
	<path d="M 473.0,826.0 Q 497.0,807.0 522.0,785.0 Q 535.0,775.0 548.0,776.0 Q 558.0,777.0 561.0,788.0 Q 565.0,801.0 555.0,827.0 Q 549.0,843.0 523.0,854.0 Q 460.0,872.0 448.0,867.0 Q 444.0,863.0 446.0,852.0 Q 449.0,842.0 473.0,826.0" fill="black" stroke="#000000"/>
	<path d="M 408.0,697.0 Q 381.0,690.0 402.0,679.0 Q 435.0,663.0 475.0,675.0 Q 524.0,688.0 574.0,701.0 Q 596.0,708.0 600.0,711.0 Q 607.0,717.0 603.0,723.0 Q 597.0,732.0 575.0,736.0 Q 553.0,739.0 530.0,729.0 Q 505.0,719.0 476.0,710.0 Q 445.0,703.0 408.0,697.0" fill="black" stroke="#000000"/>
	<path d="M 426.0,615.0 Q 401.0,608.0 421.0,598.0 Q 455.0,586.0 549.0,618.0 Q 564.0,622.0 565.0,625.0 Q 571.0,631.0 567.0,636.0 Q 561.0,643.0 540.0,646.0 Q 519.0,647.0 499.0,637.0 Q 475.0,625.0 426.0,615.0" fill="black" stroke="#000000"/>
	<path d="M 422.0,535.0 Q 397.0,528.0 417.0,518.0 Q 448.0,508.0 523.0,529.0 Q 532.0,532.0 542.0,534.0 Q 555.0,538.0 557.0,540.0 Q 563.0,547.0 559.0,552.0 Q 553.0,559.0 532.0,563.0 Q 511.0,564.0 491.0,554.0 Q 461.0,542.0 422.0,535.0" fill="black" stroke="#000000"/>
	<path d="M 421.0,453.0 Q 411.0,457.0 388.0,458.0 Q 378.0,459.0 376.0,456.0 Q 372.0,450.0 379.0,439.0 Q 400.0,408.0 416.0,354.0 Q 420.0,338.0 431.0,328.0 Q 446.0,312.0 449.0,325.0 Q 450.0,332.0 450.0,343.0 L 446.0,365.0 Q 436.0,414.0 434.0,431.0 C 432.0,450.0 432.0,450.0 421.0,453.0" fill="black" stroke="#000000"/>
	<path d="M 567.0,382.0 Q 580.0,427.0 596.0,440.0 Q 614.0,459.0 596.0,471.0 Q 580.0,480.0 559.0,493.0 Q 544.0,502.0 530.0,493.0 Q 509.0,478.0 482.0,469.0 Q 457.0,462.0 421.0,453.0 C 392.0,446.0 406.0,420.0 434.0,431.0 Q 440.0,435.0 511.0,453.0 Q 532.0,457.0 537.0,450.0 Q 538.0,449.0 527.0,388.0 C 522.0,358.0 558.0,353.0 567.0,382.0" fill="black" stroke="#000000"/>
	<path d="M 450.0,343.0 Q 456.0,342.0 463.0,344.0 Q 497.0,353.0 572.0,362.0 Q 579.0,363.0 580.0,369.0 Q 580.0,373.0 567.0,382.0 C 558.0,389.0 557.0,389.0 527.0,388.0 Q 526.0,389.0 523.0,388.0 Q 480.0,375.0 446.0,365.0 C 417.0,357.0 420.0,345.0 450.0,343.0" fill="black" stroke="#000000"/>
	<path d="M 277.0,631.0 Q 240.0,628.0 208.0,626.0 Q 184.0,625.0 196.0,640.0 Q 238.0,713.0 279.0,768.0 Q 291.0,781.0 288.0,788.0 Q 287.0,800.0 254.0,824.0 Q 241.0,834.0 225.0,831.0 Q 216.0,828.0 222.0,816.0 Q 240.0,774.0 167.0,654.0 Q 157.0,642.0 144.0,629.0 Q 129.0,616.0 131.0,607.0 Q 135.0,592.0 148.0,578.0 Q 157.0,569.0 166.0,576.0 Q 200.0,600.0 263.0,610.0 C 293.0,615.0 307.0,633.0 277.0,631.0" fill="black" stroke="#000000"/>
	<path d="M 323.0,524.0 Q 278.0,515.0 226.0,498.0 Q 207.0,491.0 219.0,507.0 Q 319.0,642.0 370.0,681.0 Q 380.0,688.0 375.0,697.0 Q 368.0,713.0 340.0,728.0 Q 327.0,735.0 320.0,734.0 Q 311.0,731.0 313.0,719.0 Q 314.0,695.0 277.0,631.0 L 263.0,610.0 Q 181.0,498.0 157.0,486.0 Q 145.0,479.0 148.0,467.0 Q 149.0,457.0 170.0,441.0 Q 179.0,431.0 191.0,441.0 Q 254.0,486.0 328.0,508.0 C 357.0,517.0 352.0,530.0 323.0,524.0" fill="black" stroke="#000000"/>
</svg>
