<?xml version="1.0" ?>
<svg baseProfile="full" height="1024" version="1.1" viewBox="0 0 1024 1024" width="1024" xmlns="http://www.w3.org/2000/svg" xmlns:ev="http://www.w3.org/2001/xml-events" xmlns:xlink="http://www.w3.org/1999/xlink">
	<defs/>
	<path d="M 258.0,283.0 Q 219.0,282.0 175.0,262.0 Q 139.0,255.0 93.0,259.0 Q 72.0,262.0 72.0,248.0 Q 73.0,233.0 102.0,214.0 Q 123.0,198.0 154.0,208.0 Q 257.0,266.0 364.0,225.0 Q 436.0,206.0 632.0,74.0 Q 647.0,65.0 654.0,58.0 Q 711.0,19.0 750.0,18.0 Q 756.0,19.0 762.0,19.0 Q 942.0,61.0 953.0,88.0 Q 954.0,97.0 930.0,97.0 Q 780.0,103.0 694.0,130.0 Q 516.0,202.0 477.0,221.0 Q 353.0,281.0 311.0,281.0 L 258.0,283.0" fill="black" stroke="#000000"/>
</svg>
