<?xml version="1.0" ?>
<svg baseProfile="full" height="1024" version="1.1" viewBox="0 0 1024 1024" width="1024" xmlns="http://www.w3.org/2000/svg" xmlns:ev="http://www.w3.org/2001/xml-events" xmlns:xlink="http://www.w3.org/1999/xlink">
	<defs/>
	<path d="M 458.0,157.0 Q 477.0,132.0 493.0,125.0 Q 503.0,118.0 519.0,140.0 Q 535.0,171.0 561.0,335.0 Q 568.0,366.0 592.0,393.0 Q 605.0,406.0 592.0,420.0 Q 576.0,436.0 532.0,462.0 Q 514.0,469.0 423.0,445.0 Q 413.0,445.0 309.0,421.0 L 280.0,415.0 Q 231.0,405.0 193.0,395.0 C 164.0,388.0 181.0,355.0 210.0,364.0 Q 295.0,391.0 447.0,418.0 Q 481.0,424.0 493.0,413.0 Q 509.0,395.0 507.0,377.0 Q 486.0,209.0 468.0,190.0 C 455.0,163.0 454.0,162.0 458.0,157.0" fill="black" stroke="#000000"/>
</svg>
