<?xml version="1.0" ?>
<svg baseProfile="full" height="1024" version="1.1" viewBox="0 0 1024 1024" width="1024" xmlns="http://www.w3.org/2000/svg" xmlns:ev="http://www.w3.org/2001/xml-events" xmlns:xlink="http://www.w3.org/1999/xlink">
	<defs/>
	<path d="M 371.0,716.0 Q 399.0,723.0 432.0,729.0 Q 466.0,738.0 471.0,742.0 Q 480.0,749.0 475.0,757.0 Q 468.0,767.0 442.0,774.0 Q 412.0,778.0 370.0,762.0 L 319.0,746.0 Q 237.0,731.0 204.0,726.0 Q 170.0,720.0 195.0,705.0 Q 228.0,687.0 297.0,700.0 Q 310.0,703.0 326.0,706.0 L 371.0,716.0" fill="black" stroke="#000000"/>
	<path d="M 378.0,619.0 Q 462.0,643.0 464.0,645.0 Q 471.0,652.0 467.0,659.0 Q 460.0,668.0 437.0,673.0 Q 410.0,677.0 375.0,660.0 L 334.0,646.0 Q 327.0,645.0 322.0,643.0 Q 283.0,633.0 237.0,626.0 Q 209.0,620.0 230.0,608.0 Q 260.0,593.0 318.0,606.0 Q 327.0,609.0 339.0,610.0 L 378.0,619.0" fill="black" stroke="#000000"/>
</svg>
