<?xml version="1.0" ?>
<svg baseProfile="full" height="1024" version="1.1" viewBox="0 0 1024 1024" width="1024" xmlns="http://www.w3.org/2000/svg" xmlns:ev="http://www.w3.org/2001/xml-events" xmlns:xlink="http://www.w3.org/1999/xlink">
	<defs/>
	<path d="M 528.0,82.0 Q 582.0,83.0 633.0,88.0 Q 781.0,100.0 911.0,81.0 Q 938.0,78.0 945.0,88.0 Q 954.0,103.0 940.0,116.0 Q 907.0,147.0 859.0,171.0 Q 843.0,178.0 813.0,169.0 Q 707.0,150.0 520.0,133.0 L 466.0,128.0 Q 363.0,121.0 309.0,114.0 Q 239.0,104.0 137.0,106.0 Q 121.0,106.0 120.0,93.0 Q 119.0,80.0 139.0,63.0 Q 184.0,30.0 234.0,41.0 Q 289.0,56.0 416.0,71.0 Q 468.0,78.0 528.0,82.0" fill="black" stroke="#000000"/>
</svg>
