<?xml version="1.0" ?>
<svg baseProfile="full" height="1024" version="1.1" viewBox="0 0 1024 1024" width="1024" xmlns="http://www.w3.org/2000/svg" xmlns:ev="http://www.w3.org/2001/xml-events" xmlns:xlink="http://www.w3.org/1999/xlink">
	<defs/>
	<path d="M 735.0,529.0 Q 735.0,528.0 736.0,527.0 Q 740.0,512.0 751.0,513.0 Q 764.0,514.0 771.0,527.0 Q 781.0,537.0 802.0,593.0 Q 817.0,639.0 850.0,665.0 Q 866.0,678.0 853.0,693.0 Q 837.0,708.0 793.0,732.0 Q 781.0,741.0 714.0,724.0 Q 681.0,724.0 584.0,695.0 L 550.0,687.0 Q 496.0,678.0 474.0,679.0 C 444.0,678.0 498.0,639.0 526.0,649.0 Q 587.0,671.0 730.0,698.0 Q 755.0,701.0 765.0,697.0 Q 772.0,691.0 767.0,667.0 Q 749.0,577.0 736.0,555.0 C 729.0,539.0 729.0,539.0 735.0,529.0" fill="black" stroke="#000000"/>
</svg>
