<?xml version="1.0" ?>
<svg baseProfile="full" height="1024" version="1.1" viewBox="0 0 1024 1024" width="1024" xmlns="http://www.w3.org/2000/svg" xmlns:ev="http://www.w3.org/2001/xml-events" xmlns:xlink="http://www.w3.org/1999/xlink">
	<defs/>
	<path d="M 560.0,320.0 Q 645.0,332.0 704.0,335.0 Q 752.0,338.0 754.0,351.0 Q 755.0,367.0 721.0,388.0 Q 691.0,406.0 560.0,374.0 L 505.0,363.0 Q 445.0,354.0 375.0,343.0 Q 354.0,340.0 353.0,345.0 L 444.0,562.0 L 465.0,615.0 Q 520.0,747.0 544.0,764.0 Q 566.0,782.0 553.0,795.0 Q 492.0,849.0 462.0,850.0 Q 450.0,849.0 457.0,824.0 Q 470.0,775.0 409.0,606.0 L 389.0,554.0 Q 334.0,403.0 275.0,353.0 Q 248.0,331.0 267.0,278.0 Q 274.0,259.0 293.0,267.0 Q 369.0,294.0 506.0,313.0 L 560.0,320.0" fill="black" stroke="#000000"/>
</svg>
