<?xml version="1.0" ?>
<svg baseProfile="full" height="1024" version="1.1" viewBox="0 0 1024 1024" width="1024" xmlns="http://www.w3.org/2000/svg" xmlns:ev="http://www.w3.org/2001/xml-events" xmlns:xlink="http://www.w3.org/1999/xlink">
	<defs/>
	<path d="M 560.0,374.0 Q 561.0,408.0 572.0,433.0 Q 582.0,452.0 564.0,466.0 Q 537.0,488.0 506.0,499.0 Q 487.0,506.0 478.0,498.0 Q 472.0,491.0 483.0,475.0 Q 504.0,439.0 505.0,363.0 L 506.0,313.0 Q 507.0,88.0 489.0,74.0 Q 480.0,67.0 467.0,71.0 Q 422.0,84.0 379.0,99.0 Q 366.0,102.0 367.0,94.0 Q 368.0,87.0 378.0,78.0 Q 463.0,5.0 494.0,-39.0 Q 509.0,-57.0 525.0,-43.0 Q 565.0,-1.0 564.0,67.0 Q 561.0,103.0 560.0,320.0 L 560.0,374.0" fill="black" stroke="#000000"/>
</svg>
