<?xml version="1.0" ?>
<svg baseProfile="full" height="1024" version="1.1" viewBox="0 0 1024 1024" width="1024" xmlns="http://www.w3.org/2000/svg" xmlns:ev="http://www.w3.org/2001/xml-events" xmlns:xlink="http://www.w3.org/1999/xlink">
	<defs/>
	<path d="M 474.0,62.0 Q 425.0,58.0 372.0,52.0 Q 353.0,51.0 367.0,34.0 Q 380.0,21.0 396.0,16.0 Q 415.0,10.0 430.0,14.0 Q 607.0,59.0 893.0,53.0 Q 914.0,53.0 935.0,52.0 Q 953.0,51.0 958.0,59.0 Q 962.0,69.0 948.0,83.0 Q 894.0,123.0 833.0,107.0 Q 821.0,106.0 809.0,103.0 L 752.0,94.0 Q 715.0,91.0 673.0,84.0 L 648.0,81.0 Q 645.0,82.0 644.0,81.0 Q 619.0,80.0 594.0,75.0 L 571.0,73.0 Q 540.0,70.0 507.0,65.0 L 474.0,62.0" fill="black" stroke="#000000"/>
</svg>
