<?xml version="1.0" ?>
<svg baseProfile="full" height="1024" version="1.1" viewBox="0 0 1024 1024" width="1024" xmlns="http://www.w3.org/2000/svg" xmlns:ev="http://www.w3.org/2001/xml-events" xmlns:xlink="http://www.w3.org/1999/xlink">
	<defs/>
	<path d="M 706.0,457.0 Q 787.0,470.0 929.0,459.0 Q 954.0,458.0 960.0,467.0 Q 967.0,480.0 954.0,493.0 Q 923.0,520.0 876.0,539.0 Q 861.0,545.0 835.0,536.0 Q 772.0,520.0 712.0,508.0 L 664.0,500.0 Q 583.0,490.0 530.0,480.0 L 485.0,473.0 Q 400.0,463.0 345.0,454.0 L 292.0,446.0 Q 288.0,446.0 284.0,445.0 Q 208.0,430.0 96.0,425.0 Q 81.0,425.0 80.0,413.0 Q 80.0,400.0 100.0,386.0 Q 118.0,373.0 151.0,362.0 Q 161.0,358.0 181.0,367.0 Q 223.0,385.0 296.0,395.0 L 346.0,407.0 Q 410.0,422.0 486.0,432.0 L 531.0,437.0 Q 645.0,452.0 661.0,453.0 L 706.0,457.0" fill="black" stroke="#000000"/>
</svg>
