<?xml version="1.0" ?>
<svg baseProfile="full" height="1024" version="1.1" viewBox="0 0 1024 1024" width="1024" xmlns="http://www.w3.org/2000/svg" xmlns:ev="http://www.w3.org/2001/xml-events" xmlns:xlink="http://www.w3.org/1999/xlink">
	<defs/>
	<path d="M 345.0,454.0 Q 345.0,464.0 345.0,473.0 Q 341.0,582.0 344.0,604.0 Q 354.0,623.0 335.0,633.0 Q 292.0,652.0 272.0,652.0 Q 260.0,653.0 252.0,645.0 Q 243.0,638.0 258.0,623.0 Q 276.0,604.0 292.0,446.0 L 296.0,395.0 Q 314.0,260.0 292.0,129.0 Q 286.0,105.0 277.0,96.0 Q 246.0,66.0 294.0,34.0 Q 310.0,21.0 327.0,37.0 Q 378.0,103.0 731.0,103.0 Q 779.0,104.0 804.0,101.0 Q 849.0,97.0 850.0,118.0 Q 849.0,133.0 815.0,152.0 Q 781.0,171.0 762.0,169.0 Q 728.0,166.0 469.0,125.0 Q 370.0,106.0 362.0,116.0 Q 353.0,123.0 354.0,169.0 Q 355.0,193.0 352.0,249.0 Q 349.0,276.0 346.0,407.0 L 345.0,454.0" fill="black" stroke="#000000"/>
</svg>
