<?xml version="1.0" ?>
<svg baseProfile="full" height="1024" version="1.1" viewBox="0 0 1024 1024" width="1024" xmlns="http://www.w3.org/2000/svg" xmlns:ev="http://www.w3.org/2001/xml-events" xmlns:xlink="http://www.w3.org/1999/xlink">
	<defs/>
	<path d="M 511.0,719.0 Q 610.0,731.0 821.0,732.0 Q 843.0,732.0 848.0,741.0 Q 854.0,754.0 836.0,769.0 Q 779.0,809.0 739.0,801.0 Q 580.0,768.0 205.0,720.0 Q 183.0,717.0 200.0,699.0 Q 215.0,684.0 234.0,679.0 Q 256.0,673.0 274.0,678.0 Q 359.0,702.0 457.0,713.0 L 511.0,719.0" fill="black" stroke="#000000"/>
	<path d="M 513.0,407.0 Q 516.0,486.0 521.0,553.0 L 523.0,582.0 Q 526.0,654.0 529.0,674.0 Q 538.0,698.0 511.0,719.0 C 489.0,739.0 450.0,742.0 457.0,713.0 Q 466.0,680.0 468.0,575.0 Q 467.0,511.0 466.0,399.0 C 466.0,369.0 512.0,377.0 513.0,407.0" fill="black" stroke="#000000"/>
</svg>
