<?xml version="1.0" ?>
<svg baseProfile="full" height="1024" version="1.1" viewBox="0 0 1024 1024" width="1024" xmlns="http://www.w3.org/2000/svg" xmlns:ev="http://www.w3.org/2001/xml-events" xmlns:xlink="http://www.w3.org/1999/xlink">
	<defs/>
	<path d="M 316.0,519.0 Q 318.0,511.0 331.0,499.0 Q 370.0,464.0 397.0,433.0 Q 410.0,421.0 427.0,421.0 Q 455.0,421.0 442.0,482.0 L 440.0,486.0 Q 428.0,509.0 374.0,527.0 Q 331.0,543.0 319.0,537.0 Q 314.0,533.0 316.0,519.0" fill="black" stroke="#000000"/>
	<path d="M 629.0,547.0 Q 609.0,514.0 531.0,429.0 Q 528.0,423.0 527.0,420.0 Q 525.0,412.0 538.0,415.0 Q 597.0,447.0 657.0,488.0 Q 700.0,517.0 719.0,524.0 Q 735.0,531.0 733.0,545.0 Q 731.0,563.0 699.0,584.0 Q 668.0,604.0 652.0,600.0 Q 649.0,600.0 647.0,600.0 Q 641.0,598.0 643.0,587.0 Q 644.0,564.0 629.0,547.0" fill="black" stroke="#000000"/>
</svg>
