<?xml version="1.0" ?>
<svg baseProfile="full" height="1024" version="1.1" viewBox="0 0 1024 1024" width="1024" xmlns="http://www.w3.org/2000/svg" xmlns:ev="http://www.w3.org/2001/xml-events" xmlns:xlink="http://www.w3.org/1999/xlink">
	<defs/>
	<path d="M 658.0,804.0 Q 618.0,768.0 481.0,714.0 Q 477.0,707.0 481.0,704.0 Q 529.0,704.0 661.0,751.0 Q 682.0,766.0 744.0,774.0 Q 759.0,774.0 762.0,781.0 Q 766.0,790.0 756.0,800.0 Q 704.0,839.0 678.0,836.0 Q 672.0,833.0 671.0,824.0 Q 670.0,812.0 658.0,804.0" fill="black" stroke="#000000"/>
	<path d="M 448.0,652.0 Q 482.0,595.0 504.0,591.0 Q 514.0,590.0 522.0,603.0 Q 523.0,613.0 518.0,632.0 Q 512.0,645.0 494.0,654.0 Q 466.0,670.0 454.0,674.0 Q 447.0,677.0 445.0,667.0 Q 444.0,660.0 448.0,652.0" fill="black" stroke="#000000"/>
</svg>
