<?xml version="1.0" ?>
<svg baseProfile="full" height="1024" version="1.1" viewBox="0 0 1024 1024" width="1024" xmlns="http://www.w3.org/2000/svg" xmlns:ev="http://www.w3.org/2001/xml-events" xmlns:xlink="http://www.w3.org/1999/xlink">
	<defs/>
	<path d="M 658.0,804.0 Q 618.0,768.0 481.0,714.0 Q 477.0,707.0 481.0,704.0 Q 529.0,704.0 661.0,751.0 Q 682.0,766.0 744.0,774.0 Q 759.0,774.0 762.0,781.0 Q 766.0,790.0 756.0,800.0 Q 704.0,839.0 678.0,836.0 Q 672.0,833.0 671.0,824.0 Q 670.0,812.0 658.0,804.0" fill="black" stroke="#000000"/>
	<path d="M 448.0,652.0 Q 482.0,595.0 504.0,591.0 Q 514.0,590.0 522.0,603.0 Q 523.0,613.0 518.0,632.0 Q 512.0,645.0 494.0,654.0 Q 466.0,670.0 454.0,674.0 Q 447.0,677.0 445.0,667.0 Q 444.0,660.0 448.0,652.0" fill="black" stroke="#000000"/>
	<path d="M 571.0,687.0 Q 604.0,632.0 622.0,628.0 Q 631.0,625.0 638.0,638.0 Q 639.0,648.0 636.0,663.0 Q 627.0,684.0 577.0,706.0 Q 570.0,707.0 569.0,700.0 Q 568.0,694.0 571.0,687.0" fill="black" stroke="#000000"/>
	<path d="M 754.0,719.0 Q 735.0,694.0 696.0,655.0 Q 692.0,649.0 695.0,643.0 Q 701.0,642.0 707.0,645.0 Q 777.0,682.0 811.0,697.0 Q 826.0,698.0 824.0,708.0 Q 820.0,721.0 806.0,738.0 Q 793.0,754.0 775.0,757.0 Q 763.0,758.0 762.0,742.0 Q 763.0,732.0 754.0,719.0" fill="black" stroke="#000000"/>
	<path d="M 643.0,571.0 Q 697.0,584.0 746.0,593.0 Q 764.0,597.0 757.0,606.0 Q 748.0,616.0 729.0,620.0 Q 710.0,621.0 679.0,613.0 Q 576.0,585.0 485.0,562.0 Q 472.0,558.0 488.0,547.0 Q 501.0,538.0 528.0,545.0 Q 562.0,554.0 596.0,560.0 L 643.0,571.0" fill="black" stroke="#000000"/>
	<path d="M 643.0,514.0 L 643.0,571.0 C 643.0,601.0 596.0,590.0 596.0,560.0 L 596.0,503.0 C 596.0,473.0 643.0,484.0 643.0,514.0" fill="black" stroke="#000000"/>
	<path d="M 596.0,503.0 Q 530.0,488.0 455.0,472.0 Q 442.0,469.0 452.0,459.0 Q 462.0,450.0 475.0,448.0 Q 490.0,445.0 500.0,449.0 Q 644.0,501.0 794.0,502.0 L 796.0,502.0 Q 809.0,503.0 812.0,510.0 Q 815.0,517.0 803.0,526.0 Q 767.0,551.0 707.0,532.0 Q 677.0,525.0 643.0,514.0 L 596.0,503.0" fill="black" stroke="#000000"/>
	<path d="M 751.0,283.0 Q 778.0,371.0 809.0,395.0 Q 824.0,411.0 811.0,427.0 Q 796.0,439.0 751.0,460.0 Q 735.0,467.0 717.0,459.0 Q 617.0,417.0 477.0,401.0 Q 462.0,400.0 464.0,391.0 Q 467.0,384.0 482.0,379.0 Q 504.0,370.0 534.0,380.0 Q 618.0,398.0 698.0,415.0 Q 719.0,421.0 727.0,412.0 Q 736.0,403.0 733.0,386.0 Q 723.0,335.0 710.0,294.0 C 701.0,265.0 742.0,254.0 751.0,283.0" fill="black" stroke="#000000"/>
	<path d="M 466.0,322.0 Q 453.0,319.0 469.0,307.0 Q 479.0,300.0 503.0,303.0 Q 612.0,324.0 692.0,336.0 Q 711.0,339.0 705.0,350.0 Q 696.0,362.0 675.0,366.0 Q 656.0,369.0 621.0,360.0 Q 539.0,338.0 466.0,322.0" fill="black" stroke="#000000"/>
	<path d="M 710.0,294.0 Q 703.0,295.0 696.0,292.0 Q 570.0,261.0 470.0,249.0 Q 451.0,248.0 462.0,231.0 Q 477.0,216.0 511.0,223.0 Q 592.0,241.0 756.0,256.0 Q 766.0,257.0 768.0,265.0 Q 768.0,272.0 751.0,283.0 L 710.0,294.0" fill="black" stroke="#000000"/>
	<path d="M 382.0,165.0 Q 358.0,114.0 327.0,70.0 Q 309.0,40.0 322.0,12.0 Q 329.0,-4.0 347.0,6.0 Q 393.0,39.0 402.0,113.0 Q 408.0,141.0 403.0,164.0 Q 399.0,171.0 393.0,172.0 Q 386.0,172.0 382.0,165.0" fill="black" stroke="#000000"/>
	<path d="M 464.0,148.0 Q 485.0,55.0 558.0,10.0 Q 675.0,-56.0 856.0,-17.0 Q 871.0,-11.0 887.0,-5.0 Q 909.0,5.0 910.0,20.0 Q 914.0,29.0 881.0,49.0 Q 830.0,89.0 793.0,132.0 Q 781.0,148.0 777.0,140.0 Q 790.0,43.0 789.0,36.0 Q 777.0,29.0 748.0,25.0 Q 604.0,18.0 545.0,70.0 Q 517.0,92.0 504.0,134.0 Q 497.0,155.0 485.0,159.0 Q 473.0,166.0 466.0,162.0 Q 462.0,161.0 464.0,148.0" fill="black" stroke="#000000"/>
	<path d="M 601.0,165.0 Q 623.0,147.0 646.0,126.0 Q 659.0,116.0 672.0,116.0 Q 681.0,117.0 685.0,128.0 Q 689.0,141.0 680.0,167.0 Q 671.0,191.0 595.0,207.0 Q 582.0,208.0 576.0,207.0 Q 572.0,203.0 573.0,192.0 Q 577.0,182.0 601.0,165.0" fill="black" stroke="#000000"/>
	<path d="M 841.0,191.0 Q 872.0,169.0 904.0,140.0 Q 917.0,128.0 934.0,130.0 Q 944.0,131.0 949.0,144.0 Q 953.0,160.0 942.0,189.0 Q 929.0,223.0 834.0,239.0 Q 818.0,242.0 812.0,239.0 Q 808.0,235.0 809.0,222.0 Q 813.0,212.0 841.0,191.0" fill="black" stroke="#000000"/>
</svg>
