<?xml version="1.0" ?>
<svg baseProfile="full" height="1024" version="1.1" viewBox="0 0 1024 1024" width="1024" xmlns="http://www.w3.org/2000/svg" xmlns:ev="http://www.w3.org/2001/xml-events" xmlns:xlink="http://www.w3.org/1999/xlink">
	<defs/>
	<path d="M 340.0,490.0 Q 380.0,506.0 572.0,528.0 Q 588.0,529.0 589.0,537.0 Q 590.0,550.0 573.0,559.0 Q 546.0,571.0 524.0,566.0 Q 424.0,545.0 358.0,531.0 L 308.0,521.0 Q 161.0,499.0 106.0,494.0 Q 93.0,493.0 90.0,485.0 Q 86.0,475.0 101.0,463.0 Q 135.0,438.0 190.0,450.0 Q 248.0,468.0 299.0,480.0 L 340.0,490.0" fill="black" stroke="#000000"/>
	<path d="M 309.0,421.0 Q 310.0,425.0 314.0,431.0 Q 327.0,458.0 340.0,490.0 L 358.0,531.0 Q 362.0,541.0 369.0,550.0 Q 379.0,560.0 372.0,569.0 Q 362.0,582.0 338.0,594.0 L 306.0,589.0 Q 306.0,588.0 309.0,583.0 Q 316.0,564.0 308.0,521.0 L 299.0,480.0 Q 286.0,437.0 280.0,415.0 C 272.0,386.0 297.0,393.0 309.0,421.0" fill="black" stroke="#000000"/>
</svg>
