<?xml version="1.0" ?>
<svg baseProfile="full" height="1024" version="1.1" viewBox="0 0 1024 1024" width="1024" xmlns="http://www.w3.org/2000/svg" xmlns:ev="http://www.w3.org/2001/xml-events" xmlns:xlink="http://www.w3.org/1999/xlink">
	<defs/>
	<path d="M 407.0,333.0 Q 417.0,358.0 430.0,381.0 Q 464.0,460.0 477.0,550.0 L 482.0,584.0 Q 500.0,716.0 521.0,761.0 Q 531.0,783.0 512.0,792.0 Q 458.0,831.0 426.0,820.0 Q 410.0,814.0 419.0,797.0 Q 450.0,740.0 428.0,571.0 L 421.0,534.0 Q 394.0,420.0 360.0,355.0 L 339.0,317.0 Q 324.0,295.0 309.0,271.0 Q 266.0,208.0 186.0,147.0 Q 167.0,131.0 141.0,114.0 Q 125.0,101.0 107.0,87.0 Q 92.0,75.0 106.0,73.0 Q 122.0,73.0 162.0,90.0 Q 243.0,130.0 302.0,190.0 Q 350.0,235.0 380.0,282.0 L 407.0,333.0" fill="black" stroke="#000000"/>
</svg>
