<?xml version="1.0" ?>
<svg baseProfile="full" height="1024" version="1.1" viewBox="0 0 1024 1024" width="1024" xmlns="http://www.w3.org/2000/svg" xmlns:ev="http://www.w3.org/2001/xml-events" xmlns:xlink="http://www.w3.org/1999/xlink">
	<defs/>
	<path d="M 325.0,548.0 Q 354.0,559.0 374.0,563.0 Q 409.0,573.0 415.0,579.0 Q 419.0,584.0 418.0,591.0 Q 418.0,592.0 417.0,595.0 Q 410.0,606.0 380.0,612.0 Q 362.0,613.0 344.0,610.0 Q 335.0,607.0 327.0,604.0 L 276.0,582.0 Q 190.0,557.0 134.0,547.0 L 130.0,546.0 Q 111.0,539.0 117.0,531.0 Q 119.0,527.0 126.0,523.0 Q 172.0,503.0 225.0,521.0 Q 247.0,527.0 274.0,534.0 L 325.0,548.0" fill="black" stroke="#000000"/>
	<path d="M 270.0,347.0 Q 270.0,263.0 269.0,158.0 Q 267.0,133.0 255.0,125.0 Q 252.0,123.0 225.0,130.0 L 192.0,141.0 Q 169.0,153.0 165.0,149.0 Q 162.0,149.0 163.0,145.0 Q 164.0,138.0 182.0,121.0 Q 237.0,65.0 249.0,35.0 Q 263.0,1.0 278.0,-2.0 Q 288.0,-3.0 298.0,12.0 Q 305.0,20.0 310.0,29.0 Q 329.0,74.0 332.0,151.0 Q 325.0,278.0 323.0,392.0 L 323.0,424.0 Q 323.0,473.0 325.0,548.0 L 327.0,604.0 Q 339.0,739.0 347.0,768.0 Q 359.0,788.0 339.0,804.0 L 324.0,813.0 Q 325.0,812.0 310.0,819.0 Q 279.0,837.0 261.0,833.0 Q 244.0,831.0 247.0,815.0 L 253.0,804.0 L 254.0,803.0 Q 276.0,774.0 276.0,741.0 L 276.0,582.0 L 274.0,534.0 Q 274.0,472.0 272.0,392.0 L 270.0,347.0" fill="black" stroke="#000000"/>
</svg>
